<svg width="500" height="1196" viewBox="0 0 500 1196" fill="none" xmlns="http://www.w3.org/2000/svg">
<rect width="500" height="56" fill="#2A78C7"/>
<path d="M210.774 28.6641V26.877L218.04 23.6543V25.7197L213.104 27.7119V27.7998L218.04 29.8066V31.8721L210.774 28.6641ZM229.407 25.4268C229.319 24.5918 228.646 24.0938 227.576 24.0938C226.463 24.0938 225.848 24.6064 225.833 25.3096C225.818 26.0713 226.624 26.4229 227.532 26.6279L228.484 26.8623C230.301 27.2725 231.663 28.1953 231.663 29.9678C231.663 31.916 230.14 33.1465 227.562 33.1465C224.998 33.1465 223.357 31.96 223.299 29.6895H225.438C225.511 30.7588 226.36 31.3008 227.532 31.3008C228.689 31.3008 229.437 30.7588 229.437 29.9678C229.437 29.25 228.777 28.9131 227.62 28.6201L226.463 28.3418C224.676 27.9023 223.577 27.0088 223.577 25.4561C223.577 23.5225 225.276 22.248 227.591 22.248C229.935 22.248 231.487 23.5518 231.517 25.4268H229.407ZM236.629 33.1611C234.197 33.1611 232.732 31.4766 232.732 29.0449C232.732 26.6133 234.212 24.9434 236.629 24.9434C238.68 24.9434 240.071 26.1445 240.159 27.9609H238.123C237.991 27.1699 237.479 26.6279 236.658 26.6279C235.618 26.6279 234.93 27.5068 234.93 29.0156C234.93 30.5537 235.604 31.4326 236.658 31.4326C237.42 31.4326 237.991 30.9639 238.123 30.1143H240.159C240.057 31.916 238.738 33.1611 236.629 33.1611ZM245.081 33.1611C242.679 33.1611 241.185 31.5059 241.185 29.0449C241.185 26.584 242.679 24.9434 245.081 24.9434C247.483 24.9434 248.992 26.584 248.992 29.0449C248.992 31.5059 247.483 33.1611 245.081 33.1611ZM245.096 31.4766C246.209 31.4766 246.78 30.4365 246.78 29.0449C246.78 27.6387 246.209 26.5986 245.096 26.5986C243.968 26.5986 243.382 27.6387 243.382 29.0449C243.382 30.4365 243.968 31.4766 245.096 31.4766ZM250.354 35.9883V25.0459H252.493V26.3789H252.581C252.874 25.7344 253.519 24.9434 254.852 24.9434C256.609 24.9434 258.074 26.3057 258.074 29.0303C258.074 31.6816 256.668 33.1318 254.852 33.1318C253.548 33.1318 252.889 32.3848 252.581 31.7256H252.522V35.9883H250.354ZM252.479 29.0156C252.479 30.4512 253.094 31.4033 254.163 31.4033C255.276 31.4033 255.862 30.4219 255.862 29.0156C255.862 27.624 255.276 26.6719 254.163 26.6719C253.079 26.6719 252.479 27.5801 252.479 29.0156ZM263.084 33.1611C260.652 33.1611 259.158 31.5791 259.158 29.0596C259.158 26.5986 260.667 24.9434 262.996 24.9434C265.091 24.9434 266.731 26.2617 266.731 28.9717V29.5869H261.297C261.297 30.7881 262.015 31.5352 263.128 31.5352C263.86 31.5352 264.388 31.2129 264.607 30.7295H266.673C266.365 32.1943 265.047 33.1611 263.084 33.1611ZM261.297 28.2246H264.681C264.681 27.2578 264.007 26.5693 263.04 26.5693C262.044 26.5693 261.333 27.3091 261.297 28.2246ZM272.005 33.1465C269.676 33.1465 268.006 31.8574 267.962 30.0117H270.188C270.232 30.8027 270.994 31.3301 272.02 31.3301C273.074 31.3301 273.836 30.7295 273.821 29.8799C273.836 29.0156 273.06 28.4004 271.814 28.4004H270.833V26.7744H271.814C272.854 26.7744 273.587 26.2031 273.587 25.3682C273.587 24.5625 272.972 24.0059 272.034 24.0059C271.097 24.0059 270.32 24.5332 270.291 25.3389H268.182C268.211 23.5078 269.866 22.248 272.034 22.248C274.246 22.248 275.726 23.5518 275.711 25.2363C275.726 26.4229 274.891 27.2725 273.704 27.4775V27.5654C275.257 27.7559 276.121 28.708 276.106 30.0264C276.121 31.8428 274.393 33.1465 272.005 33.1465ZM288.821 28.6641L281.556 31.8721V29.8066L286.492 27.7998V27.7119L281.556 25.7197V23.6543L288.821 26.877V28.6641Z" fill="white"/>
<path d="M0 56H500V1180C500 1188.84 492.837 1196 484 1196H16C7.16345 1196 0 1188.84 0 1180V56Z" fill="#F1F4F9"/>
<rect x="50" y="106" width="400" height="1030" rx="16" fill="#F1F4F9"/>
<g filter="url(#filter0_d_4084_27274)">
<rect x="50" y="106" width="400" height="140" rx="8" fill="white" shape-rendering="crispEdges"/>
<path d="M50 114C50 109.582 53.5817 106 58 106H442C446.418 106 450 109.582 450 114V176H50V114Z" fill="#00B7EA"/>
<path d="M92.5342 133.92V137.489H94.46V139.249H92.5342V142.818H90.4092V133.92H92.5342ZM92.5342 143.35V146.736H84.4326V147.517H93.0322V148.928H82.3076V145.458H90.4092V144.761H82.291V143.35H92.5342ZM80.2822 141.191C81.3862 141.2 82.6396 141.2 83.9512 141.158V140.494C82.2993 140.303 81.2783 139.614 81.2949 138.535C81.2783 137.307 82.7393 136.593 84.9971 136.593C87.2383 136.593 88.6826 137.307 88.6992 138.535C88.6826 139.614 87.6865 140.295 86.0596 140.494V141.092C87.2964 141.034 88.5415 140.934 89.7119 140.776L89.8613 142.088C86.6406 142.636 83.1377 142.652 80.498 142.652L80.2822 141.191ZM89.3301 134.866V136.277H80.6807V134.866H83.9512V133.787H86.0596V134.866H89.3301ZM84.9971 137.904C83.918 137.904 83.3037 138.104 83.3203 138.535C83.3037 138.983 83.918 139.216 84.9971 139.232C86.0596 139.216 86.6572 138.983 86.6738 138.535C86.6572 138.104 86.0596 137.904 84.9971 137.904ZM108.613 141.059V142.719H94.8006V141.059H100.678V139.764H96.4774V134.584H106.953V136.228H98.5858V138.104H107.036V139.764H102.753V141.059H108.613ZM101.674 143.482C104.944 143.482 106.92 144.479 106.936 146.271C106.92 148.031 104.944 149.044 101.674 149.044C98.37 149.044 96.3778 148.031 96.3778 146.271C96.3778 144.479 98.37 143.482 101.674 143.482ZM101.674 145.093C99.5819 145.093 98.5194 145.491 98.536 146.271C98.5194 147.068 99.5819 147.434 101.674 147.434C103.716 147.434 104.795 147.068 104.811 146.271C104.795 145.491 103.716 145.093 101.674 145.093ZM111.925 134.783V136.792H114.897V134.783H116.989V137.506H119.778V133.92H121.886V142.669H119.778V139.232H116.989V142.021H109.8V134.783H111.925ZM111.925 140.328H114.897V138.436H111.925V140.328ZM121.886 143.267V148.861H111.726V143.267H121.886ZM113.851 144.96V147.168H119.811V144.96H113.851ZM128.436 134.551C130.744 134.534 132.42 135.846 132.42 137.755C132.42 139.647 130.744 140.976 128.436 140.959C126.128 140.976 124.452 139.647 124.468 137.755C124.452 135.846 126.128 134.534 128.436 134.551ZM128.436 136.244C127.307 136.244 126.51 136.792 126.51 137.755C126.51 138.701 127.307 139.249 128.436 139.232C129.598 139.249 130.412 138.701 130.412 137.755C130.412 136.792 129.598 136.244 128.436 136.244ZM136.239 133.937V149.027H134.147V133.937H136.239ZM123.539 141.889C126.211 141.889 130.013 141.822 133.234 141.341L133.367 142.901C132.122 143.15 130.843 143.308 129.582 143.399V148.579H127.473V143.532C126.145 143.59 124.892 143.599 123.804 143.615L123.539 141.889ZM150.052 135.314V137.008H148.707V143.599C149.321 143.549 149.919 143.491 150.5 143.416L150.616 144.943C147.529 145.491 144.059 145.541 141.469 145.558L141.237 143.831L142.963 143.814V137.008H141.618V135.314H150.052ZM153.356 133.92V139.664H155.58V141.391H153.356V149.027H151.231V133.92H153.356ZM145.005 143.781L146.665 143.715V137.008H145.005V143.781ZM160.038 134.75C162.379 134.733 164.155 136.294 164.155 138.419C164.155 140.594 162.379 142.121 160.038 142.121C157.681 142.121 155.888 140.594 155.888 138.419C155.888 136.294 157.681 134.733 160.038 134.75ZM160.038 136.56C158.843 136.56 157.963 137.24 157.98 138.419C157.963 139.631 158.843 140.328 160.038 140.328C161.2 140.328 162.08 139.631 162.097 138.419C162.08 137.24 161.2 136.56 160.038 136.56ZM167.774 133.92V137.473H169.816V139.199H167.774V142.752H165.649V133.92H167.774ZM167.774 143.383V149.044H165.649V145.093H157.598V143.383H167.774Z" fill="white"/>
<path opacity="0.9" d="M87.7969 205.75C87.7917 207.245 87.6016 208.607 87.2266 209.836C86.8568 211.06 86.2031 212.203 85.2656 213.266C84.3281 214.328 83.0417 215.26 81.4062 216.062L80.5938 214.953C81.8281 214.349 82.8411 213.672 83.6328 212.922C84.4245 212.172 85.0339 211.341 85.4609 210.43L80.8906 210.859L80.6719 209.578L85.9219 209.227C86.1198 208.555 86.2474 207.797 86.3047 206.953H81.4062V205.75H87.7969ZM89.9375 204.328H91.4219V209.922H93.5938V211.141H91.4219V218.312H89.9375V204.328ZM100.078 207.172H96.2656V209.75H99.4531V210.906H96.2656V213.844C97.2344 213.833 98.0469 213.802 98.7031 213.75C99.3646 213.698 100.042 213.609 100.734 213.484L100.859 214.688C100.12 214.839 99.3958 214.935 98.6875 214.977C97.9792 215.018 97 215.042 95.75 215.047H94.8438V205.984H100.078V207.172ZM100.188 209.578H102.078V204.625H103.484V217.625H102.078V210.781H100.188V209.578ZM104.938 204.328H106.375V218.328H104.938V204.328ZM119.5 207.047C119.495 207.854 119.482 208.544 119.461 209.117C119.445 209.685 119.398 210.349 119.32 211.109C119.247 211.87 119.13 212.693 118.969 213.578L117.469 213.422C117.635 212.583 117.758 211.794 117.836 211.055C117.914 210.31 117.961 209.654 117.977 209.086C117.997 208.518 118.01 207.839 118.016 207.047V206.875H109.516V205.672H119.5V207.047ZM108.172 215.203H113.031V210.266H114.5V215.203H120.938V216.438H108.172V215.203ZM133.625 218.359H132.141V204.328H133.625V218.359ZM122.781 205.594H129.344V210.703H124.312V213.766C125.526 213.76 126.648 213.721 127.68 213.648C128.716 213.576 129.792 213.448 130.906 213.266L131.047 214.484C129.885 214.677 128.758 214.81 127.664 214.883C126.57 214.956 125.344 214.995 123.984 215H122.797V209.516H127.828V206.797H122.781V205.594ZM147.484 211.609H146.016V209.938H142.953V211.094H136.5V204.969H137.984V206.859H141.484V204.969H142.953V206.25H146.016V204.328H147.484V211.609ZM141.484 209.906V208H137.984V209.906H141.484ZM138.328 212.234H147.484V215.672H139.844V216.969H147.984V218.156H138.359V214.562H146.016V213.391H138.328V212.234ZM146.016 208.797V207.391H142.953V208.797H146.016ZM162.469 216.656H149.656V215.406H155.297V212.953H151.219V208.5H159.438V206.531H151.188V205.312H160.906V209.688H152.688V211.734H161.234V212.953H156.766V215.406H162.469V216.656ZM180.156 212.922H167.391V211.703H173.031V210.352C172.156 210.299 171.398 210.154 170.758 209.914C170.117 209.674 169.625 209.354 169.281 208.953C168.938 208.547 168.766 208.073 168.766 207.531C168.766 206.958 168.969 206.461 169.375 206.039C169.781 205.617 170.362 205.292 171.117 205.062C171.872 204.833 172.755 204.719 173.766 204.719C174.771 204.719 175.648 204.833 176.398 205.062C177.154 205.292 177.737 205.617 178.148 206.039C178.56 206.461 178.766 206.958 178.766 207.531C178.766 208.073 178.591 208.547 178.242 208.953C177.898 209.354 177.406 209.674 176.766 209.914C176.125 210.154 175.37 210.299 174.5 210.352V211.703H180.156V212.922ZM169 213.969H170.5V216.828H178.719V218.031H169V213.969ZM170.297 207.531C170.292 208.052 170.596 208.456 171.211 208.742C171.826 209.023 172.677 209.167 173.766 209.172C174.849 209.167 175.698 209.023 176.312 208.742C176.932 208.456 177.24 208.052 177.234 207.531C177.234 207.203 177.096 206.919 176.82 206.68C176.544 206.435 176.146 206.247 175.625 206.117C175.109 205.987 174.503 205.922 173.805 205.922C173.086 205.922 172.461 205.987 171.93 206.117C171.404 206.242 171 206.427 170.719 206.672C170.438 206.911 170.297 207.198 170.297 207.531ZM192.812 211.531H191.344V204.328H192.812V211.531ZM181.266 210.281C181.979 210.042 182.602 209.693 183.133 209.234C183.669 208.776 184.078 208.247 184.359 207.648C184.646 207.049 184.792 206.427 184.797 205.781V204.703H186.312V205.781C186.312 206.401 186.453 206.995 186.734 207.562C187.016 208.13 187.419 208.63 187.945 209.062C188.471 209.49 189.089 209.812 189.797 210.031L189.062 211.188C188.25 210.922 187.544 210.526 186.945 210C186.346 209.474 185.888 208.852 185.57 208.133C185.247 208.909 184.779 209.586 184.164 210.164C183.555 210.742 182.839 211.172 182.016 211.453L181.266 210.281ZM183.625 212.203H192.828V215.703H185.109V217H193.297V218.188H183.672V214.578H191.359V213.375H183.625V212.203ZM205.953 209.906H208.125V211.141H205.953V218.312H204.469V204.328H205.953V209.906ZM195.062 214.578C196.812 213.703 198.164 212.635 199.117 211.375C200.076 210.115 200.63 208.667 200.781 207.031H195.766V205.797H202.297C202.286 207.932 201.768 209.852 200.742 211.555C199.716 213.253 198.099 214.646 195.891 215.734L195.062 214.578ZM215.984 206.312C215.984 207.052 216.221 207.771 216.695 208.469C217.169 209.167 217.799 209.763 218.586 210.258C219.378 210.747 220.219 211.073 221.109 211.234L220.422 212.469C219.672 212.307 218.956 212.042 218.273 211.672C217.591 211.302 216.984 210.852 216.453 210.32C215.927 209.784 215.516 209.193 215.219 208.547C214.917 209.188 214.5 209.776 213.969 210.312C213.438 210.844 212.831 211.294 212.148 211.664C211.466 212.034 210.75 212.302 210 212.469L209.344 211.234C210.224 211.068 211.052 210.74 211.828 210.25C212.609 209.755 213.237 209.161 213.711 208.469C214.185 207.771 214.422 207.052 214.422 206.312V205.25H215.984V206.312ZM208.875 215.25H221.688V216.484H208.875V215.25ZM228.484 208.969H231.156V205.625H232.531V214.875H227.078V205.625H228.484V208.969ZM231.156 213.672V210.141H228.484V213.672H231.156ZM234.094 204.594H235.5V209.812H237.234V204.328H238.656V218.328H237.234V211.031H235.5V217.641H234.094V204.594ZM253.188 211.578H247.547V212.75H251.594V215.906H243.438V217.062H251.984V218.188H241.984V214.875H250.125V213.828H241.969V212.75H246.078V211.578H240.453V210.469H253.188V211.578ZM241.078 208.797C241.969 208.75 242.763 208.63 243.461 208.438C244.159 208.245 244.724 207.995 245.156 207.688C245.589 207.38 245.854 207.031 245.953 206.641H241.719V205.5H246.078V204.266H247.547V205.5H251.922V206.641H247.664C247.763 207.031 248.026 207.38 248.453 207.688C248.885 207.995 249.453 208.245 250.156 208.438C250.865 208.63 251.667 208.75 252.562 208.797L252.109 209.922C250.859 209.828 249.771 209.602 248.844 209.242C247.917 208.883 247.24 208.404 246.812 207.805C246.385 208.404 245.706 208.883 244.773 209.242C243.846 209.602 242.755 209.828 241.5 209.922L241.078 208.797ZM265.281 207.812H267.281V209.078H265.281V212.578H263.797V204.328H265.281V207.812ZM254.172 211.25C255.516 211.25 256.734 211.237 257.828 211.211V210.422C257.01 210.349 256.372 210.154 255.914 209.836C255.456 209.513 255.229 209.094 255.234 208.578C255.229 208.203 255.362 207.88 255.633 207.609C255.904 207.333 256.289 207.125 256.789 206.984C257.294 206.839 257.885 206.766 258.562 206.766C259.234 206.766 259.82 206.839 260.32 206.984C260.82 207.125 261.206 207.333 261.477 207.609C261.753 207.88 261.891 208.203 261.891 208.578C261.885 209.089 261.654 209.505 261.195 209.828C260.742 210.146 260.115 210.344 259.312 210.422V211.148C260.672 211.091 261.901 210.984 263 210.828L263.125 211.797C261.797 212.016 260.422 212.156 259 212.219C257.583 212.281 256.026 212.312 254.328 212.312L254.172 211.25ZM254.531 205.328H257.828V204.203H259.312V205.328H262.609V206.359H254.531V205.328ZM256.031 213.172H265.281V216.094H257.547V217.156H265.797V218.188H256.062V215.141H263.812V214.203H256.031V213.172ZM256.641 208.578C256.641 208.859 256.81 209.081 257.148 209.242C257.492 209.404 257.964 209.484 258.562 209.484C259.156 209.484 259.622 209.404 259.961 209.242C260.305 209.081 260.474 208.859 260.469 208.578C260.474 208.312 260.305 208.107 259.961 207.961C259.622 207.81 259.156 207.734 258.562 207.734C257.958 207.734 257.487 207.81 257.148 207.961C256.81 208.107 256.641 208.312 256.641 208.578ZM280.875 212.328H268.094V211.141H273.766V209.656H269.688V204.969H279.297V206.141H271.156V208.469H279.391V209.656H275.203V211.141H280.875V212.328ZM269.609 215.781C269.609 215.245 269.802 214.786 270.188 214.406C270.573 214.026 271.13 213.737 271.859 213.539C272.589 213.336 273.458 213.234 274.469 213.234C275.474 213.234 276.336 213.336 277.055 213.539C277.779 213.737 278.333 214.026 278.719 214.406C279.104 214.786 279.297 215.245 279.297 215.781C279.297 216.318 279.104 216.776 278.719 217.156C278.333 217.536 277.779 217.826 277.055 218.023C276.336 218.227 275.474 218.328 274.469 218.328C273.458 218.328 272.589 218.227 271.859 218.023C271.13 217.826 270.573 217.536 270.188 217.156C269.802 216.776 269.609 216.318 269.609 215.781ZM271.109 215.781C271.104 216.229 271.393 216.573 271.977 216.812C272.565 217.052 273.396 217.167 274.469 217.156C275.526 217.167 276.346 217.052 276.93 216.812C277.518 216.573 277.812 216.229 277.812 215.781C277.812 215.339 277.518 214.997 276.93 214.758C276.346 214.513 275.526 214.391 274.469 214.391C273.401 214.391 272.573 214.513 271.984 214.758C271.396 214.997 271.104 215.339 271.109 215.781ZM298.625 212.844H293.062V215.422H291.594V212.844H285.812V211.656H298.625V212.844ZM287.406 214.203H288.875V216.828H297.203V218.031H287.406V214.203ZM287.5 204.766H288.969V206.469H295.453V204.766H296.938V210.422H287.5V204.766ZM295.453 209.234V207.578H288.969V209.234H295.453ZM312.453 213.812H309.234V218.328H307.734V213.812H304.359V218.328H302.875V213.812H299.641V212.641H312.453V213.812ZM301.156 204.828H310.938V208.578H302.688V210.125H311.234V211.328H301.203V207.469H309.422V206.047H301.156V204.828Z" fill="#393939"/>
</g>
<path opacity="0.5" d="M249.47 289.53C249.763 289.823 250.237 289.823 250.53 289.53L255.303 284.757C255.596 284.464 255.596 283.99 255.303 283.697C255.01 283.404 254.536 283.404 254.243 283.697L250 287.939L245.757 283.697C245.464 283.404 244.99 283.404 244.697 283.697C244.404 283.99 244.404 284.464 244.697 284.757L249.47 289.53ZM249.25 249L249.25 250.429L250.75 250.429L250.75 249L249.25 249ZM249.25 253.286L249.25 256.143L250.75 256.143L250.75 253.286L249.25 253.286ZM249.25 259L249.25 261.857L250.75 261.857L250.75 259L249.25 259ZM249.25 264.714L249.25 267.571L250.75 267.571L250.75 264.714L249.25 264.714ZM249.25 270.429L249.25 273.286L250.75 273.286L250.75 270.429L249.25 270.429ZM249.25 276.143L249.25 279L250.75 279L250.75 276.143L249.25 276.143ZM249.25 281.857L249.25 284.714L250.75 284.714L250.75 281.857L249.25 281.857ZM249.25 287.571L249.25 289L250.75 289L250.75 287.571L249.25 287.571Z" fill="url(#paint0_linear_4084_27274)"/>
<g filter="url(#filter1_d_4084_27274)">
<rect x="50" y="298" width="400" height="140" rx="8" fill="white" shape-rendering="crispEdges"/>
<path d="M50 306C50 301.582 53.5817 298 58 298H442C446.418 298 450 301.582 450 306V368H50V306Z" fill="#0568CC"/>
<path d="M86.0264 328.51C86.0098 330.436 87.1055 332.312 89.5625 333.108L88.4502 334.769C86.7983 334.212 85.6611 333.125 85.0137 331.747C84.333 333.266 83.1294 334.453 81.3779 335.051L80.1992 333.374C82.7725 332.577 83.8848 330.552 83.9014 328.493V326.85H86.0264V328.51ZM92.4346 325.92V330.286H94.4766V332.079H92.4346V336.993H90.3096V325.92H92.4346ZM92.999 339.068V340.762H82.623V335.897H84.7812V339.068H92.999ZM107.534 325.92V334.885H105.426V331.315H103.068V329.605H105.426V325.92H107.534ZM102.371 335.217C105.592 335.233 107.567 336.296 107.584 338.139C107.567 339.965 105.592 341.044 102.371 341.044C99.1502 341.044 97.1746 339.965 97.1746 338.139C97.1746 336.296 99.1502 335.233 102.371 335.217ZM102.371 336.844C100.362 336.844 99.283 337.259 99.283 338.139C99.283 339.002 100.362 339.434 102.371 339.434C104.38 339.434 105.475 339.002 105.475 338.139C105.475 337.259 104.38 336.844 102.371 336.844ZM103.516 326.833V328.526H100.512C100.561 330.286 101.624 332.062 103.981 332.843L102.935 334.503C101.267 333.963 100.121 332.868 99.4657 331.498C98.7933 333.042 97.5897 334.287 95.7967 334.901L94.701 333.225C97.1829 332.395 98.2953 330.419 98.3534 328.526H95.3153V326.833H103.516ZM111.925 326.783V328.792H114.897V326.783H116.989V329.506H119.778V325.92H121.886V334.669H119.778V331.232H116.989V334.021H109.8V326.783H111.925ZM111.925 332.328H114.897V330.436H111.925V332.328ZM121.886 335.267V340.861H111.726V335.267H121.886ZM113.851 336.96V339.168H119.811V336.96H113.851ZM128.436 326.551C130.744 326.534 132.42 327.846 132.42 329.755C132.42 331.647 130.744 332.976 128.436 332.959C126.128 332.976 124.452 331.647 124.468 329.755C124.452 327.846 126.128 326.534 128.436 326.551ZM128.436 328.244C127.307 328.244 126.51 328.792 126.51 329.755C126.51 330.701 127.307 331.249 128.436 331.232C129.598 331.249 130.412 330.701 130.412 329.755C130.412 328.792 129.598 328.244 128.436 328.244ZM136.239 325.937V341.027H134.147V325.937H136.239ZM123.539 333.889C126.211 333.889 130.013 333.822 133.234 333.341L133.367 334.901C132.122 335.15 130.843 335.308 129.582 335.399V340.579H127.473V335.532C126.145 335.59 124.892 335.599 123.804 335.615L123.539 333.889ZM154.169 325.92V333.606H152.061V329.854H149.222V328.178H152.061V325.92H154.169ZM154.169 334.237V338.271H146.234V339.201H154.601V340.861H144.142V336.728H152.077V335.864H144.125V334.237H154.169ZM147.097 327.514C147.08 329.323 148.143 331.066 150.55 331.78L149.438 333.407C147.819 332.884 146.69 331.872 146.034 330.568C145.379 332.021 144.183 333.167 142.415 333.723L141.32 332.046C143.826 331.315 144.939 329.473 144.955 327.514V326.418H147.097V327.514ZM168.522 325.92V334.885H166.413V331.315H164.056V329.605H166.413V325.92H168.522ZM163.358 335.217C166.579 335.233 168.555 336.296 168.571 338.139C168.555 339.965 166.579 341.044 163.358 341.044C160.138 341.044 158.162 339.965 158.162 338.139C158.162 336.296 160.138 335.233 163.358 335.217ZM163.358 336.844C161.35 336.844 160.271 337.259 160.271 338.139C160.271 339.002 161.35 339.434 163.358 339.434C165.367 339.434 166.463 339.002 166.463 338.139C166.463 337.259 165.367 336.844 163.358 336.844ZM164.504 326.833V328.526H161.499C161.549 330.286 162.611 332.062 164.969 332.843L163.923 334.503C162.254 333.963 161.109 332.868 160.453 331.498C159.781 333.042 158.577 334.287 156.784 334.901L155.689 333.225C158.17 332.395 159.283 330.419 159.341 328.526H156.303V326.833H164.504Z" fill="white"/>
<path opacity="0.9" d="M85.375 398.891C85.375 399.516 85.513 400.117 85.7891 400.695C86.0703 401.273 86.4688 401.786 86.9844 402.234C87.5052 402.677 88.1146 403.016 88.8125 403.25L88.0469 404.422C87.2708 404.151 86.5938 403.75 86.0156 403.219C85.4427 402.682 85 402.057 84.6875 401.344C84.3802 402.141 83.9297 402.833 83.3359 403.422C82.7474 404.005 82.0469 404.448 81.2344 404.75L80.4062 403.578C81.1302 403.328 81.7552 402.966 82.2812 402.492C82.8073 402.013 83.2083 401.461 83.4844 400.836C83.7604 400.206 83.901 399.542 83.9062 398.844V397.188H85.375V398.891ZM82.6562 405.641H84.1719V408.828H92.125V410.031H82.6562V405.641ZM90.0312 396.312H91.5156V400.531H93.5469V401.797H91.5156V406.641H90.0312V396.312ZM106.016 404.656H104.531V401.109H101.922V399.891H104.531V396.328H106.016V404.656ZM94.3438 403.391C95.0521 403.141 95.6719 402.781 96.2031 402.312C96.7344 401.839 97.1406 401.299 97.4219 400.695C97.7083 400.086 97.849 399.458 97.8438 398.812V398.5H94.8125V397.297H102.359V398.5H99.3594V398.797C99.3542 399.391 99.487 399.966 99.7578 400.523C100.029 401.081 100.419 401.578 100.93 402.016C101.44 402.448 102.042 402.781 102.734 403.016L101.969 404.188C101.198 403.922 100.526 403.526 99.9531 403C99.3854 402.469 98.9453 401.849 98.6328 401.141C98.3255 401.932 97.8698 402.628 97.2656 403.227C96.6615 403.826 95.9479 404.276 95.125 404.578L94.3438 403.391ZM96.5938 407.688C96.5938 407.135 96.7812 406.664 97.1562 406.273C97.5365 405.878 98.0807 405.576 98.7891 405.367C99.5026 405.154 100.349 405.047 101.328 405.047C102.302 405.047 103.143 405.154 103.852 405.367C104.56 405.576 105.104 405.878 105.484 406.273C105.87 406.664 106.062 407.135 106.062 407.688C106.062 408.24 105.87 408.711 105.484 409.102C105.104 409.497 104.56 409.799 103.852 410.008C103.143 410.221 102.302 410.328 101.328 410.328C100.349 410.328 99.5026 410.221 98.7891 410.008C98.0807 409.799 97.5365 409.497 97.1562 409.102C96.7812 408.711 96.5938 408.24 96.5938 407.688ZM98.0625 407.688C98.0573 408.161 98.3411 408.529 98.9141 408.789C99.4922 409.044 100.297 409.167 101.328 409.156C102.349 409.167 103.146 409.044 103.719 408.789C104.297 408.529 104.589 408.161 104.594 407.688C104.589 407.219 104.302 406.854 103.734 406.594C103.172 406.333 102.385 406.203 101.375 406.203C100.323 406.203 99.5052 406.331 98.9219 406.586C98.3438 406.841 98.0573 407.208 98.0625 407.688ZM110.328 399.234H113.828V397.125H115.297V399.797H118.359V396.328H119.844V404.438H118.359V401.031H115.297V403.719H108.844V397.125H110.328V399.234ZM113.828 402.531V400.406H110.328V402.531H113.828ZM110.609 405.094H119.844V410.156H110.609V405.094ZM118.391 408.953V406.281H112.078V408.953H118.391ZM126.594 396.969C127.292 396.969 127.917 397.091 128.469 397.336C129.021 397.576 129.453 397.917 129.766 398.359C130.078 398.802 130.234 399.307 130.234 399.875C130.234 400.438 130.078 400.94 129.766 401.383C129.453 401.826 129.021 402.169 128.469 402.414C127.917 402.654 127.292 402.771 126.594 402.766C125.901 402.771 125.279 402.654 124.727 402.414C124.18 402.169 123.753 401.826 123.445 401.383C123.138 400.94 122.984 400.438 122.984 399.875C122.984 399.307 123.138 398.802 123.445 398.359C123.753 397.917 124.18 397.576 124.727 397.336C125.279 397.091 125.901 396.969 126.594 396.969ZM121.984 403.859C123.667 403.859 125.281 403.826 126.828 403.758C128.38 403.685 129.839 403.547 131.203 403.344L131.312 404.453C130.13 404.677 128.833 404.836 127.422 404.93V409.891H125.938V405.016C125.052 405.057 123.802 405.083 122.188 405.094L121.984 403.859ZM124.422 399.875C124.417 400.208 124.505 400.503 124.688 400.758C124.875 401.013 125.133 401.211 125.461 401.352C125.794 401.487 126.172 401.552 126.594 401.547C127.026 401.552 127.409 401.487 127.742 401.352C128.081 401.211 128.344 401.013 128.531 400.758C128.719 400.503 128.812 400.208 128.812 399.875C128.812 399.536 128.719 399.24 128.531 398.984C128.344 398.724 128.081 398.523 127.742 398.383C127.409 398.242 127.026 398.172 126.594 398.172C126.172 398.172 125.794 398.242 125.461 398.383C125.133 398.523 124.875 398.724 124.688 398.984C124.505 399.245 124.417 399.542 124.422 399.875ZM132.172 396.344H133.641V410.328H132.172V396.344ZM147.125 402.969H140.469V397.219H147.125V402.969ZM141.391 409.141C142.219 409.057 142.982 408.878 143.68 408.602C144.378 408.32 144.935 407.982 145.352 407.586C145.773 407.185 146 406.776 146.031 406.359H141.953V405.234H146.062V403.922H147.531V405.234H151.656V406.359H147.562C147.594 406.766 147.815 407.167 148.227 407.562C148.643 407.953 149.195 408.292 149.883 408.578C150.57 408.859 151.328 409.047 152.156 409.141L151.656 410.281C150.568 410.151 149.594 409.867 148.734 409.43C147.875 408.992 147.232 408.464 146.805 407.844C146.372 408.469 145.721 408.997 144.852 409.43C143.987 409.867 143.005 410.151 141.906 410.281L141.391 409.141ZM145.656 401.812V398.406H141.922V401.812H145.656ZM149.859 396.328H151.328V404.328H149.859V396.328ZM169.484 410.328H168.062V396.328H169.484V410.328ZM157.266 406.469C157.906 406.083 158.451 405.562 158.898 404.906C159.352 404.25 159.69 403.521 159.914 402.719C160.143 401.911 160.26 401.083 160.266 400.234V399.109H157.688V397.906H164.094V399.109H161.688V400.234C161.688 401.047 161.797 401.836 162.016 402.602C162.24 403.367 162.57 404.06 163.008 404.68C163.451 405.299 163.99 405.792 164.625 406.156L163.734 407.25C163.083 406.865 162.526 406.333 162.062 405.656C161.604 404.979 161.247 404.206 160.992 403.336C160.737 404.279 160.37 405.117 159.891 405.852C159.411 406.586 158.839 407.161 158.172 407.578L157.266 406.469ZM163.062 401.281H165.234V396.625H166.641V409.625H165.234V402.5H163.062V401.281ZM175.859 397.219C176.589 397.219 177.242 397.359 177.82 397.641C178.398 397.922 178.852 398.315 179.18 398.82C179.508 399.326 179.672 399.901 179.672 400.547C179.672 401.12 179.542 401.638 179.281 402.102C179.021 402.565 178.659 402.945 178.195 403.242C177.732 403.539 177.198 403.732 176.594 403.82V406.031C177.995 405.964 179.302 405.844 180.516 405.672L180.625 406.75C179.234 407.005 177.826 407.169 176.398 407.242C174.971 407.315 173.359 407.354 171.562 407.359L171.375 406.141C172.781 406.141 174.026 406.125 175.109 406.094V403.82C174.505 403.732 173.971 403.539 173.508 403.242C173.044 402.94 172.685 402.557 172.43 402.094C172.174 401.63 172.047 401.115 172.047 400.547C172.047 399.901 172.208 399.326 172.531 398.82C172.859 398.315 173.312 397.922 173.891 397.641C174.474 397.359 175.13 397.219 175.859 397.219ZM173.516 400.547C173.51 400.948 173.607 401.305 173.805 401.617C174.008 401.93 174.289 402.172 174.648 402.344C175.008 402.516 175.411 402.599 175.859 402.594C176.307 402.599 176.711 402.516 177.07 402.344C177.43 402.172 177.711 401.93 177.914 401.617C178.117 401.305 178.219 400.948 178.219 400.547C178.219 400.141 178.117 399.784 177.914 399.477C177.711 399.164 177.43 398.924 177.07 398.758C176.716 398.586 176.312 398.5 175.859 398.5C175.406 398.5 175 398.586 174.641 398.758C174.286 398.924 174.008 399.164 173.805 399.477C173.607 399.784 173.51 400.141 173.516 400.547ZM181.391 396.328H182.875V410.359H181.391V396.328ZM191.188 399.234H194.688V397.125H196.156V399.797H199.219V396.328H200.703V404.438H199.219V401.031H196.156V403.719H189.703V397.125H191.188V399.234ZM194.688 402.531V400.406H191.188V402.531H194.688ZM191.469 405.094H200.703V410.156H191.469V405.094ZM199.25 408.953V406.281H192.938V408.953H199.25ZM207.453 396.969C208.151 396.969 208.776 397.091 209.328 397.336C209.88 397.576 210.312 397.917 210.625 398.359C210.938 398.802 211.094 399.307 211.094 399.875C211.094 400.438 210.938 400.94 210.625 401.383C210.312 401.826 209.88 402.169 209.328 402.414C208.776 402.654 208.151 402.771 207.453 402.766C206.76 402.771 206.138 402.654 205.586 402.414C205.039 402.169 204.612 401.826 204.305 401.383C203.997 400.94 203.844 400.438 203.844 399.875C203.844 399.307 203.997 398.802 204.305 398.359C204.612 397.917 205.039 397.576 205.586 397.336C206.138 397.091 206.76 396.969 207.453 396.969ZM202.844 403.859C204.526 403.859 206.141 403.826 207.688 403.758C209.24 403.685 210.698 403.547 212.062 403.344L212.172 404.453C210.99 404.677 209.693 404.836 208.281 404.93V409.891H206.797V405.016C205.911 405.057 204.661 405.083 203.047 405.094L202.844 403.859ZM205.281 399.875C205.276 400.208 205.365 400.503 205.547 400.758C205.734 401.013 205.992 401.211 206.32 401.352C206.654 401.487 207.031 401.552 207.453 401.547C207.885 401.552 208.268 401.487 208.602 401.352C208.94 401.211 209.203 401.013 209.391 400.758C209.578 400.503 209.672 400.208 209.672 399.875C209.672 399.536 209.578 399.24 209.391 398.984C209.203 398.724 208.94 398.523 208.602 398.383C208.268 398.242 207.885 398.172 207.453 398.172C207.031 398.172 206.654 398.242 206.32 398.383C205.992 398.523 205.734 398.724 205.547 398.984C205.365 399.245 205.276 399.542 205.281 399.875ZM213.031 396.344H214.5V410.328H213.031V396.344ZM232.266 404.594H230.781V402.516H227.734V403.656H221.234V397.375H227.734V398.531H230.781V396.328H232.266V404.594ZM226.281 402.469V398.562H222.703V402.469H226.281ZM222.844 407.656C222.844 407.094 223.031 406.612 223.406 406.211C223.786 405.81 224.331 405.505 225.039 405.297C225.753 405.089 226.599 404.984 227.578 404.984C228.552 404.984 229.393 405.089 230.102 405.297C230.81 405.505 231.354 405.81 231.734 406.211C232.12 406.612 232.312 407.094 232.312 407.656C232.312 408.214 232.12 408.69 231.734 409.086C231.354 409.482 230.81 409.781 230.102 409.984C229.393 410.193 228.552 410.297 227.578 410.297C226.599 410.297 225.753 410.193 225.039 409.984C224.331 409.781 223.786 409.482 223.406 409.086C223.031 408.69 222.844 408.214 222.844 407.656ZM224.312 407.656C224.312 407.969 224.44 408.237 224.695 408.461C224.956 408.685 225.331 408.857 225.82 408.977C226.31 409.096 226.896 409.156 227.578 409.156C228.255 409.156 228.839 409.096 229.328 408.977C229.818 408.857 230.193 408.685 230.453 408.461C230.714 408.237 230.844 407.969 230.844 407.656C230.839 407.167 230.549 406.792 229.977 406.531C229.404 406.266 228.604 406.13 227.578 406.125C226.542 406.13 225.737 406.266 225.164 406.531C224.591 406.792 224.307 407.167 224.312 407.656ZM230.781 401.312V399.719H227.734V401.312H230.781ZM239.562 399.891C239.557 400.734 239.711 401.565 240.023 402.383C240.341 403.201 240.781 403.927 241.344 404.562C241.911 405.193 242.552 405.667 243.266 405.984L242.375 407.156C241.578 406.776 240.872 406.214 240.258 405.469C239.643 404.724 239.169 403.87 238.836 402.906C238.508 403.948 238.029 404.867 237.398 405.664C236.773 406.461 236.047 407.062 235.219 407.469L234.312 406.219C235.036 405.901 235.682 405.414 236.25 404.758C236.818 404.096 237.26 403.341 237.578 402.492C237.901 401.638 238.062 400.771 238.062 399.891V397.5H239.562V399.891ZM244.531 396.328H246.016V410.359H244.531V396.328Z" fill="#393939"/>
</g>
<path opacity="0.5" d="M249.47 481.53C249.763 481.823 250.237 481.823 250.53 481.53L255.303 476.757C255.596 476.464 255.596 475.99 255.303 475.697C255.01 475.404 254.536 475.404 254.243 475.697L250 479.939L245.757 475.697C245.464 475.404 244.99 475.404 244.697 475.697C244.404 475.99 244.404 476.464 244.697 476.757L249.47 481.53ZM249.25 441L249.25 442.429L250.75 442.429L250.75 441L249.25 441ZM249.25 445.286L249.25 448.143L250.75 448.143L250.75 445.286L249.25 445.286ZM249.25 451L249.25 453.857L250.75 453.857L250.75 451L249.25 451ZM249.25 456.714L249.25 459.571L250.75 459.571L250.75 456.714L249.25 456.714ZM249.25 462.429L249.25 465.286L250.75 465.286L250.75 462.429L249.25 462.429ZM249.25 468.143L249.25 471L250.75 471L250.75 468.143L249.25 468.143ZM249.25 473.857L249.25 476.714L250.75 476.714L250.75 473.857L249.25 473.857ZM249.25 479.571L249.25 481L250.75 481L250.75 479.571L249.25 479.571Z" fill="url(#paint1_linear_4084_27274)"/>
<g filter="url(#filter2_d_4084_27274)">
<rect x="50" y="490" width="400" height="140" rx="8" fill="white" shape-rendering="crispEdges"/>
<path d="M50 498C50 493.582 53.5817 490 58 490H442C446.418 490 450 493.582 450 498V560H50V498Z" fill="#0651AE"/>
<path d="M92.5342 517.92V521.489H94.46V523.249H92.5342V526.818H90.4092V517.92H92.5342ZM92.5342 527.35V530.736H84.4326V531.517H93.0322V532.928H82.3076V529.458H90.4092V528.761H82.291V527.35H92.5342ZM80.2822 525.191C81.3862 525.2 82.6396 525.2 83.9512 525.158V524.494C82.2993 524.303 81.2783 523.614 81.2949 522.535C81.2783 521.307 82.7393 520.593 84.9971 520.593C87.2383 520.593 88.6826 521.307 88.6992 522.535C88.6826 523.614 87.6865 524.295 86.0596 524.494V525.092C87.2964 525.034 88.5415 524.934 89.7119 524.776L89.8613 526.088C86.6406 526.636 83.1377 526.652 80.498 526.652L80.2822 525.191ZM89.3301 518.866V520.277H80.6807V518.866H83.9512V517.787H86.0596V518.866H89.3301ZM84.9971 521.904C83.918 521.904 83.3037 522.104 83.3203 522.535C83.3037 522.983 83.918 523.216 84.9971 523.232C86.0596 523.216 86.6572 522.983 86.6738 522.535C86.6572 522.104 86.0596 521.904 84.9971 521.904ZM108.613 525.059V526.719H94.8006V525.059H100.678V523.764H96.4774V518.584H106.953V520.228H98.5858V522.104H107.036V523.764H102.753V525.059H108.613ZM101.674 527.482C104.944 527.482 106.92 528.479 106.936 530.271C106.92 532.031 104.944 533.044 101.674 533.044C98.37 533.044 96.3778 532.031 96.3778 530.271C96.3778 528.479 98.37 527.482 101.674 527.482ZM101.674 529.093C99.5819 529.093 98.5194 529.491 98.536 530.271C98.5194 531.068 99.5819 531.434 101.674 531.434C103.716 531.434 104.795 531.068 104.811 530.271C104.795 529.491 103.716 529.093 101.674 529.093ZM113.951 531.5H109.717V519.48H114.001C117.62 519.48 119.828 521.738 119.828 525.474C119.828 529.242 117.62 531.5 113.951 531.5ZM112.208 529.358H113.851C116.142 529.358 117.338 528.163 117.338 525.474C117.338 522.801 116.142 521.622 113.868 521.622H112.208V529.358ZM120.816 528.977C120.816 526.968 122.443 526.304 124.169 526.204C124.817 526.163 126.029 526.104 126.411 526.088V525.357C126.394 524.61 125.879 524.162 124.966 524.162C124.136 524.162 123.605 524.544 123.472 525.158H121.131C121.281 523.598 122.642 522.369 125.033 522.369C126.992 522.369 128.851 523.249 128.851 525.424V531.5H126.527V530.255H126.46C126.012 531.085 125.166 531.666 123.821 531.666C122.094 531.666 120.816 530.77 120.816 528.977ZM123.173 528.91C123.173 529.607 123.738 529.973 124.518 529.973C125.63 529.973 126.427 529.226 126.411 528.279V527.615C126.037 527.632 124.991 527.69 124.568 527.731C123.721 527.814 123.173 528.213 123.173 528.91ZM135.135 522.485V524.328H133.442V528.728C133.442 529.441 133.79 529.624 134.288 529.641C134.537 529.641 134.969 529.624 135.268 529.591V531.533C135.002 531.583 134.571 531.616 133.956 531.616C132.18 531.616 130.968 530.819 130.985 529.076V524.328H129.74V522.485H130.985V520.327H133.442V522.485H135.135ZM135.907 528.977C135.907 526.968 137.534 526.304 139.261 526.204C139.908 526.163 141.12 526.104 141.502 526.088V525.357C141.486 524.61 140.971 524.162 140.058 524.162C139.228 524.162 138.696 524.544 138.564 525.158H136.223C136.372 523.598 137.734 522.369 140.124 522.369C142.083 522.369 143.943 523.249 143.943 525.424V531.5H141.618V530.255H141.552C141.104 531.085 140.257 531.666 138.912 531.666C137.186 531.666 135.907 530.77 135.907 528.977ZM138.265 528.91C138.265 529.607 138.829 529.973 139.61 529.973C140.722 529.973 141.519 529.226 141.502 528.279V527.615C141.129 527.632 140.083 527.69 139.659 527.731C138.813 527.814 138.265 528.213 138.265 528.91ZM156.56 519.099C156.56 520.875 158.37 522.851 161.84 523.282L161.01 524.992C158.37 524.61 156.436 523.39 155.448 521.755C154.452 523.39 152.535 524.61 149.92 524.992L149.073 523.282C152.51 522.851 154.336 520.875 154.336 519.099V518.368H156.56V519.099ZM162.321 526.138V527.864H156.444V533.027H154.352V527.864H148.542V526.138H162.321ZM171.826 518.75V520.443H168.804C168.904 522.037 170.041 523.631 172.407 524.278L171.344 525.922C169.618 525.432 168.406 524.395 167.725 523.066C167.036 524.502 165.8 525.64 164.007 526.188L162.944 524.527C165.351 523.83 166.522 522.153 166.63 520.443H163.525V518.75H171.826ZM175.545 517.92V526.121H173.42V517.92H175.545ZM167.526 526.752V528.163H173.436V526.752H175.545V532.861H165.434V526.752H167.526ZM167.526 531.168H173.436V529.807H167.526V531.168Z" fill="white"/>
<path opacity="0.9" d="M87.7969 589.75C87.7917 591.245 87.6016 592.607 87.2266 593.836C86.8568 595.06 86.2031 596.203 85.2656 597.266C84.3281 598.328 83.0417 599.26 81.4062 600.062L80.5938 598.953C81.8281 598.349 82.8411 597.672 83.6328 596.922C84.4245 596.172 85.0339 595.341 85.4609 594.43L80.8906 594.859L80.6719 593.578L85.9219 593.227C86.1198 592.555 86.2474 591.797 86.3047 590.953H81.4062V589.75H87.7969ZM89.9375 588.328H91.4219V593.922H93.5938V595.141H91.4219V602.312H89.9375V588.328ZM100.078 591.172H96.2656V593.75H99.4531V594.906H96.2656V597.844C97.2344 597.833 98.0469 597.802 98.7031 597.75C99.3646 597.698 100.042 597.609 100.734 597.484L100.859 598.688C100.12 598.839 99.3958 598.935 98.6875 598.977C97.9792 599.018 97 599.042 95.75 599.047H94.8438V589.984H100.078V591.172ZM100.188 593.578H102.078V588.625H103.484V601.625H102.078V594.781H100.188V593.578ZM104.938 588.328H106.375V602.328H104.938V588.328ZM119.5 591.047C119.495 591.854 119.482 592.544 119.461 593.117C119.445 593.685 119.398 594.349 119.32 595.109C119.247 595.87 119.13 596.693 118.969 597.578L117.469 597.422C117.635 596.583 117.758 595.794 117.836 595.055C117.914 594.31 117.961 593.654 117.977 593.086C117.997 592.518 118.01 591.839 118.016 591.047V590.875H109.516V589.672H119.5V591.047ZM108.172 599.203H113.031V594.266H114.5V599.203H120.938V600.438H108.172V599.203ZM133.625 602.359H132.141V588.328H133.625V602.359ZM122.781 589.594H129.344V594.703H124.312V597.766C125.526 597.76 126.648 597.721 127.68 597.648C128.716 597.576 129.792 597.448 130.906 597.266L131.047 598.484C129.885 598.677 128.758 598.81 127.664 598.883C126.57 598.956 125.344 598.995 123.984 599H122.797V593.516H127.828V590.797H122.781V589.594ZM147.484 595.609H146.016V593.938H142.953V595.094H136.5V588.969H137.984V590.859H141.484V588.969H142.953V590.25H146.016V588.328H147.484V595.609ZM141.484 593.906V592H137.984V593.906H141.484ZM138.328 596.234H147.484V599.672H139.844V600.969H147.984V602.156H138.359V598.562H146.016V597.391H138.328V596.234ZM146.016 592.797V591.391H142.953V592.797H146.016ZM158.422 590.891C158.422 591.516 158.56 592.117 158.836 592.695C159.117 593.273 159.516 593.786 160.031 594.234C160.552 594.677 161.161 595.016 161.859 595.25L161.094 596.422C160.318 596.151 159.641 595.75 159.062 595.219C158.49 594.682 158.047 594.057 157.734 593.344C157.427 594.141 156.977 594.833 156.383 595.422C155.794 596.005 155.094 596.448 154.281 596.75L153.453 595.578C154.177 595.328 154.802 594.966 155.328 594.492C155.854 594.013 156.255 593.461 156.531 592.836C156.807 592.206 156.948 591.542 156.953 590.844V589.188H158.422V590.891ZM155.703 597.641H157.219V600.828H165.172V602.031H155.703V597.641ZM163.078 588.312H164.562V592.531H166.594V593.797H164.562V598.641H163.078V588.312ZM179.062 596.656H177.578V593.109H174.969V591.891H177.578V588.328H179.062V596.656ZM167.391 595.391C168.099 595.141 168.719 594.781 169.25 594.312C169.781 593.839 170.188 593.299 170.469 592.695C170.755 592.086 170.896 591.458 170.891 590.812V590.5H167.859V589.297H175.406V590.5H172.406V590.797C172.401 591.391 172.534 591.966 172.805 592.523C173.076 593.081 173.466 593.578 173.977 594.016C174.487 594.448 175.089 594.781 175.781 595.016L175.016 596.188C174.245 595.922 173.573 595.526 173 595C172.432 594.469 171.992 593.849 171.68 593.141C171.372 593.932 170.917 594.628 170.312 595.227C169.708 595.826 168.995 596.276 168.172 596.578L167.391 595.391ZM169.641 599.688C169.641 599.135 169.828 598.664 170.203 598.273C170.583 597.878 171.128 597.576 171.836 597.367C172.549 597.154 173.396 597.047 174.375 597.047C175.349 597.047 176.19 597.154 176.898 597.367C177.607 597.576 178.151 597.878 178.531 598.273C178.917 598.664 179.109 599.135 179.109 599.688C179.109 600.24 178.917 600.711 178.531 601.102C178.151 601.497 177.607 601.799 176.898 602.008C176.19 602.221 175.349 602.328 174.375 602.328C173.396 602.328 172.549 602.221 171.836 602.008C171.128 601.799 170.583 601.497 170.203 601.102C169.828 600.711 169.641 600.24 169.641 599.688ZM171.109 599.688C171.104 600.161 171.388 600.529 171.961 600.789C172.539 601.044 173.344 601.167 174.375 601.156C175.396 601.167 176.193 601.044 176.766 600.789C177.344 600.529 177.635 600.161 177.641 599.688C177.635 599.219 177.349 598.854 176.781 598.594C176.219 598.333 175.432 598.203 174.422 598.203C173.37 598.203 172.552 598.331 171.969 598.586C171.391 598.841 171.104 599.208 171.109 599.688ZM193.266 602.328H191.844V588.328H193.266V602.328ZM181.375 594.375C181.375 593.375 181.497 592.505 181.742 591.766C181.992 591.021 182.344 590.451 182.797 590.055C183.255 589.654 183.786 589.453 184.391 589.453C184.953 589.453 185.451 589.622 185.883 589.961C186.32 590.299 186.669 590.789 186.93 591.43C187.195 592.065 187.357 592.818 187.414 593.688H189V588.594H190.422V601.641H189V594.891H187.422C187.38 595.797 187.229 596.583 186.969 597.25C186.708 597.911 186.357 598.422 185.914 598.781C185.471 599.135 184.964 599.312 184.391 599.312C183.786 599.312 183.255 599.115 182.797 598.719C182.344 598.318 181.992 597.745 181.742 597C181.497 596.25 181.375 595.375 181.375 594.375ZM182.75 594.375C182.75 595.109 182.815 595.742 182.945 596.273C183.081 596.805 183.271 597.211 183.516 597.492C183.766 597.768 184.057 597.906 184.391 597.906C184.734 597.906 185.031 597.768 185.281 597.492C185.531 597.211 185.724 596.805 185.859 596.273C185.995 595.742 186.062 595.109 186.062 594.375C186.062 593.635 185.995 593.003 185.859 592.477C185.724 591.945 185.531 591.542 185.281 591.266C185.031 590.984 184.734 590.844 184.391 590.844C184.057 590.844 183.766 590.984 183.516 591.266C183.271 591.542 183.081 591.945 182.945 592.477C182.815 593.008 182.75 593.641 182.75 594.375ZM210.594 595.562H209.094V588.328H210.594V595.562ZM199.188 593.953C199.531 593.953 200.099 593.948 200.891 593.938V590.422H199.562V589.25H207.172V590.422H205.828V593.734C206.531 593.688 207.193 593.625 207.812 593.547L207.875 594.625C206.63 594.812 205.294 594.945 203.867 595.023C202.44 595.102 201.023 595.141 199.617 595.141H199.359L199.188 593.953ZM201.297 596.203H210.594V599.672H202.797V601H211.078V602.188H201.344V598.594H209.125V597.375H201.297V596.203ZM202.312 593.906C203.255 593.875 203.953 593.846 204.406 593.82V590.422H202.312V593.906ZM225.594 600.578H212.781V599.344H215.844V595.688C215.255 595.365 214.799 594.956 214.477 594.461C214.154 593.966 213.995 593.411 214 592.797C214 592.073 214.219 591.435 214.656 590.883C215.094 590.331 215.703 589.904 216.484 589.602C217.271 589.294 218.161 589.141 219.156 589.141C220.151 589.141 221.042 589.294 221.828 589.602C222.615 589.904 223.227 590.331 223.664 590.883C224.107 591.435 224.328 592.073 224.328 592.797C224.328 593.406 224.172 593.956 223.859 594.445C223.547 594.93 223.104 595.333 222.531 595.656V599.344H225.594V600.578ZM215.438 592.797C215.438 593.292 215.594 593.727 215.906 594.102C216.219 594.477 216.656 594.768 217.219 594.977C217.781 595.18 218.427 595.281 219.156 595.281C219.88 595.281 220.523 595.177 221.086 594.969C221.654 594.76 222.096 594.471 222.414 594.102C222.732 593.727 222.891 593.292 222.891 592.797C222.891 592.302 222.732 591.87 222.414 591.5C222.096 591.125 221.654 590.836 221.086 590.633C220.523 590.43 219.88 590.328 219.156 590.328C218.427 590.328 217.781 590.43 217.219 590.633C216.656 590.836 216.219 591.125 215.906 591.5C215.594 591.87 215.438 592.302 215.438 592.797ZM221.031 599.344V596.234C220.448 596.37 219.823 596.438 219.156 596.438C218.5 596.438 217.885 596.37 217.312 596.234V599.344H221.031ZM237.609 592.844H239.641V594.078H237.609V598.812H236.125V588.344H237.609V592.844ZM226.625 589.969H230.062V588.328H231.547V589.969H234.969V591.172H226.625V589.969ZM227.391 594.484C227.391 593.958 227.531 593.495 227.812 593.094C228.099 592.693 228.5 592.385 229.016 592.172C229.531 591.953 230.125 591.844 230.797 591.844C231.464 591.844 232.052 591.953 232.562 592.172C233.078 592.385 233.477 592.693 233.758 593.094C234.044 593.495 234.188 593.958 234.188 594.484C234.188 595.005 234.044 595.464 233.758 595.859C233.477 596.255 233.078 596.562 232.562 596.781C232.052 597 231.464 597.109 230.797 597.109C230.125 597.109 229.531 597 229.016 596.781C228.5 596.562 228.099 596.255 227.812 595.859C227.531 595.464 227.391 595.005 227.391 594.484ZM228.734 597.984H230.219V600.828H238.203V602.031H228.734V597.984ZM228.828 594.484C228.823 594.781 228.901 595.042 229.062 595.266C229.224 595.484 229.451 595.654 229.742 595.773C230.039 595.893 230.383 595.953 230.773 595.953C231.378 595.953 231.865 595.823 232.234 595.562C232.604 595.302 232.792 594.943 232.797 594.484C232.792 594.026 232.607 593.664 232.242 593.398C231.878 593.128 231.396 592.99 230.797 592.984C230.401 592.984 230.052 593.047 229.75 593.172C229.453 593.292 229.224 593.466 229.062 593.695C228.901 593.919 228.823 594.182 228.828 594.484ZM249.125 601H247.391V591.406H247.328L244.625 593.172V591.531L247.438 589.688H249.125V601ZM252.141 604.234H250.812L251.641 599.922H253.391L252.141 604.234ZM255.641 599.75L259.562 595.797C260.036 595.307 260.398 594.911 260.648 594.609C260.898 594.302 261.089 594.005 261.219 593.719C261.354 593.427 261.422 593.12 261.422 592.797C261.422 592.432 261.331 592.112 261.148 591.836C260.966 591.56 260.716 591.346 260.398 591.195C260.081 591.044 259.724 590.969 259.328 590.969C258.911 590.969 258.547 591.052 258.234 591.219C257.927 591.385 257.688 591.62 257.516 591.922C257.349 592.219 257.266 592.568 257.266 592.969H255.641C255.635 592.292 255.792 591.693 256.109 591.172C256.427 590.651 256.87 590.247 257.438 589.961C258.005 589.674 258.646 589.531 259.359 589.531C260.073 589.531 260.708 589.672 261.266 589.953C261.828 590.229 262.266 590.612 262.578 591.102C262.896 591.591 263.057 592.141 263.062 592.75C263.057 593.182 262.974 593.599 262.812 594C262.651 594.396 262.375 594.839 261.984 595.328C261.594 595.812 261.042 596.406 260.328 597.109L258.031 599.438V599.531H263.25V601H255.641V599.75ZM269.469 592.828C269.469 593.547 269.607 594.263 269.883 594.977C270.164 595.685 270.562 596.328 271.078 596.906C271.594 597.484 272.193 597.938 272.875 598.266L272.031 599.391C271.286 599.036 270.63 598.518 270.062 597.836C269.5 597.154 269.068 596.375 268.766 595.5C268.453 596.443 267.997 597.279 267.398 598.008C266.805 598.732 266.115 599.276 265.328 599.641L264.5 598.5C265.198 598.182 265.812 597.724 266.344 597.125C266.875 596.526 267.286 595.852 267.578 595.102C267.87 594.352 268.016 593.594 268.016 592.828V591.906H264.922V590.719H268V588.609H269.5V590.719H272.547V591.906H269.469V592.828ZM274.094 588.328H275.578V593.969H277.828V595.219H275.578V602.328H274.094V588.328ZM283.047 601V589.688H286.828C287.932 589.688 288.883 589.914 289.68 590.367C290.482 590.815 291.094 591.464 291.516 592.312C291.943 593.156 292.156 594.161 292.156 595.328C292.156 596.5 291.94 597.513 291.508 598.367C291.081 599.216 290.461 599.867 289.648 600.32C288.836 600.773 287.859 601 286.719 601H283.047ZM286.625 599.5C287.896 599.495 288.852 599.135 289.492 598.422C290.133 597.708 290.453 596.677 290.453 595.328C290.453 593.984 290.135 592.958 289.5 592.25C288.87 591.542 287.943 591.188 286.719 591.188H284.766V599.5H286.625ZM293.562 598.609C293.557 597.729 293.852 597.102 294.445 596.727C295.044 596.352 295.807 596.13 296.734 596.062C297.938 595.995 298.68 595.956 298.961 595.945L298.953 595.266C298.958 594.781 298.812 594.409 298.516 594.148C298.224 593.883 297.797 593.75 297.234 593.75C296.76 593.75 296.372 593.849 296.07 594.047C295.768 594.24 295.573 594.5 295.484 594.828H293.828C293.88 594.359 294.055 593.943 294.352 593.578C294.648 593.208 295.049 592.922 295.555 592.719C296.06 592.51 296.641 592.406 297.297 592.406C297.833 592.406 298.349 592.49 298.844 592.656C299.344 592.818 299.766 593.12 300.109 593.562C300.453 594 300.625 594.599 300.625 595.359V601H299V599.844H298.938C298.745 600.214 298.438 600.531 298.016 600.797C297.594 601.057 297.062 601.188 296.422 601.188C295.88 601.188 295.391 601.086 294.953 600.883C294.521 600.68 294.18 600.385 293.93 600C293.685 599.609 293.562 599.146 293.562 598.609ZM295.188 598.625C295.188 599.021 295.333 599.326 295.625 599.539C295.922 599.747 296.312 599.854 296.797 599.859C297.234 599.859 297.617 599.771 297.945 599.594C298.273 599.417 298.526 599.182 298.703 598.891C298.88 598.594 298.969 598.276 298.969 597.938L298.961 597.164L296.969 597.297C296.401 597.339 295.961 597.469 295.648 597.688C295.341 597.906 295.188 598.219 295.188 598.625ZM306.609 593.844H304.875V598.5C304.88 598.938 304.971 599.237 305.148 599.398C305.326 599.555 305.573 599.635 305.891 599.641C306.141 599.641 306.422 599.625 306.734 599.594V601.047C306.432 601.089 306.083 601.109 305.688 601.109C305.234 601.109 304.82 601.026 304.445 600.859C304.07 600.693 303.771 600.44 303.547 600.102C303.323 599.758 303.214 599.339 303.219 598.844V593.844H301.969V592.516H303.219V590.484H304.875V592.516H306.609V593.844ZM307.844 598.609C307.839 597.729 308.133 597.102 308.727 596.727C309.326 596.352 310.089 596.13 311.016 596.062C312.219 595.995 312.961 595.956 313.242 595.945L313.234 595.266C313.24 594.781 313.094 594.409 312.797 594.148C312.505 593.883 312.078 593.75 311.516 593.75C311.042 593.75 310.654 593.849 310.352 594.047C310.049 594.24 309.854 594.5 309.766 594.828H308.109C308.161 594.359 308.336 593.943 308.633 593.578C308.93 593.208 309.331 592.922 309.836 592.719C310.341 592.51 310.922 592.406 311.578 592.406C312.115 592.406 312.63 592.49 313.125 592.656C313.625 592.818 314.047 593.12 314.391 593.562C314.734 594 314.906 594.599 314.906 595.359V601H313.281V599.844H313.219C313.026 600.214 312.719 600.531 312.297 600.797C311.875 601.057 311.344 601.188 310.703 601.188C310.161 601.188 309.672 601.086 309.234 600.883C308.802 600.68 308.461 600.385 308.211 600C307.966 599.609 307.844 599.146 307.844 598.609ZM309.469 598.625C309.469 599.021 309.615 599.326 309.906 599.539C310.203 599.747 310.594 599.854 311.078 599.859C311.516 599.859 311.898 599.771 312.227 599.594C312.555 599.417 312.807 599.182 312.984 598.891C313.161 598.594 313.25 598.276 313.25 597.938L313.242 597.164L311.25 597.297C310.682 597.339 310.242 597.469 309.93 597.688C309.622 597.906 309.469 598.219 309.469 598.625ZM327.5 589.562C327.5 590.172 327.724 590.758 328.172 591.32C328.625 591.883 329.234 592.362 330 592.758C330.771 593.154 331.609 593.411 332.516 593.531L331.938 594.75C331.177 594.63 330.456 594.422 329.773 594.125C329.091 593.828 328.487 593.461 327.961 593.023C327.44 592.581 327.029 592.089 326.727 591.547C326.424 592.089 326.01 592.581 325.484 593.023C324.964 593.461 324.365 593.828 323.688 594.125C323.01 594.417 322.292 594.625 321.531 594.75L320.938 593.531C321.844 593.411 322.68 593.156 323.445 592.766C324.211 592.375 324.82 591.898 325.273 591.336C325.727 590.768 325.953 590.177 325.953 589.562V588.797H327.5V589.562ZM320.328 596.125H333.094V597.344H327.406V602.328H325.953V597.344H320.328V596.125ZM339.344 590.562C339.344 591.141 339.487 591.695 339.773 592.227C340.06 592.758 340.469 593.227 341 593.633C341.531 594.034 342.151 594.339 342.859 594.547L342.109 595.703C341.302 595.453 340.596 595.076 339.992 594.57C339.388 594.06 338.924 593.458 338.602 592.766C338.284 593.51 337.82 594.159 337.211 594.711C336.602 595.263 335.88 595.677 335.047 595.953L334.297 594.781C335.01 594.562 335.633 594.24 336.164 593.812C336.701 593.38 337.115 592.883 337.406 592.32C337.698 591.758 337.844 591.172 337.844 590.562V590.406H334.703V589.203H342.422V590.406H339.344V590.562ZM336.609 596.562H338.062V598.125H344.297V596.562H345.766V602.156H336.609V596.562ZM344.297 600.953V599.297H338.062V600.953H344.297ZM344.281 588.328H345.766V595.906H344.281V588.328Z" fill="#393939"/>
</g>
<path opacity="0.5" d="M249.47 673.53C249.763 673.823 250.237 673.823 250.53 673.53L255.303 668.757C255.596 668.464 255.596 667.99 255.303 667.697C255.01 667.404 254.536 667.404 254.243 667.697L250 671.939L245.757 667.697C245.464 667.404 244.99 667.404 244.697 667.697C244.404 667.99 244.404 668.464 244.697 668.757L249.47 673.53ZM249.25 633L249.25 634.429L250.75 634.429L250.75 633L249.25 633ZM249.25 637.286L249.25 640.143L250.75 640.143L250.75 637.286L249.25 637.286ZM249.25 643L249.25 645.857L250.75 645.857L250.75 643L249.25 643ZM249.25 648.714L249.25 651.571L250.75 651.571L250.75 648.714L249.25 648.714ZM249.25 654.429L249.25 657.286L250.75 657.286L250.75 654.429L249.25 654.429ZM249.25 660.143L249.25 663L250.75 663L250.75 660.143L249.25 660.143ZM249.25 665.857L249.25 668.714L250.75 668.714L250.75 665.857L249.25 665.857ZM249.25 671.571L249.25 673L250.75 673L250.75 671.571L249.25 671.571Z" fill="url(#paint2_linear_4084_27274)"/>
<g filter="url(#filter3_d_4084_27274)">
<rect x="50" y="682" width="400" height="140" rx="8" fill="white" shape-rendering="crispEdges"/>
<path d="M50 690C50 685.582 53.5817 682 58 682H442C446.418 682 450 685.582 450 690V752H50V690Z" fill="#06317C"/>
<path d="M82.8721 711.265V714.668H84.9307V711.265H86.8896V721.441H80.8799V711.265H82.8721ZM82.8721 719.748H84.9307V716.328H82.8721V719.748ZM93.5469 709.92V725.027H91.5215V717.407H90.1602V724.33H88.1514V710.136H90.1602V715.681H91.5215V709.92H93.5469ZM108.547 716.361V717.905H102.736V718.852H106.903V722.537H98.4862V723.367H107.302V724.928H96.411V721.109H104.811V720.362H96.3944V718.852H100.628V717.905H94.8338V716.361H108.547ZM102.72 709.903V711.099H107.252V712.659H102.985C103.4 713.539 104.944 714.261 107.999 714.386L107.385 715.946C104.579 715.813 102.637 715.1 101.674 713.954C100.719 715.1 98.7684 715.813 95.9461 715.946L95.3651 714.386C98.3949 714.261 99.9305 713.539 100.362 712.659H96.1287V711.099H100.628V709.903H102.72ZM123.181 711.945V713.705H121.139V715.149H123.181V716.893H121.139V719.051H119.014V709.937H121.139V711.945H123.181ZM116.624 710.833V715.332H111.809V716.66C114.308 716.644 116.001 716.544 117.919 716.212L118.151 717.905C115.976 718.304 114.034 718.387 110.979 718.387H109.701V713.738H114.565V712.493H109.684V710.833H116.624ZM116.159 719.283C119.297 719.283 121.289 720.379 121.289 722.188C121.289 723.981 119.297 725.011 116.159 725.011C112.955 725.011 110.979 723.981 110.979 722.188C110.979 720.379 112.955 719.283 116.159 719.283ZM116.159 720.927C114.15 720.927 113.054 721.342 113.071 722.188C113.054 723.002 114.15 723.434 116.159 723.434C118.151 723.434 119.197 723.002 119.197 722.188C119.197 721.342 118.151 720.927 116.159 720.927ZM139.07 709.887V713.174H141.112V714.867H139.07V718.071H136.945V709.887H139.07ZM139.07 718.686V722.504H131.151V723.367H139.501V724.928H129.076V721.06H136.961V720.213H129.042V718.686H139.07ZM136.048 711.049V712.659H127.083V711.049H130.52V709.82H132.628V711.049H136.048ZM131.566 713.024C133.824 713.024 135.285 713.987 135.285 715.498C135.285 717.042 133.824 717.972 131.566 717.972C129.308 717.972 127.814 717.042 127.814 715.498C127.814 713.987 129.308 713.024 131.566 713.024ZM131.566 714.519C130.52 714.519 129.872 714.867 129.889 715.498C129.872 716.146 130.52 716.461 131.566 716.461C132.612 716.461 133.276 716.146 133.276 715.498C133.276 714.867 132.612 714.519 131.566 714.519ZM153.455 709.92V713.506H155.464V715.232H153.455V718.669H151.297V709.92H153.455ZM148.475 718.935C151.579 718.935 153.571 720.063 153.571 721.956C153.571 723.898 151.579 725.027 148.475 725.027C145.304 725.027 143.295 723.898 143.295 721.956C143.295 720.063 145.304 718.935 148.475 718.935ZM148.475 720.611C146.483 720.611 145.37 721.076 145.387 721.956C145.37 722.869 146.483 723.351 148.475 723.351C150.384 723.351 151.513 722.869 151.513 721.956C151.513 721.076 150.384 720.611 148.475 720.611ZM148.757 710.933V712.626H144.075V716.146C146.873 716.129 148.408 716.046 150.102 715.681L150.284 717.374C148.425 717.789 146.649 717.839 143.229 717.855H141.967V710.933H148.757Z" fill="white"/>
<path opacity="0.9" d="M91.5156 783.562H93.5625V784.781H91.5156V787.984H90.0312V780.281H91.5156V783.562ZM80.5312 781.516H83.9688V780.203H85.4531V781.516H88.875V782.688H80.5312V781.516ZM81.2969 785.516C81.2969 785.052 81.4349 784.648 81.7109 784.305C81.9922 783.956 82.3906 783.688 82.9062 783.5C83.4219 783.312 84.0208 783.219 84.7031 783.219C85.3854 783.219 85.9818 783.312 86.4922 783.5C87.0026 783.688 87.3958 783.953 87.6719 784.297C87.9531 784.641 88.0938 785.047 88.0938 785.516C88.0938 785.984 87.9531 786.391 87.6719 786.734C87.3958 787.078 87.0026 787.341 86.4922 787.523C85.9818 787.706 85.3854 787.797 84.7031 787.797C84.0208 787.797 83.4219 787.706 82.9062 787.523C82.3906 787.341 81.9922 787.078 81.7109 786.734C81.4349 786.391 81.2969 785.984 81.2969 785.516ZM82.4688 788.641H91.5156V791.891H83.9531V793.062H92V794.188H82.5V790.844H90.0469V789.75H82.4688V788.641ZM82.7344 785.516C82.7292 785.891 82.9036 786.185 83.2578 786.398C83.612 786.612 84.0938 786.719 84.7031 786.719C85.3073 786.719 85.7891 786.612 86.1484 786.398C86.513 786.185 86.6979 785.891 86.7031 785.516C86.6979 785.141 86.513 784.844 86.1484 784.625C85.7891 784.401 85.3073 784.286 84.7031 784.281C84.0938 784.286 83.612 784.401 83.2578 784.625C82.9036 784.844 82.7292 785.141 82.7344 785.516ZM105.359 783.875H107.375V785.094H105.359V788.594H103.859V780.328H105.359V783.875ZM94.9375 781.359H101.188V782.562H96.4062V786.375C97.8646 786.365 99.0312 786.331 99.9062 786.273C100.781 786.211 101.641 786.094 102.484 785.922L102.625 787.125C101.729 787.307 100.81 787.43 99.8672 787.492C98.9297 787.549 97.6562 787.578 96.0469 787.578H94.9375V781.359ZM96.125 791.578C96.125 791.016 96.3151 790.531 96.6953 790.125C97.0755 789.714 97.6172 789.401 98.3203 789.188C99.0286 788.969 99.8646 788.859 100.828 788.859C101.781 788.859 102.604 788.969 103.297 789.188C103.995 789.401 104.531 789.714 104.906 790.125C105.281 790.531 105.469 791.016 105.469 791.578C105.469 792.146 105.281 792.633 104.906 793.039C104.531 793.451 103.995 793.763 103.297 793.977C102.599 794.19 101.776 794.297 100.828 794.297C99.8646 794.297 99.0286 794.19 98.3203 793.977C97.6172 793.763 97.0755 793.451 96.6953 793.039C96.3151 792.633 96.125 792.146 96.125 791.578ZM97.5938 791.578C97.5938 791.896 97.7188 792.169 97.9688 792.398C98.224 792.628 98.5911 792.805 99.0703 792.93C99.5547 793.049 100.128 793.109 100.789 793.109C101.456 793.109 102.034 793.049 102.523 792.93C103.013 792.81 103.388 792.635 103.648 792.406C103.914 792.177 104.047 791.901 104.047 791.578C104.047 791.26 103.917 790.99 103.656 790.766C103.401 790.536 103.034 790.362 102.555 790.242C102.081 790.122 101.518 790.062 100.867 790.062C99.8359 790.062 99.0312 790.195 98.4531 790.461C97.875 790.721 97.5885 791.094 97.5938 791.578ZM119.812 794.328H118.312V780.328H119.812V794.328ZM108.312 790.578C110.146 789.703 111.539 788.638 112.492 787.383C113.445 786.128 113.995 784.672 114.141 783.016H108.984V781.828H115.641C115.641 783.995 115.122 785.919 114.086 787.602C113.055 789.284 111.391 790.677 109.094 791.781L108.312 790.578ZM133.625 782.188H129.359C129.385 782.688 129.607 783.161 130.023 783.609C130.445 784.057 131.008 784.438 131.711 784.75C132.419 785.062 133.203 785.271 134.062 785.375L133.5 786.547C132.703 786.443 131.961 786.255 131.273 785.984C130.591 785.708 130 785.362 129.5 784.945C129 784.529 128.628 784.062 128.383 783.547C128.133 784.062 127.758 784.529 127.258 784.945C126.758 785.362 126.167 785.708 125.484 785.984C124.802 786.255 124.062 786.443 123.266 786.547L122.703 785.375C123.562 785.271 124.344 785.062 125.047 784.75C125.755 784.438 126.318 784.057 126.734 783.609C127.151 783.161 127.37 782.688 127.391 782.188H123.172V781H133.625V782.188ZM121.984 787.453H134.797V788.656H129.234V791.375H127.766V788.656H121.984V787.453ZM123.578 790.031H125.062V792.828H133.375V794.031H123.578V790.031ZM147.875 794.328H146.453V780.328H147.875V794.328ZM135.984 786.375C135.984 785.375 136.107 784.505 136.352 783.766C136.602 783.021 136.953 782.451 137.406 782.055C137.865 781.654 138.396 781.453 139 781.453C139.562 781.453 140.06 781.622 140.492 781.961C140.93 782.299 141.279 782.789 141.539 783.43C141.805 784.065 141.966 784.818 142.023 785.688H143.609V780.594H145.031V793.641H143.609V786.891H142.031C141.99 787.797 141.839 788.583 141.578 789.25C141.318 789.911 140.966 790.422 140.523 790.781C140.081 791.135 139.573 791.312 139 791.312C138.396 791.312 137.865 791.115 137.406 790.719C136.953 790.318 136.602 789.745 136.352 789C136.107 788.25 135.984 787.375 135.984 786.375ZM137.359 786.375C137.359 787.109 137.424 787.742 137.555 788.273C137.69 788.805 137.88 789.211 138.125 789.492C138.375 789.768 138.667 789.906 139 789.906C139.344 789.906 139.641 789.768 139.891 789.492C140.141 789.211 140.333 788.805 140.469 788.273C140.604 787.742 140.672 787.109 140.672 786.375C140.672 785.635 140.604 785.003 140.469 784.477C140.333 783.945 140.141 783.542 139.891 783.266C139.641 782.984 139.344 782.844 139 782.844C138.667 782.844 138.375 782.984 138.125 783.266C137.88 783.542 137.69 783.945 137.555 784.477C137.424 785.008 137.359 785.641 137.359 786.375ZM164.719 785.734H166.641V786.984H164.719V794.328H163.234V780.297H164.719V785.734ZM153.938 781.766H157.531V782.984H155.422V789.492C156.219 789.456 156.964 789.365 157.656 789.219L157.781 790.453C157.214 790.568 156.682 790.643 156.188 790.68C155.693 790.716 155.156 790.734 154.578 790.734H153.938V781.766ZM158.312 781.766H162.047V782.984H159.766V789.5C160.297 789.49 160.768 789.461 161.18 789.414C161.591 789.367 162.005 789.292 162.422 789.188L162.547 790.422C162.021 790.552 161.508 790.638 161.008 790.68C160.508 790.716 159.839 790.734 159 790.734H158.312V781.766ZM178.297 785.797H180.547V787.047H178.297V794.359H176.828V780.328H178.297V785.797ZM167.938 781.594H174.344V786.734H169.438V789.766C170.734 789.76 171.854 789.727 172.797 789.664C173.745 789.596 174.703 789.474 175.672 789.297L175.812 790.5C174.776 790.693 173.753 790.826 172.742 790.898C171.737 790.966 170.526 791.005 169.109 791.016H167.969V785.531H172.875V782.797H167.938V781.594ZM192.297 781.562C192.297 782.172 192.521 782.758 192.969 783.32C193.422 783.883 194.031 784.362 194.797 784.758C195.568 785.154 196.406 785.411 197.312 785.531L196.734 786.75C195.974 786.63 195.253 786.422 194.57 786.125C193.888 785.828 193.284 785.461 192.758 785.023C192.237 784.581 191.826 784.089 191.523 783.547C191.221 784.089 190.807 784.581 190.281 785.023C189.76 785.461 189.161 785.828 188.484 786.125C187.807 786.417 187.089 786.625 186.328 786.75L185.734 785.531C186.641 785.411 187.477 785.156 188.242 784.766C189.008 784.375 189.617 783.898 190.07 783.336C190.523 782.768 190.75 782.177 190.75 781.562V780.797H192.297V781.562ZM185.125 788.125H197.891V789.344H192.203V794.328H190.75V789.344H185.125V788.125ZM210.562 788.062H209.078V780.344H210.562V788.062ZM199.656 781H206.094V784.906H201.141V786.562C202.495 786.557 203.646 786.529 204.594 786.477C205.542 786.419 206.516 786.307 207.516 786.141L207.703 787.344C206.635 787.521 205.596 787.638 204.586 787.695C203.581 787.753 202.339 787.786 200.859 787.797H199.688V783.75H204.625V782.203H199.656V781ZM201.375 788.719H202.859V790.234H209.094V788.719H210.562V794.156H201.375V788.719ZM209.094 792.953V791.406H202.859V792.953H209.094ZM224.078 786.969H217.422V781.219H224.078V786.969ZM218.344 793.141C219.172 793.057 219.935 792.878 220.633 792.602C221.331 792.32 221.888 791.982 222.305 791.586C222.727 791.185 222.953 790.776 222.984 790.359H218.906V789.234H223.016V787.922H224.484V789.234H228.609V790.359H224.516C224.547 790.766 224.768 791.167 225.18 791.562C225.596 791.953 226.148 792.292 226.836 792.578C227.523 792.859 228.281 793.047 229.109 793.141L228.609 794.281C227.521 794.151 226.547 793.867 225.688 793.43C224.828 792.992 224.185 792.464 223.758 791.844C223.326 792.469 222.674 792.997 221.805 793.43C220.94 793.867 219.958 794.151 218.859 794.281L218.344 793.141ZM222.609 785.812V782.406H218.875V785.812H222.609ZM226.812 780.328H228.281V788.328H226.812V780.328ZM236.297 784.969H238.969V781.625H240.344V790.875H234.891V781.625H236.297V784.969ZM238.969 789.672V786.141H236.297V789.672H238.969ZM241.906 780.594H243.312V785.812H245.047V780.328H246.469V794.328H245.047V787.031H243.312V793.641H241.906V780.594ZM261 787.578H255.359V788.75H259.406V791.906H251.25V793.062H259.797V794.188H249.797V790.875H257.938V789.828H249.781V788.75H253.891V787.578H248.266V786.469H261V787.578ZM248.891 784.797C249.781 784.75 250.576 784.63 251.273 784.438C251.971 784.245 252.536 783.995 252.969 783.688C253.401 783.38 253.667 783.031 253.766 782.641H249.531V781.5H253.891V780.266H255.359V781.5H259.734V782.641H255.477C255.576 783.031 255.839 783.38 256.266 783.688C256.698 783.995 257.266 784.245 257.969 784.438C258.677 784.63 259.479 784.75 260.375 784.797L259.922 785.922C258.672 785.828 257.583 785.602 256.656 785.242C255.729 784.883 255.052 784.404 254.625 783.805C254.198 784.404 253.518 784.883 252.586 785.242C251.659 785.602 250.568 785.828 249.312 785.922L248.891 784.797ZM275.125 783.656H273.078V785.375H275.125V786.609H273.078V788.797H271.594V780.344H273.078V782.422H275.125V783.656ZM262.641 781.188H269.016V785.109H264.141V786.812C265.411 786.812 266.513 786.781 267.445 786.719C268.383 786.656 269.344 786.542 270.328 786.375L270.484 787.578C269.516 787.75 268.56 787.87 267.617 787.938C266.68 788 265.591 788.031 264.352 788.031H263.781H262.656V783.969H267.562V782.391H262.641V781.188ZM263.844 791.734C263.844 791.198 264.031 790.734 264.406 790.344C264.786 789.953 265.328 789.656 266.031 789.453C266.74 789.245 267.578 789.141 268.547 789.141C269.5 789.141 270.326 789.245 271.023 789.453C271.727 789.656 272.266 789.953 272.641 790.344C273.016 790.734 273.203 791.198 273.203 791.734C273.203 792.271 273.016 792.732 272.641 793.117C272.266 793.503 271.729 793.794 271.031 793.992C270.333 794.195 269.505 794.297 268.547 794.297C267.578 794.297 266.74 794.195 266.031 793.992C265.328 793.794 264.786 793.503 264.406 793.117C264.031 792.732 263.844 792.271 263.844 791.734ZM265.297 791.734C265.292 792.193 265.576 792.547 266.148 792.797C266.721 793.047 267.521 793.167 268.547 793.156C269.557 793.167 270.344 793.047 270.906 792.797C271.474 792.547 271.755 792.193 271.75 791.734C271.755 791.286 271.479 790.938 270.922 790.688C270.365 790.438 269.589 790.312 268.594 790.312C267.547 790.312 266.734 790.438 266.156 790.688C265.578 790.932 265.292 791.281 265.297 791.734ZM290.812 783.562H292.859V784.781H290.812V787.984H289.328V780.281H290.812V783.562ZM279.828 781.516H283.266V780.203H284.75V781.516H288.172V782.688H279.828V781.516ZM280.594 785.516C280.594 785.052 280.732 784.648 281.008 784.305C281.289 783.956 281.688 783.688 282.203 783.5C282.719 783.312 283.318 783.219 284 783.219C284.682 783.219 285.279 783.312 285.789 783.5C286.299 783.688 286.693 783.953 286.969 784.297C287.25 784.641 287.391 785.047 287.391 785.516C287.391 785.984 287.25 786.391 286.969 786.734C286.693 787.078 286.299 787.341 285.789 787.523C285.279 787.706 284.682 787.797 284 787.797C283.318 787.797 282.719 787.706 282.203 787.523C281.688 787.341 281.289 787.078 281.008 786.734C280.732 786.391 280.594 785.984 280.594 785.516ZM281.766 788.641H290.812V791.891H283.25V793.062H291.297V794.188H281.797V790.844H289.344V789.75H281.766V788.641ZM282.031 785.516C282.026 785.891 282.201 786.185 282.555 786.398C282.909 786.612 283.391 786.719 284 786.719C284.604 786.719 285.086 786.612 285.445 786.398C285.81 786.185 285.995 785.891 286 785.516C285.995 785.141 285.81 784.844 285.445 784.625C285.086 784.401 284.604 784.286 284 784.281C283.391 784.286 282.909 784.401 282.555 784.625C282.201 784.844 282.026 785.141 282.031 785.516ZM304.656 783.875H306.672V785.094H304.656V788.594H303.156V780.328H304.656V783.875ZM294.234 781.359H300.484V782.562H295.703V786.375C297.161 786.365 298.328 786.331 299.203 786.273C300.078 786.211 300.938 786.094 301.781 785.922L301.922 787.125C301.026 787.307 300.107 787.43 299.164 787.492C298.227 787.549 296.953 787.578 295.344 787.578H294.234V781.359ZM295.422 791.578C295.422 791.016 295.612 790.531 295.992 790.125C296.372 789.714 296.914 789.401 297.617 789.188C298.326 788.969 299.161 788.859 300.125 788.859C301.078 788.859 301.901 788.969 302.594 789.188C303.292 789.401 303.828 789.714 304.203 790.125C304.578 790.531 304.766 791.016 304.766 791.578C304.766 792.146 304.578 792.633 304.203 793.039C303.828 793.451 303.292 793.763 302.594 793.977C301.896 794.19 301.073 794.297 300.125 794.297C299.161 794.297 298.326 794.19 297.617 793.977C296.914 793.763 296.372 793.451 295.992 793.039C295.612 792.633 295.422 792.146 295.422 791.578ZM296.891 791.578C296.891 791.896 297.016 792.169 297.266 792.398C297.521 792.628 297.888 792.805 298.367 792.93C298.852 793.049 299.424 793.109 300.086 793.109C300.753 793.109 301.331 793.049 301.82 792.93C302.31 792.81 302.685 792.635 302.945 792.406C303.211 792.177 303.344 791.901 303.344 791.578C303.344 791.26 303.214 790.99 302.953 790.766C302.698 790.536 302.331 790.362 301.852 790.242C301.378 790.122 300.815 790.062 300.164 790.062C299.133 790.062 298.328 790.195 297.75 790.461C297.172 790.721 296.885 791.094 296.891 791.578Z" fill="#393939"/>
</g>
<path opacity="0.5" d="M249.47 865.53C249.763 865.823 250.237 865.823 250.53 865.53L255.303 860.757C255.596 860.464 255.596 859.99 255.303 859.697C255.01 859.404 254.536 859.404 254.243 859.697L250 863.939L245.757 859.697C245.464 859.404 244.99 859.404 244.697 859.697C244.404 859.99 244.404 860.464 244.697 860.757L249.47 865.53ZM249.25 825L249.25 826.429L250.75 826.429L250.75 825L249.25 825ZM249.25 829.286L249.25 832.143L250.75 832.143L250.75 829.286L249.25 829.286ZM249.25 835L249.25 837.857L250.75 837.857L250.75 835L249.25 835ZM249.25 840.714L249.25 843.571L250.75 843.571L250.75 840.714L249.25 840.714ZM249.25 846.429L249.25 849.286L250.75 849.286L250.75 846.429L249.25 846.429ZM249.25 852.143L249.25 855L250.75 855L250.75 852.143L249.25 852.143ZM249.25 857.857L249.25 860.714L250.75 860.714L250.75 857.857L249.25 857.857ZM249.25 863.571L249.25 865L250.75 865L250.75 863.571L249.25 863.571Z" fill="url(#paint3_linear_4084_27274)"/>
<g filter="url(#filter4_d_4084_27274)">
<rect x="50" y="874" width="400" height="140" rx="8" fill="white" shape-rendering="crispEdges"/>
<path d="M50 882C50 877.582 53.5817 874 58 874H442C446.418 874 450 877.582 450 882V944H50V882Z" fill="#04255F"/>
<path d="M86.0264 904.51C86.0098 906.436 87.1055 908.312 89.5625 909.108L88.4502 910.769C86.7983 910.212 85.6611 909.125 85.0137 907.747C84.333 909.266 83.1294 910.453 81.3779 911.051L80.1992 909.374C82.7725 908.577 83.8848 906.552 83.9014 904.493V902.85H86.0264V904.51ZM92.4346 901.92V906.286H94.4766V908.079H92.4346V912.993H90.3096V901.92H92.4346ZM92.999 915.068V916.762H82.623V911.897H84.7812V915.068H92.999ZM107.534 901.92V910.885H105.426V907.315H103.068V905.605H105.426V901.92H107.534ZM102.371 911.217C105.592 911.233 107.567 912.296 107.584 914.139C107.567 915.965 105.592 917.044 102.371 917.044C99.1502 917.044 97.1746 915.965 97.1746 914.139C97.1746 912.296 99.1502 911.233 102.371 911.217ZM102.371 912.844C100.362 912.844 99.283 913.259 99.283 914.139C99.283 915.002 100.362 915.434 102.371 915.434C104.38 915.434 105.475 915.002 105.475 914.139C105.475 913.259 104.38 912.844 102.371 912.844ZM103.516 902.833V904.526H100.512C100.561 906.286 101.624 908.062 103.981 908.843L102.935 910.503C101.267 909.963 100.121 908.868 99.4657 907.498C98.7933 909.042 97.5897 910.287 95.7967 910.901L94.701 909.225C97.1829 908.395 98.2953 906.419 98.3534 904.526H95.3153V902.833H103.516ZM121.886 901.92V909.523H119.778V908.361H116.325V906.751H119.778V905.423H116.491C115.553 907.697 113.395 909.15 110.049 909.872L109.336 908.146C112.797 907.457 114.399 906.029 114.681 904.211H110.182V902.501H117.022C117.022 902.958 116.989 903.397 116.923 903.812H119.778V901.92H121.886ZM121.886 910.071V914.205H113.984V915.201H122.218V916.878H111.859V912.645H119.761V911.731H111.842V910.071H121.886ZM132.005 903.431V904.643C131.989 906.07 131.989 907.93 131.59 910.437L129.499 910.271C129.839 908.079 129.872 906.46 129.897 905.124H124.169V903.431H132.005ZM128.237 907.764V912.146C129.723 912.088 131.233 911.98 132.62 911.798L132.752 913.375C129.648 913.906 126.211 913.956 123.572 913.939L123.373 912.246C124.219 912.238 125.166 912.238 126.145 912.213V907.764H128.237ZM135.475 901.92V907.996H137.534V909.756H135.475V917.027H133.334V901.92H135.475ZM149.272 902.8C149.272 906.751 146.781 909.49 142.349 910.719L141.519 909.075C144.773 908.195 146.649 906.535 147.014 904.493H142.332V902.8H149.272ZM154.169 901.937V910.387H152.061V907.249H149.371V905.522H152.061V901.937H154.169ZM154.169 910.984V916.845H144.158V910.984H154.169ZM146.234 912.645V915.185H152.077V912.645H146.234ZM169.567 908.876V910.586H155.788V908.876H169.567ZM162.661 911.433C165.932 911.433 167.907 912.462 167.924 914.238C167.907 916.031 165.932 917.027 162.661 917.027C159.357 917.027 157.365 916.031 157.365 914.238C157.365 912.462 159.357 911.433 162.661 911.433ZM162.661 913.076C160.569 913.076 159.507 913.441 159.523 914.238C159.507 915.019 160.569 915.384 162.661 915.384C164.703 915.384 165.782 915.019 165.799 914.238C165.782 913.441 164.703 913.076 162.661 913.076ZM168.322 902.617V904.311H164.205C164.545 905.365 166.081 906.411 168.986 906.668L168.239 908.328C165.392 908.054 163.466 906.975 162.661 905.506C161.864 906.975 159.972 908.054 157.1 908.328L156.402 906.668C159.241 906.411 160.793 905.373 161.15 904.311H157.05V902.617H168.322Z" fill="white"/>
<path opacity="0.9" d="M85.375 974.891C85.375 975.516 85.513 976.117 85.7891 976.695C86.0703 977.273 86.4688 977.786 86.9844 978.234C87.5052 978.677 88.1146 979.016 88.8125 979.25L88.0469 980.422C87.2708 980.151 86.5938 979.75 86.0156 979.219C85.4427 978.682 85 978.057 84.6875 977.344C84.3802 978.141 83.9297 978.833 83.3359 979.422C82.7474 980.005 82.0469 980.448 81.2344 980.75L80.4062 979.578C81.1302 979.328 81.7552 978.966 82.2812 978.492C82.8073 978.013 83.2083 977.461 83.4844 976.836C83.7604 976.206 83.901 975.542 83.9062 974.844V973.188H85.375V974.891ZM82.6562 981.641H84.1719V984.828H92.125V986.031H82.6562V981.641ZM90.0312 972.312H91.5156V976.531H93.5469V977.797H91.5156V982.641H90.0312V972.312ZM106.016 980.656H104.531V977.109H101.922V975.891H104.531V972.328H106.016V980.656ZM94.3438 979.391C95.0521 979.141 95.6719 978.781 96.2031 978.312C96.7344 977.839 97.1406 977.299 97.4219 976.695C97.7083 976.086 97.849 975.458 97.8438 974.812V974.5H94.8125V973.297H102.359V974.5H99.3594V974.797C99.3542 975.391 99.487 975.966 99.7578 976.523C100.029 977.081 100.419 977.578 100.93 978.016C101.44 978.448 102.042 978.781 102.734 979.016L101.969 980.188C101.198 979.922 100.526 979.526 99.9531 979C99.3854 978.469 98.9453 977.849 98.6328 977.141C98.3255 977.932 97.8698 978.628 97.2656 979.227C96.6615 979.826 95.9479 980.276 95.125 980.578L94.3438 979.391ZM96.5938 983.688C96.5938 983.135 96.7812 982.664 97.1562 982.273C97.5365 981.878 98.0807 981.576 98.7891 981.367C99.5026 981.154 100.349 981.047 101.328 981.047C102.302 981.047 103.143 981.154 103.852 981.367C104.56 981.576 105.104 981.878 105.484 982.273C105.87 982.664 106.062 983.135 106.062 983.688C106.062 984.24 105.87 984.711 105.484 985.102C105.104 985.497 104.56 985.799 103.852 986.008C103.143 986.221 102.302 986.328 101.328 986.328C100.349 986.328 99.5026 986.221 98.7891 986.008C98.0807 985.799 97.5365 985.497 97.1562 985.102C96.7812 984.711 96.5938 984.24 96.5938 983.688ZM98.0625 983.688C98.0573 984.161 98.3411 984.529 98.9141 984.789C99.4922 985.044 100.297 985.167 101.328 985.156C102.349 985.167 103.146 985.044 103.719 984.789C104.297 984.529 104.589 984.161 104.594 983.688C104.589 983.219 104.302 982.854 103.734 982.594C103.172 982.333 102.385 982.203 101.375 982.203C100.323 982.203 99.5052 982.331 98.9219 982.586C98.3438 982.841 98.0573 983.208 98.0625 983.688ZM113.312 975.891C113.307 976.734 113.461 977.565 113.773 978.383C114.091 979.201 114.531 979.927 115.094 980.562C115.661 981.193 116.302 981.667 117.016 981.984L116.125 983.156C115.328 982.776 114.622 982.214 114.008 981.469C113.393 980.724 112.919 979.87 112.586 978.906C112.258 979.948 111.779 980.867 111.148 981.664C110.523 982.461 109.797 983.062 108.969 983.469L108.062 982.219C108.786 981.901 109.432 981.414 110 980.758C110.568 980.096 111.01 979.341 111.328 978.492C111.651 977.638 111.812 976.771 111.812 975.891V973.5H113.312V975.891ZM118.281 972.328H119.766V986.359H118.281V972.328ZM130.766 975.891C130.76 976.708 130.906 977.518 131.203 978.32C131.5 979.122 131.917 979.841 132.453 980.477C132.99 981.107 133.599 981.589 134.281 981.922L133.359 983.109C132.609 982.714 131.945 982.148 131.367 981.414C130.794 980.674 130.352 979.831 130.039 978.883C129.721 979.893 129.263 980.794 128.664 981.586C128.07 982.372 127.38 982.969 126.594 983.375L125.672 982.172C126.375 981.833 127 981.333 127.547 980.672C128.094 980.01 128.518 979.26 128.82 978.422C129.128 977.583 129.281 976.74 129.281 975.891V973.5H130.766V975.891ZM135.328 972.328H136.812V977.906H139.062V979.172H136.812V986.328H135.328V972.328ZM152.5 980.359H139.734V979.156H142.797V977.273C142.245 977.049 141.823 976.763 141.531 976.414C141.245 976.065 141.104 975.661 141.109 975.203C141.109 974.656 141.31 974.185 141.711 973.789C142.117 973.393 142.695 973.094 143.445 972.891C144.201 972.682 145.089 972.578 146.109 972.578C147.13 972.578 148.016 972.682 148.766 972.891C149.516 973.094 150.094 973.393 150.5 973.789C150.906 974.185 151.109 974.656 151.109 975.203C151.104 975.661 150.956 976.068 150.664 976.422C150.372 976.771 149.953 977.057 149.406 977.281V979.156H152.5V980.359ZM141.25 983.797C141.25 983.266 141.443 982.815 141.828 982.445C142.214 982.076 142.768 981.794 143.492 981.602C144.221 981.409 145.094 981.312 146.109 981.312C147.109 981.312 147.971 981.409 148.695 981.602C149.419 981.794 149.974 982.078 150.359 982.453C150.745 982.823 150.938 983.271 150.938 983.797C150.938 984.328 150.745 984.781 150.359 985.156C149.974 985.531 149.419 985.815 148.695 986.008C147.977 986.201 147.115 986.297 146.109 986.297C145.094 986.297 144.221 986.201 143.492 986.008C142.768 985.815 142.214 985.531 141.828 985.156C141.443 984.786 141.25 984.333 141.25 983.797ZM142.641 975.203C142.635 975.667 142.938 976.026 143.547 976.281C144.156 976.536 145.01 976.667 146.109 976.672C147.203 976.667 148.055 976.536 148.664 976.281C149.279 976.026 149.583 975.667 149.578 975.203C149.578 974.896 149.44 974.63 149.164 974.406C148.888 974.182 148.49 974.013 147.969 973.898C147.448 973.779 146.828 973.719 146.109 973.719C145.016 973.724 144.161 973.857 143.547 974.117C142.938 974.372 142.635 974.734 142.641 975.203ZM142.75 983.797C142.745 984.234 143.036 984.573 143.625 984.812C144.214 985.047 145.042 985.161 146.109 985.156C147.167 985.167 147.987 985.052 148.57 984.812C149.159 984.573 149.453 984.234 149.453 983.797C149.453 983.37 149.159 983.039 148.57 982.805C147.987 982.57 147.167 982.453 146.109 982.453C145.036 982.453 144.206 982.57 143.617 982.805C143.034 983.039 142.745 983.37 142.75 983.797ZM147.938 979.156V977.664C147.375 977.753 146.766 977.797 146.109 977.797C145.484 977.797 144.88 977.755 144.297 977.672V979.156H147.938ZM161.719 978.016H158.984V979.789C160.365 979.721 161.573 979.63 162.609 979.516L162.719 980.609C160.349 980.932 157.492 981.094 154.148 981.094H153.828L153.625 979.906C155.099 979.896 156.396 979.875 157.516 979.844V978.016H154.875V973.219H161.594V974.422H156.359V976.812H161.719V978.016ZM155.938 982.078H157.422V984.828H165.609V986.031H155.938V982.078ZM163.688 972.328H165.172V982.828H163.688V972.328ZM177.781 981.047C178.74 981.047 179.565 981.151 180.258 981.359C180.956 981.568 181.49 981.87 181.859 982.266C182.234 982.656 182.422 983.125 182.422 983.672C182.422 984.224 182.234 984.698 181.859 985.094C181.49 985.495 180.956 985.799 180.258 986.008C179.565 986.221 178.74 986.328 177.781 986.328C176.812 986.328 175.974 986.221 175.266 986.008C174.562 985.799 174.021 985.495 173.641 985.094C173.266 984.698 173.078 984.224 173.078 983.672C173.078 983.125 173.266 982.656 173.641 982.266C174.021 981.87 174.562 981.568 175.266 981.359C175.974 981.151 176.812 981.047 177.781 981.047ZM171.844 973.203H173.297V975.219H176.969V973.203H178.438V979.703H171.844V973.203ZM176.969 978.516V976.391H173.297V978.516H176.969ZM174.562 983.672C174.557 984.141 174.839 984.503 175.406 984.758C175.974 985.013 176.766 985.141 177.781 985.141C178.792 985.141 179.576 985.013 180.133 984.758C180.695 984.503 180.974 984.141 180.969 983.672C180.974 983.208 180.695 982.852 180.133 982.602C179.576 982.346 178.792 982.219 177.781 982.219C176.766 982.219 175.974 982.346 175.406 982.602C174.839 982.852 174.557 983.208 174.562 983.672ZM180.812 972.328H182.297V975.75H184.328V977.016H182.297V980.688H180.812V972.328ZM187.281 975.094H190.781V973.047H192.25V975.688H195.312V972.328H196.797V979.969H195.312V976.922H192.25V979.5H185.797V973.047H187.281V975.094ZM190.781 978.297V976.25H187.281V978.297H190.781ZM187.672 980.625H189.141V982.203H195.312V980.625H196.781V986.125H187.672V980.625ZM195.312 984.922V983.359H189.141V984.922H195.312ZM211.75 981.453H198.938V980.234H204.609V978.844H200.578V975.266H208.656V973.906H200.547V972.734H210.141V976.344H202.047V977.703H210.422V978.844H206.078V980.234H211.75V981.453ZM200.609 982.312H202.094V985.047H210.438V986.25H200.609V982.312ZM220.578 974.688C220.573 975.62 220.547 976.495 220.5 977.312C220.453 978.13 220.344 979.083 220.172 980.172L218.703 980.062C218.865 979.068 218.971 978.174 219.023 977.383C219.076 976.591 219.104 975.807 219.109 975.031H213.422V973.828H220.578V974.688ZM212.641 982.109C213.917 982.099 214.875 982.086 215.516 982.07V977.828H216.984V982.023C218.76 981.951 220.229 981.839 221.391 981.688L221.469 982.797C219.339 983.141 216.669 983.312 213.461 983.312H212.812L212.641 982.109ZM222.188 972.328H223.688V978.109H225.828V979.375H223.688V986.328H222.188V972.328ZM242.547 986.328H241.109V972.328H242.547V986.328ZM231.016 974H236.328V975.219H232.469V981.797C233.438 981.786 234.258 981.755 234.93 981.703C235.607 981.646 236.292 981.542 236.984 981.391L237.109 982.641C236.344 982.792 235.578 982.896 234.812 982.953C234.052 983.005 233.094 983.031 231.938 983.031H231.016V974ZM235.375 977.594H238.25V972.625H239.656V985.625H238.25V978.828H235.375V977.594ZM255.938 986.359H254.453V972.328H255.938V986.359ZM244.828 978.281C244.828 977.302 244.982 976.443 245.289 975.703C245.596 974.958 246.023 974.385 246.57 973.984C247.122 973.578 247.75 973.375 248.453 973.375C249.146 973.375 249.766 973.578 250.312 973.984C250.859 974.385 251.286 974.958 251.594 975.703C251.906 976.443 252.062 977.302 252.062 978.281C252.062 979.271 251.906 980.138 251.594 980.883C251.286 981.628 250.859 982.201 250.312 982.602C249.766 983.003 249.146 983.203 248.453 983.203C247.75 983.203 247.122 983.003 246.57 982.602C246.023 982.201 245.596 981.628 245.289 980.883C244.982 980.138 244.828 979.271 244.828 978.281ZM246.266 978.281C246.266 979.01 246.357 979.646 246.539 980.188C246.721 980.729 246.977 981.146 247.305 981.438C247.638 981.729 248.021 981.875 248.453 981.875C248.88 981.875 249.258 981.729 249.586 981.438C249.914 981.146 250.169 980.729 250.352 980.188C250.534 979.646 250.625 979.01 250.625 978.281C250.625 977.562 250.534 976.935 250.352 976.398C250.169 975.857 249.914 975.44 249.586 975.148C249.258 974.852 248.88 974.703 248.453 974.703C248.021 974.703 247.638 974.852 247.305 975.148C246.977 975.44 246.721 975.857 246.539 976.398C246.357 976.935 246.266 977.562 246.266 978.281ZM269.844 986.359H268.375V978.719H265.594V977.5H268.375V972.328H269.844V986.359ZM258.812 973.578H265.359V974.781H260.312V977.5H264.766V978.688H260.312V981.812C261.568 981.812 262.63 981.786 263.5 981.734C264.375 981.677 265.255 981.573 266.141 981.422L266.297 982.625C265.318 982.781 264.349 982.891 263.391 982.953C262.432 983.01 261.271 983.042 259.906 983.047H258.812V973.578ZM288.703 981.453H285.453V986.328H283.953V981.453H280.609V986.328H279.078V981.453H275.891V980.234H288.703V981.453ZM277.281 975.953C277.281 975.333 277.49 974.789 277.906 974.32C278.328 973.852 278.914 973.492 279.664 973.242C280.419 972.987 281.286 972.859 282.266 972.859C283.245 972.859 284.112 972.987 284.867 973.242C285.622 973.492 286.208 973.852 286.625 974.32C287.042 974.789 287.25 975.333 287.25 975.953C287.25 976.568 287.042 977.104 286.625 977.562C286.208 978.021 285.622 978.375 284.867 978.625C284.112 978.87 283.245 978.99 282.266 978.984C281.286 978.99 280.419 978.87 279.664 978.625C278.914 978.375 278.328 978.021 277.906 977.562C277.49 977.104 277.281 976.568 277.281 975.953ZM278.812 975.953C278.812 976.333 278.953 976.664 279.234 976.945C279.521 977.221 279.924 977.435 280.445 977.586C280.971 977.737 281.578 977.812 282.266 977.812C282.958 977.812 283.565 977.737 284.086 977.586C284.607 977.435 285.01 977.221 285.297 976.945C285.589 976.664 285.734 976.333 285.734 975.953C285.734 975.562 285.589 975.227 285.297 974.945C285.01 974.659 284.607 974.438 284.086 974.281C283.565 974.125 282.958 974.047 282.266 974.047C281.573 974.047 280.966 974.125 280.445 974.281C279.924 974.438 279.521 974.659 279.234 974.945C278.953 975.232 278.812 975.568 278.812 975.953ZM301.859 975.516H290.344V974.312H295.375V972.531H296.844V974.312H301.859V975.516ZM289.734 983.578H293.016V981.078C292.5 980.854 292.107 980.565 291.836 980.211C291.565 979.852 291.432 979.438 291.438 978.969C291.438 978.417 291.625 977.943 292 977.547C292.375 977.146 292.914 976.841 293.617 976.633C294.32 976.424 295.151 976.323 296.109 976.328C297.057 976.323 297.88 976.424 298.578 976.633C299.281 976.841 299.82 977.143 300.195 977.539C300.576 977.935 300.766 978.409 300.766 978.961C300.766 979.43 300.63 979.844 300.359 980.203C300.094 980.562 299.703 980.854 299.188 981.078V983.578H302.547V984.781H289.734V983.578ZM292.953 978.969C292.948 979.438 293.221 979.802 293.773 980.062C294.326 980.323 295.104 980.453 296.109 980.453C297.099 980.453 297.87 980.323 298.422 980.062C298.979 979.802 299.255 979.438 299.25 978.969C299.255 978.495 298.979 978.128 298.422 977.867C297.87 977.607 297.099 977.474 296.109 977.469C295.104 977.474 294.326 977.607 293.773 977.867C293.221 978.128 292.948 978.495 292.953 978.969ZM297.734 983.578V981.492C297.245 981.57 296.703 981.609 296.109 981.609C295.521 981.609 294.984 981.57 294.5 981.492V983.578H297.734ZM308.531 974.422C308.531 975.073 308.667 975.693 308.938 976.281C309.208 976.865 309.599 977.378 310.109 977.82C310.62 978.263 311.224 978.599 311.922 978.828L311.109 979.984C310.344 979.703 309.682 979.302 309.125 978.781C308.568 978.26 308.135 977.646 307.828 976.938C307.521 977.75 307.068 978.456 306.469 979.055C305.87 979.654 305.151 980.104 304.312 980.406L303.516 979.219C304.25 978.969 304.883 978.607 305.414 978.133C305.945 977.654 306.352 977.102 306.633 976.477C306.914 975.852 307.057 975.188 307.062 974.484V973.109H308.531V974.422ZM305.812 983.656C305.812 983.094 306 982.612 306.375 982.211C306.755 981.81 307.299 981.505 308.008 981.297C308.721 981.089 309.568 980.984 310.547 980.984C311.521 980.984 312.362 981.089 313.07 981.297C313.779 981.505 314.323 981.81 314.703 982.211C315.089 982.612 315.281 983.094 315.281 983.656C315.281 984.214 315.089 984.69 314.703 985.086C314.323 985.482 313.779 985.781 313.07 985.984C312.362 986.193 311.521 986.297 310.547 986.297C309.568 986.297 308.721 986.193 308.008 985.984C307.299 985.781 306.755 985.482 306.375 985.086C306 984.69 305.812 984.214 305.812 983.656ZM307.281 983.656C307.281 983.964 307.406 984.227 307.656 984.445C307.911 984.664 308.281 984.833 308.766 984.953C309.25 985.068 309.828 985.125 310.5 985.125C311.542 985.125 312.352 984.997 312.93 984.742C313.513 984.487 313.807 984.125 313.812 983.656C313.807 983.177 313.516 982.805 312.938 982.539C312.365 982.273 311.568 982.141 310.547 982.141C309.516 982.141 308.711 982.273 308.133 982.539C307.56 982.805 307.276 983.177 307.281 983.656ZM310.797 975.172H313.75V972.328H315.234V980.594H313.75V976.391H310.797V975.172ZM328.531 973.203C328.531 974.375 328.273 975.438 327.758 976.391C327.242 977.339 326.497 978.154 325.523 978.836C324.555 979.518 323.391 980.052 322.031 980.438L321.422 979.281C322.495 978.979 323.427 978.589 324.219 978.109C325.016 977.63 325.646 977.081 326.109 976.461C326.573 975.836 326.852 975.156 326.945 974.422H322.156V973.203H328.531ZM323.812 980.844H332.969V986.141H323.812V980.844ZM331.5 984.953V982.031H325.266V984.953H331.5ZM328.594 975.844H331.484V972.344H332.969V980.266H331.484V977.078H328.594V975.844ZM347.891 980.125H335.125V978.922H347.891V980.125ZM335.797 977.016C336.635 976.927 337.404 976.75 338.102 976.484C338.799 976.214 339.362 975.883 339.789 975.492C340.216 975.102 340.456 974.682 340.508 974.234H336.297V973.016H346.75V974.234H342.492C342.549 974.682 342.789 975.102 343.211 975.492C343.638 975.883 344.201 976.214 344.898 976.484C345.602 976.75 346.38 976.927 347.234 977.016L346.703 978.188C345.891 978.094 345.135 977.922 344.438 977.672C343.745 977.417 343.146 977.096 342.641 976.711C342.135 976.326 341.758 975.891 341.508 975.406C341.253 975.891 340.872 976.326 340.367 976.711C339.862 977.096 339.26 977.417 338.562 977.672C337.87 977.922 337.12 978.094 336.312 978.188L335.797 977.016ZM336.641 983.766C336.641 983.229 336.833 982.768 337.219 982.383C337.604 981.997 338.161 981.706 338.891 981.508C339.62 981.305 340.49 981.203 341.5 981.203C342.5 981.203 343.362 981.305 344.086 981.508C344.81 981.706 345.365 981.997 345.75 982.383C346.135 982.768 346.328 983.229 346.328 983.766C346.328 984.302 346.135 984.76 345.75 985.141C345.365 985.521 344.81 985.807 344.086 986C343.367 986.198 342.505 986.297 341.5 986.297C340.49 986.297 339.62 986.198 338.891 986C338.161 985.807 337.604 985.521 337.219 985.141C336.833 984.76 336.641 984.302 336.641 983.766ZM338.141 983.766C338.135 984.203 338.419 984.539 338.992 984.773C339.57 985.008 340.388 985.125 341.445 985.125C342.529 985.125 343.365 985.01 343.953 984.781C344.547 984.547 344.844 984.208 344.844 983.766C344.844 983.318 344.552 982.974 343.969 982.734C343.391 982.495 342.568 982.37 341.5 982.359C340.422 982.37 339.591 982.495 339.008 982.734C338.424 982.974 338.135 983.318 338.141 983.766Z" fill="#393939"/>
</g>
<path opacity="0.5" d="M249.47 1057.53C249.763 1057.82 250.237 1057.82 250.53 1057.53L255.303 1052.76C255.596 1052.46 255.596 1051.99 255.303 1051.7C255.01 1051.4 254.536 1051.4 254.243 1051.7L250 1055.94L245.757 1051.7C245.464 1051.4 244.99 1051.4 244.697 1051.7C244.404 1051.99 244.404 1052.46 244.697 1052.76L249.47 1057.53ZM249.25 1017L249.25 1018.43L250.75 1018.43L250.75 1017L249.25 1017ZM249.25 1021.29L249.25 1024.14L250.75 1024.14L250.75 1021.29L249.25 1021.29ZM249.25 1027L249.25 1029.86L250.75 1029.86L250.75 1027L249.25 1027ZM249.25 1032.71L249.25 1035.57L250.75 1035.57L250.75 1032.71L249.25 1032.71ZM249.25 1038.43L249.25 1041.29L250.75 1041.29L250.75 1038.43L249.25 1038.43ZM249.25 1044.14L249.25 1047L250.75 1047L250.75 1044.14L249.25 1044.14ZM249.25 1049.86L249.25 1052.71L250.75 1052.71L250.75 1049.86L249.25 1049.86ZM249.25 1055.57L249.25 1057L250.75 1057L250.75 1055.57L249.25 1055.57Z" fill="url(#paint4_linear_4084_27274)"/>
<rect x="50" y="1066" width="400" height="70" rx="8" fill="#031C47"/>
<path d="M82.8721 1095.26V1098.67H84.9307V1095.26H86.8896V1105.44H80.8799V1095.26H82.8721ZM82.8721 1103.75H84.9307V1100.33H82.8721V1103.75ZM93.5469 1093.92V1109.03H91.5215V1101.41H90.1602V1108.33H88.1514V1094.14H90.1602V1099.68H91.5215V1093.92H93.5469ZM108.547 1100.36V1101.91H102.736V1102.85H106.903V1106.54H98.4862V1107.37H107.302V1108.93H96.411V1105.11H104.811V1104.36H96.3944V1102.85H100.628V1101.91H94.8338V1100.36H108.547ZM102.72 1093.9V1095.1H107.252V1096.66H102.985C103.4 1097.54 104.944 1098.26 107.999 1098.39L107.385 1099.95C104.579 1099.81 102.637 1099.1 101.674 1097.95C100.719 1099.1 98.7684 1099.81 95.9461 1099.95L95.3651 1098.39C98.3949 1098.26 99.9305 1097.54 100.362 1096.66H96.1287V1095.1H100.628V1093.9H102.72ZM123.181 1095.95V1097.71H121.139V1099.15H123.181V1100.89H121.139V1103.05H119.014V1093.94H121.139V1095.95H123.181ZM116.624 1094.83V1099.33H111.809V1100.66C114.308 1100.64 116.001 1100.54 117.919 1100.21L118.151 1101.91C115.976 1102.3 114.034 1102.39 110.979 1102.39H109.701V1097.74H114.565V1096.49H109.684V1094.83H116.624ZM116.159 1103.28C119.297 1103.28 121.289 1104.38 121.289 1106.19C121.289 1107.98 119.297 1109.01 116.159 1109.01C112.955 1109.01 110.979 1107.98 110.979 1106.19C110.979 1104.38 112.955 1103.28 116.159 1103.28ZM116.159 1104.93C114.15 1104.93 113.054 1105.34 113.071 1106.19C113.054 1107 114.15 1107.43 116.159 1107.43C118.151 1107.43 119.197 1107 119.197 1106.19C119.197 1105.34 118.151 1104.93 116.159 1104.93ZM133.89 1103.33C137.194 1103.33 139.269 1104.38 139.286 1106.19C139.269 1107.96 137.194 1109.03 133.89 1109.03C130.619 1109.03 128.511 1107.96 128.511 1106.19C128.511 1104.38 130.619 1103.33 133.89 1103.33ZM133.89 1104.91C131.815 1104.91 130.619 1105.34 130.619 1106.19C130.619 1107 131.815 1107.42 133.89 1107.42C135.965 1107.42 137.177 1107 137.177 1106.19C137.177 1105.34 135.965 1104.91 133.89 1104.91ZM139.202 1094.6V1095.83C139.202 1097.02 139.202 1098.32 138.771 1099.88L136.696 1099.68C137.028 1098.31 137.069 1097.29 137.094 1096.26H128.661V1094.6H139.202ZM140.829 1100.66V1102.37H127.117V1100.66H132.263V1098.02H134.355V1100.66H140.829ZM147.313 1097.34C147.313 1100.11 148.574 1102.9 151.131 1103.98L149.886 1105.67C148.159 1104.89 146.964 1103.39 146.283 1101.52C145.594 1103.56 144.358 1105.2 142.515 1106.04L141.237 1104.28C143.876 1103.17 145.154 1100.28 145.171 1097.34V1095.08H147.313V1097.34ZM154.086 1093.92V1109.06H151.945V1093.92H154.086Z" fill="white"/>
<defs>
<filter id="filter0_d_4084_27274" x="25" y="81" width="454" height="194" filterUnits="userSpaceOnUse" color-interpolation-filters="sRGB">
<feFlood flood-opacity="0" result="BackgroundImageFix"/>
<feColorMatrix in="SourceAlpha" type="matrix" values="0 0 0 0 0 0 0 0 0 0 0 0 0 0 0 0 0 0 127 0" result="hardAlpha"/>
<feOffset dx="2" dy="2"/>
<feGaussianBlur stdDeviation="13.5"/>
<feComposite in2="hardAlpha" operator="out"/>
<feColorMatrix type="matrix" values="0 0 0 0 0 0 0 0 0 0 0 0 0 0 0 0 0 0 0.08 0"/>
<feBlend mode="normal" in2="BackgroundImageFix" result="effect1_dropShadow_4084_27274"/>
<feBlend mode="normal" in="SourceGraphic" in2="effect1_dropShadow_4084_27274" result="shape"/>
</filter>
<filter id="filter1_d_4084_27274" x="25" y="273" width="454" height="194" filterUnits="userSpaceOnUse" color-interpolation-filters="sRGB">
<feFlood flood-opacity="0" result="BackgroundImageFix"/>
<feColorMatrix in="SourceAlpha" type="matrix" values="0 0 0 0 0 0 0 0 0 0 0 0 0 0 0 0 0 0 127 0" result="hardAlpha"/>
<feOffset dx="2" dy="2"/>
<feGaussianBlur stdDeviation="13.5"/>
<feComposite in2="hardAlpha" operator="out"/>
<feColorMatrix type="matrix" values="0 0 0 0 0 0 0 0 0 0 0 0 0 0 0 0 0 0 0.08 0"/>
<feBlend mode="normal" in2="BackgroundImageFix" result="effect1_dropShadow_4084_27274"/>
<feBlend mode="normal" in="SourceGraphic" in2="effect1_dropShadow_4084_27274" result="shape"/>
</filter>
<filter id="filter2_d_4084_27274" x="25" y="465" width="454" height="194" filterUnits="userSpaceOnUse" color-interpolation-filters="sRGB">
<feFlood flood-opacity="0" result="BackgroundImageFix"/>
<feColorMatrix in="SourceAlpha" type="matrix" values="0 0 0 0 0 0 0 0 0 0 0 0 0 0 0 0 0 0 127 0" result="hardAlpha"/>
<feOffset dx="2" dy="2"/>
<feGaussianBlur stdDeviation="13.5"/>
<feComposite in2="hardAlpha" operator="out"/>
<feColorMatrix type="matrix" values="0 0 0 0 0 0 0 0 0 0 0 0 0 0 0 0 0 0 0.08 0"/>
<feBlend mode="normal" in2="BackgroundImageFix" result="effect1_dropShadow_4084_27274"/>
<feBlend mode="normal" in="SourceGraphic" in2="effect1_dropShadow_4084_27274" result="shape"/>
</filter>
<filter id="filter3_d_4084_27274" x="25" y="657" width="454" height="194" filterUnits="userSpaceOnUse" color-interpolation-filters="sRGB">
<feFlood flood-opacity="0" result="BackgroundImageFix"/>
<feColorMatrix in="SourceAlpha" type="matrix" values="0 0 0 0 0 0 0 0 0 0 0 0 0 0 0 0 0 0 127 0" result="hardAlpha"/>
<feOffset dx="2" dy="2"/>
<feGaussianBlur stdDeviation="13.5"/>
<feComposite in2="hardAlpha" operator="out"/>
<feColorMatrix type="matrix" values="0 0 0 0 0 0 0 0 0 0 0 0 0 0 0 0 0 0 0.08 0"/>
<feBlend mode="normal" in2="BackgroundImageFix" result="effect1_dropShadow_4084_27274"/>
<feBlend mode="normal" in="SourceGraphic" in2="effect1_dropShadow_4084_27274" result="shape"/>
</filter>
<filter id="filter4_d_4084_27274" x="25" y="849" width="454" height="194" filterUnits="userSpaceOnUse" color-interpolation-filters="sRGB">
<feFlood flood-opacity="0" result="BackgroundImageFix"/>
<feColorMatrix in="SourceAlpha" type="matrix" values="0 0 0 0 0 0 0 0 0 0 0 0 0 0 0 0 0 0 127 0" result="hardAlpha"/>
<feOffset dx="2" dy="2"/>
<feGaussianBlur stdDeviation="13.5"/>
<feComposite in2="hardAlpha" operator="out"/>
<feColorMatrix type="matrix" values="0 0 0 0 0 0 0 0 0 0 0 0 0 0 0 0 0 0 0.08 0"/>
<feBlend mode="normal" in2="BackgroundImageFix" result="effect1_dropShadow_4084_27274"/>
<feBlend mode="normal" in="SourceGraphic" in2="effect1_dropShadow_4084_27274" result="shape"/>
</filter>
<linearGradient id="paint0_linear_4084_27274" x1="249.5" y1="289" x2="249.5" y2="249" gradientUnits="userSpaceOnUse">
<stop/>
<stop offset="1" stop-color="#E4E4E4"/>
</linearGradient>
<linearGradient id="paint1_linear_4084_27274" x1="249.5" y1="481" x2="249.5" y2="441" gradientUnits="userSpaceOnUse">
<stop/>
<stop offset="1" stop-color="#E4E4E4"/>
</linearGradient>
<linearGradient id="paint2_linear_4084_27274" x1="249.5" y1="673" x2="249.5" y2="633" gradientUnits="userSpaceOnUse">
<stop/>
<stop offset="1" stop-color="#E4E4E4"/>
</linearGradient>
<linearGradient id="paint3_linear_4084_27274" x1="249.5" y1="865" x2="249.5" y2="825" gradientUnits="userSpaceOnUse">
<stop/>
<stop offset="1" stop-color="#E4E4E4"/>
</linearGradient>
<linearGradient id="paint4_linear_4084_27274" x1="249.5" y1="1057" x2="249.5" y2="1017" gradientUnits="userSpaceOnUse">
<stop/>
<stop offset="1" stop-color="#E4E4E4"/>
</linearGradient>
</defs>
</svg>
