<svg width="378" height="190" viewBox="0 0 378 190" fill="none" xmlns="http://www.w3.org/2000/svg">
<rect y="40" width="198" height="42" rx="4" fill="#0568CC"/>
<path d="M27.55 54.03V63.6H25.69V54.03H27.55ZM16.6 58.23C16.6 56.28 18.205 54.87 20.26 54.87C22.3 54.87 23.89 56.28 23.89 58.23C23.89 60.225 22.3 61.62 20.26 61.62C18.205 61.62 16.6 60.225 16.6 58.23ZM18.43 58.23C18.415 59.355 19.21 59.985 20.26 60C21.265 59.985 22.045 59.355 22.03 58.23C22.045 57.15 21.265 56.505 20.26 56.49C19.21 56.505 18.415 57.15 18.43 58.23ZM18.61 67.11V62.64H20.5V65.61H27.91V67.11H18.61ZM40.7539 54.03V64.08H38.8639V62.58H36.2539V61.14H38.8639V54.03H40.7539ZM29.2639 59.07C30.8539 59.055 32.7889 59.04 34.7389 58.92C34.9189 57.78 34.9939 56.865 35.0089 56.16H30.4939V54.69H36.8839V55.17C36.8839 55.86 36.8839 57.09 36.6289 58.77C37.0639 58.725 37.4839 58.68 37.9039 58.62L38.0239 59.94C36.9439 60.135 35.8039 60.27 34.6939 60.36V63.24H32.9839V65.61H41.0539V67.11H31.1239V63.03H32.8339V60.48C31.6339 60.525 30.4939 60.54 29.5039 60.54L29.2639 59.07ZM54.5277 64.29V65.79H42.3177V64.29H47.4777V61.8H43.6077V54.87H45.4977V56.94H51.3177V54.87H53.1777V61.8H49.3077V64.29H54.5277ZM45.4977 60.33H51.3177V58.41H45.4977V60.33ZM62.8716 54.9V56.4H60.2016C60.2166 57.945 61.1466 59.46 63.2916 60.09L62.3916 61.56C60.9216 61.11 59.9016 60.21 59.3016 59.07C58.7166 60.405 57.6366 61.47 56.0316 61.98L55.1016 60.51C57.2916 59.82 58.2966 58.095 58.3116 56.4H55.6116V54.9H62.8716ZM56.9316 64.77C56.9166 63.135 58.6716 62.175 61.4916 62.19C64.2666 62.175 65.9916 63.135 65.9916 64.77C65.9916 66.39 64.2666 67.35 61.4916 67.35C58.6716 67.35 56.9166 66.39 56.9316 64.77ZM58.7916 64.77C58.7916 65.52 59.7516 65.895 61.4916 65.88C63.2166 65.895 64.1466 65.52 64.1316 64.77C64.1466 64.005 63.2166 63.645 61.4916 63.63C59.7516 63.645 58.7916 64.005 58.7916 64.77ZM63.9816 61.92V54H65.8716V57.12H67.6716V58.62H65.8716V61.92H63.9816ZM71.0655 64.92L69.8055 69.09H68.2455L68.9655 64.92H71.0655ZM86.7004 54.03V63.6H84.8404V54.03H86.7004ZM75.7504 58.23C75.7504 56.28 77.3554 54.87 79.4104 54.87C81.4504 54.87 83.0404 56.28 83.0404 58.23C83.0404 60.225 81.4504 61.62 79.4104 61.62C77.3554 61.62 75.7504 60.225 75.7504 58.23ZM77.5804 58.23C77.5654 59.355 78.3604 59.985 79.4104 60C80.4154 59.985 81.1954 59.355 81.1804 58.23C81.1954 57.15 80.4154 56.505 79.4104 56.49C78.3604 56.505 77.5654 57.15 77.5804 58.23ZM77.7604 67.11V62.64H79.6504V65.61H87.0604V67.11H77.7604ZM99.9043 54.03V64.08H98.0143V62.58H95.4043V61.14H98.0143V54.03H99.9043ZM88.4143 59.07C90.0043 59.055 91.9393 59.04 93.8893 58.92C94.0693 57.78 94.1443 56.865 94.1593 56.16H89.6443V54.69H96.0343V55.17C96.0343 55.86 96.0343 57.09 95.7793 58.77C96.2143 58.725 96.6343 58.68 97.0543 58.62L97.1743 59.94C96.0943 60.135 94.9543 60.27 93.8443 60.36V63.24H92.1343V65.61H100.204V67.11H90.2743V63.03H91.9843V60.48C90.7843 60.525 89.6443 60.54 88.6543 60.54L88.4143 59.07ZM112.718 54.03V61.71H110.858V60.39H107.858V58.92H110.858V57.63H107.993C107.168 59.745 105.263 61.2 102.338 61.98L101.588 60.54C104.648 59.715 106.163 58.245 106.433 56.43H102.308V54.93H108.458C108.458 55.365 108.428 55.77 108.368 56.16H110.858V54.03H112.718ZM103.718 64.56C103.703 62.91 105.533 61.875 108.278 61.86C110.978 61.875 112.808 62.91 112.808 64.56C112.808 66.24 110.978 67.29 108.278 67.29C105.533 67.29 103.703 66.24 103.718 64.56ZM105.578 64.56C105.578 65.385 106.583 65.805 108.278 65.82C109.928 65.805 110.933 65.385 110.948 64.56C110.933 63.75 109.928 63.315 108.278 63.33C106.583 63.315 105.578 63.75 105.578 64.56ZM118.152 54.72C119.217 54.735 120.147 55.125 120.777 55.77H123.822V54H125.682V61.83H123.822V60.24H120.762C120.117 60.885 119.202 61.26 118.152 61.26C116.142 61.26 114.597 59.88 114.612 57.99C114.597 56.1 116.142 54.735 118.152 54.72ZM116.382 57.99C116.382 59.025 117.117 59.685 118.152 59.67C119.172 59.685 119.892 59.025 119.892 57.99C119.892 56.94 119.172 56.325 118.152 56.34C117.117 56.325 116.382 56.94 116.382 57.99ZM116.532 64.74C116.532 63.06 118.302 62.1 121.122 62.1C123.942 62.1 125.712 63.06 125.712 64.74C125.712 66.375 123.942 67.35 121.122 67.35C118.302 67.35 116.532 66.375 116.532 64.74ZM118.362 64.74C118.362 65.505 119.352 65.895 121.122 65.88C122.922 65.895 123.882 65.505 123.882 64.74C123.882 63.93 122.922 63.525 121.122 63.54C119.352 63.525 118.362 63.93 118.362 64.74ZM121.602 58.74H123.822V57.27H121.602C121.662 57.495 121.692 57.735 121.692 57.99C121.692 58.245 121.662 58.5 121.602 58.74ZM131.716 54.9C133.831 54.9 135.406 56.265 135.406 58.17C135.406 60.09 133.831 61.455 131.716 61.44C129.616 61.455 128.011 60.09 128.026 58.17C128.011 56.265 129.616 54.9 131.716 54.9ZM127.456 63.15C129.841 63.135 133.141 63.105 135.976 62.7L136.126 64.05C133.171 64.635 130.006 64.65 127.666 64.65L127.456 63.15ZM129.886 58.17C129.871 59.235 130.666 59.835 131.716 59.85C132.781 59.835 133.591 59.235 133.606 58.17C133.591 57.135 132.781 56.52 131.716 56.52C130.666 56.52 129.871 57.135 129.886 58.17ZM136.756 67.38V54H138.616V67.38H136.756ZM149.007 57.03C149.007 59.49 150.117 61.935 152.397 62.88L151.287 64.38C149.757 63.69 148.692 62.37 148.092 60.72C147.492 62.52 146.397 63.975 144.777 64.71L143.637 63.15C145.977 62.175 147.102 59.625 147.117 57.03V55.05H149.007V57.03ZM153.087 67.38V54H154.977V67.38H153.087ZM164.371 54.78V56.28H161.701C161.716 57.84 162.646 59.445 164.821 60.15L163.861 61.59C162.391 61.11 161.371 60.165 160.786 58.965C160.201 60.27 159.136 61.32 157.591 61.83L156.601 60.36C158.791 59.655 159.796 57.945 159.811 56.28H157.111V54.78H164.371ZM158.401 64.11V62.64H167.371V67.35H165.481V64.11H158.401ZM165.481 62.07V54H167.371V57.24H169.171V58.8H167.371V62.07H165.481Z" fill="white"/>
<circle cx="1.5" cy="107" r="1.5" fill="#393939"/>
<path opacity="0.9" d="M21.6211 107.816V108.869H16.6445V113.148H15.373V108.869H10.4512V107.816H21.6211ZM20.5684 101.637V102.676H16.7812C16.8018 104.193 18.6885 105.547 21.0059 105.861L20.5273 106.887C18.5176 106.572 16.7812 105.581 16.043 104.18C15.2842 105.581 13.5547 106.572 11.5723 106.887L11.0801 105.861C13.3701 105.547 15.2568 104.193 15.3047 102.676H11.4902V101.637H20.5684ZM33.7617 110.551V111.631H22.5508V110.551H25.2305V107.352C24.2256 106.798 23.6172 105.916 23.6172 104.822C23.6172 102.895 25.5039 101.623 28.1289 101.623C30.7676 101.623 32.6543 102.895 32.6543 104.822C32.6543 105.902 32.0664 106.771 31.082 107.324V110.551H33.7617ZM28.1289 102.662C26.2012 102.662 24.875 103.496 24.875 104.822C24.875 106.135 26.2012 106.996 28.1289 106.996C30.043 106.996 31.3965 106.135 31.3965 104.822C31.3965 103.496 30.043 102.662 28.1289 102.662ZM26.5156 110.551H29.7695V107.816C29.2705 107.946 28.7168 108.008 28.1289 108.008C27.5547 108.008 27.0078 107.946 26.5156 107.83V110.551ZM48.2266 100.926V109.826H46.9277V100.926H48.2266ZM48.5957 111.85V112.902H40.2148V108.924H41.5273V111.85H48.5957ZM41.582 101.746C43.4277 101.746 44.8359 103.004 44.8359 104.781C44.8359 106.586 43.4277 107.83 41.582 107.83C39.7363 107.83 38.3145 106.586 38.3145 104.781C38.3145 103.004 39.7363 101.746 41.582 101.746ZM41.582 102.881C40.4336 102.881 39.5859 103.66 39.5859 104.781C39.5859 105.93 40.4336 106.695 41.582 106.695C42.7031 106.695 43.5645 105.93 43.5645 104.781C43.5645 103.66 42.7031 102.881 41.582 102.881ZM60.4219 100.926V110.168H59.1094V108.568H56.5117V107.529H59.1094V100.926H60.4219ZM60.7227 111.85V112.902H51.877V109.17H53.1758V111.85H60.7227ZM50.0859 105.697C51.6172 105.69 53.5381 105.67 55.4316 105.547C55.6367 104.31 55.6914 103.346 55.7051 102.662H51.1934V101.609H57.0039V102.088C57.0039 102.751 57.0039 103.886 56.7441 105.438C57.1953 105.396 57.6396 105.349 58.0703 105.287L58.166 106.23C57.0654 106.422 55.9238 106.538 54.8027 106.613V109.375H53.5039V106.682C52.335 106.736 51.2275 106.75 50.2637 106.75L50.0859 105.697ZM75.8301 100.912V113.189H74.5312V100.912H75.8301ZM69.2812 101.828C71.0996 101.828 72.4395 103.496 72.4395 106.121C72.4395 108.76 71.0996 110.428 69.2812 110.428C67.4355 110.428 66.1094 108.76 66.1094 106.121C66.1094 103.496 67.4355 101.828 69.2812 101.828ZM69.2812 102.99C68.1465 102.99 67.3672 104.193 67.3672 106.121C67.3672 108.062 68.1465 109.266 69.2812 109.266C70.4023 109.266 71.1816 108.062 71.1816 106.121C71.1816 104.193 70.4023 102.99 69.2812 102.99ZM88.9824 107.83V108.896H86.2344V113.23H84.9355V108.896H81.8594V113.23H80.5605V108.896H77.7715V107.83H88.9824ZM84.0605 101.992C84.0469 103.633 86.0703 105.191 88.4492 105.52L87.9297 106.586C85.9473 106.244 84.1836 105.191 83.3906 103.742C82.584 105.198 80.834 106.244 78.8379 106.586L78.3047 105.52C80.6973 105.178 82.6934 103.646 82.707 101.992V101.322H84.0605V101.992ZM103.229 106.559V107.598H99.5234V110.592H104.514V111.658H93.3027V110.592H98.2383V107.598H94.6973V101.855H103.119V102.908H95.9961V106.559H103.229ZM116.559 106.285V107.256H111.623V108.281H115.164V111.043H108.027V112.055H115.506V113.039H106.756V110.141H113.879V109.225H106.742V108.281H110.338V107.256H105.416V106.285H116.559ZM111.623 100.857V101.938H115.451V102.936H111.732C111.979 103.975 113.64 104.699 116.012 104.822L115.615 105.807C113.482 105.656 111.746 105.027 110.98 103.947C110.215 105.027 108.479 105.656 106.332 105.807L105.963 104.822C108.314 104.699 109.969 103.975 110.242 102.936H106.523V101.938H110.338V100.857H111.623ZM123.08 101.117C125.842 101.117 127.455 101.855 127.455 103.223C127.455 104.59 125.842 105.342 123.08 105.342C120.318 105.342 118.705 104.59 118.705 103.223C118.705 101.855 120.318 101.117 123.08 101.117ZM123.08 102.074C121.125 102.074 120.045 102.498 120.059 103.223C120.045 103.975 121.125 104.371 123.08 104.371C125.035 104.371 126.115 103.975 126.115 103.223C126.115 102.498 125.035 102.074 123.08 102.074ZM128.672 106.094V107.133H117.502V106.094H128.672ZM127.264 108.076V110.947H120.127V112.041H127.605V113.039H118.855V110.004H125.979V109.047H118.842V108.076H127.264ZM144.189 107.352V108.377H132.992V107.352H137.941V106.285H134.455V101.24H142.822V102.266H135.768V103.264H142.508V104.234H135.768V105.273H142.904V106.285H139.24V107.352H144.189ZM138.598 109.184C141.291 109.17 142.822 109.881 142.822 111.166C142.822 112.465 141.291 113.148 138.598 113.135C135.877 113.148 134.346 112.465 134.346 111.166C134.346 109.881 135.877 109.17 138.598 109.184ZM138.598 110.154C136.67 110.154 135.631 110.51 135.645 111.166C135.631 111.822 136.67 112.164 138.598 112.15C140.498 112.164 141.523 111.822 141.523 111.166C141.523 110.51 140.498 110.154 138.598 110.154ZM154.744 100.926V104.863H156.521V105.943H154.744V110.086H153.445V100.926H154.744ZM152.434 102.348V103.4H145.133V102.348H148.141V100.912H149.439V102.348H152.434ZM148.783 103.988C150.547 103.988 151.75 104.904 151.75 106.299C151.75 107.693 150.547 108.596 148.783 108.596C147.006 108.596 145.803 107.693 145.803 106.299C145.803 104.904 147.006 103.988 148.783 103.988ZM148.783 104.986C147.744 104.986 147.047 105.492 147.061 106.299C147.047 107.092 147.744 107.584 148.783 107.584C149.822 107.584 150.52 107.092 150.533 106.299C150.52 105.492 149.822 104.986 148.783 104.986ZM155.264 111.85V112.902H146.979V109.361H148.277V111.85H155.264ZM170.795 100.926V109.826H169.496V100.926H170.795ZM171.164 111.85V112.902H162.783V108.924H164.096V111.85H171.164ZM164.15 101.746C165.996 101.746 167.404 103.004 167.404 104.781C167.404 106.586 165.996 107.83 164.15 107.83C162.305 107.83 160.883 106.586 160.883 104.781C160.883 103.004 162.305 101.746 164.15 101.746ZM164.15 102.881C163.002 102.881 162.154 103.66 162.154 104.781C162.154 105.93 163.002 106.695 164.15 106.695C165.271 106.695 166.133 105.93 166.133 104.781C166.133 103.66 165.271 102.881 164.15 102.881ZM182.99 100.926V110.168H181.678V108.568H179.08V107.529H181.678V100.926H182.99ZM183.291 111.85V112.902H174.445V109.17H175.744V111.85H183.291ZM172.654 105.697C174.186 105.69 176.106 105.67 178 105.547C178.205 104.31 178.26 103.346 178.273 102.662H173.762V101.609H179.572V102.088C179.572 102.751 179.572 103.886 179.312 105.438C179.764 105.396 180.208 105.349 180.639 105.287L180.734 106.23C179.634 106.422 178.492 106.538 177.371 106.613V109.375H176.072V106.682C174.903 106.736 173.796 106.75 172.832 106.75L172.654 105.697ZM20.5957 122.912V129.215H19.3105V122.912H20.5957ZM20.6094 129.803V132.865H13.8555V134H21.0195V135.039H12.5977V131.881H19.3242V130.828H12.5566V129.803H20.6094ZM14.9082 124.184C14.8945 125.824 16.084 127.314 17.957 127.902L17.3145 128.914C15.8857 128.449 14.8125 127.479 14.2656 126.234C13.7051 127.574 12.6113 128.641 11.1484 129.146L10.4922 128.121C12.4062 127.479 13.582 125.879 13.582 124.184V123.24H14.9082V124.184ZM26.8027 126.029C26.7891 128.203 28.0469 130.418 29.8789 131.307L29.0723 132.346C27.7393 131.655 26.707 130.281 26.1738 128.641C25.6201 130.391 24.5469 131.854 23.1523 132.578L22.3457 131.525C24.2324 130.623 25.5039 128.271 25.5039 126.029V123.938H26.8027V126.029ZM32.0938 122.912V127.793H34.0625V128.9H32.0938V135.162H30.7949V122.912H32.0938ZM48.582 122.912V135.162H47.3379V128.832H45.752V134.533H44.5625V123.158H45.752V127.766H47.3379V122.912H48.582ZM43.0723 124.389V125.441H39.7773V131.115C41.2812 131.102 42.416 131.033 43.7285 130.787L43.8242 131.854C42.3477 132.154 41.0898 132.209 39.2988 132.223H38.4785V124.389H43.0723ZM61.3379 128.791V129.83H50.168V128.791H61.3379ZM55.7461 130.76C58.3848 130.746 59.9707 131.539 59.9707 132.961C59.9707 134.383 58.3848 135.162 55.7461 135.162C53.0801 135.162 51.4941 134.383 51.4941 132.961C51.4941 131.539 53.0801 130.746 55.7461 130.76ZM55.7461 131.744C53.873 131.744 52.8066 132.168 52.8066 132.961C52.8066 133.727 53.873 134.15 55.7461 134.15C57.5918 134.15 58.6719 133.727 58.6719 132.961C58.6719 132.168 57.5918 131.744 55.7461 131.744ZM55.7461 123.199C58.4258 123.213 60.1211 124.102 60.1211 125.564C60.1211 127.027 58.4258 127.902 55.7461 127.902C53.0664 127.902 51.3711 127.027 51.3711 125.564C51.3711 124.102 53.0664 123.213 55.7461 123.199ZM55.7461 124.238C53.8594 124.238 52.6973 124.717 52.7109 125.564C52.6973 126.412 53.8594 126.891 55.7461 126.891C57.6191 126.891 58.7812 126.412 58.7812 125.564C58.7812 124.717 57.6191 124.238 55.7461 124.238Z" fill="#393939"/>
<g filter="url(#filter0_d_453_27984)">
<circle cx="293" cy="85" r="65" fill="white"/>
</g>
<g clip-path="url(#clip0_453_27984)">
<g clip-path="url(#clip1_453_27984)">
<path d="M304.242 126.746C303.263 125.955 300.879 124.362 299.687 123.3C299.356 123.004 298.589 122.214 298.412 121.801C297.952 120.739 295.521 120.739 294.164 121.447C293.526 121.777 293.408 122.875 293.479 123.89C293.526 124.574 293.585 124.846 294.364 125.329C298.341 127.761 299.215 128.197 299.946 128.516C300.655 128.823 301.398 129.118 302.956 128.776C303.487 128.658 303.995 128.41 304.349 128.008C304.667 127.654 304.832 127.218 304.231 126.734L304.242 126.746Z" fill="#191926"/>
<path d="M299.313 103.045C299.608 99.6464 299.632 94.5126 298.133 85.1065C297.956 84.009 296.953 83.2772 295.879 83.5369L284.23 86.2985C279.392 93.7809 281.587 97.4749 281.091 109.3C281.032 110.599 280.678 111.861 280.3 113.101C279.569 115.449 279.049 115.98 279.592 120.795C279.958 124.005 279.769 126.118 280.135 129.34C280.135 131.146 285.08 131.523 284.974 129.788C285.599 125.658 286.485 116.972 286.78 116.051C286.874 115.744 286.98 115.449 287.098 115.142C287.606 113.797 288.066 112.428 288.361 111.023C289.022 107.919 290.155 102.609 290.568 100.378C290.568 100.378 292.208 106.586 292.586 108.982C292.964 111.366 292.515 114.151 292.917 116.204C293.306 118.258 293.436 121.35 293.436 121.35C293.4 123.474 298.817 123.604 298.888 121.728C298.888 121.728 299.655 115.921 299.313 111.672C299.077 108.805 299.077 105.925 299.325 103.069L299.313 103.045Z" fill="#385196"/>
<path d="M309.226 78.8515C306.111 77.7067 301.838 76.1725 301.838 76.1725C301.543 75.6886 299.514 66.6012 298.239 63.8749C297.295 61.9276 294.333 62.919 294.533 65.0315L295.123 71.1921C295.123 71.1921 297.236 77.4825 298.416 79.2291C299.195 80.3621 304.671 81.4007 307.527 81.8846C308.093 80.8696 308.66 79.8664 309.226 78.8633V78.8515Z" fill="#FBBD9E"/>
<path d="M301.818 71.458C302.243 72.8389 297.51 75.5297 296.413 74.6445C294.56 72.3078 293.923 70.3251 293.037 67.469C292.624 66.1354 292.329 64.672 292.813 63.362C293.344 61.934 294.985 61.0252 296.448 61.6743C299.776 63.1613 301.015 69.5934 301.806 71.458H301.818Z" fill="#F2F2F2"/>
<path d="M295.564 61.4865C292.33 60.6958 283.833 64.673 283.066 65.1097C279.749 66.998 282.499 69.6534 283.656 77.3482C284.081 80.216 283.254 85.5859 282.346 89.3625C280.965 95.0628 299.435 94.4491 298.892 89.1736C298.632 87.2617 298.089 81.6323 298.231 76.6755C298.42 69.8894 298.703 62.2536 295.564 61.4865Z" fill="#F2F2F2"/>
<path d="M286.675 65.3467C287.241 67.058 290.003 70.7401 293.225 69.737C295.975 68.8754 295.267 64.8746 294.216 62.9745C293.154 61.0744 286.002 63.2814 286.687 65.3467H286.675Z" fill="#FCBE9F"/>
<path d="M288.728 63.1389C287.454 64.9446 290.215 68.6976 292.588 68.1665C295.219 67.5764 294.818 62.9147 293.508 61.463C292.517 60.3655 290.853 60.2239 289.672 61.2506C289.153 61.6991 289.13 62.5724 288.728 63.1389Z" fill="#EFAC8E"/>
<path d="M281.893 66.6216C280.961 67.8136 277.762 73.8562 276.098 77.4439C276.004 77.6446 275.933 77.8452 275.874 78.0576C275.461 79.5093 274.304 85.0325 273.62 88.4078C273.537 88.7973 273.218 90.0837 273.124 90.2843C272.982 90.5676 272.369 91.854 271.968 92.6683C271.731 93.164 271.661 93.7187 271.767 94.2616C271.956 95.1349 272.097 96.1381 272.593 96.8934C272.652 96.9878 272.723 97.0822 272.829 97.1412C272.923 97.2002 273.065 97.2002 273.148 97.1412C273.23 97.4717 273.502 97.7549 273.832 97.8611C274.139 98.168 274.505 98.4158 274.906 98.5692C275.036 98.6164 275.201 98.6637 275.319 98.5928C275.437 98.522 275.473 98.3686 275.484 98.227C275.484 98.0028 275.449 97.7785 275.355 97.5779C274.906 96.5983 274.8 95.6424 275.178 94.592C275.248 94.4032 275.52 93.8957 275.791 93.9665C276.027 94.0255 276.051 94.297 276.086 94.533C276.193 95.1467 276.712 95.6542 277.326 95.7604C277.467 95.784 277.632 95.7722 277.715 95.6542C277.809 95.5126 277.715 95.3237 277.632 95.1703C276.995 94.0137 277.208 92.5267 276.558 91.3701C276.252 90.8272 275.98 90.4378 276.051 89.8123C276.901 86.8146 279.651 80.4534 279.957 80.0639C282.164 77.2315 287.109 71.6846 286.46 68.2267C286.13 66.4918 283.474 64.6035 281.881 66.6452L281.893 66.6216Z" fill="#FBBD9E"/>
<path d="M279.26 69.3504C278.221 71.0853 277.478 72.9736 276.734 74.8501C276.333 76.2427 281.219 79.1695 282.281 78.249C284.087 75.8768 285.503 73.6817 286.778 70.7312C287.332 69.4448 287.415 67.9224 286.907 66.6124C286.353 65.1962 284.653 64.2756 283.237 65.0073C281.561 65.8807 280.216 67.7572 279.272 69.3268L279.26 69.3504Z" fill="#F2F2F2"/>
<path d="M290.121 56.7883C289.92 57.3312 289.649 57.7797 289.401 58.2872C289.13 58.8419 289.307 59.5854 289.307 60.1755C289.307 60.9072 289.555 61.6153 289.944 62.229C290.416 62.9725 291.089 63.5744 291.797 64.1055C292.588 64.7074 293.449 65.2503 294.393 65.6043C295.231 65.9112 296.223 66.336 296.824 65.4273C297.072 65.0496 297.167 64.5776 297.226 64.1291C297.285 63.6806 297.32 63.2086 297.474 62.7837C297.615 62.4178 297.839 62.0756 297.91 61.6861C297.981 61.2849 297.887 60.8718 297.863 60.4587C297.839 60.0457 297.887 59.6326 298.016 59.2431C298.075 59.0425 298.158 58.8537 298.17 58.6412C298.17 58.476 298.146 58.3226 298.111 58.1574C298.016 57.7207 297.934 57.284 297.839 56.8592C297.769 56.5405 297.698 56.2101 297.544 55.9268C297.297 55.4901 296.86 55.1833 296.423 54.9355C295.467 54.4162 294.382 54.0857 293.308 54.1801C292.234 54.2746 291.16 54.8292 290.593 55.7498C290.404 56.0684 290.263 56.4225 290.133 56.7765L290.121 56.7883Z" fill="#FCBE9F"/>
<path d="M298.062 54.7858C297.129 52.6025 290.863 49.1328 287.959 53.8653C287.381 54.8095 287.098 55.907 287.11 57.0164C287.11 57.9841 287.322 58.8693 287.605 59.5538C288.597 61.9378 288.809 63.177 288.809 63.177C289.352 62.5751 289.801 61.4185 289.765 61.0998C289.683 60.2737 289.718 59.3296 290.308 60.0141C290.544 60.2973 290.638 60.4389 290.733 60.4861C290.91 60.5806 291.052 60.4153 291.17 60.2029C291.559 59.483 292.102 58.8575 292.786 58.3972C294.226 57.4177 296.303 56.4971 297.436 56.6151C297.649 56.6387 297.838 56.8748 297.885 57.0754C297.885 57.0754 298.628 56.0959 298.05 54.774L298.062 54.7858Z" fill="#E0A277"/>
<path d="M290.36 60.1098C289.9 59.0831 289.015 58.1153 288.531 58.7998C288.295 59.1303 288.295 59.803 288.755 60.8298C289.215 61.8565 290.148 62.4112 290.396 62.3286C290.844 62.128 290.82 61.1366 290.36 60.1098Z" fill="#FCBE9F"/>
<path d="M310.827 82.2945C310.827 82.2945 311.145 82.4951 311.747 82.861C312.337 83.2622 313.27 83.6989 314.308 84.5604C314.828 84.9735 315.453 85.3866 316.043 85.9294C316.622 86.4841 317.271 87.0624 317.92 87.7351C319.112 89.1513 320.493 90.7918 321.307 92.9751C322.18 95.0995 322.652 97.6487 322.239 100.292C321.826 102.924 320.54 105.509 318.734 107.739C316.917 109.958 314.662 111.941 312.09 113.475C311.771 113.676 311.476 113.876 311.122 114.089L310.13 114.608C309.47 114.95 308.82 115.316 308.136 115.646C306.732 116.225 305.351 116.909 303.899 117.346C301.043 118.396 298.069 119.034 295.142 119.6C292.192 120.06 289.277 120.391 286.432 120.462C285.016 120.509 283.624 120.544 282.255 120.462C281.57 120.438 280.897 120.414 280.225 120.391C279.564 120.332 278.903 120.273 278.254 120.226C276.955 120.143 275.705 119.954 274.489 119.777C273.273 119.636 272.117 119.376 271.007 119.152C269.886 118.951 268.836 118.668 267.844 118.385C266.841 118.113 265.897 117.853 265.036 117.523C264.162 117.204 263.336 116.957 262.604 116.65C261.873 116.331 261.2 116.036 260.586 115.776C259.359 115.281 258.474 114.702 257.837 114.395C257.211 114.065 256.881 113.888 256.881 113.888C256.774 113.829 256.739 113.699 256.786 113.593C256.845 113.487 256.975 113.451 257.069 113.499C257.081 113.499 257.423 113.676 258.049 113.994C258.686 114.289 259.56 114.844 260.787 115.316C261.389 115.564 262.062 115.847 262.793 116.154C263.525 116.449 264.351 116.685 265.213 116.98C266.074 117.287 267.007 117.535 267.998 117.783C268.989 118.054 270.028 118.326 271.137 118.514C272.235 118.739 273.38 118.975 274.583 119.116C275.787 119.293 277.026 119.47 278.313 119.541C278.95 119.588 279.599 119.647 280.26 119.695C280.921 119.718 281.594 119.73 282.266 119.754C283.612 119.813 284.993 119.777 286.397 119.73C289.206 119.647 292.085 119.305 295.001 118.833C297.88 118.255 300.819 117.617 303.616 116.567C305.044 116.119 306.378 115.458 307.747 114.915C308.419 114.596 309.08 114.23 309.741 113.888L310.732 113.369L311.653 112.79C314.179 111.303 316.385 109.38 318.144 107.255C319.891 105.119 321.13 102.664 321.543 100.162C321.944 97.6605 321.507 95.2293 320.693 93.1994C319.914 91.1105 318.604 89.5054 317.471 88.1128C316.858 87.4519 316.22 86.8736 315.666 86.3189C315.087 85.7878 314.497 85.3748 313.99 84.9617C312.998 84.112 312.054 83.6399 311.488 83.2386C310.898 82.861 310.579 82.6603 310.579 82.6603C310.485 82.6013 310.449 82.4597 310.508 82.3653C310.567 82.2709 310.709 82.2355 310.803 82.2945H310.827Z" fill="url(#paint0_linear_453_27984)"/>
<path d="M316.477 79.6611C316.088 79.1418 313.444 79.9207 312.406 80.0269C312.217 79.9325 309.29 78.8585 306.552 77.8672C305.891 78.7877 305.018 79.5548 304.286 80.4046C304.073 80.6524 303.849 80.8767 303.625 81.1127C306.304 81.7028 309.042 82.104 309.219 82.1395C309.809 82.2811 310.411 82.3637 310.919 82.6823C311.225 82.8712 311.19 83.0836 311.037 83.2606C311.06 83.2606 311.084 83.2606 311.119 83.2606C311.745 83.0246 312.37 82.7886 312.996 82.5643C313.373 82.3873 313.739 82.2103 314.117 82.0568C313.999 81.927 313.881 81.7972 313.763 81.6792C313.904 81.4904 314.376 81.1835 314.766 80.8767C315.026 80.676 316.961 80.2984 316.477 79.6493V79.6611Z" fill="#FBBD9E"/>
<path d="M318.369 81.4809L319.679 79.7814C319.679 79.7814 319.738 79.687 319.714 79.6516L319.502 79.2031L309.812 83.7704L310.025 84.2189C310.06 84.2779 310.214 84.2779 310.45 84.2071L317.484 81.9884C317.578 81.9648 317.673 81.9175 317.767 81.8821C317.932 81.8113 318.086 81.7169 318.204 81.6225C318.274 81.5753 318.322 81.5281 318.357 81.4809H318.369Z" fill="#E6E1D8"/>
<path d="M318.153 81.0455L319.463 79.3461C319.593 79.169 319.428 79.1218 319.074 79.228L312.04 81.4468C311.686 81.553 311.296 81.789 311.167 81.9543L309.857 83.6537C309.727 83.8308 309.892 83.878 310.246 83.7718L317.28 81.553C317.634 81.4468 318.023 81.2108 318.153 81.0455Z" fill="#211618"/>
<path d="M314.93 82.8003C314.824 82.6705 314.717 82.5406 314.67 82.5052C314.104 81.9978 311.991 82.517 311.389 83.0009C310.575 83.6618 311.33 84.8066 311.873 84.9954C312.558 85.2315 315.095 84.4643 315.496 84.2755C316.11 83.9805 316.157 82.9891 316.204 82.3872L314.93 82.8003Z" fill="#FBBD9E"/>
<path d="M321.109 87.5627C321.817 89.7814 321.817 89.864 321.971 92.2834L321.995 83.9395C321.947 81.8978 321.794 81.3903 321.133 79.2188C321.133 82.004 321.121 84.7774 321.109 87.5627Z" fill="#4E8EDB"/>
<path d="M319.019 54.814C316.635 51.6747 314.558 50.2703 311.926 48.5C311.926 50.3057 311.926 52.1114 311.914 53.917C315.938 56.4899 317.355 58.2247 319.007 60.231C319.007 58.4254 319.007 56.6197 319.019 54.814Z" fill="#4E8EDB"/>
<path d="M320.625 54.5078C320.625 57.293 320.613 60.0665 320.602 62.8517C321.829 65.6134 321.9 66.5811 322.041 68.9061L322.065 60.5622C322.018 57.8477 321.499 56.5849 320.625 54.5078Z" fill="#4E8EDB"/>
<path d="M317.438 66.542C321.639 71.2156 321.851 74.5909 322.017 77.0575V71.6404C321.981 66.4476 319.255 63.2375 317.461 61.125C317.461 62.9307 317.461 64.7364 317.449 66.542H317.438Z" fill="#4E8EDB"/>
<g opacity="0.9">
<path d="M306.561 93.7222C306.561 93.1321 306.561 92.3296 306.561 91.7395C306.561 91.0196 306.561 90.0637 306.561 89.3438C301.876 91.173 297.285 92.7545 288.422 93.4626C288.422 94.6546 288.422 96.236 288.422 97.428C288.422 98.0181 288.422 98.8206 288.422 99.4107C288.422 100.131 288.422 101.087 288.422 101.806C295.043 101.216 299.893 100.378 306.561 97.6877C306.561 96.4957 306.561 94.9142 306.561 93.7222Z" fill="url(#paint1_linear_453_27984)"/>
<path d="M269.359 95.9029C269.359 96.493 269.359 97.2955 269.359 97.8856C269.359 98.6882 269.359 99.7503 269.359 100.541C273.431 101.414 276.299 101.957 281.657 102.182C281.657 99.3137 281.669 96.4458 281.681 93.578C277.349 93.3301 274.363 93.0941 269.383 91.9375C269.383 93.1295 269.383 94.7109 269.383 95.9029H269.359Z" fill="url(#paint2_linear_453_27984)"/>
<path d="M292.772 84.8672C288.535 85.3393 285.573 85.6107 280.238 85.3393C280.238 87.1449 280.238 88.9506 280.227 90.7563C284.546 90.9097 287.544 90.9569 292.76 90.2842C292.76 88.4786 292.76 86.6729 292.772 84.8672Z" fill="url(#paint3_linear_453_27984)"/>
<path d="M275.424 81.948C268.897 80.9212 264.177 79.7646 257.969 76.5781C257.969 79.3634 257.957 82.1368 257.945 84.922C262.312 87.0936 266.643 88.9937 275.4 90.2919C275.4 87.5066 275.412 84.7332 275.424 81.948Z" fill="url(#paint4_linear_453_27984)"/>
<path d="M318.434 78.258C318.434 75.4727 318.446 72.6993 318.458 69.9141C316.546 72.0384 311.471 77.6915 298.891 80.7954C298.891 81.9874 298.891 83.5688 298.891 84.7608C298.891 85.3509 298.891 86.1534 298.891 86.7435C298.891 87.4634 298.891 88.4194 298.891 89.1393C302.632 88.1243 312.593 85.4217 318.458 78.258H318.434Z" fill="url(#paint5_linear_453_27984)"/>
<path d="M322.004 72.5218C322.004 74.3275 322.004 76.1331 321.992 77.9388L322.028 77.0655V71.6484L322.016 72.5218H322.004Z" fill="url(#paint6_linear_453_27984)"/>
<path d="M294.344 117.336C298.262 116.604 308.671 114.645 316.047 107.989C316.047 103.905 316.071 99.81 316.083 95.7266C313.722 97.6975 307.456 102.914 294.379 105.074C294.379 109.157 294.356 113.252 294.344 117.336Z" fill="url(#paint7_linear_453_27984)"/>
<path d="M320.336 90.3577C320.336 93.1429 320.324 95.9164 320.312 98.7016C321.481 96.1288 321.8 95.3263 321.977 92.2814L322 83.9375C321.894 85.5071 321.764 87.301 320.973 88.9887C320.785 89.4018 320.431 89.9092 320.336 90.3577Z" fill="url(#paint8_linear_453_27984)"/>
<path d="M321.403 75.6094C320.164 78.8195 318.677 81.8053 312.977 85.877C312.977 88.6622 312.965 91.4357 312.953 94.2209C316.6 91.5301 319.539 89.0635 321.38 83.9533C321.38 81.168 321.391 78.3946 321.403 75.6094Z" fill="url(#paint9_linear_453_27984)"/>
</g>
<path d="M310.827 42.6617C310.827 42.6617 311.145 42.8623 311.747 43.2282C312.337 43.6294 313.27 44.0661 314.308 44.9276C314.828 45.3407 315.453 45.7537 316.043 46.2966C316.622 46.8513 317.271 47.4296 317.92 48.1023C319.112 49.5185 320.493 51.159 321.307 53.3423C322.18 55.4667 322.652 58.0159 322.239 60.6595C321.826 63.2913 320.54 65.8759 318.734 68.1064C316.917 70.3252 314.662 72.3079 312.09 73.8421C311.771 74.0428 311.476 74.2434 311.122 74.4558L310.13 74.9751C309.47 75.3174 308.82 75.6832 308.136 76.0137C306.732 76.592 305.351 77.2765 303.899 77.7131C301.043 78.7635 298.069 79.4008 295.142 79.9673C292.192 80.4276 289.277 80.758 286.432 80.8288C285.016 80.876 283.624 80.9114 282.255 80.8288C281.57 80.8052 280.897 80.7816 280.225 80.758C279.564 80.699 278.903 80.64 278.254 80.5928C276.955 80.5102 275.705 80.3214 274.489 80.1443C273.273 80.0027 272.117 79.7431 271.007 79.5188C269.886 79.3182 268.836 79.035 267.844 78.7517C266.841 78.4803 265.897 78.2206 265.036 77.8902C264.162 77.5715 263.336 77.3237 262.604 77.0168C261.873 76.6982 261.2 76.4031 260.586 76.1435C259.359 75.6478 258.474 75.0695 257.837 74.7627C257.211 74.4322 256.881 74.2552 256.881 74.2552C256.774 74.1962 256.739 74.0664 256.786 73.9602C256.845 73.8539 256.975 73.8185 257.069 73.8657C257.081 73.8657 257.423 74.0428 258.049 74.3614C258.686 74.6565 259.56 75.2112 260.787 75.6832C261.389 75.9311 262.062 76.2143 262.793 76.5212C263.525 76.8162 264.351 77.0522 265.213 77.3473C266.074 77.6541 267.007 77.902 267.998 78.1498C268.989 78.4213 270.028 78.6927 271.137 78.8815C272.235 79.1058 273.38 79.3418 274.583 79.4834C275.787 79.6605 277.026 79.8375 278.313 79.9083C278.95 79.9555 279.599 80.0145 280.26 80.0617C280.921 80.0853 281.594 80.0971 282.266 80.1207C283.612 80.1797 284.993 80.1443 286.397 80.0971C289.206 80.0145 292.085 79.6723 295.001 79.2002C297.88 78.6219 300.819 77.9846 303.616 76.9342C305.044 76.4858 306.378 75.8249 307.747 75.282C308.419 74.9633 309.08 74.5975 309.741 74.2552L310.732 73.7359L311.653 73.1576C314.179 71.6706 316.385 69.7469 318.144 67.6226C319.891 65.4864 321.13 63.0317 321.543 60.5297C321.944 58.0277 321.507 55.5965 320.693 53.5666C319.914 51.4776 318.604 49.8726 317.471 48.48C316.858 47.8191 316.22 47.2408 315.666 46.6861C315.087 46.155 314.497 45.7419 313.99 45.3289C312.998 44.4791 312.054 44.0071 311.488 43.6058C310.898 43.2282 310.579 43.0275 310.579 43.0275C310.485 42.9685 310.449 42.8269 310.508 42.7325C310.567 42.6381 310.709 42.6027 310.803 42.6617H310.827Z" fill="url(#paint10_linear_453_27984)"/>
</g>
</g>
<rect width="73" height="21" transform="translate(256.5 162)" fill="#F9F9F9"/>
<path d="M267.287 165.83V174.771H265.537V165.83H267.287ZM267.615 176.645V178.039H258.947V173.869H260.711V176.645H267.615ZM260.465 166.623C262.379 166.623 263.869 167.936 263.869 169.754C263.869 171.613 262.379 172.912 260.465 172.912C258.551 172.912 257.061 171.613 257.061 169.754C257.061 167.936 258.551 166.623 260.465 166.623ZM260.465 168.141C259.494 168.127 258.756 168.742 258.77 169.754C258.756 170.793 259.494 171.395 260.465 171.395C261.408 171.395 262.146 170.793 262.146 169.754C262.146 168.742 261.408 168.127 260.465 168.141ZM279.605 165.83V175.195H277.842V173.814H275.408V172.447H277.842V165.83H279.605ZM279.893 176.645V178.039H270.609V174.238H272.209V171.846C271.095 171.894 270.035 171.907 269.105 171.914L268.887 170.533C270.363 170.526 272.182 170.506 274.014 170.396C274.164 169.323 274.226 168.469 274.246 167.812H270.021V166.432H275.996V166.896C275.996 167.539 275.996 168.681 275.75 170.26C276.153 170.219 276.557 170.178 276.953 170.123L277.062 171.354C276.037 171.538 274.978 171.661 273.932 171.736V174.416H272.359V176.645H279.893ZM291.555 165.83V172.994H289.818V171.777H287.016V170.383H289.818V169.193H287.139C286.366 171.162 284.603 172.516 281.861 173.268L281.178 171.887C284.042 171.135 285.443 169.768 285.689 168.059H281.848V166.664H287.59C287.59 167.067 287.562 167.457 287.508 167.826H289.818V165.83H291.555ZM287.412 173.145C289.941 173.145 291.637 174.115 291.65 175.66C291.637 177.219 289.941 178.203 287.412 178.203C284.855 178.203 283.146 177.219 283.16 175.66C283.146 174.115 284.855 173.145 287.412 173.145ZM287.412 174.512C285.84 174.498 284.896 174.895 284.896 175.66C284.896 176.426 285.84 176.822 287.412 176.822C288.957 176.822 289.9 176.426 289.9 175.66C289.9 174.895 288.957 174.498 287.412 174.512ZM296.641 166.486C297.632 166.486 298.5 166.849 299.102 167.457H301.918V165.816H303.654V173.104H301.918V171.613H299.088C298.486 172.215 297.625 172.577 296.641 172.57C294.754 172.584 293.318 171.285 293.332 169.535C293.318 167.758 294.754 166.486 296.641 166.486ZM296.641 167.977C295.67 167.977 294.973 168.551 294.986 169.535C294.973 170.492 295.67 171.107 296.641 171.094C297.584 171.107 298.268 170.492 298.268 169.535C298.268 168.551 297.584 167.977 296.641 167.977ZM299.402 173.363C302.041 173.363 303.682 174.266 303.695 175.811C303.682 177.355 302.041 178.258 299.402 178.258C296.777 178.258 295.123 177.355 295.123 175.811C295.123 174.266 296.777 173.363 299.402 173.363ZM299.402 174.689C297.748 174.689 296.832 175.059 296.832 175.811C296.832 176.535 297.748 176.904 299.402 176.904C301.084 176.904 301.986 176.535 301.986 175.811C301.986 175.059 301.084 174.689 299.402 174.689ZM299.854 168.838C299.895 169.057 299.922 169.296 299.922 169.535C299.922 169.774 299.895 170 299.854 170.219H301.918V168.838H299.854ZM312.24 166.719V167.498C312.24 168.359 312.24 169.604 311.953 171.148L310.244 170.984C310.463 169.788 310.518 168.886 310.531 168.141H305.842V166.719H312.24ZM309.15 169.59V171.969C310.388 171.921 311.659 171.825 312.828 171.654L312.924 172.912C310.34 173.391 307.414 173.432 305.254 173.445L305.104 172.051C305.801 172.051 306.587 172.051 307.414 172.023V169.59H309.15ZM315.289 165.816V169.604H316.793V171.066H315.289V175.127H313.498V165.816H315.289ZM315.672 176.645V178.039H306.936V174.293H308.686V176.645H315.672ZM327.799 165.816V178.285H326.062V165.816H327.799ZM323.943 166.855V171.654H319.842V173.938C321.735 173.931 323.349 173.821 325.174 173.527L325.324 174.936C323.273 175.291 321.428 175.373 319.158 175.373H318.037V170.273H322.166V168.264H318.023V166.855H323.943Z" fill="#393939"/>
<defs>
<filter id="filter0_d_453_27984" x="208" y="0" width="170" height="170" filterUnits="userSpaceOnUse" color-interpolation-filters="sRGB">
<feFlood flood-opacity="0" result="BackgroundImageFix"/>
<feColorMatrix in="SourceAlpha" type="matrix" values="0 0 0 0 0 0 0 0 0 0 0 0 0 0 0 0 0 0 127 0" result="hardAlpha"/>
<feOffset/>
<feGaussianBlur stdDeviation="10"/>
<feComposite in2="hardAlpha" operator="out"/>
<feColorMatrix type="matrix" values="0 0 0 0 0 0 0 0 0 0 0 0 0 0 0 0 0 0 0.1 0"/>
<feBlend mode="normal" in2="BackgroundImageFix" result="effect1_dropShadow_453_27984"/>
<feBlend mode="normal" in="SourceGraphic" in2="effect1_dropShadow_453_27984" result="shape"/>
</filter>
<linearGradient id="paint0_linear_453_27984" x1="285.288" y1="96.6927" x2="299.285" y2="120.934" gradientUnits="userSpaceOnUse">
<stop stop-color="#DDF0FF"/>
<stop offset="1" stop-color="#46AFFF"/>
</linearGradient>
<linearGradient id="paint1_linear_453_27984" x1="323.804" y1="95.5751" x2="258.103" y2="95.5751" gradientUnits="userSpaceOnUse">
<stop stop-color="#86CAFF"/>
<stop offset="1" stop-color="#357CD4"/>
</linearGradient>
<linearGradient id="paint2_linear_453_27984" x1="323.801" y1="97.0477" x2="258.1" y2="97.0477" gradientUnits="userSpaceOnUse">
<stop stop-color="#86CAFF"/>
<stop offset="1" stop-color="#357CD4"/>
</linearGradient>
<linearGradient id="paint3_linear_453_27984" x1="323.799" y1="87.8531" x2="258.098" y2="87.8531" gradientUnits="userSpaceOnUse">
<stop stop-color="#86CAFF"/>
<stop offset="1" stop-color="#357CD4"/>
</linearGradient>
<linearGradient id="paint4_linear_453_27984" x1="323.8" y1="83.435" x2="258.099" y2="83.435" gradientUnits="userSpaceOnUse">
<stop stop-color="#86CAFF"/>
<stop offset="1" stop-color="#357CD4"/>
</linearGradient>
<linearGradient id="paint5_linear_453_27984" x1="323.804" y1="79.5208" x2="258.103" y2="79.5208" gradientUnits="userSpaceOnUse">
<stop stop-color="#86CAFF"/>
<stop offset="1" stop-color="#357CD4"/>
</linearGradient>
<linearGradient id="paint6_linear_453_27984" x1="323.798" y1="74.7995" x2="258.029" y2="74.7995" gradientUnits="userSpaceOnUse">
<stop stop-color="#86CAFF"/>
<stop offset="1" stop-color="#357CD4"/>
</linearGradient>
<linearGradient id="paint7_linear_453_27984" x1="323.801" y1="106.525" x2="258.1" y2="106.525" gradientUnits="userSpaceOnUse">
<stop stop-color="#86CAFF"/>
<stop offset="1" stop-color="#357CD4"/>
</linearGradient>
<linearGradient id="paint8_linear_453_27984" x1="323.794" y1="91.3255" x2="258.082" y2="91.3255" gradientUnits="userSpaceOnUse">
<stop stop-color="#86CAFF"/>
<stop offset="1" stop-color="#357CD4"/>
</linearGradient>
<linearGradient id="paint9_linear_453_27984" x1="323.799" y1="84.9092" x2="258.098" y2="84.9092" gradientUnits="userSpaceOnUse">
<stop stop-color="#86CAFF"/>
<stop offset="1" stop-color="#357CD4"/>
</linearGradient>
<linearGradient id="paint10_linear_453_27984" x1="285.288" y1="57.0481" x2="299.285" y2="81.2891" gradientUnits="userSpaceOnUse">
<stop stop-color="#DDF0FF"/>
<stop offset="1" stop-color="#46AFFF"/>
</linearGradient>
<clipPath id="clip0_453_27984">
<rect width="76" height="76" fill="white" transform="translate(255 47)"/>
</clipPath>
<clipPath id="clip1_453_27984">
<rect width="65.5947" height="97.6485" fill="white" transform="translate(256.789 42.625)"/>
</clipPath>
</defs>
</svg>
