<svg width="378" height="187" viewBox="0 0 378 187" fill="none" xmlns="http://www.w3.org/2000/svg">
<rect y="37" width="198" height="42" rx="4" fill="#0568CC"/>
<path d="M28.0117 52.7168V54.2109H16.9229V52.7168H21.5371V51.1641H23.3828V52.7168H28.0117ZM16.3955 63.0146V61.5205H19.3105V59.3232C18.4023 58.8838 17.897 58.21 17.9043 57.3311C17.8896 55.7051 19.6401 54.7529 22.46 54.7529C25.2578 54.7529 27.0083 55.7051 27.001 57.3311C27.0083 58.21 26.4956 58.8838 25.5947 59.3232V61.5205H28.5977V63.0146H16.3955ZM19.8232 57.3311C19.8159 58.0781 20.7314 58.4517 22.46 58.4443C24.1519 58.4517 25.082 58.0781 25.082 57.3311C25.082 56.5693 24.1519 56.1885 22.46 56.1885C20.7314 56.1885 19.8159 56.5693 19.8232 57.3311ZM21.1855 61.5205H23.749V59.8213C23.3462 59.8726 22.9214 59.8945 22.46 59.8945C22.0059 59.8945 21.5811 59.8726 21.1855 59.8213V61.5205ZM35.4385 51.1348C38.5073 51.1348 40.2798 51.9404 40.2871 53.4199C40.2798 54.8921 38.5073 55.6904 35.4385 55.6904C32.3623 55.6904 30.5752 54.8921 30.5752 53.4199C30.5752 51.9404 32.3623 51.1348 35.4385 51.1348ZM29.3594 57.7119V56.2471H41.5176V57.7119H38.4707V58.6494H40.0381V62.0479H32.6113V62.8535H40.3896V64.2598H30.7803V60.7441H38.1924V60.0117H30.7656V58.6494H32.4209V57.7119H29.3594ZM32.5381 53.4199C32.5308 54.0571 33.4829 54.3208 35.4385 54.3281C37.4087 54.3208 38.3535 54.0571 38.3535 53.4199C38.3535 52.812 37.4087 52.5117 35.4385 52.5117C33.4829 52.5117 32.5308 52.812 32.5381 53.4199ZM34.2666 58.6494H36.6104V57.7119H34.2666V58.6494ZM50.0137 51.7646V53.2441H47.3623C47.3696 54.8115 48.3218 56.4302 50.4238 57.126L49.501 58.5615C48.0288 58.1001 47.0107 57.1333 46.4321 55.9395C45.8389 57.2651 44.7769 58.3345 43.2021 58.8398L42.25 57.3604C44.4473 56.6646 45.4434 54.8994 45.458 53.2441H42.7773V51.7646H50.0137ZM44.4033 61.0371V59.543H53.5586V64.3477H51.6982V61.0371H44.4033ZM49.6328 55.749V54.2256H51.6982V51.0176H53.5586V58.957H51.6982V55.749H49.6328ZM66.4492 51.0322V60.6123H64.5742V51.0322H66.4492ZM55.4922 55.2363C55.4922 53.2808 57.0889 51.8745 59.1396 51.8818C61.1831 51.8745 62.7798 53.2808 62.7871 55.2363C62.7798 57.2212 61.1831 58.6201 59.1396 58.6201C57.0889 58.6201 55.4922 57.2212 55.4922 55.2363ZM57.3232 55.2363C57.3086 56.3496 58.0923 56.9941 59.1396 56.9941C60.1504 56.9941 60.9341 56.3496 60.9414 55.2363C60.9341 54.1523 60.1504 53.5005 59.1396 53.5078C58.0923 53.5005 57.3086 54.1523 57.3232 55.2363ZM57.5137 64.1133V59.6455H59.4033V62.6191H66.8008V64.1133H57.5137ZM77.7139 59.3232C80.6289 59.3232 82.46 60.2461 82.4746 61.8428C82.46 63.4175 80.6289 64.355 77.7139 64.3477C74.8208 64.355 72.9604 63.4175 72.9678 61.8428C72.9604 60.2461 74.8208 59.3232 77.7139 59.3232ZM71.7373 58.4736V56.9648H76.2783V54.6357H78.124V56.9648H83.8369V58.4736H71.7373ZM73.0996 53.083V51.6182H82.4014V52.7021C82.4087 53.7642 82.4087 54.9067 82.0205 56.2764L80.1895 56.1006C80.4897 54.8921 80.5264 53.9912 80.541 53.083H73.0996ZM74.8281 61.8428C74.8208 62.5605 75.8755 62.9268 77.7139 62.9268C79.5522 62.9268 80.6143 62.5605 80.6143 61.8428C80.6143 61.103 79.5522 60.7075 77.7139 60.7148C75.8755 60.7075 74.8208 61.103 74.8281 61.8428ZM89.8574 54.0352C89.8501 56.4814 90.9634 58.9351 93.2266 59.8945L92.1279 61.3887C90.6045 60.7002 89.5498 59.3672 88.9419 57.7192C88.3413 59.521 87.25 60.9712 85.624 61.7109L84.4961 60.1582C86.8252 59.1768 87.9604 56.6206 87.9678 54.0352V52.043H89.8574V54.0352ZM93.9443 64.377V51.0176H95.834V64.377H93.9443ZM106.264 54.6504C106.256 56.8037 107.37 59.1108 109.604 60.041L108.593 61.5059C107.025 60.8394 105.941 59.5137 105.341 57.9023C104.74 59.6528 103.634 61.1177 102.06 61.8428L100.99 60.3633C103.202 59.3745 104.345 56.9062 104.345 54.6504V53.8301H101.518V52.3066H109.047V53.8301H106.264V54.6504ZM110.365 64.3477V51.0176H112.255V64.3477H110.365ZM125.351 51.0322V61.0957H123.476V60.041H120.927V58.7666H123.476V51.0322H125.351ZM114.013 56.9355C116.452 56.9209 119.748 56.8843 122.567 56.54L122.67 57.873C121.615 58.0488 120.524 58.1733 119.447 58.2539V60.7881H117.572V62.6191H125.644V64.1133H115.712V60.1289H117.572V58.3638C116.378 58.4077 115.243 58.415 114.232 58.415L114.013 56.9355ZM114.994 53.874C114.994 52.4531 116.364 51.479 118.349 51.4863C120.282 51.479 121.667 52.4531 121.674 53.874C121.667 55.3022 120.282 56.2251 118.349 56.2178C116.364 56.2251 114.994 55.3022 114.994 53.874ZM116.767 53.874C116.759 54.5186 117.396 54.8774 118.349 54.8701C119.242 54.8774 119.887 54.5186 119.901 53.874C119.887 53.2148 119.242 52.8486 118.349 52.8486C117.396 52.8486 116.759 53.2148 116.767 53.874Z" fill="white"/>
<circle cx="1.5" cy="104.5" r="1.5" fill="#393939"/>
<path opacity="0.9" d="M20.2402 98.9863V99.9023C20.2402 100.805 20.2402 101.885 19.9668 103.307H21.6621V104.359H16.6855V106.451H20.2949V110.662H18.9961V107.49H11.5996V106.451H15.3867V104.359H10.4512V103.307H18.6543C18.9414 101.939 18.9551 100.914 18.9551 100.039H11.8594V98.9863H20.2402ZM33.0371 98.4121V110.662H31.793V104.387H30.2207V110.033H29.0039V98.6582H30.2207V103.32H31.793V98.4121H33.0371ZM24.4238 99.8613V106.396C25.5586 106.39 26.7959 106.301 28.1836 106.027L28.3203 107.162C26.6387 107.463 25.2305 107.545 23.918 107.545H23.125V99.8613H24.4238ZM38.8613 99.1367L35.6758 110.99H34.377L37.5625 99.1367H38.8613ZM43.4961 99.1914C45.4375 99.1914 46.8184 100.381 46.832 102.104C46.8184 103.628 45.7383 104.735 44.1387 104.961V106.902C45.2939 106.848 46.4697 106.752 47.5703 106.588L47.666 107.531C44.8906 108.051 41.9238 108.064 39.7363 108.064L39.5723 106.998C40.5361 106.998 41.6572 106.998 42.8398 106.957V104.961C41.2539 104.729 40.1465 103.621 40.1602 102.104C40.1465 100.381 41.5684 99.1914 43.4961 99.1914ZM43.4961 100.312C42.3066 100.312 41.4316 101.01 41.4453 102.104C41.4316 103.184 42.3066 103.908 43.4961 103.895C44.6855 103.908 45.5605 103.184 45.5605 102.104C45.5605 101.01 44.6855 100.312 43.4961 100.312ZM49.6348 98.4121V110.689H48.3359V98.4121H49.6348ZM57.0859 99.6016V109.5H55.582V99.6016H57.0859ZM60.4355 105.098V109.5H58.9727V102.076H60.3809V103.293H60.4629C60.8184 102.5 61.543 101.98 62.6504 101.98C64.1816 101.98 65.1797 102.938 65.1797 104.783V109.5H63.7305V104.961C63.7305 103.881 63.1426 103.238 62.1582 103.238C61.1602 103.238 60.4355 103.908 60.4355 105.098ZM66.957 109.5V102.076H68.4199V109.5H66.957ZM67.6953 100.928C67.1895 100.928 66.7656 100.545 66.7656 100.066C66.7656 99.5879 67.1895 99.2051 67.6953 99.2051C68.1875 99.2051 68.6113 99.5879 68.6113 100.066C68.6113 100.545 68.1875 100.928 67.6953 100.928ZM73.6699 102.076V103.238H72.1523V107.312C72.1523 108.146 72.5762 108.297 73.041 108.311C73.2461 108.311 73.5742 108.283 73.7793 108.27V109.541C73.5742 109.568 73.2598 109.596 72.8633 109.596C71.7148 109.596 70.6895 108.967 70.7031 107.613V103.238H69.6094V102.076H70.7031V100.299H72.1523V102.076H73.6699ZM75.0918 109.5V102.076H76.5547V109.5H75.0918ZM75.8301 100.928C75.3242 100.928 74.9004 100.545 74.9004 100.066C74.9004 99.5879 75.3242 99.2051 75.8301 99.2051C76.3223 99.2051 76.7461 99.5879 76.7461 100.066C76.7461 100.545 76.3223 100.928 75.8301 100.928ZM77.9902 107.408C77.9902 105.713 79.4258 105.275 80.7656 105.18C81.2578 105.146 82.3721 105.084 82.7207 105.07L82.707 104.482C82.707 103.648 82.2012 103.156 81.2031 103.156C80.3418 103.156 79.8223 103.553 79.6719 104.1H78.2227C78.3594 102.869 79.5078 101.98 81.2578 101.98C82.4336 101.98 84.1699 102.418 84.1699 104.564V109.5H82.748V108.488H82.6934C82.4062 109.049 81.7227 109.664 80.4922 109.664C79.084 109.664 77.9902 108.857 77.9902 107.408ZM79.4121 107.422C79.4121 108.133 80 108.502 80.8203 108.502C82.0098 108.502 82.7207 107.709 82.7207 106.82V106.137L80.9707 106.26C80.0137 106.328 79.4121 106.684 79.4121 107.422ZM89.4062 102.076V103.238H87.8887V107.312C87.8887 108.146 88.3125 108.297 88.7773 108.311C88.9824 108.311 89.3105 108.283 89.5156 108.27V109.541C89.3105 109.568 88.9961 109.596 88.5996 109.596C87.4512 109.596 86.4258 108.967 86.4395 107.613V103.238H85.3457V102.076H86.4395V100.299H87.8887V102.076H89.4062ZM90.8281 109.5V102.076H92.291V109.5H90.8281ZM91.5664 100.928C91.0605 100.928 90.6367 100.545 90.6367 100.066C90.6367 99.5879 91.0605 99.2051 91.5664 99.2051C92.0586 99.2051 92.4824 99.5879 92.4824 100.066C92.4824 100.545 92.0586 100.928 91.5664 100.928ZM100.439 102.076L97.7461 109.5H96.1738L93.4805 102.076H95.0527L96.9258 107.777H96.9941L98.8672 102.076H100.439ZM104.568 109.65C102.381 109.65 101.041 108.146 101.041 105.836C101.041 103.553 102.408 101.98 104.473 101.98C106.168 101.98 107.768 103.033 107.768 105.713V106.232H102.49C102.531 107.641 103.358 108.447 104.582 108.447C105.416 108.447 105.949 108.092 106.195 107.641H107.672C107.344 108.844 106.195 109.65 104.568 109.65ZM102.504 105.139H106.332C106.332 104.004 105.607 103.184 104.486 103.184C103.317 103.184 102.559 104.086 102.504 105.139ZM123.408 108.051V109.131H112.197V108.051H114.877V104.852C113.872 104.298 113.264 103.416 113.264 102.322C113.264 100.395 115.15 99.123 117.775 99.123C120.414 99.123 122.301 100.395 122.301 102.322C122.301 103.402 121.713 104.271 120.729 104.824V108.051H123.408ZM117.775 100.162C115.848 100.162 114.521 100.996 114.521 102.322C114.521 103.635 115.848 104.496 117.775 104.496C119.689 104.496 121.043 103.635 121.043 102.322C121.043 100.996 119.689 100.162 117.775 100.162ZM116.162 108.051H119.416V105.316C118.917 105.446 118.363 105.508 117.775 105.508C117.201 105.508 116.654 105.446 116.162 105.33V108.051ZM134.045 99.1777V100.258C134.045 101.42 134.045 102.678 133.703 104.428H135.467V105.494H130.504V110.676H129.191V105.494H124.297V104.428H132.391C132.76 102.685 132.76 101.399 132.76 100.258V100.244H125.664V99.1777H134.045ZM146.938 98.4121V110.662H145.693V98.4121H146.938ZM144.449 98.6445V110.061H143.205V104.154H141.824C141.715 106.547 140.689 108.037 139.172 108.023C137.572 108.037 136.533 106.355 136.533 103.703C136.533 101.051 137.572 99.3828 139.172 99.3965C140.662 99.3828 141.674 100.798 141.824 103.102H143.205V98.6445H144.449ZM139.172 100.613C138.283 100.613 137.736 101.748 137.736 103.703C137.736 105.658 138.283 106.793 139.172 106.793C140.074 106.793 140.635 105.658 140.635 103.703C140.635 101.748 140.074 100.613 139.172 100.613ZM162.1 98.4121V110.662H160.787V98.4121H162.1ZM158.449 99.7246C158.449 103.307 156.918 106.424 152.721 108.434L152.037 107.381C155.298 105.829 156.884 103.621 157.137 100.764H152.625V99.7246H158.449ZM173.639 98.4258V102.035H175.416V103.129H173.639V107.422H172.34V98.4258H173.639ZM174.158 109.35V110.402H165.873V106.533H167.172V109.35H174.158ZM165.764 99.3008V101.256H168.977V99.3008H170.262V105.398H164.492V99.3008H165.764ZM165.764 104.359H168.977V102.281H165.764V104.359ZM185.738 98.4258V102.363H187.516V103.443H185.738V107.586H184.439V98.4258H185.738ZM183.428 99.8477V100.9H176.127V99.8477H179.135V98.4121H180.434V99.8477H183.428ZM179.777 101.488C181.541 101.488 182.744 102.404 182.744 103.799C182.744 105.193 181.541 106.096 179.777 106.096C178 106.096 176.797 105.193 176.797 103.799C176.797 102.404 178 101.488 179.777 101.488ZM179.777 102.486C178.738 102.486 178.041 102.992 178.055 103.799C178.041 104.592 178.738 105.084 179.777 105.084C180.816 105.084 181.514 104.592 181.527 103.799C181.514 102.992 180.816 102.486 179.777 102.486ZM186.258 109.35V110.402H177.973V106.861H179.271V109.35H186.258ZM15.9746 128.109C18.627 128.109 20.2949 128.943 20.3086 130.379C20.2949 131.801 18.627 132.648 15.9746 132.635C13.3496 132.648 11.668 131.801 11.668 130.379C11.668 128.943 13.3496 128.109 15.9746 128.109ZM15.9746 129.094C14.1152 129.094 12.9531 129.572 12.9668 130.379C12.9531 131.172 14.1152 131.637 15.9746 131.637C17.8477 131.637 19.0098 131.172 19.0234 130.379C19.0098 129.572 17.8477 129.094 15.9746 129.094ZM20.2129 121.014V122.039C20.2129 123.023 20.2129 124.035 19.8711 125.293L18.5996 125.156C18.9277 123.905 18.9277 123.003 18.9277 122.053H11.7637V121.014H20.2129ZM21.6074 126.045V127.098H10.4648V126.045H14.9355V123.748H16.207V126.045H21.6074ZM27.0488 123.529C27.0352 125.771 28.3887 128.014 30.2891 128.861L29.5098 129.887C28.1016 129.217 26.9873 127.843 26.4199 126.168C25.8457 127.959 24.7178 129.442 23.248 130.16L22.4551 129.066C24.3828 128.205 25.7363 125.867 25.7363 123.529V121.438H27.0488V123.529ZM32.6953 120.412V132.689H31.3965V120.412H32.6953ZM38.6289 131.5V121.602H42.1562C44.4531 121.602 45.5879 122.887 45.5879 124.705C45.5879 126.038 44.9863 127.05 43.7832 127.494L45.9707 131.5H44.2617L42.252 127.768H42.1562H40.1328V131.5H38.6289ZM40.1328 126.469H42.0059C43.4688 126.469 44.0703 125.826 44.0703 124.705C44.0703 123.584 43.4688 122.887 42.0059 122.887H40.1328V126.469ZM50.2363 131.65C48.0488 131.65 46.709 130.146 46.709 127.836C46.709 125.553 48.0762 123.98 50.1406 123.98C51.8359 123.98 53.4355 125.033 53.4355 127.713V128.232H48.1582C48.1992 129.641 49.0264 130.447 50.25 130.447C51.084 130.447 51.6172 130.092 51.8633 129.641H53.3398C53.0117 130.844 51.8633 131.65 50.2363 131.65ZM48.1719 127.139H52C52 126.004 51.2754 125.184 50.1543 125.184C48.9854 125.184 48.2266 126.086 48.1719 127.139ZM54.8848 134.289V124.076H56.3066V125.279H56.4297C56.6895 124.814 57.1953 123.98 58.5625 123.98C60.3535 123.98 61.6797 125.389 61.6797 127.809C61.6797 130.201 60.3809 131.65 58.5762 131.65C57.2227 131.65 56.6895 130.83 56.4297 130.338H56.3477V134.289H54.8848ZM56.3203 127.781C56.3203 129.34 57.0039 130.406 58.248 130.406C59.5332 130.406 60.2031 129.271 60.2031 127.781C60.2031 126.318 59.5469 125.225 58.248 125.225C56.9902 125.225 56.3203 126.236 56.3203 127.781ZM66.2734 131.65C64.168 131.65 62.8008 130.119 62.8008 127.822C62.8008 125.512 64.168 123.98 66.2734 123.98C68.3652 123.98 69.7324 125.512 69.7324 127.822C69.7324 130.119 68.3652 131.65 66.2734 131.65ZM66.2734 130.434C67.6133 130.434 68.2559 129.244 68.2559 127.822C68.2559 126.4 67.6133 125.184 66.2734 125.184C64.9062 125.184 64.2637 126.4 64.2637 127.822C64.2637 129.244 64.9062 130.434 66.2734 130.434ZM71.168 131.5V124.076H72.5762V125.252H72.6582C72.9316 124.459 73.6699 123.967 74.5449 123.967C74.7227 123.967 75.0098 123.98 75.1602 123.994V125.389C75.0371 125.361 74.6953 125.307 74.3945 125.307C73.3828 125.307 72.6309 126.004 72.6309 126.975V131.5H71.168ZM80.1641 124.076V125.238H78.6465V129.312C78.6465 130.146 79.0703 130.297 79.5352 130.311C79.7402 130.311 80.0684 130.283 80.2734 130.27V131.541C80.0684 131.568 79.7539 131.596 79.3574 131.596C78.209 131.596 77.1836 130.967 77.1973 129.613V125.238H76.1035V124.076H77.1973V122.299H78.6465V124.076H80.1641ZM88.3125 122.764C88.3125 124.104 89.1738 125.457 90.7598 126.059L90.0762 127.057C88.9346 126.619 88.1348 125.785 87.6973 124.773C87.2461 125.915 86.4053 126.906 85.2227 127.412L84.5117 126.4C86.166 125.676 87.0547 124.131 87.0547 122.764V121.178H88.3125V122.764ZM95.0117 120.426V127.959H93.7812V124.678H92.3457V127.576H91.1426V120.645H92.3457V123.611H93.7812V120.426H95.0117ZM90.9102 128.191C93.4668 128.191 95.0664 129.025 95.0801 130.42C95.0664 131.814 93.4668 132.648 90.9102 132.635C88.3535 132.648 86.7539 131.814 86.7676 130.42C86.7539 129.025 88.3535 128.191 90.9102 128.191ZM90.9102 129.189C89.1328 129.189 88.0391 129.641 88.0527 130.42C88.0391 131.199 89.1328 131.65 90.9102 131.637C92.6875 131.65 93.7676 131.199 93.7812 130.42C93.7676 129.641 92.6875 129.189 90.9102 129.189ZM101.014 122.244C101.014 123.967 102.121 125.498 103.98 126.1L103.27 127.111C101.923 126.626 100.932 125.683 100.398 124.459C99.8652 125.86 98.7988 126.947 97.3223 127.48L96.625 126.441C98.5801 125.771 99.7148 124.145 99.7285 122.299V121.096H101.014V122.244ZM106.879 120.412V127.645H105.58V123.967H102.996V122.9H105.58V120.412H106.879ZM102.777 127.986C105.348 127.986 106.92 128.834 106.92 130.324C106.92 131.801 105.348 132.648 102.777 132.635C100.207 132.648 98.6211 131.801 98.6348 130.324C98.6211 128.834 100.207 127.986 102.777 127.986ZM102.777 128.998C100.986 128.998 99.9199 129.477 99.9199 130.324C99.9199 131.145 100.986 131.609 102.777 131.609C104.568 131.609 105.635 131.145 105.635 130.324C105.635 129.477 104.568 128.998 102.777 128.998Z" fill="#393939"/>
<g filter="url(#filter0_d_453_27993)">
<circle cx="293" cy="85.5" r="65" fill="white"/>
</g>
<g clip-path="url(#clip0_453_27993)">
<path d="M310.648 62.8526C310.209 62.5951 309.597 62.6299 308.922 63.0197L309.757 63.5069C310.432 63.1171 311.038 63.0823 311.483 63.3398L310.648 62.8526Z" fill="#F6F2ED"/>
<path d="M268.928 115.863L268.852 89.9021L268.023 89.4219L268.1 115.382C268.1 116.343 268.441 117.025 268.991 117.338L269.826 117.825C269.276 117.505 268.935 116.83 268.935 115.869L268.928 115.863Z" fill="#CCC7BF"/>
<path d="M308.919 63.0156L270.438 85.2316L271.273 85.7188L309.754 63.5028L308.919 63.0156Z" fill="#FDFAF5"/>
<path d="M270.439 85.2344C269.102 86.0069 268.023 87.8861 268.023 89.4242L268.859 89.9114C268.859 88.3733 269.937 86.4941 271.274 85.7216L270.439 85.2344Z" fill="#F6F2ED"/>
<path d="M312.192 64.8894C312.192 63.3512 311.099 62.7318 309.756 63.5044L271.274 85.7203C269.938 86.4929 268.852 88.3721 268.859 89.9102L268.936 115.871C268.936 117.812 270.314 118.592 271.998 117.618L309.213 96.1324C310.904 95.158 312.268 92.7916 312.261 90.8568L312.185 64.8963L312.192 64.8894Z" fill="#E9E4DB"/>
<path d="M297.571 49.5703L280.568 59.3907C279.503 60.0102 278.633 61.3743 278.633 62.4392V100.691L305.408 85.2328V52.8832L301.6 51.874L297.571 49.5703Z" fill="#1755D2"/>
<path d="M297.57 49.5703V55.3749C297.57 56.4815 298.468 56.8643 299.575 56.224L305.379 52.8693L297.57 49.5703Z" fill="#F2EDE4"/>
<path d="M298.907 58.9851L285.141 66.9333V66.2373L298.907 58.2891V58.9851Z" fill="#F2EDE4"/>
<path d="M298.907 62.7116L285.141 70.6598V69.9638L298.907 62.0156V62.7116Z" fill="#F2EDE4"/>
<path d="M298.907 66.4382L285.141 74.3864V73.6904L298.907 65.7422V66.4382Z" fill="#F2EDE4"/>
<path d="M298.907 70.1647L285.141 78.1129V77.417L298.907 69.4688V70.1647Z" fill="#F2EDE4"/>
<path d="M298.907 73.8835L285.141 81.8317V81.1357L298.907 73.1875V73.8835Z" fill="#F2EDE4"/>
<path d="M316.745 66.7861C316.397 66.5077 315.792 66.5495 315.047 66.974L315.868 67.6282C316.606 67.2037 317.211 67.155 317.566 67.4403L316.745 66.7861Z" fill="#F6F2ED"/>
<path d="M315.039 66.9766L299.609 75.8922L300.424 76.5464L315.861 67.6308L315.039 66.9766Z" fill="#FDFAF5"/>
<path d="M299.616 75.8906L288.953 88.2653L289.774 88.9196L300.43 76.5449L299.616 75.8906Z" fill="#F6F2ED"/>
<path d="M288.951 88.2656L272.922 97.5223L273.743 98.1765L289.772 88.9199L288.951 88.2656Z" fill="#FDFAF5"/>
<path d="M270.456 116.84L273.734 98.1734L268.438 93.9766L268.855 116.165C268.723 116.937 268.966 117.271 269.321 117.55L270.818 118.448C270.463 118.162 270.31 117.619 270.449 116.847L270.456 116.84Z" fill="#CCC7BF"/>
<path d="M315.864 67.6257L300.434 76.5343L289.771 88.909L273.742 98.1657L270.464 116.832C270.158 118.558 271.286 119.164 272.977 118.189L310.191 96.7041C311.876 95.7297 313.49 93.5443 313.797 91.8113L317.854 68.6975C318.098 67.3264 317.2 66.8461 315.864 67.6187V67.6257Z" fill="#E9E4DB"/>
<path d="M269.785 93.7656L268.859 94.3015L273.738 98.1712L274.664 97.6353L269.785 93.7656Z" fill="#FDFAF5"/>
</g>
<rect width="55" height="21" transform="translate(265.5 162.5)" fill="#F9F9F9"/>
<path d="M266.334 168.602H272.979V170.297H268.385V172.703H272.637V174.398H268.385V176.805H272.992V178.5H266.334V168.602ZM279.951 171.432C279.91 171.04 279.739 170.734 279.438 170.516C279.142 170.297 278.743 170.188 278.242 170.188C277.9 170.188 277.606 170.238 277.36 170.338C277.119 170.434 276.934 170.568 276.807 170.741C276.679 170.914 276.615 171.11 276.615 171.329C276.615 171.657 276.757 171.917 277.039 172.108C277.326 172.295 277.714 172.443 278.201 172.553L279.09 172.771C280.006 172.981 280.728 173.323 281.257 173.797C281.785 174.266 282.052 174.891 282.057 175.67C282.057 176.271 281.904 176.796 281.599 177.242C281.293 177.689 280.854 178.033 280.279 178.274C279.705 178.516 279.021 178.637 278.229 178.637C277.426 178.641 276.731 178.521 276.144 178.274C275.556 178.028 275.098 177.664 274.77 177.181C274.441 176.698 274.268 176.107 274.25 175.41H276.246C276.278 175.898 276.469 176.271 276.82 176.531C277.176 176.786 277.636 176.914 278.201 176.914C278.557 176.914 278.869 176.862 279.138 176.757C279.407 176.652 279.614 176.506 279.76 176.319C279.906 176.132 279.979 175.916 279.979 175.67C279.979 175.351 279.84 175.098 279.562 174.911C279.288 174.72 278.862 174.553 278.283 174.412L277.203 174.152C275.408 173.71 274.51 172.812 274.51 171.459C274.51 170.871 274.669 170.352 274.988 169.9C275.312 169.445 275.756 169.091 276.321 168.841C276.891 168.59 277.536 168.465 278.256 168.465C278.976 168.465 279.612 168.59 280.163 168.841C280.715 169.091 281.143 169.442 281.448 169.894C281.754 170.34 281.911 170.853 281.92 171.432H279.951ZM289.973 171.787C289.831 171.318 289.578 170.951 289.214 170.687C288.849 170.422 288.4 170.288 287.867 170.283C287.357 170.288 286.908 170.418 286.521 170.673C286.133 170.928 285.832 171.299 285.618 171.787C285.404 172.275 285.297 172.858 285.297 173.537C285.297 174.225 285.402 174.815 285.611 175.308C285.821 175.8 286.119 176.174 286.507 176.429C286.894 176.684 287.352 176.814 287.881 176.818C288.346 176.818 288.747 176.734 289.084 176.565C289.426 176.397 289.688 176.16 289.87 175.854C290.057 175.545 290.155 175.182 290.164 174.768H288.018V173.223H292.146V174.453C292.146 175.305 291.964 176.048 291.6 176.682C291.24 177.311 290.734 177.794 290.082 178.131C289.435 178.468 288.697 178.637 287.867 178.637C286.947 178.637 286.133 178.432 285.427 178.021C284.725 177.607 284.178 177.019 283.786 176.258C283.399 175.492 283.205 174.594 283.205 173.564C283.205 172.521 283.406 171.614 283.807 170.844C284.208 170.074 284.759 169.486 285.461 169.08C286.163 168.67 286.951 168.465 287.826 168.465C288.56 168.465 289.232 168.606 289.843 168.889C290.453 169.171 290.95 169.565 291.333 170.071C291.72 170.573 291.96 171.145 292.051 171.787H289.973ZM302.018 175.068C302.924 175.068 303.711 175.162 304.376 175.349C305.041 175.531 305.554 175.8 305.914 176.155C306.274 176.506 306.456 176.928 306.461 177.42C306.456 177.903 306.274 178.32 305.914 178.671C305.554 179.026 305.039 179.295 304.369 179.478C303.704 179.664 302.92 179.758 302.018 179.758C301.12 179.758 300.336 179.664 299.666 179.478C299.001 179.295 298.488 179.026 298.128 178.671C297.768 178.32 297.588 177.903 297.588 177.42C297.588 176.928 297.768 176.506 298.128 176.155C298.488 175.8 299.001 175.531 299.666 175.349C300.336 175.162 301.12 175.068 302.018 175.068ZM296.439 172.867H300.678V170.693H302.4V172.867H307.732V174.275H296.439V172.867ZM297.711 167.877H306.393V168.889V169.251C306.393 169.798 306.37 170.304 306.324 170.769C306.279 171.233 306.183 171.719 306.037 172.225L304.328 172.061C304.456 171.55 304.54 171.085 304.581 170.666C304.622 170.242 304.647 169.768 304.656 169.244H297.711V167.877ZM299.324 177.42C299.32 177.753 299.55 178.006 300.015 178.179C300.484 178.347 301.152 178.432 302.018 178.432C302.883 178.432 303.551 178.347 304.021 178.179C304.49 178.006 304.725 177.753 304.725 177.42C304.725 177.078 304.492 176.818 304.027 176.641C303.567 176.458 302.913 176.367 302.065 176.367C301.181 176.367 300.502 176.456 300.028 176.634C299.554 176.812 299.32 177.074 299.324 177.42ZM313.352 170.133C313.347 170.912 313.463 171.664 313.7 172.389C313.937 173.113 314.293 173.758 314.767 174.323C315.241 174.888 315.817 175.314 316.496 175.602L315.471 176.996C314.778 176.682 314.181 176.23 313.68 175.643C313.183 175.055 312.789 174.364 312.497 173.571C312.21 174.437 311.807 175.191 311.287 175.834C310.768 176.472 310.139 176.96 309.4 177.297L308.348 175.848C309.049 175.551 309.642 175.112 310.125 174.528C310.613 173.94 310.977 173.268 311.219 172.512C311.46 171.751 311.583 170.958 311.588 170.133V168.273H313.352V170.133ZM317.166 167.316H318.93V179.785H317.166V167.316Z" fill="#393939"/>
<defs>
<filter id="filter0_d_453_27993" x="208" y="0.5" width="170" height="170" filterUnits="userSpaceOnUse" color-interpolation-filters="sRGB">
<feFlood flood-opacity="0" result="BackgroundImageFix"/>
<feColorMatrix in="SourceAlpha" type="matrix" values="0 0 0 0 0 0 0 0 0 0 0 0 0 0 0 0 0 0 127 0" result="hardAlpha"/>
<feOffset/>
<feGaussianBlur stdDeviation="10"/>
<feComposite in2="hardAlpha" operator="out"/>
<feColorMatrix type="matrix" values="0 0 0 0 0 0 0 0 0 0 0 0 0 0 0 0 0 0 0.1 0"/>
<feBlend mode="normal" in2="BackgroundImageFix" result="effect1_dropShadow_453_27993"/>
<feBlend mode="normal" in="SourceGraphic" in2="effect1_dropShadow_453_27993" result="shape"/>
</filter>
<clipPath id="clip0_453_27993">
<rect width="49.8607" height="69.0909" fill="white" transform="translate(268.023 49.5703)"/>
</clipPath>
</defs>
</svg>
