<svg width="380" height="188" viewBox="0 0 380 188" fill="none" xmlns="http://www.w3.org/2000/svg">
<g filter="url(#filter0_d_453_27965)">
<circle cx="85" cy="85" r="65" fill="white"/>
</g>
<rect x="180" y="30" width="200" height="42" rx="4" fill="#0568CC"/>
<path d="M196.81 56V45.38H204.16V47.42H199.3V49.67H203.77V51.71H199.3V53.96H204.16V56H196.81ZM211.476 48.56C211.401 47.78 210.831 47.315 209.826 47.33C208.806 47.315 208.281 47.75 208.266 48.35C208.266 49.01 208.911 49.34 209.856 49.55L210.786 49.76C212.826 50.21 214.011 51.23 214.026 52.94C214.011 54.935 212.451 56.135 209.826 56.15C207.171 56.135 205.461 54.95 205.416 52.52H207.816C207.876 53.54 208.641 54.065 209.796 54.05C210.846 54.065 211.476 53.6 211.476 52.91C211.476 52.31 210.921 51.995 209.766 51.71L208.656 51.47C206.811 51.035 205.701 50.135 205.686 48.53C205.686 46.565 207.426 45.245 209.826 45.26C212.271 45.245 213.846 46.58 213.876 48.56H211.476ZM222.271 48.86C222.031 47.96 221.326 47.435 220.261 47.45C218.716 47.435 217.726 48.62 217.711 50.69C217.726 52.76 218.671 53.945 220.261 53.96C221.686 53.945 222.481 53.225 222.511 52.07H220.381V50.21H224.911V51.62C224.911 54.455 222.976 56.15 220.261 56.15C217.231 56.15 215.176 54.065 215.161 50.72C215.176 47.24 217.396 45.245 220.231 45.26C222.661 45.245 224.551 46.745 224.821 48.86H222.271ZM240.689 43.97V51.62H238.589V50.45H235.769V48.77H238.589V47.66H235.889C235.079 49.775 233.204 51.215 230.219 52.01L229.409 50.36C232.439 49.58 233.804 48.2 234.074 46.52H230.129V44.84H236.369C236.369 45.245 236.339 45.635 236.294 46.01H238.589V43.97H240.689ZM231.569 54.56C231.554 52.865 233.429 51.785 236.189 51.77C238.919 51.785 240.794 52.865 240.809 54.56C240.794 56.255 238.919 57.35 236.189 57.35C233.429 57.35 231.554 56.255 231.569 54.56ZM233.669 54.56C233.669 55.31 234.599 55.685 236.189 55.67C237.764 55.685 238.679 55.31 238.679 54.56C238.679 53.78 237.764 53.405 236.189 53.42C234.599 53.405 233.669 53.78 233.669 54.56ZM246.033 44.66C247.083 44.66 248.013 45.035 248.658 45.68H251.553V43.97H253.653V51.8H251.553V50.3H248.628C247.983 50.93 247.068 51.305 246.033 51.29C243.993 51.305 242.418 49.895 242.433 47.99C242.418 46.055 243.993 44.66 246.033 44.66ZM244.383 54.74C244.368 53.06 246.168 52.07 249.033 52.07C251.883 52.07 253.683 53.06 253.683 54.74C253.683 56.42 251.883 57.425 249.033 57.41C246.168 57.425 244.368 56.42 244.383 54.74ZM244.443 47.99C244.428 48.95 245.088 49.52 246.033 49.52C246.948 49.52 247.608 48.95 247.623 47.99C247.608 46.985 246.948 46.46 246.033 46.46C245.088 46.46 244.428 46.985 244.443 47.99ZM246.423 54.74C246.423 55.445 247.338 55.775 249.033 55.79C250.758 55.775 251.628 55.445 251.643 54.74C251.628 54.005 250.758 53.675 249.033 53.69C247.338 53.675 246.423 54.005 246.423 54.74ZM249.543 47.33C249.588 47.54 249.603 47.765 249.603 47.99C249.603 48.2 249.588 48.41 249.543 48.62H251.553V47.33H249.543ZM266.161 44.93V45.8C266.146 46.76 266.146 48.095 265.861 49.73L263.791 49.55C264.001 48.35 264.061 47.42 264.091 46.64H259.171V44.93H266.161ZM258.391 50.63C259.111 50.63 259.906 50.615 260.761 50.6V48.05H262.831V50.54C264.121 50.48 265.456 50.39 266.671 50.21L266.791 51.71C264.001 52.235 260.881 52.28 258.571 52.28L258.391 50.63ZM260.311 57.2V53.12H262.441V55.49H269.911V57.2H260.311ZM267.331 53.99V43.97H269.491V47.96H271.021V49.73H269.491V53.99H267.331ZM282.875 43.97V57.44H280.775V43.97H282.875ZM272.255 54.32V48.71H276.515V46.73H272.255V45.05H278.675V50.36H274.445V52.61C276.425 52.58 278.09 52.475 279.905 52.16L280.085 53.87C277.97 54.245 275.99 54.32 273.485 54.32H272.255ZM293.253 46.82C293.238 49.295 294.183 51.77 296.583 52.76L295.323 54.44C293.808 53.765 292.803 52.52 292.218 50.96C291.618 52.685 290.568 54.065 288.933 54.8L287.673 53.03C290.133 52.025 291.093 49.46 291.123 46.82V44.96H293.253V46.82ZM297.033 57.44V43.97H299.163V57.44H297.033ZM308.497 44.69V46.37H305.917C305.992 47.825 306.847 49.325 309.007 50L307.927 51.62C306.457 51.17 305.467 50.255 304.882 49.13C304.282 50.375 303.247 51.365 301.717 51.86L300.577 50.24C302.782 49.535 303.697 47.915 303.787 46.37H301.147V44.69H308.497ZM302.437 54.26V52.61H311.557V57.41H309.427V54.26H302.437ZM309.427 52.07V43.97H311.557V47.12H313.297V48.86H311.557V52.07H309.427Z" fill="white"/>
<circle cx="181.5" cy="97" r="1.5" fill="#393939"/>
<path opacity="0.9" d="M190.686 90.968H195.502V91.948H190.686V90.968ZM190.854 94.93H195.362V95.91H190.854V94.93ZM190.42 99.914C191.722 99.592 193.682 99.046 195.572 98.5L195.712 99.438C193.948 99.97 192.072 100.516 190.7 100.936L190.42 99.914ZM197.126 93.992V95.406H201.718V93.992H197.126ZM197.126 96.26V97.674H201.718V96.26H197.126ZM197.126 91.752V93.152H201.718V91.752H197.126ZM196.146 90.856H202.74V98.584H196.146V90.856ZM199.814 98.15H200.822V101.706C200.822 102.056 200.892 102.112 201.228 102.112C201.382 102.112 202.11 102.112 202.32 102.112C202.642 102.112 202.698 101.902 202.74 100.46C202.95 100.628 203.37 100.796 203.636 100.852C203.552 102.588 203.286 103.036 202.432 103.036C202.222 103.036 201.27 103.036 201.074 103.036C200.052 103.036 199.814 102.728 199.814 101.72V98.15ZM197.434 98.36H198.456C198.204 100.726 197.49 102.336 194.662 103.218C194.55 102.952 194.27 102.546 194.06 102.35C196.636 101.65 197.21 100.306 197.434 98.36ZM192.632 91.36H193.64V99.606L192.632 99.774V91.36ZM208.43 102V92.1016H214.637V93.4004H209.934V96.3945H214.309V97.6797H209.934V100.701H214.691V102H208.43ZM221.869 94.7129C221.773 93.7969 220.967 93.2637 219.832 93.2637C218.615 93.2637 217.85 93.8789 217.85 94.7266C217.85 95.6699 218.875 96.0254 219.654 96.2168L220.611 96.4766C221.883 96.7773 223.455 97.4746 223.469 99.2656C223.455 100.934 222.129 102.164 219.791 102.164C217.576 102.164 216.182 101.057 216.086 99.252H217.59C217.686 100.332 218.629 100.852 219.791 100.852C221.049 100.852 221.965 100.209 221.979 99.2383C221.965 98.377 221.158 98.0215 220.105 97.748L218.93 97.4336C217.344 96.9961 216.346 96.1895 216.346 94.8086C216.346 93.0996 217.877 91.9648 219.873 91.9648C221.883 91.9648 223.291 93.1133 223.332 94.7129H221.869ZM231.768 95.2324C231.398 94.0566 230.51 93.3457 229.197 93.3457C227.529 93.3457 226.244 94.6582 226.244 97.0508C226.244 99.4434 227.516 100.756 229.266 100.756C230.845 100.756 231.891 99.7578 231.918 98.1719H229.484V96.9277H233.381V98.0488C233.381 100.551 231.658 102.137 229.252 102.137C226.572 102.137 224.754 100.182 224.754 97.0508C224.754 93.8926 226.627 91.9648 229.184 91.9648C231.33 91.9648 232.971 93.3047 233.312 95.2324H231.768ZM248.188 90.9258V98.1719H246.889V96.6816H243.799V95.6152H246.889V94.125H243.922C243.136 96.0938 241.297 97.4814 238.645 98.2402L238.125 97.2285C241.023 96.3945 242.719 94.8428 242.951 92.8672H238.754V91.8008H244.359C244.359 92.252 244.312 92.6895 244.236 93.0996H246.889V90.9258H248.188ZM244.154 98.3086C246.629 98.3086 248.256 99.2109 248.27 100.701C248.256 102.191 246.629 103.107 244.154 103.107C241.639 103.107 240.025 102.191 240.025 100.701C240.025 99.2109 241.639 98.3086 244.154 98.3086ZM244.154 99.334C242.404 99.334 241.311 99.8262 241.311 100.701C241.311 101.562 242.404 102.068 244.154 102.068C245.877 102.068 246.957 101.562 246.971 100.701C246.957 99.8262 245.877 99.334 244.154 99.334ZM253.465 91.623C254.483 91.6162 255.352 91.999 255.926 92.6348H258.988V90.9121H260.287V98.1445H258.988V96.4902H255.912C255.345 97.1191 254.477 97.4951 253.465 97.4883C251.619 97.502 250.252 96.2715 250.252 94.5625C250.252 92.8398 251.619 91.6094 253.465 91.623ZM253.465 92.7441C252.316 92.7305 251.496 93.4688 251.496 94.5625C251.496 95.6289 252.316 96.3945 253.465 96.3809C254.586 96.3945 255.406 95.6289 255.406 94.5625C255.406 93.4688 254.586 92.7305 253.465 92.7441ZM256.186 98.418C258.729 98.418 260.328 99.2793 260.328 100.783C260.328 102.273 258.729 103.148 256.186 103.135C253.629 103.148 252.029 102.273 252.043 100.783C252.029 99.2793 253.629 98.418 256.186 98.418ZM256.186 99.416C254.395 99.416 253.301 99.9082 253.314 100.783C253.301 101.631 254.395 102.109 256.186 102.109C257.99 102.109 259.057 101.631 259.057 100.783C259.057 99.9082 257.99 99.416 256.186 99.416ZM256.514 93.6738C256.603 93.9473 256.65 94.248 256.65 94.5625C256.65 94.8633 256.603 95.1572 256.527 95.4238H258.988V93.6738H256.514ZM268.449 91.9922C268.436 93.6191 270.432 95.1504 272.838 95.4648L272.332 96.5312C270.329 96.21 268.565 95.1709 267.779 93.7285C266.973 95.1777 265.216 96.21 263.227 96.5312L262.707 95.4648C265.113 95.1504 267.082 93.6328 267.096 91.9922V91.3223H268.449V91.9922ZM273.344 97.7344V98.8008H268.367V103.162H267.096V98.8008H262.174V97.7344H273.344ZM284.445 91.5V92.5391H280.713C280.788 93.8721 282.552 95.0479 284.828 95.3281L284.336 96.3535C282.237 96.0801 280.515 95.1025 279.852 93.7285C279.188 95.0957 277.473 96.0801 275.381 96.3535L274.889 95.3281C277.179 95.0479 278.922 93.8721 278.99 92.5391H275.299V91.5H284.445ZM285.471 97.1465V98.1992H280.604V100.578H279.318V98.1992H274.26V97.1465H285.471ZM284.227 101.85V102.902H275.654V99.4023H276.953V101.85H284.227ZM291.951 91.1172C294.713 91.1172 296.326 91.8555 296.326 93.2227C296.326 94.5898 294.713 95.3418 291.951 95.3418C289.189 95.3418 287.576 94.5898 287.576 93.2227C287.576 91.8555 289.189 91.1172 291.951 91.1172ZM291.951 92.0742C289.996 92.0742 288.916 92.498 288.93 93.2227C288.916 93.9746 289.996 94.3711 291.951 94.3711C293.906 94.3711 294.986 93.9746 294.986 93.2227C294.986 92.498 293.906 92.0742 291.951 92.0742ZM297.543 96.0938V97.1328H286.373V96.0938H297.543ZM296.135 98.0762V100.947H288.998V102.041H296.477V103.039H287.727V100.004H294.85V99.0469H287.713V98.0762H296.135ZM306.43 93.4688C306.43 95.0547 307.605 96.5449 309.492 97.1465L308.822 98.1582C307.414 97.6934 306.348 96.7295 305.801 95.5059C305.247 96.8389 304.16 97.8916 302.697 98.4043L302.027 97.3789C303.928 96.7363 305.104 95.1504 305.117 93.4688V92.9355H302.369V91.8828H309.123V92.9355H306.43V93.4688ZM312.049 90.9258V99.8672H310.75V90.9258H312.049ZM312.418 101.85V102.902H304.037V99.0195H305.35V101.85H312.418ZM323.615 90.8984V94.4531H325.406V95.5332H323.615V99.7715H322.316V90.8984H323.615ZM320.006 91.9512V93.0039H315.822V96.5723C318.208 96.5791 319.555 96.5039 321.086 96.1895L321.236 97.2422C319.582 97.5703 318.133 97.6523 315.508 97.6523H314.537V91.9512H320.006ZM324.135 101.85V102.902H315.85V98.8555H317.148V101.85H324.135Z" fill="#393939"/>
<circle cx="181.5" cy="123" r="1.5" fill="#393939"/>
<path opacity="0.9" d="M200.938 116.912V129.162H199.693V122.805H198.176V128.574H196.959V117.24H198.176V121.752H199.693V116.912H200.938ZM195.742 118.471C195.729 121.697 194.662 124.582 191.162 126.564L190.41 125.662C193.131 124.124 194.279 122.039 194.484 119.537H190.93V118.471H195.742ZM206.871 119.154C206.871 120.809 207.979 122.422 209.824 123.064L209.113 124.076C207.773 123.563 206.775 122.552 206.256 121.273C205.723 122.695 204.677 123.816 203.234 124.363L202.537 123.338C204.438 122.654 205.572 120.959 205.586 119.113V117.664H206.871V119.154ZM212.764 116.926V126.059H211.465V120.781H208.881V119.715H211.465V116.926H212.764ZM213.037 127.85V128.902H204.766V125.033H206.078V127.85H213.037ZM227.611 116.912V121.793H229.512V122.873H227.611V129.148H226.312V116.912H227.611ZM224.412 118.197C224.398 121.738 222.84 124.896 218.807 126.893L218.082 125.881C221.151 124.35 222.819 122.135 223.086 119.277H218.697V118.197H224.412ZM240.312 116.912V129.189H239.014V116.912H240.312ZM233.764 117.828C235.582 117.828 236.922 119.496 236.922 122.121C236.922 124.76 235.582 126.428 233.764 126.428C231.918 126.428 230.592 124.76 230.592 122.121C230.592 119.496 231.918 117.828 233.764 117.828ZM233.764 118.99C232.629 118.99 231.85 120.193 231.85 122.121C231.85 124.062 232.629 125.266 233.764 125.266C234.885 125.266 235.664 124.062 235.664 122.121C235.664 120.193 234.885 118.99 233.764 118.99ZM252.193 122.723V123.789H243.662V118.006H252.084V119.072H244.947V122.723H252.193ZM253.479 126.469V127.549H242.268V126.469H253.479ZM268.299 116.912V129.162H267.055V116.912H268.299ZM265.811 117.172V128.547H264.58V122.312H262.68V121.246H264.58V117.172H265.811ZM261.477 120.33C261.477 122.422 262.324 124.514 264.047 125.512L263.268 126.469C262.099 125.771 261.292 124.534 260.875 123.051C260.431 124.65 259.597 126.011 258.4 126.756L257.607 125.785C259.344 124.732 260.232 122.504 260.232 120.33V119.346H257.977V118.293H263.582V119.346H261.477V120.33ZM275.408 124.609C278.061 124.609 279.729 125.443 279.742 126.879C279.729 128.301 278.061 129.148 275.408 129.135C272.783 129.148 271.102 128.301 271.102 126.879C271.102 125.443 272.783 124.609 275.408 124.609ZM275.408 125.594C273.549 125.594 272.387 126.072 272.4 126.879C272.387 127.672 273.549 128.137 275.408 128.137C277.281 128.137 278.443 127.672 278.457 126.879C278.443 126.072 277.281 125.594 275.408 125.594ZM279.646 117.514V118.539C279.646 119.523 279.646 120.535 279.305 121.793L278.033 121.656C278.361 120.405 278.361 119.503 278.361 118.553H271.197V117.514H279.646ZM281.041 122.545V123.598H269.898V122.545H274.369V120.248H275.641V122.545H281.041Z" fill="#393939"/>
<defs>
<filter id="filter0_d_453_27965" x="0" y="0" width="170" height="170" filterUnits="userSpaceOnUse" color-interpolation-filters="sRGB">
<feFlood flood-opacity="0" result="BackgroundImageFix"/>
<feColorMatrix in="SourceAlpha" type="matrix" values="0 0 0 0 0 0 0 0 0 0 0 0 0 0 0 0 0 0 127 0" result="hardAlpha"/>
<feOffset/>
<feGaussianBlur stdDeviation="10"/>
<feComposite in2="hardAlpha" operator="out"/>
<feColorMatrix type="matrix" values="0 0 0 0 0 0 0 0 0 0 0 0 0 0 0 0 0 0 0.1 0"/>
<feBlend mode="normal" in2="BackgroundImageFix" result="effect1_dropShadow_453_27965"/>
<feBlend mode="normal" in="SourceGraphic" in2="effect1_dropShadow_453_27965" result="shape"/>
</filter>
</defs>
</svg>
