<svg width="378" height="187" viewBox="0 0 378 187" fill="none" xmlns="http://www.w3.org/2000/svg">
<rect y="37" width="198" height="42" rx="4" fill="#0568CC"/>
<path d="M23.98 56.1C23.815 54.915 22.9 54.195 21.67 54.21C20.02 54.195 18.925 55.47 18.94 57.69C18.925 59.985 20.035 61.185 21.67 61.2C22.87 61.185 23.77 60.525 23.98 59.4H26.2C25.96 61.365 24.325 63.15 21.61 63.15C18.79 63.15 16.69 61.155 16.69 57.69C16.69 54.24 18.82 52.245 21.61 52.26C24.07 52.245 25.915 53.655 26.2 56.1H23.98ZM31.4745 63H27.7545V52.38H31.5345C34.7145 52.395 36.6795 54.375 36.6645 57.69C36.6795 61.005 34.7145 63 31.4745 63ZM29.9445 61.11H31.3845C33.4095 61.11 34.4745 60.06 34.4745 57.69C34.4745 55.32 33.4095 54.285 31.4145 54.27H29.9445V61.11ZM38.2574 63V52.38H42.3974C44.8274 52.395 46.2074 53.88 46.2074 55.98C46.2074 58.08 44.7974 59.55 42.3674 59.55H40.4474V63H38.2574ZM40.4474 57.78H42.0074C43.3124 57.765 43.9424 57.03 43.9274 55.98C43.9424 54.915 43.3124 54.195 42.0074 54.21H40.4474V57.78ZM58.0048 51.9V53.4H56.9248V56.94C57.3598 56.91 57.7948 56.865 58.2148 56.82L58.2748 58.2C55.7848 58.62 52.8748 58.665 50.7748 58.68L50.5648 57.15H51.9748V53.4H50.8948V51.9H58.0048ZM52.6648 61.89C52.6648 60.285 54.3898 59.37 57.2548 59.37C60.1198 59.37 61.8448 60.285 61.8448 61.89C61.8448 63.42 60.1198 64.35 57.2548 64.35C54.3898 64.35 52.6648 63.42 52.6648 61.89ZM53.8048 57.105C54.2398 57.09 54.6898 57.075 55.1248 57.06V53.4H53.8048V57.105ZM54.5248 61.89C54.5248 62.58 55.4698 62.925 57.2548 62.94C59.0398 62.925 59.9848 62.58 59.9848 61.89C59.9848 61.14 59.0398 60.795 57.2548 60.81C55.4698 60.795 54.5248 61.14 54.5248 61.89ZM58.3048 57.18V55.68H59.9548V54.66H58.3048V53.19H59.9548V51H61.8148V59.16H59.9548V57.18H58.3048ZM74.0587 51V56.13H75.9487V57.66H74.0587V64.32H72.1687V51H74.0587ZM63.3787 60.6C66.5437 59.01 68.2237 56.88 68.5837 53.91H64.1587V52.38H70.4887C70.4737 56.37 68.9287 59.82 64.4587 62.01L63.3787 60.6ZM91.4696 51V64.35H89.6996V57.66H88.4396V63.69H86.6996V51.24H88.4396V56.16H89.6996V51H91.4696ZM80.3396 61.32V52.56H85.3196V54.06H82.1996V59.76C83.4896 59.745 84.6296 59.67 85.9196 59.43L86.0696 60.96C84.4346 61.275 83.0246 61.32 81.2696 61.32H80.3396ZM105.093 57.27V58.71H92.9134V57.27H105.093ZM94.1434 53.91C94.1284 52.305 96.0484 51.3 99.0034 51.3C101.928 51.3 103.833 52.305 103.833 53.91C103.833 55.545 101.928 56.52 99.0034 56.52C96.0484 56.52 94.1284 55.545 94.1434 53.91ZM94.3234 61.92C94.3084 60.345 96.0634 59.46 98.9734 59.46C101.868 59.46 103.608 60.345 103.623 61.92C103.608 63.495 101.868 64.365 98.9734 64.35C96.0634 64.365 94.3084 63.495 94.3234 61.92ZM96.0934 53.91C96.0634 54.69 97.1284 55.08 99.0034 55.08C100.833 55.08 101.913 54.69 101.913 53.91C101.913 53.13 100.833 52.755 99.0034 52.77C97.1284 52.755 96.0634 53.13 96.0934 53.91ZM96.2134 61.92C96.1984 62.61 97.1284 62.94 98.9734 62.94C100.788 62.94 101.748 62.61 101.763 61.92C101.748 61.215 100.788 60.885 98.9734 60.87C97.1284 60.885 96.1984 61.215 96.2134 61.92Z" fill="white"/>
<circle cx="1.5" cy="104" r="1.5" fill="#393939"/>
<path opacity="0.9" d="M11.8594 109H10.2598L13.8145 99.1016H15.5508L19.1191 109H17.5195L16.6172 106.389H12.7617L11.8594 109ZM13.1992 105.131H16.1797L14.7168 100.906H14.6484L13.1992 105.131ZM21.8809 99.1016V109H20.377V99.1016H21.8809ZM36.9336 97.9121V110.162H35.6211V97.9121H36.9336ZM33.2832 99.2246C33.2832 102.807 31.752 105.924 27.5547 107.934L26.8711 106.881C30.1318 105.329 31.7178 103.121 31.9707 100.264H27.459V99.2246H33.2832ZM45.0957 98.377C45.0957 99.7852 47.0371 100.961 49.4297 101.234L48.9785 102.219C46.9688 101.979 45.2119 101.132 44.4258 99.8809C43.6328 101.132 41.876 101.979 39.8867 102.219L39.4355 101.234C41.8281 100.961 43.7695 99.7852 43.7695 98.377V97.9668H45.0957V98.377ZM50.0176 102.93V103.969H45.0684V105.062H48.6094V107.961H41.4727V109.041H48.9512V110.039H40.2012V107.018H47.3242V106.061H40.1875V105.062H43.7695V103.969H38.8477V102.93H50.0176ZM61.0918 97.9121V110.189H59.793V97.9121H61.0918ZM54.543 98.8281C56.3613 98.8281 57.7012 100.496 57.7012 103.121C57.7012 105.76 56.3613 107.428 54.543 107.428C52.6973 107.428 51.3711 105.76 51.3711 103.121C51.3711 100.496 52.6973 98.8281 54.543 98.8281ZM54.543 99.9902C53.4082 99.9902 52.6289 101.193 52.6289 103.121C52.6289 105.062 53.4082 106.266 54.543 106.266C55.6641 106.266 56.4434 105.062 56.4434 103.121C56.4434 101.193 55.6641 99.9902 54.543 99.9902ZM70.8535 100.086C70.8535 101.631 71.9609 103.148 73.8066 103.777L73.1367 104.789C71.7627 104.311 70.7441 103.333 70.2109 102.123C69.6777 103.47 68.6045 104.55 67.1484 105.062L66.4785 104.037C68.3652 103.395 69.5273 101.754 69.5273 100.1V99.7578H66.875V98.7051H73.4785V99.7578H70.8535V100.086ZM76.6777 105.855V110.162H75.3789V106.908H68.3789V105.855H76.6777ZM76.6777 97.9121V105.24H75.3789V102.096H73.1094V101.029H75.3789V97.9121H76.6777ZM89.7344 103.887V104.939H78.5645V103.887H81.2441V102.232C80.3008 101.85 79.7676 101.234 79.7676 100.428C79.7676 98.9785 81.4492 98.1309 84.1426 98.1309C86.8223 98.1309 88.5176 98.9785 88.5176 100.428C88.5176 101.234 87.9775 101.856 87.0273 102.232V103.887H89.7344ZM84.1426 105.773C86.7812 105.773 88.3672 106.553 88.3672 107.947C88.3672 109.369 86.7812 110.135 84.1426 110.135C81.4766 110.135 79.8906 109.369 79.8906 107.947C79.8906 106.553 81.4766 105.773 84.1426 105.773ZM84.1426 106.771C82.2695 106.771 81.2031 107.195 81.2031 107.947C81.2031 108.713 82.2695 109.15 84.1426 109.137C85.9883 109.15 87.0684 108.713 87.0684 107.947C87.0684 107.195 85.9883 106.771 84.1426 106.771ZM84.1426 99.1289C82.2422 99.1289 81.0938 99.6074 81.1074 100.428C81.0938 101.248 82.2422 101.713 84.1426 101.713C86.043 101.713 87.1777 101.248 87.1777 100.428C87.1777 99.6074 86.043 99.1289 84.1426 99.1289ZM82.5566 103.887H85.7422V102.574C85.2637 102.656 84.7236 102.697 84.1426 102.697C83.5684 102.697 83.0352 102.656 82.5566 102.588V103.887ZM97.8008 101.836V102.889H95.4082V104.434C96.4951 104.386 97.5752 104.311 98.5801 104.201L98.6758 105.158C96.0645 105.514 93.1934 105.582 90.8965 105.582L90.7188 104.543C91.7646 104.536 92.9336 104.522 94.123 104.488V102.889H91.8125V98.6914H97.6914V99.7441H93.1113V101.836H97.8008ZM100.822 97.9121V107.1H99.5234V97.9121H100.822ZM101.205 108.85V109.902H92.7422V106.443H94.041V108.85H101.205ZM113.441 102.328C113.195 101.057 112.143 100.346 110.885 100.346C109.176 100.346 107.904 101.658 107.904 104.051C107.904 106.457 109.189 107.756 110.885 107.756C112.129 107.756 113.182 107.059 113.441 105.801L114.959 105.814C114.645 107.77 113.045 109.137 110.871 109.137C108.287 109.137 106.414 107.209 106.414 104.051C106.414 100.879 108.301 98.9648 110.871 98.9648C112.963 98.9648 114.617 100.195 114.959 102.328H113.441ZM119.799 109H116.586V99.1016H119.895C122.807 99.1016 124.557 100.961 124.557 104.037C124.557 107.127 122.807 109 119.799 109ZM118.09 107.688H119.717C121.959 107.688 123.066 106.375 123.066 104.037C123.066 101.713 121.959 100.414 119.799 100.414H118.09V107.688ZM126.252 109V99.1016H129.779C132.076 99.1016 133.211 100.482 133.211 102.314C133.211 104.133 132.076 105.527 129.779 105.527H127.756V109H126.252ZM127.756 104.242H129.629C131.092 104.242 131.693 103.422 131.693 102.314C131.693 101.193 131.092 100.387 129.629 100.387H127.756V104.242ZM144.518 98.8008V99.8535H143.342V103.559C143.861 103.518 144.36 103.47 144.846 103.408L144.9 104.393C142.549 104.762 139.801 104.803 137.832 104.803L137.668 103.723L139.158 103.709V99.8535H138.01V98.8008H144.518ZM147.867 97.9121V105.445H146.568V103.312H144.695V102.273H146.568V101.084H144.695V100.045H146.568V97.9121H147.867ZM143.766 105.678C146.35 105.678 147.908 106.484 147.908 107.92C147.908 109.314 146.35 110.148 143.766 110.135C141.182 110.148 139.609 109.314 139.623 107.92C139.609 106.484 141.182 105.678 143.766 105.678ZM143.766 106.689C141.961 106.689 140.908 107.127 140.908 107.92C140.908 108.699 141.961 109.137 143.766 109.137C145.557 109.137 146.623 108.699 146.623 107.92C146.623 107.127 145.557 106.689 143.766 106.689ZM140.416 103.695C140.97 103.682 141.53 103.661 142.098 103.627V99.8535H140.416V103.695ZM159.297 97.9121V102.793H161.197V103.873H159.297V110.148H157.998V97.9121H159.297ZM156.098 99.1973C156.084 102.738 154.525 105.896 150.492 107.893L149.768 106.881C152.837 105.35 154.505 103.135 154.771 100.277H150.383V99.1973H156.098ZM172.367 97.9121V110.162H171.123V103.832H169.537V109.533H168.348V98.1582H169.537V102.766H171.123V97.9121H172.367ZM166.857 99.3887V100.441H163.562V106.115C165.066 106.102 166.201 106.033 167.514 105.787L167.609 106.854C166.133 107.154 164.875 107.209 163.084 107.223H162.264V99.3887H166.857ZM185.123 103.791V104.83H173.953V103.791H185.123ZM179.531 105.76C182.17 105.746 183.756 106.539 183.756 107.961C183.756 109.383 182.17 110.162 179.531 110.162C176.865 110.162 175.279 109.383 175.279 107.961C175.279 106.539 176.865 105.746 179.531 105.76ZM179.531 106.744C177.658 106.744 176.592 107.168 176.592 107.961C176.592 108.727 177.658 109.15 179.531 109.15C181.377 109.15 182.457 108.727 182.457 107.961C182.457 107.168 181.377 106.744 179.531 106.744ZM179.531 98.1992C182.211 98.2129 183.906 99.1016 183.906 100.564C183.906 102.027 182.211 102.902 179.531 102.902C176.852 102.902 175.156 102.027 175.156 100.564C175.156 99.1016 176.852 98.2129 179.531 98.1992ZM179.531 99.2383C177.645 99.2383 176.482 99.7168 176.496 100.564C176.482 101.412 177.645 101.891 179.531 101.891C181.404 101.891 182.566 101.412 182.566 100.564C182.566 99.7168 181.404 99.2383 179.531 99.2383ZM14.9629 123.521C14.9629 125.572 16.3027 127.691 18.1895 128.498L17.4785 129.51C16.0361 128.874 14.8877 127.527 14.3203 125.887C13.7529 127.637 12.5977 129.127 11.1758 129.824L10.4238 128.799C12.2695 127.938 13.6367 125.627 13.6504 123.521V122.223H10.8477V121.143H17.752V122.223H14.9629V123.521ZM20.5957 119.912V132.162H19.2969V119.912H20.5957ZM32.7363 119.926V129.209H31.4375V128.033H28.9766V127.117H31.4375V119.926H32.7363ZM33.0371 130.85V131.902H24.1914V128.307H25.4766V130.85H33.0371ZM22.4961 125.518C24.7656 125.504 27.8145 125.477 30.4258 125.148L30.5078 126.078C29.4619 126.249 28.3613 126.365 27.2812 126.434V128.826H25.9824V126.502C24.793 126.557 23.6514 126.563 22.6602 126.557L22.4961 125.518ZM26.502 120.391C28.293 120.391 29.5371 121.252 29.5371 122.551C29.5371 123.85 28.293 124.684 26.502 124.684C24.6836 124.684 23.4531 123.85 23.4531 122.551C23.4531 121.252 24.6836 120.391 26.502 120.391ZM26.502 121.361C25.4082 121.348 24.6699 121.812 24.6836 122.551C24.6699 123.275 25.4082 123.727 26.502 123.727C27.5547 123.727 28.293 123.275 28.3066 122.551C28.293 121.812 27.5547 121.348 26.502 121.361Z" fill="#393939"/>
<g filter="url(#filter0_d_453_27976)">
<circle cx="293" cy="85.5" r="65" fill="white"/>
</g>
<rect width="113" height="21" transform="translate(236.5 162.5)" fill="#F9F9F9"/>
<defs>
<filter id="filter0_d_453_27976" x="208" y="0.5" width="170" height="170" filterUnits="userSpaceOnUse" color-interpolation-filters="sRGB">
<feFlood flood-opacity="0" result="BackgroundImageFix"/>
<feColorMatrix in="SourceAlpha" type="matrix" values="0 0 0 0 0 0 0 0 0 0 0 0 0 0 0 0 0 0 127 0" result="hardAlpha"/>
<feOffset/>
<feGaussianBlur stdDeviation="10"/>
<feComposite in2="hardAlpha" operator="out"/>
<feColorMatrix type="matrix" values="0 0 0 0 0 0 0 0 0 0 0 0 0 0 0 0 0 0 0.1 0"/>
<feBlend mode="normal" in2="BackgroundImageFix" result="effect1_dropShadow_453_27976"/>
<feBlend mode="normal" in="SourceGraphic" in2="effect1_dropShadow_453_27976" result="shape"/>
</filter>
</defs>
</svg>
