<svg width="378" height="190" viewBox="0 0 378 190" fill="none" xmlns="http://www.w3.org/2000/svg">
<g filter="url(#filter0_d_453_27958)">
<circle cx="85" cy="85" r="65" fill="white"/>
</g>
<rect x="180" y="40" width="198" height="42" rx="4" fill="#0568CC"/>
<path d="M203.59 54.93C203.605 56.43 204.94 58.23 208.24 58.62L207.4 60.33C205 60 203.365 58.935 202.495 57.54C201.61 58.935 199.975 60 197.59 60.33L196.78 58.62C200.035 58.23 201.37 56.43 201.37 54.93V54.33H203.59V54.93ZM196.36 62.91V61.17H208.6V62.91H203.5V67.41H201.4V62.91H196.36ZM221.534 59.61V61.14H216.494V61.83H220.094V65.25H212.774V65.79H220.424V67.32H210.704V63.84H218.024V63.33H210.704V61.83H214.394V61.14H209.354V59.61H221.534ZM209.774 57.78C212.399 57.675 213.629 57.135 214.064 56.52H210.464V54.96H214.364V53.97H216.464V54.96H220.424V56.52H216.794C217.214 57.135 218.444 57.675 221.114 57.78L220.484 59.34C217.949 59.22 216.284 58.62 215.429 57.69C214.574 58.62 212.909 59.22 210.344 59.34L209.774 57.78ZM233.628 53.97V67.41H231.498V53.97H233.628ZM222.288 63.51C225.693 61.875 227.133 59.895 227.448 57H223.038V55.35H229.578C229.578 59.49 228.273 62.865 223.368 65.16L222.288 63.51ZM239.002 54.51C240.697 54.51 242.062 55.47 242.452 56.88H244.522V53.97H246.622V61.2H244.522V58.56H242.467C242.077 60 240.697 60.975 239.002 60.96C236.932 60.975 235.387 59.61 235.402 57.72C235.387 55.875 236.932 54.51 239.002 54.51ZM237.412 57.72C237.397 58.65 238.057 59.205 239.002 59.22C239.917 59.205 240.577 58.65 240.592 57.72C240.577 56.79 239.917 56.265 239.002 56.25C238.057 56.265 237.397 56.79 237.412 57.72ZM237.562 67.26V61.74H239.632V62.91H244.522V61.74H246.622V67.26H237.562ZM239.632 65.55H244.522V64.53H239.632V65.55ZM251.245 64.89L249.925 69.12H248.215L248.935 64.89H251.245ZM267.649 60.21V61.86H255.379V60.21H260.479V59.19H256.849V54.54H266.209V56.19H258.949V57.54H266.269V59.19H262.549V60.21H267.649ZM256.759 64.95C256.744 63.33 258.529 62.445 261.469 62.43C264.409 62.445 266.164 63.33 266.179 64.95C266.164 66.525 264.409 67.425 261.469 67.44C258.529 67.425 256.744 66.525 256.759 64.95ZM258.889 64.95C258.889 65.565 259.714 65.835 261.469 65.82C263.194 65.835 264.049 65.565 264.049 64.95C264.049 64.32 263.194 64.035 261.469 64.05C259.714 64.035 258.889 64.32 258.889 64.95ZM279.052 53.97V57.66H280.792V59.4H279.052V63.87H276.922V53.97H279.052ZM268.672 61.77V54.93H270.772V56.76H273.142V54.93H275.272V61.77H268.672ZM270.232 67.2V62.85H272.332V65.49H279.472V67.2H270.232ZM270.772 60.15H273.142V58.38H270.772V60.15ZM286.526 55.71C286.511 57.465 287.291 59.115 289.526 59.79L288.416 61.44C286.991 60.945 286.046 60.075 285.491 58.935C284.891 60.27 283.841 61.32 282.236 61.83L281.126 60.15C283.511 59.415 284.381 57.615 284.396 55.8V54.63H286.526V55.71ZM283.406 64.77C283.391 63.12 285.161 62.145 288.056 62.13C290.936 62.145 292.706 63.12 292.706 64.77C292.706 66.465 290.936 67.425 288.056 67.41C285.161 67.425 283.391 66.465 283.406 64.77ZM285.506 64.77C285.491 65.46 286.361 65.775 288.056 65.79C289.751 65.775 290.621 65.46 290.636 64.77C290.621 64.095 289.751 63.78 288.056 63.78C286.361 63.78 285.491 64.095 285.506 64.77ZM288.206 58.02V56.28H290.576V53.97H292.676V61.8H290.576V58.02H288.206ZM301.92 54.84V56.52H299.34C299.43 57.96 300.285 59.34 302.4 59.94L301.38 61.59C299.925 61.17 298.935 60.315 298.335 59.235C297.735 60.54 296.685 61.56 295.08 62.07L294 60.42C296.22 59.715 297.12 58.095 297.21 56.52H294.57V54.84H301.92ZM295.89 64.77C295.875 63.09 297.675 62.115 300.54 62.13C303.345 62.115 305.1 63.09 305.1 64.77C305.1 66.42 303.345 67.425 300.54 67.41C297.675 67.425 295.875 66.42 295.89 64.77ZM297.99 64.77C297.99 65.46 298.86 65.775 300.54 65.79C302.19 65.775 303.015 65.46 303 64.77C303.015 64.065 302.19 63.75 300.54 63.75C298.86 63.75 297.99 64.065 297.99 64.77ZM302.85 61.89V53.97H304.98V57H306.72V58.68H304.98V61.89H302.85ZM315.899 57.48C315.914 59.61 316.859 61.935 319.199 62.91L318.059 64.56C316.499 63.9 315.464 62.64 314.864 61.11C314.279 62.79 313.214 64.185 311.639 64.89L310.439 63.24C312.779 62.205 313.754 59.745 313.769 57.48V56.94H311.009V55.23H318.599V56.94H315.899V57.48ZM319.739 67.41V53.97H321.869V67.41H319.739ZM335.012 53.97V64.11H332.912V63.15H330.392V61.74H332.912V53.97H335.012ZM323.492 59.85C325.952 59.82 329.267 59.79 332.102 59.43L332.192 60.93C331.187 61.11 330.137 61.23 329.102 61.32V63.84H327.242V65.49H335.312V67.2H325.142V63.15H326.972V61.44C325.817 61.485 324.722 61.5 323.732 61.5L323.492 59.85ZM324.482 56.85C324.467 55.41 325.862 54.405 327.842 54.39C329.807 54.405 331.217 55.41 331.232 56.85C331.217 58.275 329.807 59.22 327.842 59.22C325.862 59.22 324.467 58.275 324.482 56.85ZM326.462 56.85C326.462 57.42 327.017 57.705 327.842 57.69C328.652 57.705 329.222 57.42 329.222 56.85C329.222 56.235 328.652 55.935 327.842 55.95C327.017 55.935 326.462 56.235 326.462 56.85Z" fill="white"/>
<circle cx="181.5" cy="111" r="1.5" fill="#393939"/>
<path opacity="0.9" d="M197.355 106.088V107.127H190.465V106.088H193.336V104.803H194.621V106.088H197.355ZM193.965 107.646C195.619 107.646 196.781 108.535 196.795 109.861C196.781 111.201 195.619 112.076 193.965 112.076C192.297 112.076 191.148 111.201 191.148 109.861C191.148 108.535 192.297 107.646 193.965 107.646ZM193.965 108.645C192.994 108.645 192.365 109.109 192.365 109.861C192.365 110.613 192.994 111.105 193.965 111.105C194.922 111.105 195.578 110.613 195.592 109.861C195.578 109.109 194.922 108.645 193.965 108.645ZM200.664 104.912V112.172H199.365V111.146H197.383V110.094H199.365V108.754H197.396V107.688H199.365V104.912H200.664ZM193.883 112.664V113.826H199.379V112.664H200.664V117.012H192.598V112.664H193.883ZM193.883 115.986H199.379V114.824H193.883V115.986ZM208.389 105.65V109.219H204.342V110.914C206.475 110.921 207.637 110.873 209.018 110.613L209.141 111.666C207.65 111.926 206.393 111.967 203.945 111.967H203.057V108.234H207.09V106.689H203.043V105.65H208.389ZM212.764 104.926V112.459H211.465V110.299H209.168V109.26H211.465V107.742H209.168V106.703H211.465V104.926H212.764ZM212.764 113.074V117.176H211.465V114.127H204.451V113.074H212.764ZM218.902 108.029C218.889 110.203 220.146 112.418 221.979 113.307L221.172 114.346C219.839 113.655 218.807 112.281 218.273 110.641C217.72 112.391 216.646 113.854 215.252 114.578L214.445 113.525C216.332 112.623 217.604 110.271 217.604 108.029V105.938H218.902V108.029ZM224.193 104.912V109.793H226.162V110.9H224.193V117.162H222.895V104.912H224.193ZM230.742 105.787C232.684 105.773 234.064 106.977 234.078 108.699C234.064 110.422 232.684 111.625 230.742 111.625C228.814 111.625 227.393 110.422 227.406 108.699C227.393 106.977 228.814 105.773 230.742 105.787ZM230.742 106.908C229.553 106.908 228.678 107.619 228.691 108.699C228.678 109.779 229.553 110.49 230.742 110.49C231.932 110.49 232.807 109.779 232.807 108.699C232.807 107.619 231.932 106.908 230.742 106.908ZM236.881 104.912V117.189H235.582V104.912H236.881ZM226.818 113.471C229.047 113.471 232.137 113.443 234.816 113.061L234.912 114.004C232.137 114.537 229.17 114.551 226.982 114.551L226.818 113.471ZM242.828 116V106.102H249.035V107.4H244.332V110.395H248.707V111.68H244.332V114.701H249.09V116H242.828ZM256.268 108.713C256.172 107.797 255.365 107.264 254.23 107.264C253.014 107.264 252.248 107.879 252.248 108.727C252.248 109.67 253.273 110.025 254.053 110.217L255.01 110.477C256.281 110.777 257.854 111.475 257.867 113.266C257.854 114.934 256.527 116.164 254.189 116.164C251.975 116.164 250.58 115.057 250.484 113.252H251.988C252.084 114.332 253.027 114.852 254.189 114.852C255.447 114.852 256.363 114.209 256.377 113.238C256.363 112.377 255.557 112.021 254.504 111.748L253.328 111.434C251.742 110.996 250.744 110.189 250.744 108.809C250.744 107.1 252.275 105.965 254.271 105.965C256.281 105.965 257.689 107.113 257.73 108.713H256.268ZM266.166 109.232C265.797 108.057 264.908 107.346 263.596 107.346C261.928 107.346 260.643 108.658 260.643 111.051C260.643 113.443 261.914 114.756 263.664 114.756C265.243 114.756 266.289 113.758 266.316 112.172H263.883V110.928H267.779V112.049C267.779 114.551 266.057 116.137 263.65 116.137C260.971 116.137 259.152 114.182 259.152 111.051C259.152 107.893 261.025 105.965 263.582 105.965C265.729 105.965 267.369 107.305 267.711 109.232H266.166ZM283.543 111.064V112.104H272.373V111.064H283.543ZM282.176 113.293V117.162H280.863V114.332H273.617V113.293H282.176ZM278.594 104.898V106.115H282.422V107.141H278.676C278.785 108.351 280.474 109.253 282.928 109.451L282.518 110.449C280.412 110.251 278.703 109.54 277.951 108.398C277.192 109.54 275.483 110.251 273.385 110.449L272.975 109.451C275.415 109.253 277.104 108.351 277.24 107.141H273.494V106.115H277.309V104.898H278.594ZM290.721 105.951V106.99H293.387V104.926H294.686V113.854H293.387V110.682H290.721V111.748H285.033V105.951H290.721ZM286.318 107.004V110.723H289.449V107.004H286.318ZM294.959 115.85V116.902H286.688V113.033H288V115.85H294.959ZM290.721 109.615H293.387V108.057H290.721V109.615ZM300.551 116V106.102H304.078C306.375 106.102 307.51 107.387 307.51 109.205C307.51 110.538 306.908 111.55 305.705 111.994L307.893 116H306.184L304.174 112.268H304.078H302.055V116H300.551ZM302.055 110.969H303.928C305.391 110.969 305.992 110.326 305.992 109.205C305.992 108.084 305.391 107.387 303.928 107.387H302.055V110.969ZM309.055 116V108.576H310.518V116H309.055ZM309.793 107.428C309.287 107.428 308.863 107.045 308.863 106.566C308.863 106.088 309.287 105.705 309.793 105.705C310.285 105.705 310.709 106.088 310.709 106.566C310.709 107.045 310.285 107.428 309.793 107.428ZM316.465 110.6C316.328 110.012 315.863 109.629 315.057 109.629C314.223 109.629 313.621 110.066 313.635 110.627C313.621 111.064 313.977 111.379 314.797 111.57L315.973 111.844C317.34 112.145 317.996 112.801 318.01 113.854C317.996 115.193 316.875 116.15 314.975 116.15C313.197 116.15 312.131 115.357 311.953 113.977H313.443C313.566 114.646 314.086 114.975 314.961 114.975C315.904 114.975 316.506 114.592 316.52 113.963C316.506 113.484 316.15 113.17 315.371 112.992L314.209 112.746C312.869 112.445 312.172 111.734 312.172 110.709C312.172 109.383 313.32 108.48 315.043 108.48C316.697 108.48 317.723 109.328 317.873 110.6H316.465ZM319.432 116V106.102H320.895V111.707H321.018L323.957 108.576H325.707L322.713 111.762L325.912 116H324.121L321.605 112.664L320.895 113.361V116H319.432ZM334.375 107.469C334.375 109.055 335.551 110.545 337.438 111.146L336.768 112.158C335.359 111.693 334.293 110.729 333.746 109.506C333.192 110.839 332.105 111.892 330.643 112.404L329.973 111.379C331.873 110.736 333.049 109.15 333.062 107.469V106.936H330.314V105.883H337.068V106.936H334.375V107.469ZM339.994 104.926V113.867H338.695V104.926H339.994ZM340.363 115.85V116.902H331.982V113.02H333.295V115.85H340.363ZM351.561 104.898V108.453H353.352V109.533H351.561V113.771H350.262V104.898H351.561ZM347.951 105.951V107.004H343.768V110.572C346.153 110.579 347.5 110.504 349.031 110.189L349.182 111.242C347.527 111.57 346.078 111.652 343.453 111.652H342.482V105.951H347.951ZM352.08 115.85V116.902H343.795V112.855H345.094V115.85H352.08Z" fill="#393939"/>
<circle cx="181.5" cy="137" r="1.5" fill="#393939"/>
<path opacity="0.9" d="M200.938 130.912V143.162H199.693V136.805H198.176V142.574H196.959V131.24H198.176V135.752H199.693V130.912H200.938ZM195.742 132.471C195.729 135.697 194.662 138.582 191.162 140.564L190.41 139.662C193.131 138.124 194.279 136.039 194.484 133.537H190.93V132.471H195.742ZM206.871 133.154C206.871 134.809 207.979 136.422 209.824 137.064L209.113 138.076C207.773 137.563 206.775 136.552 206.256 135.273C205.723 136.695 204.677 137.816 203.234 138.363L202.537 137.338C204.438 136.654 205.572 134.959 205.586 133.113V131.664H206.871V133.154ZM212.764 130.926V140.059H211.465V134.781H208.881V133.715H211.465V130.926H212.764ZM213.037 141.85V142.902H204.766V139.033H206.078V141.85H213.037ZM221.473 131.842V132.525C221.459 133.346 221.459 134.562 221.158 136.148L219.873 136.025C220.14 134.665 220.181 133.681 220.201 132.908H215.293V131.842H221.473ZM218.342 134.59V137.119C219.654 137.078 221.008 136.982 222.238 136.805L222.32 137.748C219.764 138.199 216.838 138.24 214.678 138.254L214.555 137.201C215.307 137.194 216.161 137.188 217.057 137.16V134.59H218.342ZM224.344 130.912V134.809H226.025V135.902H224.344V140.113H223.018V130.912H224.344ZM224.74 141.85V142.902H216.414V139.279H217.713V141.85H224.74ZM236.922 130.912V143.189H235.623V130.912H236.922ZM233.176 132.02V136.49H228.773V139.17C230.756 139.163 232.492 139.074 234.543 138.732L234.666 139.799C232.492 140.168 230.646 140.25 228.486 140.25H227.447V135.451H231.85V133.072H227.434V132.02H233.176ZM251.906 130.912V133.961H253.656V135.068H251.906V138.131H250.607V130.912H251.906ZM251.906 138.65V141.207H245.139V142.137H252.357V143.039H243.84V140.373H250.621V139.553H243.812V138.65H251.906ZM242.186 136.969C243.136 136.969 244.236 136.969 245.385 136.928V136.244C243.977 136.114 243.102 135.554 243.115 134.631C243.102 133.633 244.25 133.045 246.027 133.045C247.791 133.045 248.939 133.633 248.939 134.631C248.939 135.547 248.071 136.107 246.684 136.244V136.887C247.777 136.832 248.885 136.743 249.91 136.6L250.02 137.447C247.381 137.885 244.482 137.898 242.322 137.898L242.186 136.969ZM249.568 131.787V132.689H242.5V131.787H245.385V130.803H246.684V131.787H249.568ZM246.027 133.893C244.975 133.893 244.346 134.166 244.346 134.631C244.346 135.123 244.975 135.424 246.027 135.424C247.066 135.424 247.695 135.123 247.695 134.631C247.695 134.166 247.066 133.893 246.027 133.893ZM265.551 136.873V137.912H254.367V136.873H259.33V135.574H255.762V131.473H264.17V132.498H257.047V134.535H264.252V135.574H260.588V136.873H265.551ZM259.945 138.705C262.584 138.705 264.17 139.512 264.17 140.934C264.17 142.355 262.584 143.148 259.945 143.162C257.293 143.148 255.693 142.355 255.693 140.934C255.693 139.512 257.293 138.705 259.945 138.705ZM259.945 139.717C258.072 139.717 257.006 140.154 257.006 140.934C257.006 141.713 258.072 142.15 259.945 142.137C261.791 142.15 262.871 141.713 262.871 140.934C262.871 140.154 261.791 139.717 259.945 139.717ZM274.396 134.521C274.396 136.572 275.736 138.691 277.623 139.498L276.912 140.51C275.47 139.874 274.321 138.527 273.754 136.887C273.187 138.637 272.031 140.127 270.609 140.824L269.857 139.799C271.703 138.938 273.07 136.627 273.084 134.521V133.223H270.281V132.143H277.186V133.223H274.396V134.521ZM280.029 130.912V143.162H278.73V130.912H280.029ZM292.17 130.926V140.209H290.871V139.033H288.41V138.117H290.871V130.926H292.17ZM292.471 141.85V142.902H283.625V139.307H284.91V141.85H292.471ZM281.93 136.518C284.199 136.504 287.248 136.477 289.859 136.148L289.941 137.078C288.896 137.249 287.795 137.365 286.715 137.434V139.826H285.416V137.502C284.227 137.557 283.085 137.563 282.094 137.557L281.93 136.518ZM285.936 131.391C287.727 131.391 288.971 132.252 288.971 133.551C288.971 134.85 287.727 135.684 285.936 135.684C284.117 135.684 282.887 134.85 282.887 133.551C282.887 132.252 284.117 131.391 285.936 131.391ZM285.936 132.361C284.842 132.348 284.104 132.812 284.117 133.551C284.104 134.275 284.842 134.727 285.936 134.727C286.988 134.727 287.727 134.275 287.74 133.551C287.727 132.812 286.988 132.348 285.936 132.361Z" fill="#393939"/>
<defs>
<filter id="filter0_d_453_27958" x="0" y="0" width="170" height="170" filterUnits="userSpaceOnUse" color-interpolation-filters="sRGB">
<feFlood flood-opacity="0" result="BackgroundImageFix"/>
<feColorMatrix in="SourceAlpha" type="matrix" values="0 0 0 0 0 0 0 0 0 0 0 0 0 0 0 0 0 0 127 0" result="hardAlpha"/>
<feOffset/>
<feGaussianBlur stdDeviation="10"/>
<feComposite in2="hardAlpha" operator="out"/>
<feColorMatrix type="matrix" values="0 0 0 0 0 0 0 0 0 0 0 0 0 0 0 0 0 0 0.1 0"/>
<feBlend mode="normal" in2="BackgroundImageFix" result="effect1_dropShadow_453_27958"/>
<feBlend mode="normal" in="SourceGraphic" in2="effect1_dropShadow_453_27958" result="shape"/>
</filter>
</defs>
</svg>
