<svg width="378" height="190" viewBox="0 0 378 190" fill="none" xmlns="http://www.w3.org/2000/svg">
<g filter="url(#filter0_d_453_27944)">
<circle cx="85" cy="85" r="65" fill="white"/>
</g>
<rect x="180" y="40" width="198" height="38" rx="4" fill="#0568CC"/>
<path d="M208.6 58.81V60.49H196.36V58.81H201.4V57.835C199.045 57.61 197.53 56.605 197.53 55.06C197.53 53.365 199.51 52.285 202.48 52.27C205.435 52.285 207.4 53.365 207.4 55.06C207.4 56.605 205.885 57.625 203.53 57.835V58.81H208.6ZM197.8 65.2V61.24H199.9V63.49H207.22V65.2H197.8ZM199.72 55.06C199.72 55.855 200.71 56.2 202.48 56.2C204.235 56.2 205.225 55.855 205.24 55.06C205.225 54.325 204.235 53.95 202.48 53.95C200.71 53.95 199.72 54.325 199.72 55.06ZM220.604 51.97V58.72H218.504V51.97H220.604ZM209.204 57.16C211.529 56.5 212.384 54.835 212.384 53.26V52.24H214.574V53.26C214.574 54.805 215.399 56.335 217.664 56.95L216.644 58.57C215.114 58.15 214.094 57.28 213.494 56.155C212.894 57.385 211.844 58.36 210.254 58.81L209.204 57.16ZM211.514 60.88V59.26H220.604V63.04H213.584V63.67H220.934V65.32H211.544V61.51H218.504V60.88H211.514ZM232.938 51.97V57.01H234.738V58.75H232.938V65.38H230.838V51.97H232.938ZM222.048 61.51C225.138 59.965 226.788 57.94 227.163 55.03H222.858V53.32H229.308C229.308 57.4 227.808 60.88 223.248 63.13L222.048 61.51ZM242.422 53.65C242.422 55.54 243.892 57.655 247.162 58.21L246.232 59.95C243.817 59.485 242.167 58.225 241.312 56.575C240.427 58.21 238.777 59.485 236.392 59.95L235.492 58.21C238.687 57.64 240.157 55.51 240.172 53.65V52.72H242.422V53.65ZM235.252 63.82V62.08H247.522V63.82H235.252ZM259.13 52.93V53.8C259.115 54.76 259.115 56.095 258.83 57.73L256.76 57.55C256.97 56.35 257.03 55.42 257.06 54.64H252.14V52.93H259.13ZM251.36 58.63C252.08 58.63 252.875 58.615 253.73 58.6V56.05H255.8V58.54C257.09 58.48 258.425 58.39 259.64 58.21L259.76 59.71C256.97 60.235 253.85 60.28 251.54 60.28L251.36 58.63ZM253.28 65.2V61.12H255.41V63.49H262.88V65.2H253.28ZM260.3 61.99V51.97H262.46V55.96H263.99V57.73H262.46V61.99H260.3ZM275.844 51.97V65.44H273.744V51.97H275.844ZM265.224 62.32V56.71H269.484V54.73H265.224V53.05H271.644V58.36H267.414V60.61C269.394 60.58 271.059 60.475 272.874 60.16L273.054 61.87C270.939 62.245 268.959 62.32 266.454 62.32H265.224Z" fill="white"/>
<circle cx="181.5" cy="107" r="1.5" fill="#393939"/>
<path opacity="0.9" d="M201.621 106.586V107.639H196.672V108.814C198.921 108.938 200.254 109.696 200.254 110.975C200.254 112.369 198.668 113.148 196.029 113.135C193.363 113.148 191.777 112.369 191.777 110.975C191.777 109.696 193.11 108.938 195.387 108.814V107.639H190.451V106.586H201.621ZM196.029 109.799C194.156 109.799 193.09 110.223 193.09 110.975C193.09 111.713 194.156 112.15 196.029 112.137C197.875 112.15 198.955 111.713 198.955 110.975C198.955 110.223 197.875 109.799 196.029 109.799ZM200.623 101.473V102.512H196.904C197.089 103.694 198.812 104.699 201.047 104.918L200.582 105.943C198.463 105.697 196.706 104.802 196.043 103.496C195.359 104.802 193.609 105.697 191.49 105.943L191.039 104.918C193.24 104.699 194.97 103.694 195.154 102.512H191.477V101.473H200.623ZM212.764 100.926V110.018H211.465V107.201H208.334V106.135H211.465V104.453H208.512C207.63 106.36 205.791 107.796 203.303 108.582L202.742 107.557C205.531 106.654 207.377 104.993 207.65 102.908H203.371V101.869H209.059C209.059 102.402 208.99 102.915 208.867 103.4H211.465V100.926H212.764ZM213.078 111.85V112.902H204.875V109.115H206.188V111.85H213.078ZM216.852 111.057L215.758 114.83H214.596L215.32 111.057H216.852ZM232.82 106.586V107.639H227.871V108.814C230.12 108.938 231.453 109.696 231.453 110.975C231.453 112.369 229.867 113.148 227.229 113.135C224.562 113.148 222.977 112.369 222.977 110.975C222.977 109.696 224.31 108.938 226.586 108.814V107.639H221.65V106.586H232.82ZM227.229 109.799C225.355 109.799 224.289 110.223 224.289 110.975C224.289 111.713 225.355 112.15 227.229 112.137C229.074 112.15 230.154 111.713 230.154 110.975C230.154 110.223 229.074 109.799 227.229 109.799ZM231.822 101.473V102.512H228.104C228.288 103.694 230.011 104.699 232.246 104.918L231.781 105.943C229.662 105.697 227.905 104.802 227.242 103.496C226.559 104.802 224.809 105.697 222.689 105.943L222.238 104.918C224.439 104.699 226.169 103.694 226.354 102.512H222.676V101.473H231.822ZM244.961 110.537V111.604H233.75V110.537H238.658V107.625H239.943V110.537H244.961ZM239.971 102.621C239.971 104.562 242.104 106.381 244.469 106.777L243.908 107.844C241.926 107.447 240.101 106.224 239.287 104.535C238.48 106.217 236.676 107.461 234.707 107.844L234.133 106.777C236.484 106.381 238.604 104.562 238.604 102.621V101.691H239.971V102.621ZM256.035 100.912V113.162H254.723V100.912H256.035ZM252.385 102.225C252.385 105.807 250.854 108.924 246.656 110.934L245.973 109.881C249.233 108.329 250.819 106.121 251.072 103.264H246.561V102.225H252.385ZM261.34 101.473C262.953 101.459 264.197 102.396 264.471 103.77H266.863V100.912H268.162V107.488H266.863V104.836H264.484C264.218 106.244 262.967 107.188 261.34 107.188C259.467 107.188 258.127 106.012 258.127 104.316C258.127 102.648 259.467 101.459 261.34 101.473ZM261.34 102.553C260.178 102.553 259.371 103.264 259.371 104.316C259.371 105.369 260.178 106.094 261.34 106.094C262.475 106.094 263.281 105.369 263.281 104.316C263.281 103.264 262.475 102.553 261.34 102.553ZM261.463 108.076V109.498H266.863V108.076H268.162V113.012H260.178V108.076H261.463ZM261.463 111.945H266.863V110.523H261.463V111.945ZM275.107 102.047V104.973H277.445V102.047H278.648V110.141H273.877V102.047H275.107ZM275.107 109.088H277.445V105.998H275.107V109.088ZM284.008 100.912V113.162H282.764V106.777H281.246V112.561H280.016V101.145H281.246V105.711H282.764V100.912H284.008ZM296.723 106.285V107.256H291.787V108.281H295.328V111.043H288.191V112.055H295.67V113.039H286.92V110.141H294.043V109.225H286.906V108.281H290.502V107.256H285.58V106.285H296.723ZM291.787 100.857V101.938H295.615V102.936H291.896C292.143 103.975 293.804 104.699 296.176 104.822L295.779 105.807C293.646 105.656 291.91 105.027 291.145 103.947C290.379 105.027 288.643 105.656 286.496 105.807L286.127 104.822C288.479 104.699 290.133 103.975 290.406 102.936H286.688V101.938H290.502V100.857H291.787ZM309.082 102.744V103.824H307.291V105.328H309.082V106.408H307.291V108.322H305.992V100.926H307.291V102.744H309.082ZM303.736 101.664V105.096H299.471V106.586C301.597 106.579 303.101 106.504 304.885 106.203L305.021 107.256C303.121 107.598 301.508 107.666 299.156 107.652H298.172V104.098H302.465V102.717H298.158V101.664H303.736ZM303.326 108.623C305.842 108.623 307.4 109.471 307.4 110.893C307.4 112.314 305.842 113.135 303.326 113.135C300.77 113.135 299.211 112.314 299.211 110.893C299.211 109.471 300.77 108.623 303.326 108.623ZM303.326 109.648C301.535 109.648 300.482 110.1 300.482 110.893C300.482 111.686 301.535 112.15 303.326 112.137C305.104 112.15 306.129 111.686 306.129 110.893C306.129 110.1 305.104 109.648 303.326 109.648ZM317.436 103.154C317.436 104.795 318.584 106.34 320.443 106.969L319.773 107.994C318.399 107.509 317.381 106.531 316.834 105.301C316.301 106.675 315.248 107.748 313.812 108.281L313.088 107.256C315.029 106.586 316.15 104.945 316.15 103.113V101.664H317.436V103.154ZM322.809 100.898V104.59H324.586V105.697H322.809V109.936H321.51V100.898H322.809ZM323.342 111.85V112.902H315.057V109.061H316.383V111.85H323.342ZM335.496 100.912V108.199H334.197V105.096H331.914V104.029H334.197V100.912H335.496ZM331.395 108.541C333.965 108.541 335.537 109.389 335.537 110.852C335.537 112.314 333.965 113.148 331.395 113.162C328.824 113.148 327.238 112.314 327.252 110.852C327.238 109.389 328.824 108.541 331.395 108.541ZM331.395 109.553C329.604 109.553 328.537 110.018 328.537 110.852C328.537 111.672 329.604 112.15 331.395 112.137C333.186 112.15 334.252 111.672 334.252 110.852C334.252 110.018 333.186 109.553 331.395 109.553ZM329.672 103.072C329.672 104.631 330.779 106.135 332.625 106.764L331.955 107.789C330.581 107.311 329.569 106.333 329.043 105.123C328.503 106.497 327.43 107.598 325.967 108.131L325.283 107.092C327.184 106.436 328.346 104.781 328.346 103.086V102.812H325.693V101.76H332.297V102.812H329.672V103.072ZM191.189 130.227C191.203 127.656 191.928 125.51 193.213 123.678H194.553C193.609 125.031 192.707 127.793 192.707 130.227C192.707 132.674 193.609 135.422 194.553 136.789H193.213C191.928 134.957 191.203 132.811 191.189 130.227ZM201.402 126.713C201.307 125.797 200.5 125.264 199.365 125.264C198.148 125.264 197.383 125.879 197.383 126.727C197.383 127.67 198.408 128.025 199.188 128.217L200.145 128.477C201.416 128.777 202.988 129.475 203.002 131.266C202.988 132.934 201.662 134.164 199.324 134.164C197.109 134.164 195.715 133.057 195.619 131.252H197.123C197.219 132.332 198.162 132.852 199.324 132.852C200.582 132.852 201.498 132.209 201.512 131.238C201.498 130.377 200.691 130.021 199.639 129.748L198.463 129.434C196.877 128.996 195.879 128.189 195.879 126.809C195.879 125.1 197.41 123.965 199.406 123.965C201.416 123.965 202.824 125.113 202.865 126.713H201.402ZM207.637 134.15C205.477 134.15 204.164 132.551 204.164 130.322C204.164 128.053 205.518 126.48 207.609 126.48C209.305 126.48 210.535 127.479 210.686 128.982H209.264C209.113 128.285 208.553 127.697 207.637 127.697C206.434 127.697 205.627 128.695 205.627 130.281C205.627 131.908 206.42 132.906 207.637 132.906C208.457 132.906 209.086 132.455 209.264 131.648H210.686C210.521 133.084 209.387 134.15 207.637 134.15ZM215.211 134.15C213.105 134.15 211.738 132.619 211.738 130.322C211.738 128.012 213.105 126.48 215.211 126.48C217.303 126.48 218.67 128.012 218.67 130.322C218.67 132.619 217.303 134.15 215.211 134.15ZM215.211 132.934C216.551 132.934 217.193 131.744 217.193 130.322C217.193 128.9 216.551 127.684 215.211 127.684C213.844 127.684 213.201 128.9 213.201 130.322C213.201 131.744 213.844 132.934 215.211 132.934ZM220.105 136.789V126.576H221.527V127.779H221.65C221.91 127.314 222.416 126.48 223.783 126.48C225.574 126.48 226.9 127.889 226.9 130.309C226.9 132.701 225.602 134.15 223.797 134.15C222.443 134.15 221.91 133.33 221.65 132.838H221.568V136.789H220.105ZM221.541 130.281C221.541 131.84 222.225 132.906 223.469 132.906C224.754 132.906 225.424 131.771 225.424 130.281C225.424 128.818 224.768 127.725 223.469 127.725C222.211 127.725 221.541 128.736 221.541 130.281ZM231.549 134.15C229.361 134.15 228.021 132.646 228.021 130.336C228.021 128.053 229.389 126.48 231.453 126.48C233.148 126.48 234.748 127.533 234.748 130.213V130.732H229.471C229.512 132.141 230.339 132.947 231.562 132.947C232.396 132.947 232.93 132.592 233.176 132.141H234.652C234.324 133.344 233.176 134.15 231.549 134.15ZM229.484 129.639H233.312C233.312 128.504 232.588 127.684 231.467 127.684C230.298 127.684 229.539 128.586 229.484 129.639ZM243.361 124.102V134H241.844V125.605H241.789L239.424 127.15V125.715L241.885 124.102H243.361ZM247.094 133.057L246 136.83H244.838L245.562 133.057H247.094ZM249.062 134V132.906L252.494 129.447C253.574 128.312 254.121 127.684 254.121 126.822C254.121 125.852 253.328 125.223 252.289 125.223C251.195 125.223 250.484 125.92 250.484 126.973H249.062C249.049 125.168 250.43 123.965 252.316 123.965C254.23 123.965 255.543 125.168 255.557 126.781C255.543 127.889 255.023 128.764 253.164 130.596L251.154 132.633V132.715H255.721V134H249.062ZM259.166 133.057L258.072 136.83H256.91L257.635 133.057H259.166ZM264.293 134.137C262.242 134.137 260.779 133.029 260.725 131.416H262.256C262.311 132.291 263.172 132.838 264.279 132.838C265.469 132.838 266.344 132.182 266.344 131.225C266.344 130.254 265.523 129.543 264.115 129.543H263.268V128.312H264.115C265.236 128.312 266.029 127.684 266.029 126.74C266.029 125.838 265.359 125.223 264.307 125.223C263.309 125.223 262.434 125.77 262.393 126.672H260.943C260.984 125.059 262.475 123.965 264.32 123.965C266.262 123.965 267.492 125.195 267.479 126.658C267.492 127.779 266.795 128.6 265.729 128.859V128.928C267.082 129.119 267.861 130.021 267.861 131.279C267.861 132.934 266.344 134.137 264.293 134.137ZM272.455 130.227C272.441 132.811 271.717 134.957 270.432 136.789H269.092C270.035 135.422 270.938 132.674 270.938 130.227C270.938 127.793 270.035 125.031 269.092 123.678H270.432C271.717 125.51 272.441 127.656 272.455 130.227Z" fill="#393939"/>
<circle cx="181.5" cy="155" r="1.5" fill="#393939"/>
<path opacity="0.9" d="M198.996 150.102V160H197.615L192.598 152.768H192.516V160H191.012V150.102H192.406L197.424 157.348H197.52V150.102H198.996ZM204.096 160.15C201.908 160.15 200.568 158.646 200.568 156.336C200.568 154.053 201.936 152.48 204 152.48C205.695 152.48 207.295 153.533 207.295 156.213V156.732H202.018C202.059 158.141 202.886 158.947 204.109 158.947C204.943 158.947 205.477 158.592 205.723 158.141H207.199C206.871 159.344 205.723 160.15 204.096 160.15ZM202.031 155.639H205.859C205.859 154.504 205.135 153.684 204.014 153.684C202.845 153.684 202.086 154.586 202.031 155.639ZM212.217 152.576V153.738H210.699V157.812C210.699 158.646 211.123 158.797 211.588 158.811C211.793 158.811 212.121 158.783 212.326 158.77V160.041C212.121 160.068 211.807 160.096 211.41 160.096C210.262 160.096 209.236 159.467 209.25 158.113V153.738H208.156V152.576H209.25V150.799H210.699V152.576H212.217ZM217.754 155.188V156.445H213.365V155.188H217.754ZM219.381 160V159.002L224.576 151.4H219.326V150.102H226.422V151.1L221.227 158.701H226.463V160H219.381ZM231.248 160.15C229.061 160.15 227.721 158.646 227.721 156.336C227.721 154.053 229.088 152.48 231.152 152.48C232.848 152.48 234.447 153.533 234.447 156.213V156.732H229.17C229.211 158.141 230.038 158.947 231.262 158.947C232.096 158.947 232.629 158.592 232.875 158.141H234.352C234.023 159.344 232.875 160.15 231.248 160.15ZM229.184 155.639H233.012C233.012 154.504 232.287 153.684 231.166 153.684C229.997 153.684 229.238 154.586 229.184 155.639ZM235.896 160V152.576H237.305V153.752H237.387C237.66 152.959 238.398 152.467 239.273 152.467C239.451 152.467 239.738 152.48 239.889 152.494V153.889C239.766 153.861 239.424 153.807 239.123 153.807C238.111 153.807 237.359 154.504 237.359 155.475V160H235.896ZM243.881 160.15C241.775 160.15 240.408 158.619 240.408 156.322C240.408 154.012 241.775 152.48 243.881 152.48C245.973 152.48 247.34 154.012 247.34 156.322C247.34 158.619 245.973 160.15 243.881 160.15ZM243.881 158.934C245.221 158.934 245.863 157.744 245.863 156.322C245.863 154.9 245.221 153.684 243.881 153.684C242.514 153.684 241.871 154.9 241.871 156.322C241.871 157.744 242.514 158.934 243.881 158.934ZM261.504 149.418V153.615H257.977V155.037H262.926V156.09H251.756V155.037H256.691V153.615H253.178V149.418H261.504ZM254.449 150.443V152.576H260.219V150.443H254.449ZM261.559 157.252V161.162H260.246V158.277H253V157.252H261.559ZM275.066 158.646V159.713H263.855V158.646H266.863V155.926H264.84V154.873H266.672V151.059H264.812V149.992H274.041V151.059H272.168V154.873H274V155.926H271.99V158.646H275.066ZM267.957 154.873H270.896V151.059H267.957V154.873ZM268.162 158.646H270.691V155.926H268.162V158.646ZM285.648 149.992C285.635 151.619 287.631 153.15 290.037 153.465L289.531 154.531C287.528 154.21 285.765 153.171 284.979 151.729C284.172 153.178 282.415 154.21 280.426 154.531L279.906 153.465C282.312 153.15 284.281 151.633 284.295 149.992V149.322H285.648V149.992ZM290.543 155.734V156.801H285.566V161.162H284.295V156.801H279.373V155.734H290.543ZM301.631 148.926V155.68H300.332V148.926H301.631ZM297.721 149.5V152.918H293.387V154.367C295.526 154.354 297.105 154.299 298.965 153.998L299.129 155.051C297.133 155.379 295.451 155.434 293.141 155.447H292.115V151.906H296.436V150.553H292.088V149.5H297.721ZM294.891 156.254V157.58H300.346V156.254H301.631V161.012H293.592V156.254H294.891ZM294.891 159.959H300.346V158.605H294.891V159.959ZM313.457 149.691V154.723H307.633V149.691H313.457ZM308.904 150.73V153.711H312.172V150.73H308.904ZM317.135 148.912V155.912H315.85V148.912H317.135ZM317.422 156.705V157.689H313.84C313.929 158.756 315.631 159.87 317.859 160.123L317.422 161.121C315.501 160.896 313.922 160.068 313.184 158.988C312.432 160.082 310.818 160.882 308.891 161.121L308.439 160.123C310.668 159.911 312.411 158.783 312.5 157.689H308.932V156.705H312.527V155.557H313.812V156.705H317.422ZM326.855 150.744C326.855 152.467 327.963 153.998 329.822 154.6L329.111 155.611C327.765 155.126 326.773 154.183 326.24 152.959C325.707 154.36 324.641 155.447 323.164 155.98L322.467 154.941C324.422 154.271 325.557 152.645 325.57 150.799V149.596H326.855V150.744ZM332.721 148.912V156.145H331.422V152.467H328.838V151.4H331.422V148.912H332.721ZM328.619 156.486C331.189 156.486 332.762 157.334 332.762 158.824C332.762 160.301 331.189 161.148 328.619 161.135C326.049 161.148 324.463 160.301 324.477 158.824C324.463 157.334 326.049 156.486 328.619 156.486ZM328.619 157.498C326.828 157.498 325.762 157.977 325.762 158.824C325.762 159.645 326.828 160.109 328.619 160.109C330.41 160.109 331.477 159.645 331.477 158.824C331.477 157.977 330.41 157.498 328.619 157.498ZM341.43 150.225V150.977C341.43 152.002 341.43 153.588 341.074 155.775L339.789 155.68C340.097 153.718 340.131 152.303 340.145 151.277H335.168V150.225H341.43ZM338.285 153.725V157.389C339.591 157.348 340.917 157.259 342.141 157.102L342.209 158.072C339.652 158.482 336.809 158.537 334.635 158.523L334.484 157.471C335.25 157.464 336.104 157.457 337 157.43V153.725H338.285ZM344.15 148.912V153.971H346.023V155.078H344.15V161.162H342.838V148.912H344.15ZM361.322 155.324V156.363H356.455V158.619H355.17V156.363H350.111V155.324H361.322ZM360.078 159.85V160.902H351.506V157.553H352.791V159.85H360.078ZM352.873 149.295V150.785H358.547V149.295H359.846V154.244H351.588V149.295H352.873ZM352.873 153.205H358.547V151.756H352.873V153.205ZM366.545 150.867C366.531 152.494 367.652 154.025 369.498 154.641L368.787 155.68C367.434 155.194 366.436 154.203 365.916 152.959C365.376 154.326 364.337 155.399 362.908 155.939L362.211 154.887C364.125 154.217 365.232 152.604 365.246 150.799V149.541H366.545V150.867ZM372.438 156.814V161.162H371.139V157.84H364.139V156.814H372.438ZM372.438 148.912V156.172H371.139V152.453H368.555V151.387H371.139V148.912H372.438Z" fill="#393939"/>
<defs>
<filter id="filter0_d_453_27944" x="0" y="0" width="170" height="170" filterUnits="userSpaceOnUse" color-interpolation-filters="sRGB">
<feFlood flood-opacity="0" result="BackgroundImageFix"/>
<feColorMatrix in="SourceAlpha" type="matrix" values="0 0 0 0 0 0 0 0 0 0 0 0 0 0 0 0 0 0 127 0" result="hardAlpha"/>
<feOffset/>
<feGaussianBlur stdDeviation="10"/>
<feComposite in2="hardAlpha" operator="out"/>
<feColorMatrix type="matrix" values="0 0 0 0 0 0 0 0 0 0 0 0 0 0 0 0 0 0 0.1 0"/>
<feBlend mode="normal" in2="BackgroundImageFix" result="effect1_dropShadow_453_27944"/>
<feBlend mode="normal" in="SourceGraphic" in2="effect1_dropShadow_453_27944" result="shape"/>
</filter>
</defs>
</svg>
