<svg width="383" height="190" viewBox="0 0 383 190" fill="none" xmlns="http://www.w3.org/2000/svg">
<g filter="url(#filter0_d_453_27951)">
<circle cx="85" cy="85" r="65" fill="white"/>
</g>
<rect x="180" y="30" width="200" height="42" rx="4" fill="#0568CC"/>
<path d="M202.39 52.28C205.345 52.295 207.205 53.24 207.22 54.86C207.205 56.465 205.345 57.425 202.39 57.41C199.48 57.425 197.575 56.465 197.59 54.86C197.575 53.24 199.48 52.295 202.39 52.28ZM196.39 51.56V49.88H200.8V47.6H202.9V49.88H208.57V51.56H196.39ZM197.74 46.19V44.54H207.16V45.62C207.16 46.685 207.16 47.855 206.77 49.22L204.7 49.04C204.985 47.915 205.03 47.045 205.045 46.19H197.74ZM199.69 54.86C199.675 55.52 200.635 55.82 202.39 55.82C204.145 55.82 205.12 55.52 205.12 54.86C205.12 54.185 204.145 53.855 202.39 53.84C200.635 53.855 199.675 54.185 199.69 54.86ZM214.694 46.82C214.679 49.295 215.624 51.77 218.024 52.76L216.764 54.44C215.249 53.765 214.244 52.52 213.659 50.96C213.059 52.685 212.009 54.065 210.374 54.8L209.114 53.03C211.574 52.025 212.534 49.46 212.564 46.82V44.96H214.694V46.82ZM218.474 57.44V43.97H220.604V57.44H218.474ZM225.318 54.89L223.998 59.12H222.288L223.008 54.89H225.318ZM240.161 44.48V49.28H236.621V50.42H241.691V52.1H229.451V50.42H234.491V49.28H230.951V44.48H240.161ZM230.801 54.62V52.97H240.221V57.41H238.121V54.62H230.801ZM232.991 47.63H238.091V46.13H232.991V47.63ZM254.685 54.29V55.97H242.415V54.29H245.325V51.95H243.405V50.24H245.085V46.67H243.315V44.99H253.725V46.67H251.895V50.24H253.635V51.95H251.715V54.29H254.685ZM247.215 50.24H249.825V46.67H247.215V50.24ZM247.455 54.29H249.585V51.95H247.455V54.29ZM266.053 44.75V50.48H259.393V44.75H266.053ZM260.023 55.79C262.783 55.595 263.998 54.605 264.238 53.78H260.563V52.25H264.313V51.2H266.443V52.25H270.193V53.78H266.518C266.773 54.575 268.003 55.55 270.733 55.79L270.043 57.38C267.763 57.185 266.218 56.42 265.393 55.43C264.568 56.435 263.038 57.185 260.743 57.38L260.023 55.79ZM261.463 48.83H263.953V46.4H261.463V48.83ZM267.913 51.56V43.97H270.013V51.56H267.913ZM286.331 43.97V50.72H284.231V43.97H286.331ZM274.931 49.16C277.256 48.5 278.111 46.835 278.111 45.26V44.24H280.301V45.26C280.301 46.805 281.126 48.335 283.391 48.95L282.371 50.57C280.841 50.15 279.821 49.28 279.221 48.155C278.621 49.385 277.571 50.36 275.981 50.81L274.931 49.16ZM277.241 52.88V51.26H286.331V55.04H279.311V55.67H286.661V57.32H277.271V53.51H284.231V52.88H277.241ZM295.785 44.66V46.34H293.205C293.295 47.795 294.165 49.31 296.235 50L295.185 51.62C293.73 51.17 292.74 50.24 292.155 49.085C291.57 50.36 290.535 51.38 288.975 51.86L287.895 50.21C290.07 49.52 290.955 47.885 291.045 46.34H288.465V44.66H295.785ZM290.085 54.2V52.52H299.385V57.41H297.285V54.2H290.085ZM295.425 48.83V47.09H297.285V43.97H299.385V51.95H297.285V48.83H295.425ZM311.894 44.93V45.8C311.879 46.76 311.879 48.095 311.594 49.73L309.524 49.55C309.734 48.35 309.794 47.42 309.824 46.64H304.904V44.93H311.894ZM304.124 50.63C304.844 50.63 305.639 50.615 306.494 50.6V48.05H308.564V50.54C309.854 50.48 311.189 50.39 312.404 50.21L312.524 51.71C309.734 52.235 306.614 52.28 304.304 52.28L304.124 50.63ZM306.044 57.2V53.12H308.174V55.49H315.644V57.2H306.044ZM313.064 53.99V43.97H315.224V47.96H316.754V49.73H315.224V53.99H313.064ZM328.608 43.97V57.44H326.508V43.97H328.608ZM317.988 54.32V48.71H322.248V46.73H317.988V45.05H324.408V50.36H320.178V52.61C322.158 52.58 323.823 52.475 325.638 52.16L325.818 53.87C323.703 54.245 321.723 54.32 319.218 54.32H317.988Z" fill="white"/>
<circle cx="182.5" cy="101" r="1.5" fill="#393939"/>
<path opacity="0.9" d="M192.012 106V96.1016H198.219V97.4004H193.516V100.395H197.891V101.68H193.516V104.701H198.273V106H192.012ZM205.451 98.7129C205.355 97.7969 204.549 97.2637 203.414 97.2637C202.197 97.2637 201.432 97.8789 201.432 98.7266C201.432 99.6699 202.457 100.025 203.236 100.217L204.193 100.477C205.465 100.777 207.037 101.475 207.051 103.266C207.037 104.934 205.711 106.164 203.373 106.164C201.158 106.164 199.764 105.057 199.668 103.252H201.172C201.268 104.332 202.211 104.852 203.373 104.852C204.631 104.852 205.547 104.209 205.561 103.238C205.547 102.377 204.74 102.021 203.688 101.748L202.512 101.434C200.926 100.996 199.928 100.189 199.928 98.8086C199.928 97.0996 201.459 95.9648 203.455 95.9648C205.465 95.9648 206.873 97.1133 206.914 98.7129H205.451ZM215.35 99.2324C214.98 98.0566 214.092 97.3457 212.779 97.3457C211.111 97.3457 209.826 98.6582 209.826 101.051C209.826 103.443 211.098 104.756 212.848 104.756C214.427 104.756 215.473 103.758 215.5 102.172H213.066V100.928H216.963V102.049C216.963 104.551 215.24 106.137 212.834 106.137C210.154 106.137 208.336 104.182 208.336 101.051C208.336 97.8926 210.209 95.9648 212.766 95.9648C214.912 95.9648 216.553 97.3047 216.895 99.2324H215.35ZM225.33 106H222.117V96.1016H225.426C228.338 96.1016 230.088 97.9609 230.088 101.037C230.088 104.127 228.338 106 225.33 106ZM223.621 104.688H225.248C227.49 104.688 228.598 103.375 228.598 101.037C228.598 98.7129 227.49 97.4141 225.33 97.4141H223.621V104.688ZM231.318 103.908C231.318 102.213 232.754 101.775 234.094 101.68C234.586 101.646 235.7 101.584 236.049 101.57L236.035 100.982C236.035 100.148 235.529 99.6562 234.531 99.6562C233.67 99.6562 233.15 100.053 233 100.6H231.551C231.688 99.3691 232.836 98.4805 234.586 98.4805C235.762 98.4805 237.498 98.918 237.498 101.064V106H236.076V104.988H236.021C235.734 105.549 235.051 106.164 233.82 106.164C232.412 106.164 231.318 105.357 231.318 103.908ZM232.74 103.922C232.74 104.633 233.328 105.002 234.148 105.002C235.338 105.002 236.049 104.209 236.049 103.32V102.637L234.299 102.76C233.342 102.828 232.74 103.184 232.74 103.922ZM242.734 98.5762V99.7383H241.217V103.812C241.217 104.646 241.641 104.797 242.105 104.811C242.311 104.811 242.639 104.783 242.844 104.77V106.041C242.639 106.068 242.324 106.096 241.928 106.096C240.779 106.096 239.754 105.467 239.768 104.113V99.7383H238.674V98.5762H239.768V96.7988H241.217V98.5762H242.734ZM243.814 103.908C243.814 102.213 245.25 101.775 246.59 101.68C247.082 101.646 248.196 101.584 248.545 101.57L248.531 100.982C248.531 100.148 248.025 99.6562 247.027 99.6562C246.166 99.6562 245.646 100.053 245.496 100.6H244.047C244.184 99.3691 245.332 98.4805 247.082 98.4805C248.258 98.4805 249.994 98.918 249.994 101.064V106H248.572V104.988H248.518C248.23 105.549 247.547 106.164 246.316 106.164C244.908 106.164 243.814 105.357 243.814 103.908ZM245.236 103.922C245.236 104.633 245.824 105.002 246.645 105.002C247.834 105.002 248.545 104.209 248.545 103.32V102.637L246.795 102.76C245.838 102.828 245.236 103.184 245.236 103.922ZM255.312 95.7871C257.254 95.7734 258.635 96.9766 258.648 98.6992C258.635 100.422 257.254 101.625 255.312 101.625C253.385 101.625 251.963 100.422 251.977 98.6992C251.963 96.9766 253.385 95.7734 255.312 95.7871ZM255.312 96.9082C254.123 96.9082 253.248 97.6191 253.262 98.6992C253.248 99.7793 254.123 100.49 255.312 100.49C256.502 100.49 257.377 99.7793 257.377 98.6992C257.377 97.6191 256.502 96.9082 255.312 96.9082ZM261.451 94.9121V107.189H260.152V94.9121H261.451ZM251.389 103.471C253.617 103.471 256.707 103.443 259.387 103.061L259.482 104.004C256.707 104.537 253.74 104.551 251.553 104.551L251.389 103.471ZM278.008 101.352V102.377H266.811V101.352H271.76V100.285H268.273V95.2402H276.641V96.2656H269.586V97.2637H276.326V98.2344H269.586V99.2734H276.723V100.285H273.059V101.352H278.008ZM272.416 103.184C275.109 103.17 276.641 103.881 276.641 105.166C276.641 106.465 275.109 107.148 272.416 107.135C269.695 107.148 268.164 106.465 268.164 105.166C268.164 103.881 269.695 103.17 272.416 103.184ZM272.416 104.154C270.488 104.154 269.449 104.51 269.463 105.166C269.449 105.822 270.488 106.164 272.416 106.15C274.316 106.164 275.342 105.822 275.342 105.166C275.342 104.51 274.316 104.154 272.416 104.154ZM288.562 94.9121V97.9883H290.34V99.082H288.562V102.049H287.264V94.9121H288.562ZM282.014 102.555V103.744H287.264V102.555H288.562V107.012H280.729V102.555H282.014ZM282.014 105.973H287.264V104.756H282.014V105.973ZM286.252 96.1152V97.1543H278.951V96.1152H281.959V94.8027H283.258V96.1152H286.252ZM282.602 97.6602C284.365 97.6602 285.568 98.4941 285.568 99.8066C285.568 101.105 284.365 101.967 282.602 101.953C280.811 101.967 279.621 101.105 279.621 99.8066C279.621 98.4941 280.811 97.6602 282.602 97.6602ZM282.602 98.6309C281.562 98.6172 280.865 99.0957 280.879 99.8066C280.865 100.531 281.562 100.996 282.602 100.996C283.641 100.996 284.338 100.531 284.352 99.8066C284.338 99.0957 283.641 98.6172 282.602 98.6309ZM297.859 95.8418V96.5254C297.846 97.3457 297.846 98.5625 297.545 100.148L296.26 100.025C296.526 98.665 296.567 97.6807 296.588 96.9082H291.68V95.8418H297.859ZM294.729 98.5898V101.119C296.041 101.078 297.395 100.982 298.625 100.805L298.707 101.748C296.15 102.199 293.225 102.24 291.064 102.254L290.941 101.201C291.693 101.194 292.548 101.188 293.443 101.16V98.5898H294.729ZM300.73 94.9121V98.8086H302.412V99.9023H300.73V104.113H299.404V94.9121H300.73ZM301.127 105.85V106.902H292.801V103.279H294.1V105.85H301.127ZM313.309 94.9121V107.189H312.01V94.9121H313.309ZM309.562 96.0195V100.49H305.16V103.17C307.143 103.163 308.879 103.074 310.93 102.732L311.053 103.799C308.879 104.168 307.033 104.25 304.873 104.25H303.834V99.4512H308.236V97.0723H303.82V96.0195H309.562Z" fill="#393939"/>
<circle cx="182.5" cy="127" r="1.5" fill="#393939"/>
<path opacity="0.9" d="M198.273 121.842V122.525C198.26 123.346 198.26 124.562 197.959 126.148L196.674 126.025C196.94 124.665 196.981 123.681 197.002 122.908H192.094V121.842H198.273ZM195.143 124.59V127.119C196.455 127.078 197.809 126.982 199.039 126.805L199.121 127.748C196.564 128.199 193.639 128.24 191.479 128.254L191.355 127.201C192.107 127.194 192.962 127.188 193.857 127.16V124.59H195.143ZM201.145 120.912V124.809H202.826V125.902H201.145V130.113H199.818V120.912H201.145ZM201.541 131.85V132.902H193.215V129.279H194.514V131.85H201.541ZM213.723 120.912V133.189H212.424V120.912H213.723ZM209.977 122.02V126.49H205.574V129.17C207.557 129.163 209.293 129.074 211.344 128.732L211.467 129.799C209.293 130.168 207.447 130.25 205.287 130.25H204.248V125.451H208.65V123.072H204.234V122.02H209.977ZM220.162 124.521C220.162 126.572 221.502 128.691 223.389 129.498L222.678 130.51C221.235 129.874 220.087 128.527 219.52 126.887C218.952 128.637 217.797 130.127 216.375 130.824L215.623 129.799C217.469 128.938 218.836 126.627 218.85 124.521V123.223H216.047V122.143H222.951V123.223H220.162V124.521ZM225.795 120.912V133.162H224.496V120.912H225.795ZM238.961 130.646V131.713H227.75V130.646H230.758V127.926H228.734V126.873H230.566V123.059H228.707V121.992H237.936V123.059H236.062V126.873H237.895V127.926H235.885V130.646H238.961ZM231.852 126.873H234.791V123.059H231.852V126.873ZM232.057 130.646H234.586V127.926H232.057V130.646ZM244.061 121.637L240.875 133.49H239.576L242.762 121.637H244.061ZM254.451 121.418V125.615H250.924V127.037H255.873V128.09H244.703V127.037H249.639V125.615H246.125V121.418H254.451ZM247.396 122.443V124.576H253.166V122.443H247.396ZM254.506 129.252V133.162H253.193V130.277H245.947V129.252H254.506ZM268.014 130.646V131.713H256.803V130.646H259.811V127.926H257.787V126.873H259.619V123.059H257.76V121.992H266.988V123.059H265.115V126.873H266.947V127.926H264.938V130.646H268.014ZM260.904 126.873H263.844V123.059H260.904V126.873ZM261.109 130.646H263.639V127.926H261.109V130.646ZM273.113 121.637L269.928 133.49H268.629L271.814 121.637H273.113ZM283.9 120.912V127.215H282.615V120.912H283.9ZM283.914 127.803V130.865H277.16V132H284.324V133.039H275.902V129.881H282.629V128.828H275.861V127.803H283.914ZM278.213 122.184C278.199 123.824 279.389 125.314 281.262 125.902L280.619 126.914C279.19 126.449 278.117 125.479 277.57 124.234C277.01 125.574 275.916 126.641 274.453 127.146L273.797 126.121C275.711 125.479 276.887 123.879 276.887 122.184V121.24H278.213V122.184ZM290.244 123.086C290.244 124.631 291.352 126.148 293.197 126.777L292.527 127.789C291.153 127.311 290.135 126.333 289.602 125.123C289.068 126.47 287.995 127.55 286.539 128.062L285.869 127.037C287.756 126.395 288.918 124.754 288.918 123.1V122.758H286.266V121.705H292.869V122.758H290.244V123.086ZM296.068 128.855V133.162H294.77V129.908H287.77V128.855H296.068ZM296.068 120.912V128.24H294.77V125.096H292.5V124.029H294.77V120.912H296.068ZM305.146 132H301.934V122.102H305.242C308.154 122.102 309.904 123.961 309.904 127.037C309.904 130.127 308.154 132 305.146 132ZM303.438 130.688H305.064C307.307 130.688 308.414 129.375 308.414 127.037C308.414 124.713 307.307 123.414 305.146 123.414H303.438V130.688ZM311.135 129.908C311.135 128.213 312.57 127.775 313.91 127.68C314.402 127.646 315.517 127.584 315.865 127.57L315.852 126.982C315.852 126.148 315.346 125.656 314.348 125.656C313.486 125.656 312.967 126.053 312.816 126.6H311.367C311.504 125.369 312.652 124.48 314.402 124.48C315.578 124.48 317.314 124.918 317.314 127.064V132H315.893V130.988H315.838C315.551 131.549 314.867 132.164 313.637 132.164C312.229 132.164 311.135 131.357 311.135 129.908ZM312.557 129.922C312.557 130.633 313.145 131.002 313.965 131.002C315.154 131.002 315.865 130.209 315.865 129.32V128.637L314.115 128.76C313.158 128.828 312.557 129.184 312.557 129.922ZM322.551 124.576V125.738H321.033V129.812C321.033 130.646 321.457 130.797 321.922 130.811C322.127 130.811 322.455 130.783 322.66 130.77V132.041C322.455 132.068 322.141 132.096 321.744 132.096C320.596 132.096 319.57 131.467 319.584 130.113V125.738H318.49V124.576H319.584V122.799H321.033V124.576H322.551ZM323.631 129.908C323.631 128.213 325.066 127.775 326.406 127.68C326.898 127.646 328.013 127.584 328.361 127.57L328.348 126.982C328.348 126.148 327.842 125.656 326.844 125.656C325.982 125.656 325.463 126.053 325.312 126.6H323.863C324 125.369 325.148 124.48 326.898 124.48C328.074 124.48 329.811 124.918 329.811 127.064V132H328.389V130.988H328.334C328.047 131.549 327.363 132.164 326.133 132.164C324.725 132.164 323.631 131.357 323.631 129.908ZM325.053 129.922C325.053 130.633 325.641 131.002 326.461 131.002C327.65 131.002 328.361 130.209 328.361 129.32V128.637L326.611 128.76C325.654 128.828 325.053 129.184 325.053 129.922ZM335.348 121.637L332.162 133.49H330.863L334.049 121.637H335.348ZM342.854 121.801V122.854H341.678V126.559C342.197 126.518 342.696 126.47 343.182 126.408L343.236 127.393C340.885 127.762 338.137 127.803 336.168 127.803L336.004 126.723L337.494 126.709V122.854H336.346V121.801H342.854ZM346.203 120.912V128.445H344.904V126.312H343.031V125.273H344.904V124.084H343.031V123.045H344.904V120.912H346.203ZM342.102 128.678C344.686 128.678 346.244 129.484 346.244 130.92C346.244 132.314 344.686 133.148 342.102 133.135C339.518 133.148 337.945 132.314 337.959 130.92C337.945 129.484 339.518 128.678 342.102 128.678ZM342.102 129.689C340.297 129.689 339.244 130.127 339.244 130.92C339.244 131.699 340.297 132.137 342.102 132.137C343.893 132.137 344.959 131.699 344.959 130.92C344.959 130.127 343.893 129.689 342.102 129.689ZM338.752 126.695C339.306 126.682 339.866 126.661 340.434 126.627V122.854H338.752V126.695ZM357.633 120.912V125.793H359.533V126.873H357.633V133.148H356.334V120.912H357.633ZM354.434 122.197C354.42 125.738 352.861 128.896 348.828 130.893L348.104 129.881C351.173 128.35 352.841 126.135 353.107 123.277H348.719V122.197H354.434Z" fill="#393939"/>
<defs>
<filter id="filter0_d_453_27951" x="0" y="0" width="170" height="170" filterUnits="userSpaceOnUse" color-interpolation-filters="sRGB">
<feFlood flood-opacity="0" result="BackgroundImageFix"/>
<feColorMatrix in="SourceAlpha" type="matrix" values="0 0 0 0 0 0 0 0 0 0 0 0 0 0 0 0 0 0 127 0" result="hardAlpha"/>
<feOffset/>
<feGaussianBlur stdDeviation="10"/>
<feComposite in2="hardAlpha" operator="out"/>
<feColorMatrix type="matrix" values="0 0 0 0 0 0 0 0 0 0 0 0 0 0 0 0 0 0 0.1 0"/>
<feBlend mode="normal" in2="BackgroundImageFix" result="effect1_dropShadow_453_27951"/>
<feBlend mode="normal" in="SourceGraphic" in2="effect1_dropShadow_453_27951" result="shape"/>
</filter>
</defs>
</svg>
