<svg width="179" height="177" viewBox="0 0 179 177" fill="none" xmlns="http://www.w3.org/2000/svg">
<path d="M47.4132 62.469C47.4132 62.469 47.2665 62.4527 47.2013 62.4201L13.3884 42.9051C13.1928 42.791 13.1276 42.5302 13.2417 42.3345C13.3558 42.1389 13.6167 42.0737 13.8123 42.1878L47.6252 61.7028C47.8208 61.8169 47.886 62.0777 47.7719 62.2734C47.6904 62.4038 47.56 62.4853 47.4132 62.4853V62.469Z" fill="url(#paint0_linear_5997_11929)"/>
<path d="M90.1445 94.4395L78.4551 87.69L90.1445 80.9405L101.834 87.69L90.1445 94.4395Z" fill="#F6F2ED"/>
<path d="M90.1445 107.009L78.4551 100.276V87.6901L90.1445 94.4396V107.009Z" fill="#CCC7BF"/>
<path d="M101.834 100.276L90.1445 107.009V94.4396L101.834 87.6901V100.276Z" fill="#E9E4DB"/>
<path d="M103.281 102.02L91.5918 95.271L103.281 88.5377L114.971 95.271L103.281 102.02Z" fill="#F6F2ED"/>
<path d="M103.281 114.607L91.5918 107.857V95.2709L103.281 102.02V114.607Z" fill="#CCC7BF"/>
<path d="M114.971 107.857L103.281 114.607V102.02L114.971 95.2709V107.857Z" fill="#E9E4DB"/>
<path d="M116.443 109.618L104.754 102.868L116.443 96.1188L128.116 102.868L116.443 109.618Z" fill="#F6F2ED"/>
<path d="M116.443 122.188L104.754 115.455V102.868L116.443 109.618V122.188Z" fill="#CCC7BF"/>
<path d="M128.116 115.455L116.443 122.188V109.618L128.116 102.868V115.455Z" fill="#E9E4DB"/>
<path d="M129.58 117.199L117.891 110.449L129.58 103.716L141.269 110.449L129.58 117.199Z" fill="#F6F2ED"/>
<path d="M129.58 129.785L117.891 123.035V110.449L129.58 117.199V129.785Z" fill="#CCC7BF"/>
<path d="M141.269 123.035L129.58 129.785V117.199L141.269 110.449V123.035Z" fill="#E9E4DB"/>
<path d="M76.9511 102.053L65.2617 95.3037L76.9511 88.5541L88.6405 95.3037L76.9511 102.053Z" fill="#F6F2ED"/>
<path d="M76.9511 114.623L65.2617 107.89V95.3037L76.9511 102.053V114.623Z" fill="#CCC7BF"/>
<path d="M88.6406 107.89L76.9512 114.623V102.053L88.6406 95.3037V107.89Z" fill="#E9E4DB"/>
<path d="M90.0911 109.634L78.418 102.885L90.0911 96.1514L101.78 102.885L90.0911 109.634Z" fill="#F6F2ED"/>
<path d="M90.0911 122.22L78.418 115.471V102.885L90.0911 109.634V122.22Z" fill="#CCC7BF"/>
<path d="M101.781 115.471L90.0918 122.22V109.634L101.781 102.885V115.471Z" fill="#E9E4DB"/>
<path d="M103.252 117.231L91.5625 110.482L103.252 103.732L114.925 110.482L103.252 117.231Z" fill="#F6F2ED"/>
<path d="M103.252 129.801L91.5625 123.068V110.482L103.252 117.232V129.801Z" fill="#CCC7BF"/>
<path d="M114.925 123.068L103.252 129.801V117.232L114.925 110.482V123.068Z" fill="#E9E4DB"/>
<path d="M63.7629 109.667L52.0898 102.917L63.7629 96.1677L75.4524 102.917L63.7629 109.667Z" fill="#F6F2ED"/>
<path d="M63.7629 122.236L52.0898 115.503V102.917L63.7629 109.667V122.236Z" fill="#CCC7BF"/>
<path d="M75.4531 115.503L63.7637 122.236V109.667L75.4531 102.917V115.503Z" fill="#E9E4DB"/>
<path d="M76.9218 117.248L65.2324 110.498L76.9218 103.765L88.5949 110.498L76.9218 117.248Z" fill="#F6F2ED"/>
<path d="M76.9218 129.834L65.2324 123.084V110.498L76.9218 117.248V129.834Z" fill="#CCC7BF"/>
<path d="M88.595 123.084L76.9219 129.834V117.248L88.595 110.498V123.084Z" fill="#E9E4DB"/>
<path d="M90.0644 124.845L78.375 118.095L90.0644 111.346L101.754 118.095L90.0644 124.845Z" fill="#F6F2ED"/>
<path d="M90.0644 137.415L78.375 130.682V118.096L90.0644 124.845V137.415Z" fill="#CCC7BF"/>
<path d="M101.754 130.682L90.0645 137.415V124.845L101.754 118.096V130.682Z" fill="#E9E4DB"/>
<path d="M103.203 132.426L91.5137 125.676L103.203 118.943L114.892 125.676L103.203 132.426Z" fill="#F6F2ED"/>
<path d="M103.203 145.012L91.5137 138.263V125.676L103.203 132.426V145.012Z" fill="#CCC7BF"/>
<path d="M114.893 138.263L103.203 145.012V132.426L114.893 125.676V138.263Z" fill="#E9E4DB"/>
<path d="M50.5735 117.28L38.9004 110.531L50.5735 103.781L62.2629 110.531L50.5735 117.28Z" fill="#BCB5AB"/>
<path d="M50.5735 129.85L38.9004 123.117V110.531L50.5735 117.28V129.85Z" fill="#CCC7BF"/>
<path d="M62.2636 123.117L50.5742 129.85V117.28L62.2636 110.531V123.117Z" fill="#A29D96"/>
<path d="M63.7324 124.861L52.043 118.112L63.7324 111.362L75.4218 118.112L63.7324 124.861Z" fill="#BCB5AB"/>
<path d="M63.7324 137.448L52.043 130.698V118.112L63.7324 124.861V137.448Z" fill="#CCC7BF"/>
<path d="M75.4218 130.698L63.7324 137.448V124.861L75.4218 118.112V130.698Z" fill="#E9E4DB"/>
<path d="M76.8691 132.459L65.1797 125.709L76.8691 118.96L88.5585 125.709L76.8691 132.459Z" fill="#BCB5AB"/>
<path d="M76.8691 145.028L65.1797 138.295V125.709L76.8691 132.459V145.028Z" fill="#CCC7BF"/>
<path d="M88.5585 138.295L76.8691 145.028V132.459L88.5585 125.709V138.295Z" fill="#E9E4DB"/>
<path d="M90.0149 149.414L78.3418 142.664L90.0149 135.931L101.704 142.664L90.0149 149.414Z" fill="#2875F3"/>
<path d="M90.0149 162L78.3418 155.251V142.664L90.0149 149.414V162Z" fill="#0238A6"/>
<path d="M101.705 155.251L90.0156 162V149.414L101.705 142.664V155.251Z" fill="#1755D2"/>
<path d="M90.1445 80.1089L78.4551 73.3594L90.1445 66.6262L101.834 73.3594L90.1445 80.1089Z" fill="#F6F2ED"/>
<path d="M90.1445 92.695L78.4551 85.9455V73.3594L90.1445 80.1089V92.695Z" fill="#CCC7BF"/>
<path d="M101.834 85.9455L90.1445 92.695V80.1089L101.834 73.3594V85.9455Z" fill="#E9E4DB"/>
<path d="M103.281 87.7063L91.5918 80.9568L103.281 74.2073L114.971 80.9568L103.281 87.7063Z" fill="#F6F2ED"/>
<path d="M103.281 100.276L91.5918 93.5429V80.9568L103.281 87.7064V100.276Z" fill="#CCC7BF"/>
<path d="M114.971 93.5429L103.281 100.276V87.7064L114.971 80.9568V93.5429Z" fill="#E9E4DB"/>
<path d="M116.443 95.2876L104.754 88.538L116.443 81.8048L128.116 88.538L116.443 95.2876Z" fill="#BCB5AB"/>
<path d="M116.443 107.874L104.754 101.124V88.538L116.443 95.2876V107.874Z" fill="#CCC7BF"/>
<path d="M128.116 101.124L116.443 107.874V95.2876L128.116 88.538V101.124Z" fill="#E9E4DB"/>
<path d="M129.58 102.884L117.891 96.135L129.58 89.3854L141.269 96.135L129.58 102.884Z" fill="#F6F2ED"/>
<path d="M129.58 115.471L117.891 108.721V96.135L129.58 102.885V115.471Z" fill="#CCC7BF"/>
<path d="M141.269 108.721L129.58 115.471V102.885L141.269 96.135V108.721Z" fill="#E9E4DB"/>
<path d="M76.9511 87.7227L65.2617 80.9732L76.9511 74.2399L88.6405 80.9732L76.9511 87.7227Z" fill="#F6F2ED"/>
<path d="M76.9511 100.309L65.2617 93.5592V80.9731L76.9511 87.7227V100.309Z" fill="#CCC7BF"/>
<path d="M88.6406 93.5592L76.9512 100.309V87.7227L88.6406 80.9731V93.5592Z" fill="#E9E4DB"/>
<path d="M90.0911 95.3199L78.418 88.5704L90.0911 81.8209L101.78 88.5704L90.0911 95.3199Z" fill="#F6F2ED"/>
<path d="M90.0911 107.89L78.418 101.157V88.5704L90.0911 95.32V107.89Z" fill="#CCC7BF"/>
<path d="M101.781 101.157L90.0918 107.89V95.32L101.781 88.5704V101.157Z" fill="#E9E4DB"/>
<path d="M103.252 102.901L91.5625 96.1514L103.252 89.4182L114.925 96.1514L103.252 102.901Z" fill="#F6F2ED"/>
<path d="M103.252 115.487L91.5625 108.738V96.1515L103.252 102.901V115.487Z" fill="#CCC7BF"/>
<path d="M114.925 108.738L103.252 115.487V102.901L114.925 96.1515V108.738Z" fill="#E9E4DB"/>
<path d="M116.393 110.498L104.703 103.749L116.393 96.9992L128.082 103.749L116.393 110.498Z" fill="#F6F2ED"/>
<path d="M116.393 123.084L104.703 116.335V103.749L116.393 110.498V123.084Z" fill="#CCC7BF"/>
<path d="M128.082 116.335L116.393 123.084V110.498L128.082 103.749V116.335Z" fill="#E9E4DB"/>
<path d="M63.7629 95.3363L52.0898 88.5868L63.7629 81.8535L75.4524 88.5868L63.7629 95.3363Z" fill="#A29D96"/>
<path d="M63.7629 107.922L52.0898 101.173V88.5868L63.7629 95.3363V107.922Z" fill="#A29D96"/>
<path d="M75.4531 101.173L63.7637 107.922V95.3363L75.4531 88.5868V101.173Z" fill="#A29D96"/>
<path d="M76.9218 102.934L65.2324 96.1842L76.9218 89.4347L88.5949 96.1842L76.9218 102.934Z" fill="#A29D96"/>
<path d="M76.9218 115.504L65.2324 108.77V96.1843L76.9218 102.934V115.504Z" fill="#A29D96"/>
<path d="M88.595 108.77L76.9219 115.504V102.934L88.595 96.1843V108.77Z" fill="#A29D96"/>
<path d="M90.0644 110.515L78.375 103.765L90.0644 97.0319L101.754 103.765L90.0644 110.515Z" fill="#F6F2ED"/>
<path d="M90.0644 123.101L78.375 116.351V103.765L90.0644 110.515V123.101Z" fill="#CCC7BF"/>
<path d="M101.754 116.351L90.0645 123.101V110.515L101.754 103.765V116.351Z" fill="#E9E4DB"/>
<path d="M103.203 118.112L91.5137 111.362L103.203 104.613L114.892 111.362L103.203 118.112Z" fill="#F6F2ED"/>
<path d="M103.203 130.682L91.5137 123.949V111.362L103.203 118.112V130.682Z" fill="#CCC7BF"/>
<path d="M114.893 123.949L103.203 130.682V118.112L114.893 111.362V123.949Z" fill="#E9E4DB"/>
<path d="M50.5735 102.95L38.9004 96.2003L50.5735 89.4508L62.2629 96.2003L50.5735 102.95Z" fill="#BCB5AB"/>
<path d="M50.5735 115.536L38.9004 108.786V96.2004L50.5735 102.95V115.536Z" fill="#CCC7BF"/>
<path d="M62.2636 108.786L50.5742 115.536V102.95L62.2636 96.2004V108.786Z" fill="#A29D96"/>
<path d="M63.7324 110.547L52.043 103.798L63.7324 97.0482L75.4218 103.798L63.7324 110.547Z" fill="#BCB5AB"/>
<path d="M63.7324 123.117L52.043 116.384V103.798L63.7324 110.547V123.117Z" fill="#CCC7BF"/>
<path d="M75.4218 116.384L63.7324 123.117V110.547L75.4218 103.798V116.384Z" fill="#E9E4DB"/>
<path d="M76.8691 118.128L65.1797 111.379L76.8691 104.645L88.5585 111.379L76.8691 118.128Z" fill="#BCB5AB"/>
<path d="M76.8691 130.714L65.1797 123.965V111.379L76.8691 118.128V130.714Z" fill="#CCC7BF"/>
<path d="M88.5585 123.965L76.8691 130.714V118.128L88.5585 111.379V123.965Z" fill="#E9E4DB"/>
<path d="M90.0149 125.726L78.3418 118.976L90.0149 112.227L101.704 118.976L90.0149 125.726Z" fill="#F6F2ED"/>
<path d="M90.0149 138.295L78.3418 131.562V118.976L90.0149 125.726V138.295Z" fill="#CCC7BF"/>
<path d="M101.705 131.562L90.0156 138.295V125.726L101.705 118.976V131.562Z" fill="#E9E4DB"/>
<path d="M90.1445 65.7951L78.4551 59.0456L90.1445 52.296L101.834 59.0456L90.1445 65.7951Z" fill="#BCB5AB"/>
<path d="M90.1445 78.3648L78.4551 71.6316V59.0455L90.1445 65.7951V78.3648Z" fill="#CCC7BF"/>
<path d="M101.834 71.6316L90.1445 78.3648V65.7951L101.834 59.0455V71.6316Z" fill="#E9E4DB"/>
<path d="M103.281 73.3758L91.5918 66.6263L103.281 59.8931L114.971 66.6263L103.281 73.3758Z" fill="#F6F2ED"/>
<path d="M103.281 85.962L91.5918 79.2124V66.6263L103.281 73.3759V85.962Z" fill="#CCC7BF"/>
<path d="M114.971 79.2124L103.281 85.962V73.3759L114.971 66.6263V79.2124Z" fill="#E9E4DB"/>
<path d="M116.443 80.9731L104.754 74.2236L116.443 67.4741L128.116 74.2236L116.443 80.9731Z" fill="#F6F2ED"/>
<path d="M116.443 93.5592L104.754 86.8097V74.2236L116.443 80.9732V93.5592Z" fill="#CCC7BF"/>
<path d="M128.116 86.8097L116.443 93.5592V80.9732L128.116 74.2236V86.8097Z" fill="#E9E4DB"/>
<path d="M129.58 88.5542L117.891 81.8209L129.58 75.0714L141.269 81.8209L129.58 88.5542Z" fill="#F6F2ED"/>
<path d="M129.58 101.14L117.891 94.3908V81.821L129.58 88.5542V101.14Z" fill="#CCC7BF"/>
<path d="M141.269 94.3908L129.58 101.14V88.5542L141.269 81.821V94.3908Z" fill="#E9E4DB"/>
<path d="M90.0911 80.9895L78.418 74.2399L90.0911 67.5067L101.78 74.2399L90.0911 80.9895Z" fill="#BCB5AB"/>
<path d="M90.0911 93.5756L78.418 86.8261V74.24L90.0911 80.9895V93.5756Z" fill="#CCC7BF"/>
<path d="M101.781 86.8261L90.0918 93.5756V80.9895L101.781 74.24V86.8261Z" fill="#CCC7BF"/>
<path d="M103.252 88.5867L91.5625 81.8371L103.252 75.0876L114.925 81.8371L103.252 88.5867Z" fill="#F6F2ED"/>
<path d="M103.252 101.173L91.5625 94.4232V81.8372L103.252 88.5867V101.173Z" fill="#CCC7BF"/>
<path d="M114.925 94.4232L103.252 101.173V88.5867L114.925 81.8372V94.4232Z" fill="#E9E4DB"/>
<path d="M147.092 113.889L135.402 107.156L147.092 100.407L158.781 107.156L147.092 113.889Z" fill="#2875F3"/>
<path d="M147.092 126.475L135.402 119.726V107.156L147.092 113.889V126.475Z" fill="#0238A6"/>
<path d="M158.781 119.726L147.092 126.475V113.889L158.781 107.156V119.726Z" fill="#1755D2"/>
<path d="M76.9218 88.603L65.2324 81.8535L76.9218 75.1202L88.5949 81.8535L76.9218 88.603Z" fill="#F6F2ED"/>
<path d="M76.9218 101.189L65.2324 94.4396V81.8535L76.9218 88.603V101.189Z" fill="#CCC7BF"/>
<path d="M88.595 94.4396L76.9219 101.189V88.603L88.595 81.8535V94.4396Z" fill="#E9E4DB"/>
<path d="M90.0644 96.2004L78.375 89.4508L90.0644 82.7013L101.754 89.4508L90.0644 96.2004Z" fill="#F6F2ED"/>
<path d="M90.0644 108.77L78.375 102.037V89.4509L90.0644 96.2004V108.77Z" fill="#CCC7BF"/>
<path d="M101.754 102.037L90.0645 108.77V96.2004L101.754 89.4509V102.037Z" fill="#E9E4DB"/>
<path d="M103.203 103.781L91.5137 97.0318L103.203 90.2985L114.892 97.0318L103.203 103.781Z" fill="#F6F2ED"/>
<path d="M103.203 116.367L91.5137 109.618V97.0318L103.203 103.781V116.367Z" fill="#CCC7BF"/>
<path d="M114.893 109.618L103.203 116.367V103.781L114.893 97.0318V109.618Z" fill="#E9E4DB"/>
<path d="M50.5735 88.6356L38.9004 81.8861L50.5735 75.1365L62.2629 81.8861L50.5735 88.6356Z" fill="#BCB5AB"/>
<path d="M50.5735 101.205L38.9004 94.4722V81.8861L50.5735 88.6356V101.205Z" fill="#CCC7BF"/>
<path d="M62.2636 94.4722L50.5742 101.205V88.6356L62.2636 81.8861V94.4722Z" fill="#A29D96"/>
<path d="M35.7044 112.39L24.0312 105.656L35.7044 98.9067L47.3938 105.656L35.7044 112.39Z" fill="#2875F3"/>
<path d="M35.7043 124.976L24.0312 118.226V105.656L35.7043 112.39V124.976Z" fill="#0238A6"/>
<path d="M47.3945 118.226L35.7051 124.976V112.39L47.3945 105.656V118.226Z" fill="#1755D2"/>
<path d="M76.8691 103.814L65.1797 97.0645L76.8691 90.3149L88.5585 97.0645L76.8691 103.814Z" fill="#BCB5AB"/>
<path d="M76.8691 116.384L65.1797 109.651V97.0645L76.8691 103.814V116.384Z" fill="#CCC7BF"/>
<path d="M88.5585 109.651L76.8691 116.384V103.814L88.5585 97.0645V109.651Z" fill="#E9E4DB"/>
<path d="M90.0149 111.395L78.3418 104.645L90.0149 97.912L101.704 104.645L90.0149 111.395Z" fill="#F6F2ED"/>
<path d="M90.0149 123.981L78.3418 117.231V104.645L90.0149 111.395V123.981Z" fill="#CCC7BF"/>
<path d="M101.705 117.231L90.0156 123.981V111.395L101.705 104.645V117.231Z" fill="#E9E4DB"/>
<path d="M90.1445 51.4643L78.4551 44.7148L90.1445 37.9816L101.834 44.7148L90.1445 51.4643Z" fill="#F6F2ED"/>
<path d="M90.1445 64.0505L78.4551 57.3009V44.7148L90.1445 51.4644V64.0505Z" fill="#CCC7BF"/>
<path d="M101.834 57.3009L90.1445 64.0505V51.4644L101.834 44.7148V57.3009Z" fill="#E9E4DB"/>
<path d="M103.281 59.0616L91.5918 52.3121L103.281 45.5626L114.971 52.3121L103.281 59.0616Z" fill="#F6F2ED"/>
<path d="M103.281 71.6478L91.5918 64.8983V52.3122L103.281 59.0617V71.6478Z" fill="#CCC7BF"/>
<path d="M114.971 64.8983L103.281 71.6478V59.0617L114.971 52.3122V64.8983Z" fill="#E9E4DB"/>
<path d="M116.443 66.6427L104.754 59.9094L116.443 53.1599L128.116 59.9094L116.443 66.6427Z" fill="#F6F2ED"/>
<path d="M116.443 79.2288L104.754 72.4793V59.9095L116.443 66.6427V79.2288Z" fill="#CCC7BF"/>
<path d="M128.116 72.4793L116.443 79.2288V66.6427L128.116 59.9095V72.4793Z" fill="#E9E4DB"/>
<path d="M129.58 53.6653L117.891 46.9157L129.58 40.1662L141.269 46.9157L129.58 53.6653Z" fill="#2875F3"/>
<path d="M129.58 66.2351L117.891 59.4856V46.9158L129.58 53.6653V66.2351Z" fill="#0238A6"/>
<path d="M141.269 59.4856L129.58 66.2351V53.6653L141.269 46.9158V59.4856Z" fill="#1755D2"/>
<path d="M90.0911 66.6751L78.418 59.9256L90.0911 53.176L101.78 59.9256L90.0911 66.6751Z" fill="#F6F2ED"/>
<path d="M90.0911 79.2612L78.418 72.5117V59.9256L90.0911 66.6751V79.2612Z" fill="#CCC7BF"/>
<path d="M101.781 72.5117L90.0918 79.2612V66.6751L101.781 59.9256V72.5117Z" fill="#E9E4DB"/>
<path d="M103.252 74.2562L91.5625 67.5067L103.252 60.7734L114.925 67.5067L103.252 74.2562Z" fill="#F6F2ED"/>
<path d="M103.252 86.8423L91.5625 80.0928V67.5067L103.252 74.2562V86.8423Z" fill="#CCC7BF"/>
<path d="M114.925 80.0928L103.252 86.8423V74.2562L114.925 67.5067V80.0928Z" fill="#E9E4DB"/>
<path d="M116.393 81.8537L104.703 75.1041L116.393 68.3546L128.082 75.1041L116.393 81.8537Z" fill="#F6F2ED"/>
<path d="M116.393 94.4398L104.703 87.6903V75.1042L116.393 81.8537V94.4398Z" fill="#CCC7BF"/>
<path d="M128.082 87.6903L116.393 94.4398V81.8537L128.082 75.1042V87.6903Z" fill="#E9E4DB"/>
<path d="M50.9316 59.2735L39.2422 52.5402L50.9316 45.7907L62.6047 52.5402L50.9316 59.2735Z" fill="#2875F3"/>
<path d="M50.9316 71.8596L39.2422 65.1101V52.5403L50.9316 59.2735V71.8596Z" fill="#0238A6"/>
<path d="M62.6047 65.1101L50.9316 71.8596V59.2735L62.6047 52.5403V65.1101Z" fill="#1755D2"/>
<path d="M76.9218 74.2889L65.2324 67.5393L76.9218 60.7898L88.5949 67.5393L76.9218 74.2889Z" fill="#F6F2ED"/>
<path d="M76.9218 86.8587L65.2324 80.1254V67.5394L76.9218 74.2889V86.8587Z" fill="#CCC7BF"/>
<path d="M88.595 80.1254L76.9219 86.8587V74.2889L88.595 67.5394V80.1254Z" fill="#E9E4DB"/>
<path d="M103.203 89.467L91.5137 82.7174L103.203 75.9679L114.892 82.7174L103.203 89.467Z" fill="#F6F2ED"/>
<path d="M103.203 102.053L91.5137 95.3036V82.7175L103.203 89.4671V102.053Z" fill="#CCC7BF"/>
<path d="M114.893 95.3036L103.203 102.053V89.4671L114.893 82.7175V95.3036Z" fill="#E9E4DB"/>
<path d="M50.5735 74.3051L38.9004 67.5556L50.5735 60.8223L62.2629 67.5556L50.5735 74.3051Z" fill="#F6F2ED"/>
<path d="M50.5735 86.8912L38.9004 80.1417V67.5556L50.5735 74.3051V86.8912Z" fill="#CCC7BF"/>
<path d="M62.2636 80.1417L50.5742 86.8912V74.3051L62.2636 67.5556V80.1417Z" fill="#E9E4DB"/>
<path d="M63.7324 81.9024L52.043 75.1528L63.7324 68.4033L75.4218 75.1528L63.7324 81.9024Z" fill="#F6F2ED"/>
<path d="M63.7324 94.4722L52.043 87.739V75.1529L63.7324 81.9024V94.4722Z" fill="#CCC7BF"/>
<path d="M75.4218 87.739L63.7324 94.4722V81.9024L75.4218 75.1529V87.739Z" fill="#E9E4DB"/>
<path d="M76.8691 89.4832L65.1797 82.7337L76.8691 76.0005L88.5585 82.7337L76.8691 89.4832Z" fill="#F6F2ED"/>
<path d="M76.8691 102.069L65.1797 95.3198V82.7337L76.8691 89.4832V102.069Z" fill="#CCC7BF"/>
<path d="M88.5585 95.3198L76.8691 102.069V89.4832L88.5585 82.7337V95.3198Z" fill="#E9E4DB"/>
<path d="M90.0149 97.0807L78.3418 90.3312L90.0149 83.5817L101.704 90.3312L90.0149 97.0807Z" fill="#F6F2ED"/>
<path d="M90.0149 109.667L78.3418 102.917V90.3312L90.0149 97.0807V109.667Z" fill="#CCC7BF"/>
<path d="M101.705 102.917L90.0156 109.667V97.0807L101.705 90.3312V102.917Z" fill="#E9E4DB"/>
<path d="M129.582 47.3234C129.354 47.3234 129.158 47.1277 129.158 46.8995V8.42388C129.158 8.19564 129.354 8 129.582 8C129.81 8 130.006 8.19564 130.006 8.42388V46.8995C130.006 47.1277 129.81 47.3234 129.582 47.3234Z" fill="url(#paint1_linear_5997_11929)"/>
<path d="M173.423 129.051C173.423 129.051 173.276 129.035 173.211 129.002L152.734 117.183C152.539 117.068 152.473 116.808 152.587 116.612C152.702 116.416 152.962 116.351 153.158 116.465L173.635 128.285C173.83 128.399 173.912 128.66 173.782 128.856C173.7 128.986 173.57 129.068 173.423 129.068V129.051Z" fill="url(#paint2_linear_5997_11929)"/>
<path d="M4.22733 130.535C4.0806 130.535 3.93387 130.453 3.86866 130.323C3.75453 130.127 3.81975 129.867 4.01538 129.752L29.6603 114.949C29.856 114.835 30.1168 114.9 30.2309 115.096C30.3451 115.291 30.2799 115.552 30.0842 115.666L4.43927 130.47C4.43927 130.47 4.30884 130.519 4.22733 130.519V130.535Z" fill="url(#paint3_linear_5997_11929)"/>
<path style="mix-blend-mode:screen" d="M42.2584 108.216C46.22 115.079 43.8724 123.867 37.0087 127.828C30.1451 131.79 21.3576 129.443 17.396 122.579C13.4343 115.715 15.7819 106.928 22.6456 102.966C29.5092 99.0044 38.2967 101.352 42.2584 108.216Z" fill="url(#paint4_radial_5997_11929)"/>
<path style="mix-blend-mode:screen" d="M165.364 109.716C169.326 116.579 166.978 125.367 160.114 129.328C153.251 133.29 144.463 130.943 140.501 124.079C136.54 117.215 138.887 108.428 145.751 104.466C152.615 100.504 161.402 102.852 165.364 109.716Z" fill="url(#paint5_radial_5997_11929)"/>
<defs>
<linearGradient id="paint0_linear_5997_11929" x1="13.1765" y1="52.2958" x2="47.8208" y2="52.2958" gradientUnits="userSpaceOnUse">
<stop stop-color="white"/>
<stop offset="0.13" stop-color="#EAF2FF"/>
<stop offset="0.41" stop-color="#B3D3FF"/>
<stop offset="0.79" stop-color="#5DA1FF"/>
<stop offset="1" stop-color="#2D85FF"/>
</linearGradient>
<linearGradient id="paint1_linear_5997_11929" x1="129.582" y1="7.44594" x2="129.582" y2="47.3234" gradientUnits="userSpaceOnUse">
<stop stop-color="white" stop-opacity="0"/>
<stop offset="0.13" stop-color="#EAF2FF"/>
<stop offset="0.41" stop-color="#B3D3FF"/>
<stop offset="0.79" stop-color="#5DA1FF"/>
<stop offset="1" stop-color="#2D85FF"/>
</linearGradient>
<linearGradient id="paint2_linear_5997_11929" x1="157.853" y1="113.498" x2="168.499" y2="131.953" gradientUnits="userSpaceOnUse">
<stop stop-color="#2D85FF"/>
<stop offset="0.21" stop-color="#5DA1FF"/>
<stop offset="0.59" stop-color="#B3D3FF"/>
<stop offset="0.87" stop-color="#EAF2FF"/>
<stop offset="1" stop-color="white"/>
</linearGradient>
<linearGradient id="paint3_linear_5997_11929" x1="3.80344" y1="122.709" x2="30.2962" y2="122.709" gradientUnits="userSpaceOnUse">
<stop stop-color="white"/>
<stop offset="0.13" stop-color="#EAF2FF"/>
<stop offset="0.41" stop-color="#B3D3FF"/>
<stop offset="0.79" stop-color="#5DA1FF"/>
<stop offset="1" stop-color="#2D85FF"/>
</linearGradient>
<radialGradient id="paint4_radial_5997_11929" cx="0" cy="0" r="1" gradientUnits="userSpaceOnUse" gradientTransform="translate(29.819 115.389) scale(14.3631)">
<stop stop-color="#46D7FF"/>
<stop offset="0.08" stop-color="#2089A9"/>
<stop offset="0.16" stop-color="#044C63"/>
<stop offset="0.26" stop-color="#001826"/>
<stop offset="0.34"/>
<stop offset="1"/>
</radialGradient>
<radialGradient id="paint5_radial_5997_11929" cx="0" cy="0" r="1" gradientUnits="userSpaceOnUse" gradientTransform="translate(152.924 116.905) scale(14.3631)">
<stop stop-color="#46D7FF"/>
<stop offset="0.08" stop-color="#2089A9"/>
<stop offset="0.16" stop-color="#044C63"/>
<stop offset="0.26" stop-color="#001826"/>
<stop offset="0.34"/>
<stop offset="1"/>
</radialGradient>
</defs>
</svg>
