<svg width="24" height="24" viewBox="0 0 24 24" fill="none" xmlns="http://www.w3.org/2000/svg">
<g clip-path="url(#clip0_6431_22439)">
<path d="M17.25 23L15.6458 22.2402C15.0049 21.9349 14.4634 21.4547 14.0837 20.8549C13.7041 20.2551 13.5017 19.5601 13.5 18.8502V14H21V18.851C20.9983 19.5609 20.7959 20.2558 20.4163 20.8556C20.0366 21.4554 19.4951 21.9357 18.8542 22.241L17.25 23ZM15 15.5V18.851C15.0012 19.2767 15.1227 19.6935 15.3505 20.0531C15.5784 20.4127 15.9033 20.7006 16.2877 20.8835L17.25 21.3395L18.2123 20.8843C18.5968 20.7013 18.9218 20.4133 19.1497 20.0535C19.3775 19.6938 19.499 19.2769 19.5 18.851V15.5H15Z" fill="black"/>
<path d="M12 21.5H4.5V3.49998H10.5V7.99998C10.5012 8.39744 10.6596 8.77828 10.9407 9.05933C11.2217 9.34037 11.6025 9.49879 12 9.49998H16.5V11.75H18V7.99998C18.0026 7.90141 17.9839 7.80344 17.9451 7.71281C17.9062 7.62218 17.8482 7.54104 17.775 7.47498L12.525 2.22498C12.4593 2.15138 12.3782 2.09309 12.2875 2.05421C12.1968 2.01534 12.0986 1.99682 12 1.99998H4.5C4.10254 2.00117 3.7217 2.15958 3.44065 2.44063C3.1596 2.72168 3.00119 3.10252 3 3.49998V21.5C3.00119 21.8974 3.1596 22.2783 3.44065 22.5593C3.7217 22.8404 4.10254 22.9988 4.5 23H12V21.5ZM12 3.79998L16.2 7.99998H12V3.79998Z" fill="black"/>
</g>
<defs>
<clipPath id="clip0_6431_22439">
<rect width="24" height="24" fill="white"/>
</clipPath>
</defs>
</svg>
