<svg width="20" height="21" viewBox="0 0 20 21" fill="none" xmlns="http://www.w3.org/2000/svg">
<g clip-path="url(#clip0_5873_36354)">
<path d="M10 1.47656C5.03 1.47656 1 5.50656 1 10.4766C1 15.4466 5.03 19.4766 10 19.4766C14.97 19.4766 19 15.4466 19 10.4766C19 5.50656 14.97 1.47656 10 1.47656ZM14.7 8.60656L9.75 13.5566C9.59 13.7166 9.38 13.7966 9.17 13.7966C8.96 13.7966 8.74 13.7066 8.59 13.5566L5.85 10.8166C5.7 10.6566 5.62 10.4566 5.63 10.2366C5.63 10.0266 5.72 9.81656 5.87 9.66656C6.02 9.51656 6.23 9.42656 6.44 9.42656C6.65 9.42656 6.86 9.50656 7.02 9.64656L9.18 11.8066L13.55 7.43656C13.71 7.27656 13.92 7.19656 14.13 7.19656C14.34 7.19656 14.56 7.28656 14.71 7.43656C14.87 7.59656 14.95 7.80656 14.95 8.01656C14.95 8.22656 14.86 8.44656 14.71 8.59656L14.7 8.60656Z" fill="#0568CC"/>
</g>
<defs>
<clipPath id="clip0_5873_36354">
<rect width="18" height="18" fill="white" transform="translate(1 1.47656)"/>
</clipPath>
</defs>
</svg>
