<svg width="24" height="24" viewBox="0 0 24 24" fill="none" xmlns="http://www.w3.org/2000/svg">
<g clip-path="url(#clip0_6431_22809)">
<path d="M3 3.5V21.5H4.5V17.75H6.141C6.4545 18.617 7.281 19.25 8.25 19.25C9.219 19.25 10.0455 18.617 10.3597 17.75H21V16.25H10.359C10.0455 15.383 9.219 14.75 8.25 14.75C7.281 14.75 6.4545 15.383 6.14025 16.25H4.5V13.25H15.141C15.4545 14.117 16.281 14.75 17.25 14.75C18.219 14.75 19.0455 14.117 19.3597 13.25H21V11.75H19.359C19.0455 10.883 18.219 10.25 17.25 10.25C16.281 10.25 15.4545 10.883 15.1403 11.75H4.5V8.75H9.891C10.2045 9.617 11.031 10.25 12 10.25C12.969 10.25 13.7955 9.617 14.1097 8.75H21V7.25H14.109C13.7955 6.383 12.969 5.75 12 5.75C11.031 5.75 10.2045 6.383 9.89025 7.25H4.5V3.5H3ZM12 7.25C12.423 7.25 12.75 7.577 12.75 8C12.75 8.423 12.423 8.75 12 8.75C11.577 8.75 11.25 8.423 11.25 8C11.25 7.577 11.577 7.25 12 7.25ZM17.25 11.75C17.673 11.75 18 12.077 18 12.5C18 12.923 17.673 13.25 17.25 13.25C16.827 13.25 16.5 12.923 16.5 12.5C16.5 12.077 16.827 11.75 17.25 11.75ZM8.25 16.25C8.673 16.25 9 16.577 9 17C9 17.423 8.673 17.75 8.25 17.75C7.827 17.75 7.5 17.423 7.5 17C7.5 16.577 7.827 16.25 8.25 16.25Z" fill="black"/>
</g>
<defs>
<clipPath id="clip0_6431_22809">
<rect width="24" height="24" fill="white"/>
</clipPath>
</defs>
</svg>
