<svg width="28" height="29" viewBox="0 0 28 29" fill="none" xmlns="http://www.w3.org/2000/svg">
<path fill-rule="evenodd" clip-rule="evenodd" d="M14 27.4766C21.1797 27.4766 27 21.6563 27 14.4766C27 7.29686 21.1797 1.47656 14 1.47656C6.8203 1.47656 1 7.29686 1 14.4766C1 21.6563 6.8203 27.4766 14 27.4766ZM17.0899 18.8058L13.9965 15.7124L10.9037 18.8052C10.823 18.8888 10.7265 18.9555 10.6198 19.0014C10.513 19.0473 10.3982 19.0715 10.282 19.0726C10.1659 19.0737 10.0506 19.0516 9.94307 19.0076C9.83551 18.9637 9.73779 18.8988 9.65559 18.8166C9.5734 18.7345 9.50838 18.6369 9.46434 18.5294C9.42029 18.4218 9.3981 18.3066 9.39905 18.1905C9.4 18.0743 9.42409 17.9594 9.4699 17.8527C9.5157 17.7459 9.58231 17.6493 9.66585 17.5686L12.7598 14.4746L9.66526 11.3806C9.58173 11.2998 9.51512 11.2032 9.46931 11.0964C9.4235 10.9897 9.39942 10.8748 9.39847 10.7587C9.39751 10.6425 9.41971 10.5273 9.46375 10.4197C9.5078 10.3122 9.57282 10.2146 9.65501 10.1325C9.73721 10.0503 9.83493 9.98541 9.94249 9.94147C10.05 9.89752 10.1653 9.87544 10.2815 9.8765C10.3976 9.87757 10.5124 9.90176 10.6192 9.94766C10.7259 9.99357 10.8224 10.0603 10.9031 10.1439L13.9965 13.2373L17.0893 10.1439C17.1706 10.0626 17.267 9.99813 17.3732 9.95413C17.4794 9.91012 17.5931 9.88746 17.7081 9.88744C17.823 9.88741 17.9368 9.91002 18.0429 9.95397C18.1491 9.99792 18.2456 10.0624 18.3269 10.1436C18.4082 10.2248 18.4726 10.3213 18.5166 10.4274C18.5606 10.5336 18.5833 10.6474 18.5833 10.7623C18.5834 10.8772 18.5608 10.991 18.5168 11.0972C18.4729 11.2034 18.4084 11.2999 18.3272 11.3811L15.2332 14.4746L18.3278 17.568C18.4919 17.7321 18.5841 17.9547 18.5841 18.1869C18.5841 18.419 18.4919 18.6417 18.3278 18.8058C18.1636 18.9699 17.941 19.0622 17.7088 19.0622C17.4767 19.0622 17.2541 18.9699 17.0899 18.8058Z" fill="#AFACAD"/>
</svg>
