<svg width="24" height="25" viewBox="0 0 24 25" fill="none" xmlns="http://www.w3.org/2000/svg">
<path d="M9.17245 15.3529L14.8294 9.69588M7.05045 11.8169L5.63645 13.2309C5.265 13.6023 4.97036 14.0433 4.76933 14.5286C4.56831 15.0139 4.46484 15.5341 4.46484 16.0594C4.46484 16.5847 4.56831 17.1048 4.76933 17.5902C4.97036 18.0755 5.265 18.5164 5.63645 18.8879C6.00789 19.2593 6.44886 19.554 6.93417 19.755C7.41949 19.956 7.93965 20.0595 8.46495 20.0595C8.99025 20.0595 9.51041 19.956 9.99572 19.755C10.481 19.554 10.922 19.2593 11.2934 18.8879L12.7054 17.4739M11.2924 7.57388L12.7064 6.15988C13.0779 5.78844 13.5189 5.49379 14.0042 5.29277C14.4895 5.09175 15.0096 4.98828 15.5349 4.98828C16.0602 4.98828 16.5804 5.09175 17.0657 5.29277C17.551 5.49379 17.992 5.78844 18.3634 6.15988C18.7349 6.53133 19.0295 6.9723 19.2306 7.45761C19.4316 7.94293 19.5351 8.46308 19.5351 8.98838C19.5351 9.51369 19.4316 10.0338 19.2306 10.5192C19.0295 11.0045 18.7349 11.4454 18.3634 11.8169L16.9494 13.2309" stroke="#0568CC" stroke-width="2" stroke-linecap="round" stroke-linejoin="round"/>
</svg>
