<svg width="20" height="20" viewBox="0 0 20 20" fill="none" xmlns="http://www.w3.org/2000/svg">
<g opacity="0.55">
<path d="M4.6875 2.5H9.0625C9.31114 2.5 9.5496 2.59877 9.72541 2.77459C9.90123 2.9504 10 3.18886 10 3.4375C10 3.68614 9.90123 3.9246 9.72541 4.10041C9.5496 4.27623 9.31114 4.375 9.0625 4.375H4.6875C4.60462 4.375 4.52513 4.40792 4.46653 4.46653C4.40792 4.52513 4.375 4.60462 4.375 4.6875V15.3125C4.375 15.485 4.515 15.625 4.6875 15.625H15.3125C15.3954 15.625 15.4749 15.5921 15.5335 15.5335C15.5921 15.4749 15.625 15.3954 15.625 15.3125V10.9375C15.625 10.6889 15.7238 10.4504 15.8996 10.2746C16.0754 10.0988 16.3139 10 16.5625 10C16.8111 10 17.0496 10.0988 17.2254 10.2746C17.4012 10.4504 17.5 10.6889 17.5 10.9375V15.3125C17.5 15.8927 17.2695 16.4491 16.8593 16.8593C16.4491 17.2695 15.8927 17.5 15.3125 17.5H4.6875C4.10734 17.5 3.55094 17.2695 3.1407 16.8593C2.73047 16.4491 2.5 15.8927 2.5 15.3125V4.6875C2.5 3.48 3.48 2.5 4.6875 2.5ZM13.255 1.25H18.4375C18.5204 1.25 18.5999 1.28292 18.6585 1.34153C18.7171 1.40013 18.75 1.47962 18.75 1.5625V6.745C18.7501 6.80689 18.7318 6.86742 18.6975 6.91891C18.6632 6.9704 18.6143 7.01054 18.5572 7.03424C18.5 7.05794 18.4371 7.06413 18.3764 7.05202C18.3157 7.03992 18.26 7.01007 18.2162 6.96625L16.2875 5.0375L11.6 9.725C11.4223 9.8908 11.1872 9.98113 10.9442 9.97693C10.7012 9.97273 10.4693 9.87434 10.2975 9.7025C10.1257 9.53065 10.0273 9.29879 10.0231 9.0558C10.0189 8.81281 10.1092 8.57768 10.275 8.4L14.9625 3.7125L13.0338 1.78375C12.9899 1.74004 12.9601 1.68431 12.948 1.62362C12.9359 1.56293 12.9421 1.50001 12.9658 1.44284C12.9895 1.38567 13.0296 1.33682 13.0811 1.30249C13.1326 1.26816 13.1931 1.24989 13.255 1.25Z" fill="white"/>
</g>
</svg>
