<svg width="24" height="24" viewBox="0 0 24 24" fill="none" xmlns="http://www.w3.org/2000/svg">
<g clip-path="url(#clip0_6431_22424)">
<path d="M21.0039 11.9998V16.4998H3.00391V4.49976H8.25391V2.99976H3.00391C2.60608 2.99976 2.22455 3.15779 1.94325 3.4391C1.66194 3.7204 1.50391 4.10193 1.50391 4.49976V16.4998C1.50391 16.8976 1.66194 17.2791 1.94325 17.5604C2.22455 17.8417 2.60608 17.9998 3.00391 17.9998H9.00391V20.9998H6.00391V22.4998H18.0039V20.9998H15.0039V17.9998H21.0039C21.4017 17.9998 21.7833 17.8417 22.0646 17.5604C22.3459 17.2791 22.5039 16.8976 22.5039 16.4998V11.9998H21.0039ZM13.5039 20.9998H10.5039V17.9998H13.5039V20.9998Z" fill="black"/>
<path d="M13.5039 13.5H13.4964C13.3348 13.4983 13.1781 13.4444 13.0495 13.3464C12.921 13.2485 12.8276 13.1116 12.7832 12.9562L11.4384 8.24996H8.25391V6.74996H12.0039C12.1669 6.74987 12.3255 6.8029 12.4557 6.90101C12.5859 6.99912 12.6806 7.13698 12.7254 7.29371L13.5309 10.1137L15.7877 2.77871C15.8359 2.62625 15.9312 2.49299 16.0599 2.39801C16.1886 2.30303 16.344 2.25121 16.5039 2.24996C16.6619 2.24758 16.8165 2.29621 16.9447 2.38861C17.0729 2.48102 17.1679 2.6123 17.2157 2.76296L18.5439 6.74996H22.5039V8.24996H18.0039C17.8464 8.25 17.6929 8.20047 17.5652 8.10839C17.4374 8.01632 17.3419 7.88636 17.2922 7.73696L16.5324 5.45696L14.2209 12.9705C14.1737 13.1238 14.0786 13.258 13.9496 13.3533C13.8205 13.4486 13.6643 13.5 13.5039 13.5Z" fill="black"/>
</g>
<defs>
<clipPath id="clip0_6431_22424">
<rect width="24" height="24" fill="white"/>
</clipPath>
</defs>
</svg>
