<svg width="24" height="25" viewBox="0 0 24 25" fill="none" xmlns="http://www.w3.org/2000/svg">
<path fill-rule="evenodd" clip-rule="evenodd" d="M11 17.5234C11.7879 17.5234 12.5681 17.3682 13.2961 17.0667C14.0241 16.7652 14.6855 16.3232 15.2426 15.7661C15.7998 15.2089 16.2417 14.5475 16.5433 13.8195C16.8448 13.0916 17 12.3114 17 11.5234C17 10.7355 16.8448 9.95529 16.5433 9.22734C16.2417 8.49938 15.7998 7.83795 15.2426 7.2808C14.6855 6.72365 14.0241 6.28169 13.2961 5.98016C12.5681 5.67863 11.7879 5.52344 11 5.52344C9.4087 5.52344 7.88258 6.15558 6.75736 7.2808C5.63214 8.40602 5 9.93214 5 11.5234C5 13.1147 5.63214 14.6409 6.75736 15.7661C7.88258 16.8913 9.4087 17.5234 11 17.5234ZM11 19.5234C13.1217 19.5234 15.1566 18.6806 16.6569 17.1803C18.1571 15.68 19 13.6452 19 11.5234C19 9.40171 18.1571 7.36687 16.6569 5.86658C15.1566 4.36629 13.1217 3.52344 11 3.52344C8.87827 3.52344 6.84344 4.36629 5.34315 5.86658C3.84285 7.36687 3 9.40171 3 11.5234C3 13.6452 3.84285 15.68 5.34315 17.1803C6.84344 18.6806 8.87827 19.5234 11 19.5234Z" fill="black"/>
<path fill-rule="evenodd" clip-rule="evenodd" d="M15.3182 15.8137C15.5064 15.6269 15.7611 15.5225 16.0263 15.5234C16.2914 15.5244 16.5454 15.6306 16.7322 15.8187L20.7072 19.8187C20.8889 20.0078 20.9891 20.2607 20.9861 20.523C20.9831 20.7852 20.8772 21.0358 20.6912 21.2207C20.5053 21.4056 20.2541 21.5101 19.9919 21.5116C19.7296 21.5131 19.4773 21.4115 19.2892 21.2287L15.3142 17.2287C15.1273 17.0407 15.0227 16.7861 15.0234 16.5209C15.0242 16.2557 15.1302 16.0017 15.3182 15.8147V15.8137Z" fill="black"/>
</svg>
