<svg width="1442" height="529" viewBox="0 0 1442 529" fill="none" xmlns="http://www.w3.org/2000/svg">
<rect x="0.5" width="223" height="56" rx="8" fill="#CBCBCB" fill-opacity="0.4"/>
<path d="M110.141 21.3164V24.707H111.822V26.1426H110.141V30.3125H108.391V21.3164H110.141ZM106.367 22.3145V23.709H102.498V26.8535C104.747 26.8398 105.984 26.7715 107.379 26.4707L107.557 27.8652C105.998 28.1934 104.562 28.2617 101.801 28.2617H100.748V22.3145H106.367ZM110.592 32.1445V33.5391H102.074V29.3555H103.811V32.1445H110.592ZM123.156 21.3164V33.7578H121.516V21.3164H123.156ZM120.559 21.5898V33.2109H118.904V29.1094H117.141V27.7012H118.904V26.0059H117.373C116.792 28.0566 115.534 29.793 113.203 31.1738L112.178 29.9434C114.7 28.4531 115.808 26.6416 116.047 24.2012H112.902V22.793H117.783C117.783 23.415 117.742 24.0166 117.674 24.5977H118.904V21.5898H120.559Z" fill="#393939"/>
<rect x="0.5" y="66" width="223" height="463" rx="8" fill="#CBCBCB" fill-opacity="0.4"/>
<path d="M94.4316 297.68V299.074H89.5918V303.258H87.8691V299.074H83.084V297.68H94.4316ZM93.4199 291.473V292.84H89.7969C89.9678 294.057 91.3418 295.28 93.8984 295.588L93.2695 296.955C91.082 296.661 89.5166 295.725 88.7715 294.439C88.0059 295.725 86.4541 296.661 84.2871 296.955L83.6445 295.588C86.1602 295.28 87.5479 294.057 87.7461 292.84H84.1094V291.473H93.4199ZM106.572 300.373V301.809H95.1836V300.373H97.7266V297.324C96.7627 296.75 96.1816 295.868 96.1816 294.768C96.1816 292.758 98.1504 291.418 100.857 291.418C103.551 291.418 105.533 292.758 105.547 294.768C105.54 295.841 104.973 296.716 104.043 297.297V300.373H106.572ZM100.857 292.799C99.0801 292.799 97.9043 293.51 97.9043 294.768C97.9043 295.984 99.0801 296.736 100.857 296.736C102.621 296.736 103.811 295.984 103.824 294.768C103.811 293.51 102.621 292.799 100.857 292.799ZM99.4492 300.373H102.279V297.953C101.835 298.042 101.356 298.09 100.857 298.09C100.358 298.09 99.8867 298.049 99.4492 297.953V300.373ZM110.592 293.797V292.102H118.699V293.797H115.664V302H113.627V293.797H110.592ZM118.562 299.922C118.562 298.268 119.902 297.721 121.324 297.639C121.857 297.604 122.855 297.557 123.17 297.543V296.941C123.156 296.326 122.732 295.957 121.98 295.957C121.297 295.957 120.859 296.271 120.75 296.777H118.822C118.945 295.492 120.066 294.48 122.035 294.48C123.648 294.48 125.18 295.205 125.18 296.996V302H123.266V300.975H123.211C122.842 301.658 122.145 302.137 121.037 302.137C119.615 302.137 118.562 301.398 118.562 299.922ZM120.504 299.867C120.504 300.441 120.969 300.742 121.611 300.742C122.527 300.742 123.184 300.127 123.17 299.348V298.801C122.862 298.814 122.001 298.862 121.652 298.896C120.955 298.965 120.504 299.293 120.504 299.867ZM130.963 296.777C130.881 296.258 130.416 295.916 129.746 295.916C129.09 295.916 128.584 296.23 128.598 296.682C128.584 297.01 128.857 297.27 129.555 297.42L130.881 297.693C132.316 297.994 133.014 298.637 133.027 299.703C133.014 301.166 131.701 302.15 129.732 302.15C127.723 302.15 126.547 301.248 126.383 299.799H128.42C128.516 300.387 128.994 300.688 129.732 300.688C130.471 300.688 130.963 300.387 130.963 299.908C130.963 299.525 130.648 299.293 129.951 299.143L128.721 298.896C127.312 298.623 126.574 297.885 126.588 296.791C126.574 295.369 127.805 294.48 129.719 294.48C131.592 294.48 132.754 295.369 132.863 296.777H130.963ZM134.271 302V292.102H136.295V297.42H136.404L138.811 294.576H141.135L138.373 297.789L141.285 302H138.906L136.869 298.979L136.295 299.621V302H134.271Z" fill="#393939"/>
<path d="M243.5 8C243.5 3.58172 247.082 0 251.5 0H1433.5C1437.92 0 1441.5 3.58172 1441.5 8V48C1441.5 52.4183 1437.92 56 1433.5 56H251.5C247.082 56 243.5 52.4183 243.5 48V8Z" fill="url(#paint0_linear_478_27866)"/>
<path d="M390.641 21.0176V23.9033H392.443V25.4414H390.641V28.1514H388.766V21.0176H390.641ZM386.525 21.8232V23.3174H382.453V26.335C384.862 26.3203 386.188 26.2471 387.682 25.9102L387.873 27.4189C386.203 27.7705 384.665 27.8438 381.706 27.8438H380.578V21.8232H386.525ZM383.756 28.7959V30.0264H388.766V28.7959H390.641V34.1865H381.881V28.7959H383.756ZM383.756 32.6924H388.766V31.4912H383.756V32.6924ZM404.264 21.0322V30.8613H402.404V27.6094H399.943V28.752H393.6V21.8965H395.475V23.9473H398.097V21.8965H399.943V23.2588H402.404V21.0322H404.264ZM404.542 32.6191V34.1133H395.387V29.8799H397.277V32.6191H404.542ZM395.475 27.2871H398.097V25.3682H395.475V27.2871ZM399.943 26.1152H402.404V24.7676H399.943V26.1152ZM411.032 24.0352C411.032 26.54 412.042 28.9717 414.269 29.9385L413.126 31.4326C411.647 30.7075 410.658 29.3818 410.109 27.7412C409.523 29.4844 408.498 30.9126 406.974 31.667L405.802 30.1436C408.087 29.1182 409.127 26.54 409.142 24.0352V22.043H411.032V24.0352ZM417.243 21.0176V34.377H415.397V26.7158H412.775V25.207H415.397V21.0176H417.243ZM433.942 21.0176V34.3477H432.169V27.6533H430.88V33.7031H429.167V21.2373H430.88V26.1592H432.169V21.0176H433.942ZM427.76 22.5557V24.0645H424.669V29.748C425.958 29.7407 427.101 29.6748 428.39 29.4404L428.522 30.9639C426.896 31.2715 425.475 31.3154 423.717 31.3301H422.794V22.5557H427.76ZM447.536 27.2578V28.7227H435.377V27.2578H447.536ZM441.442 29.4697C444.328 29.4697 446.071 30.3486 446.085 31.916C446.071 33.4834 444.328 34.3623 441.442 34.3623C438.512 34.3623 436.769 33.4834 436.769 31.916C436.769 30.3486 438.512 29.4697 441.442 29.4697ZM441.442 30.876C439.596 30.876 438.659 31.2129 438.673 31.916C438.659 32.6045 439.596 32.9414 441.442 32.9414C443.244 32.9414 444.196 32.6045 444.21 31.916C444.196 31.2129 443.244 30.876 441.442 30.876ZM441.457 21.2959C444.386 21.3105 446.291 22.3066 446.305 23.918C446.291 25.5439 444.386 26.5254 441.457 26.5254C438.512 26.5254 436.593 25.5439 436.593 23.918C436.593 22.3066 438.512 21.3105 441.457 21.2959ZM441.457 22.7607C439.596 22.7607 438.527 23.127 438.542 23.918C438.527 24.6943 439.596 25.0752 441.457 25.0752C443.302 25.0752 444.372 24.6943 444.372 23.918C444.372 23.127 443.302 22.7607 441.457 22.7607ZM456.72 24.6504C456.706 26.6865 457.79 29.0303 459.987 30.041L458.947 31.5059C457.46 30.8247 456.398 29.4624 455.812 27.8584C455.211 29.6235 454.12 31.1177 452.575 31.8428L451.491 30.3633C453.717 29.3232 454.831 26.8477 454.845 24.6504V23.8301H452.018V22.3066H459.401V23.8301H456.72V24.6504ZM462.316 21.0176V26.1006H464.279V27.668H462.316V34.3477H460.441V21.0176H462.316ZM476.95 27.6094V29.0889H471.925V31.3887H470.08V29.0889H464.748V27.6094H476.95ZM475.382 21.6035V26.5107H466.271V21.6035H475.382ZM468.102 23.0537V25.0605H473.551V23.0537H468.102ZM475.602 32.6191V34.1133H466.183V30.2314H468.043V32.6191H475.602Z" fill="white"/>
<path d="M633 32.5L638 27.5L633 22.5" stroke="white" stroke-width="2" stroke-linecap="round" stroke-linejoin="round"/>
<path d="M807.183 24.0352C807.168 26.4229 808.193 28.8398 810.332 29.8652L809.204 31.3594C807.776 30.6562 806.816 29.3379 806.26 27.7266C805.681 29.4551 804.648 30.8687 803.14 31.6084L801.982 30.0996C804.238 29.0596 805.308 26.5107 805.308 24.0352V22.043H807.183V24.0352ZM812.793 21.0176V26.1592H814.756V27.7412H812.793V34.3477H810.918V21.0176H812.793ZM826.475 21.0322V30.7588H824.614V25.9834H822.432V24.4746H824.614V21.0322H826.475ZM826.797 32.6191V34.1133H817.627V29.9092H819.502V32.6191H826.797ZM820.278 23.6396C820.278 25.1777 821.216 26.833 823.34 27.5215L822.417 29.001C820.938 28.5249 819.927 27.5508 819.341 26.335C818.755 27.6826 817.693 28.752 816.118 29.2793L815.166 27.7559C817.363 27.0674 818.359 25.3242 818.374 23.625V23.4199H815.693V21.9258H822.93V23.4199H820.278V23.6396ZM835.645 21.8965V23.3906H834.546V26.9502C834.993 26.9136 835.432 26.8696 835.85 26.8184L835.923 28.1953C833.418 28.6201 830.503 28.6641 828.394 28.6641L828.203 27.1553L829.624 27.1406V23.3906H828.54V21.8965H835.645ZM839.438 21.0176V29.1621H837.578V27.1699H835.938V25.6758H837.578V24.6504H835.938V23.1855H837.578V21.0176H839.438ZM834.883 29.3672C837.754 29.3818 839.468 30.2754 839.482 31.8721C839.468 33.4248 837.754 34.3477 834.883 34.3477C832.026 34.3477 830.298 33.4248 830.298 31.8721C830.298 30.2754 832.026 29.3818 834.883 29.3672ZM834.883 30.8027C833.096 30.8027 832.158 31.1396 832.158 31.8721C832.158 32.5752 833.096 32.9268 834.883 32.9268C836.67 32.9268 837.622 32.5752 837.622 31.8721C837.622 31.1396 836.67 30.8027 834.883 30.8027ZM831.426 27.0967L832.759 27.0527V23.3906H831.426V27.0967ZM851.685 21.0176V26.1299H853.574V27.668H851.685V34.3184H849.81V21.0176H851.685ZM848.125 22.3799C848.11 26.3643 846.558 29.8213 842.075 32.0186L841.021 30.583C844.177 29.001 845.869 26.877 846.221 23.9033H841.782V22.3799H848.125ZM862.788 23.6543C862.788 25.251 863.77 26.877 865.967 27.5361L865.015 29.001C863.521 28.5322 862.466 27.5728 861.865 26.3643C861.257 27.6753 860.173 28.73 858.613 29.25L857.646 27.7852C859.858 27.0674 860.884 25.3389 860.884 23.6543V23.4639H858.145V21.9697H865.469V23.4639H862.788V23.6543ZM868.75 21.0322V30.6709H866.875V21.0322H868.75ZM869.102 32.6191V34.1133H859.814V29.792H861.704V32.6191H869.102ZM882.007 21.0176V29.3818H880.234V25.8369H879.165V28.9424H877.422V21.2666H879.165V24.3135H880.234V21.0176H882.007ZM877.026 22.3945V23.8447H870.479V22.3945H872.837V21.1348H874.697V22.3945H877.026ZM873.774 24.2842C875.474 24.2842 876.675 25.2217 876.689 26.6133C876.675 27.9902 875.474 28.9277 873.774 28.9277C872.104 28.9277 870.889 27.9902 870.889 26.6133C870.889 25.2217 872.104 24.2842 873.774 24.2842ZM873.774 25.6318C873.042 25.6318 872.559 25.998 872.559 26.6133C872.559 27.2285 873.042 27.6094 873.774 27.5947C874.507 27.6094 874.99 27.2285 875.005 26.6133C874.99 25.998 874.507 25.6318 873.774 25.6318ZM877.451 29.499C880.337 29.499 882.065 30.3779 882.08 31.9307C882.065 33.4688 880.337 34.3477 877.451 34.3477C874.58 34.3477 872.837 33.4688 872.837 31.9307C872.837 30.3779 874.58 29.499 877.451 29.499ZM877.451 30.9053C875.649 30.9053 874.697 31.2275 874.712 31.9307C874.697 32.6045 875.649 32.9414 877.451 32.9414C879.268 32.9414 880.19 32.6045 880.19 31.9307C880.19 31.2275 879.268 30.9053 877.451 30.9053Z" fill="white"/>
<path d="M1047 32.5L1052 27.5L1047 22.5" stroke="white" stroke-width="2" stroke-linecap="round" stroke-linejoin="round"/>
<path d="M1234.59 28.2246V30.2314C1235.68 30.1655 1236.78 30.063 1237.82 29.9092L1237.97 31.2715C1235.01 31.8428 1231.85 31.8721 1229.52 31.8721L1229.3 30.3633C1230.3 30.356 1231.48 30.3486 1232.73 30.3047V28.2246H1234.59ZM1237.34 22.585V24.0938H1234.62C1234.74 25.3828 1235.74 26.5913 1237.75 27.082L1236.9 28.5322C1235.34 28.1367 1234.26 27.2725 1233.66 26.1592C1233.07 27.3237 1232.01 28.2319 1230.44 28.6348L1229.56 27.2285C1231.58 26.6938 1232.55 25.4414 1232.68 24.0938H1229.99V22.585H1232.73V21.1348H1234.59V22.585H1237.34ZM1240.45 21.0176V34.377H1238.58V21.0176H1240.45ZM1249.19 25.793V27.3896H1254.36V28.8984H1242.2V27.3896H1247.34V25.793H1249.19ZM1248.27 29.6309C1251.17 29.6309 1252.9 30.4658 1252.91 31.9893C1252.9 33.5127 1251.17 34.3477 1248.27 34.3477C1245.34 34.3477 1243.59 33.5127 1243.59 31.9893C1243.59 30.4658 1245.34 29.6309 1248.27 29.6309ZM1248.27 31.0518C1246.41 31.0518 1245.48 31.3594 1245.5 31.9893C1245.48 32.6484 1246.41 32.9561 1248.27 32.9561C1250.08 32.9561 1251.02 32.6484 1251.04 31.9893C1251.02 31.3594 1250.08 31.0518 1248.27 31.0518ZM1253.26 21.5889V23.0537H1249.64C1249.97 23.9692 1251.34 24.8628 1253.83 25.0898L1253.17 26.5547C1250.66 26.3057 1248.98 25.3755 1248.27 24.0791C1247.56 25.3682 1245.89 26.3057 1243.39 26.5547L1242.73 25.0898C1245.21 24.8628 1246.58 23.9839 1246.92 23.0537H1243.32V21.5889H1253.26ZM1270.15 21.0176V34.3477H1268.38V21.0176H1270.15ZM1267.43 21.2373V33.7324H1265.67V27.0967H1263.91V25.5879H1265.67V21.2373H1267.43ZM1262.84 24.5918C1262.84 26.8037 1263.53 29.0449 1265.48 30.1582L1264.38 31.5352C1263.19 30.832 1262.41 29.6382 1261.96 28.21C1261.5 29.7627 1260.7 31.0811 1259.47 31.8281L1258.35 30.4512C1260.31 29.25 1261.04 26.8477 1261.04 24.5918V23.874H1258.86V22.3799H1264.86V23.874H1262.84V24.5918ZM1283.72 26.7012V28.0635H1278.59V28.8984H1282.27V32.1504H1274.84V32.8828H1282.62V34.2598H1273.01V30.8906H1280.42V30.2314H1272.99V28.8984H1276.73V28.0635H1271.62V26.7012H1283.72ZM1278.58 21.0029V22.0576H1282.57V23.4346H1278.81C1279.18 24.2109 1280.54 24.8481 1283.23 24.958L1282.69 26.335C1280.22 26.2178 1278.5 25.5879 1277.65 24.5771C1276.81 25.5879 1275.09 26.2178 1272.6 26.335L1272.09 24.958C1274.76 24.8481 1276.11 24.2109 1276.5 23.4346H1272.76V22.0576H1276.73V21.0029H1278.58Z" fill="white"/>
<rect x="243.5" y="66" width="390" height="463" rx="8" fill="#F1F4F9"/>
<g filter="url(#filter0_d_478_27866)">
<rect x="273.5" y="96" width="330" height="86" rx="8" fill="white" shape-rendering="crispEdges"/>
<path opacity="0.9" d="M344.938 132.859V133.797C344.938 134.727 344.938 135.883 344.656 137.359H346.516V138.734H333.609V137.359H342.906C343.156 136.078 343.195 135.07 343.203 134.234H335.203V132.859H344.938ZM344.922 139.859V143.688H336.844V144.891H345.281V146.25H335.109V142.359H343.188V141.219H335.094V139.859H344.922ZM360.344 143.312V144.75H347.438V143.312H353V141.016H348.969V136.391H357.094V134.641H348.938V133.234H358.812V137.766H350.703V139.594H359.141V141.016H354.719V143.312H360.344ZM373.094 132.266V139.531H371.359V136.641H368.516V139.078H361.906V132.891H363.641V134.641H366.797V132.891H368.516V135.219H371.359V132.266H373.094ZM373.094 140.109V143.75H365.531V144.844H373.547V146.219H363.797V142.484H371.359V141.484H363.781V140.109H373.094ZM363.641 137.703H366.797V136H363.641V137.703ZM383.953 134.719C383.953 136.453 385.078 138.172 387.297 138.906L386.422 140.25C384.844 139.727 383.719 138.664 383.109 137.344C382.477 138.789 381.305 139.938 379.656 140.5L378.734 139.156C381.016 138.406 382.203 136.578 382.203 134.719V134.547H379.219V133.156H386.891V134.547H383.953V134.719ZM390.031 132.266V135.797H392V137.25H390.031V140.781H388.297V132.266H390.031ZM390.031 141.438V146.391H388.297V142.828H380.625V141.438H390.031ZM397.891 134.297C397.875 136.219 399 137.969 401.219 138.672L400.281 140.031C398.742 139.492 397.664 138.469 397.062 137.125C396.438 138.664 395.258 139.875 393.547 140.469L392.625 139.062C394.969 138.297 396.141 136.406 396.141 134.375V133.031H397.891V134.297ZM404.547 132.266V140.578H402.812V136.422H400V135H402.812V132.266H404.547ZM399.766 140.953C402.766 140.953 404.594 141.953 404.594 143.672C404.594 145.391 402.766 146.375 399.766 146.375C396.781 146.375 394.953 145.391 394.969 143.672C394.953 141.953 396.781 140.953 399.766 140.953ZM399.766 142.297C397.797 142.297 396.688 142.781 396.688 143.672C396.688 144.531 397.797 145.016 399.766 145.016C401.734 145.016 402.859 144.531 402.859 143.672C402.859 142.781 401.734 142.297 399.766 142.297ZM411.641 133.156L408 146.703H406.25L409.906 133.156H411.641ZM420.172 133.25V134.656H418.922V138.656C419.438 138.625 419.945 138.578 420.438 138.516V137.25H422.375V136.031H420.438V134.641H422.375V132.266H424.109V140.922H422.375V138.641H420.484L420.547 139.797C417.859 140.234 414.734 140.297 412.484 140.297L412.297 138.859L413.891 138.844V134.656H412.656V133.25H420.172ZM419.328 141.172C422.344 141.172 424.156 142.109 424.156 143.781C424.156 145.406 422.344 146.375 419.328 146.375C416.328 146.375 414.516 145.406 414.531 143.781C414.516 142.109 416.328 141.172 419.328 141.172ZM419.328 142.5C417.359 142.5 416.25 142.938 416.25 143.781C416.25 144.594 417.359 145.031 419.328 145.031C421.312 145.031 422.422 144.594 422.422 143.781C422.422 142.938 421.312 142.5 419.328 142.5ZM415.578 138.828C416.125 138.812 416.688 138.789 417.25 138.766V134.656H415.578V138.828ZM437.172 132.266V137.781H439.266V139.234H437.172V146.359H435.438V132.266H437.172ZM433.438 133.734C433.438 137.891 431.719 141.531 427.016 143.844L426.031 142.5C429.469 140.789 431.328 138.383 431.688 135.172H426.797V133.734H433.438ZM454.797 132.266V137.781H456.891V139.234H454.797V146.359H453.062V132.266H454.797ZM451.062 133.734C451.062 137.891 449.344 141.531 444.641 143.844L443.656 142.5C447.094 140.789 448.953 138.383 449.312 135.172H444.422V133.734H451.062ZM469.312 132.266V146.406H467.562V132.266H469.312ZM461.703 133.297C463.828 133.297 465.375 135.234 465.391 138.281C465.375 141.359 463.828 143.281 461.703 143.281C459.562 143.281 458.016 141.359 458.016 138.281C458.016 135.234 459.562 133.297 461.703 133.297ZM461.703 134.859C460.5 134.859 459.688 136.125 459.688 138.281C459.688 140.453 460.5 141.719 461.703 141.719C462.891 141.719 463.703 140.453 463.703 138.281C463.703 136.125 462.891 134.859 461.703 134.859ZM482.859 138.891V140.281H472.953V133.5H482.75V134.906H474.672V138.891H482.859ZM484.297 143.156V144.594H471.391V143.156H484.297ZM496.281 132.266V137.688H498.453V139.141H496.281V146.406H494.562V132.266H496.281ZM492.281 133.5V138.828H487.531V141.641C489.766 141.625 491.508 141.531 493.484 141.188L493.641 142.594C491.469 142.984 489.531 143.078 486.969 143.078H485.812V137.438H490.547V134.906H485.781V133.5H492.281ZM510.812 132.281V142.484H509.062V132.281H510.812ZM511.203 144.703V146.109H501.469V141.453H503.219V144.703H511.203ZM503.109 133.203C505.25 133.203 506.906 134.688 506.906 136.734C506.906 138.828 505.25 140.281 503.109 140.281C500.953 140.281 499.297 138.828 499.297 136.734C499.297 134.688 500.953 133.203 503.109 133.203ZM503.109 134.719C501.906 134.719 500.984 135.516 501 136.734C500.984 137.984 501.906 138.766 503.109 138.766C504.281 138.766 505.203 137.984 505.203 136.734C505.203 135.516 504.281 134.719 503.109 134.719ZM529.562 139.578V140.969H524.109V143.406H522.391V140.969H516.656V139.578H529.562ZM528.141 144.703V146.109H518.219V142.219H519.938V144.703H528.141ZM520.062 132.719V134.312H526.156V132.719H527.875V138.469H518.344V132.719H520.062ZM520.062 137.094H526.156V135.609H520.062V137.094ZM535.625 134.5C535.625 136.312 536.766 138.047 538.938 138.75L538 140.141C536.469 139.602 535.375 138.531 534.781 137.172C534.148 138.656 533 139.82 531.375 140.406L530.438 139.016C532.734 138.25 533.875 136.406 533.875 134.391V133H535.625V134.5ZM542.328 141.344V146.391H540.594V142.719H532.703V141.344H542.328ZM542.328 132.266V140.656H540.594V136.438H537.781V135.016H540.594V132.266H542.328Z" fill="#393939"/>
</g>
<path d="M438.146 201.854C438.342 202.049 438.658 202.049 438.854 201.854L442.036 198.672C442.231 198.476 442.231 198.16 442.036 197.964C441.84 197.769 441.524 197.769 441.328 197.964L438.5 200.793L435.672 197.964C435.476 197.769 435.16 197.769 434.964 197.964C434.769 198.16 434.769 198.476 434.964 198.672L438.146 201.854ZM438 182V201.5H439V182H438Z" fill="#99A7BF"/>
<g filter="url(#filter1_d_478_27866)">
<rect x="273.5" y="201.5" width="330" height="86" rx="8" fill="white" shape-rendering="crispEdges"/>
<path opacity="0.9" d="M333.656 239.234V240.234C333.656 241.5 333.656 243.266 333.266 245.703L331.547 245.562C331.883 243.422 331.922 241.844 331.938 240.625H326.391V239.234H333.656ZM330.094 243.266V247.438C331.531 247.383 333.008 247.281 334.359 247.109L334.453 248.406C331.531 248.875 328.297 248.938 325.812 248.922L325.641 247.531C326.477 247.523 327.406 247.516 328.375 247.484V243.266H330.094ZM336.844 237.766V243.516H338.891V244.984H336.844V251.891H335.094V237.766H336.844ZM351.422 237.781V248.188H349.688V243.484H346V242.109H349.688V240.828H346V239.453H349.688V237.781H351.422ZM351.781 250.203V251.609H342.141V247.266H343.891V250.203H351.781ZM342.125 238.719V244.828C343.922 244.805 345.617 244.695 347.516 244.359L347.688 245.766C345.516 246.172 343.609 246.25 341.516 246.266H340.406V238.719H342.125ZM364.891 244.188V245.562H360.703V248.797H366.328V250.219H353.422V248.797H358.984V245.562H354.984V238.812H364.781V240.203H356.719V244.188H364.891ZM382.188 237.766V240.906H384.156V242.344H382.188V245.312H380.453V237.766H382.188ZM377.922 238.641V240.047H373.359V243.516C376.016 243.508 377.492 243.43 379.172 243.062L379.359 244.469C377.516 244.859 375.859 244.938 372.781 244.938H371.641V238.641H377.922ZM374.766 246.016V247.469H380.453V246.016H382.188V251.688H373.031V246.016H374.766ZM374.766 250.281H380.453V248.844H374.766V250.281ZM396.703 237.781V248.203H394.969V244.656H392.125V245.906H385.516V238.703H387.25V240.984H390.406V238.703H392.125V240.219H394.969V237.781H396.703ZM397.016 250.203V251.609H387.391V247.172H389.156V250.203H397.016ZM387.25 244.531H390.406V242.328H387.25V244.531ZM392.125 243.25H394.969V241.625H392.125V243.25ZM403.922 241.156C403.922 243.781 405.172 246.359 407.422 247.344L406.375 248.734C404.773 247.953 403.648 246.453 403.047 244.609C402.43 246.555 401.281 248.172 399.656 249L398.562 247.594C400.859 246.516 402.141 243.797 402.156 241.156V238.906H403.922V241.156ZM410.547 237.766V251.906H408.828V243.734H405.859V242.328H408.828V237.766H410.547ZM429.219 245.078V246.469H423.766V248.906H422.047V246.469H416.312V245.078H429.219ZM427.797 250.203V251.609H417.875V247.719H419.594V250.203H427.797ZM419.719 238.219V239.812H425.812V238.219H427.531V243.969H418V238.219H419.719ZM419.719 242.594H425.812V241.109H419.719V242.594ZM435.281 240C435.281 241.812 436.422 243.547 438.594 244.25L437.656 245.641C436.125 245.102 435.031 244.031 434.438 242.672C433.805 244.156 432.656 245.32 431.031 245.906L430.094 244.516C432.391 243.75 433.531 241.906 433.531 239.891V238.5H435.281V240ZM441.984 246.844V251.891H440.25V248.219H432.359V246.844H441.984ZM441.984 237.766V246.156H440.25V241.938H437.438V240.516H440.25V237.766H441.984ZM455.312 238.641V244.516H448.5V238.641H455.312ZM450.219 240.016V243.156H453.594V240.016H450.219ZM459.516 237.766V245.812H457.797V237.766H459.516ZM459.812 246.641V247.953H455.781C455.945 249.047 457.641 250.25 460.344 250.516L459.75 251.844C457.461 251.609 455.727 250.703 454.875 249.531C453.992 250.719 452.242 251.594 449.938 251.844L449.344 250.516C452.047 250.281 453.781 249.078 453.938 247.953H449.922V246.641H453.984V245.406H455.734V246.641H459.812ZM476.547 237.766V240.984H478.516V242.406H476.547V245.703H474.812V237.766H476.547ZM472.625 238.625C472.609 242.297 470.203 244.844 465.984 245.969L465.297 244.578C468.57 243.734 470.43 242.07 470.734 240.031H465.969V238.625H472.625ZM476.547 246.266V251.703H467.406V246.266H476.547ZM469.141 247.688V250.328H474.828V247.688H469.141ZM491.062 237.766V245.969H489.328V242.547H486.891V241.125H489.328V237.766H491.062ZM491.062 246.578V251.719H481.672V246.578H491.062ZM483.406 247.953V250.312H489.359V247.953H483.406ZM484.422 240.094C484.422 241.797 485.562 243.531 487.75 244.281L486.875 245.656C485.297 245.117 484.18 244.047 483.562 242.719C482.938 244.188 481.758 245.367 480.094 245.922L479.203 244.562C481.453 243.812 482.656 241.953 482.656 240.078V239.969H479.719V238.562H487.344V239.969H484.422V240.094ZM504.906 237.781V248.469H503.156V247.234H500.391V246.016H503.156V237.781H504.906ZM505.234 250.203V251.609H494.875V247.438H496.609V250.203H505.234ZM493 244.125C495.609 244.109 499.109 244.078 502.109 243.703L502.203 244.953C501.039 245.148 499.836 245.281 498.641 245.359V248.078H496.906V245.453C495.586 245.508 494.328 245.516 493.219 245.516L493 244.125ZM497.609 238.297C499.672 238.297 501.109 239.312 501.125 240.797C501.109 242.312 499.672 243.281 497.609 243.281C495.516 243.281 494.078 242.312 494.078 240.797C494.078 239.312 495.516 238.297 497.609 238.297ZM497.609 239.578C496.484 239.578 495.719 240.031 495.719 240.797C495.719 241.562 496.484 242.016 497.609 242.016C498.688 242.016 499.453 241.562 499.469 240.797C499.453 240.031 498.688 239.578 497.609 239.578ZM518.656 237.781V247.984H516.906V237.781H518.656ZM519.047 250.203V251.609H509.312V246.953H511.062V250.203H519.047ZM510.953 238.703C513.094 238.703 514.75 240.188 514.75 242.234C514.75 244.328 513.094 245.781 510.953 245.781C508.797 245.781 507.141 244.328 507.141 242.234C507.141 240.188 508.797 238.703 510.953 238.703ZM510.953 240.219C509.75 240.219 508.828 241.016 508.844 242.234C508.828 243.484 509.75 244.266 510.953 244.266C512.125 244.266 513.047 243.484 513.047 242.234C513.047 241.016 512.125 240.219 510.953 240.219ZM535.984 244.188V245.562H531.797V248.797H537.422V250.219H524.516V248.797H530.078V245.562H526.078V238.812H535.875V240.203H527.812V244.188H535.984ZM551.188 243.875V245.156H545.625V246.188H549.609V249.5H541.578V250.469H550V251.766H539.875V248.312H547.906V247.438H539.859V246.188H543.906V245.156H538.375V243.875H551.188ZM545.625 237.734V238.922H549.953V240.219H545.812C546.148 241.219 547.789 241.969 550.609 242.109L550.094 243.406C547.562 243.25 545.656 242.562 544.766 241.422C543.875 242.562 541.977 243.25 539.422 243.406L538.938 242.109C541.727 241.969 543.367 241.219 543.734 240.219H539.609V238.922H543.906V237.734H545.625Z" fill="#393939"/>
</g>
<path d="M438.146 307.354C438.342 307.549 438.658 307.549 438.854 307.354L442.036 304.172C442.231 303.976 442.231 303.66 442.036 303.464C441.84 303.269 441.524 303.269 441.328 303.464L438.5 306.293L435.672 303.464C435.476 303.269 435.16 303.269 434.964 303.464C434.769 303.66 434.769 303.976 434.964 304.172L438.146 307.354ZM438 287.5V307H439V287.5H438Z" fill="#99A7BF"/>
<g filter="url(#filter2_d_478_27866)">
<rect x="273.5" y="307" width="330" height="86" rx="8" fill="white" shape-rendering="crispEdges"/>
<path opacity="0.9" d="M351.125 344.562V345.922C351.109 347.672 351.109 349.641 350.562 352.594L348.812 352.406C349.359 349.656 349.359 347.648 349.375 345.953H340.938V344.562H351.125ZM352.469 354.141V355.562H339.594V354.141H344.344V349.234H346.062V354.141H352.469ZM365.5 343.281V351.562H363.844V348.047H362.359V351.5H360.719V343.547H362.359V346.625H363.844V343.281H365.5ZM365.5 352.141V357.391H363.766V353.547H355.766V352.141H365.5ZM359.578 344.266C359.594 347.766 357.812 350.203 354.172 351.688L353.344 350.391C356.094 349.344 357.531 347.742 357.812 345.672H353.984V344.266H359.578ZM372.297 346.656C372.281 349.172 373.547 351.734 375.734 352.781L374.672 354.172C373.141 353.398 372.039 351.906 371.438 350.109C370.82 352.031 369.664 353.625 368.047 354.438L366.984 353.047C369.25 351.969 370.547 349.266 370.562 346.656V344.406H372.297V346.656ZM378.312 343.266V348.797H380.484V350.281H378.312V357.391H376.578V343.266H378.312ZM397 343.266V357.391H395.328V350.25H393.766V356.672H392.141V343.531H393.766V348.828H395.328V343.266H397ZM387.234 344.891V352.344C388.453 352.32 389.789 352.219 391.266 351.922L391.438 353.438C389.531 353.781 387.922 353.875 386.422 353.875H385.484V344.891H387.234ZM411.594 351.484V352.859H405.969V357.391H404.25V352.859H398.688V351.484H411.594ZM401.969 343.828V345.562H408.281V343.828H410.031V350.016H400.25V343.828H401.969ZM401.969 348.609H408.281V346.938H401.969V348.609ZM421.391 347.281C421.391 349.469 422.688 351.953 424.922 352.984L423.953 354.359C422.359 353.609 421.18 352.094 420.547 350.328C419.906 352.266 418.672 353.922 417.047 354.703L416.031 353.344C418.281 352.281 419.641 349.625 419.656 347.281V346.094H416.578V344.656H424.344V346.094H421.391V347.281ZM427.391 343.266V348.766H429.562V350.219H427.391V357.391H425.656V343.266H427.391ZM443.062 354.312V355.75H430.156V354.312H433.578V351.984H431.688V347.375H439.812V345.641H431.656V344.234H441.531V348.766H433.422V350.578H441.859V351.984H439.797V354.312H443.062ZM435.266 354.312H438.094V351.984H435.266V354.312ZM456.266 344.75V346.109H453.344C453.375 347.328 454.492 348.414 456.578 348.828L455.891 350.172C454.273 349.836 453.125 349.078 452.5 348.062C451.883 349.172 450.727 350.008 449.062 350.359L448.328 349.016C450.445 348.602 451.57 347.406 451.594 346.109H448.688V344.75H451.609V343.297H453.344V344.75H456.266ZM459.594 343.281V357.375H457.875V343.281H459.594ZM447.797 351.094C450.422 351.094 453.938 351.078 456.953 350.703L457.078 351.953C455.859 352.164 454.594 352.297 453.359 352.375V356.953H451.609V352.469C450.32 352.523 449.094 352.531 448.016 352.531L447.797 351.094ZM472.75 343.266V346.75H474.719V348.188H472.75V351.516H471.016V343.266H472.75ZM465.344 352.078V353.297H471.016V352.078H472.75V357.219H463.625V352.078H465.344ZM465.344 355.844H471.016V354.641H465.344V355.844ZM470 344.578V345.969H461.625V344.578H464.953V343.156H466.688V344.578H470ZM465.812 346.453C467.859 346.453 469.25 347.438 469.266 348.938C469.25 350.438 467.859 351.422 465.812 351.422C463.75 351.422 462.344 350.438 462.344 348.938C462.344 347.438 463.75 346.453 465.812 346.453ZM465.812 347.734C464.734 347.734 464.031 348.188 464.031 348.938C464.031 349.703 464.734 350.141 465.812 350.141C466.891 350.141 467.609 349.703 467.609 348.938C467.609 348.188 466.891 347.734 465.812 347.734ZM486.766 344.141V350.016H479.953V344.141H486.766ZM481.672 345.516V348.656H485.047V345.516H481.672ZM490.969 343.266V351.312H489.25V343.266H490.969ZM491.266 352.141V353.453H487.234C487.398 354.547 489.094 355.75 491.797 356.016L491.203 357.344C488.914 357.109 487.18 356.203 486.328 355.031C485.445 356.219 483.695 357.094 481.391 357.344L480.797 356.016C483.5 355.781 485.234 354.578 485.391 353.453H481.375V352.141H485.438V350.906H487.188V352.141H491.266ZM508.625 343.281V353.484H506.875V343.281H508.625ZM509.016 355.703V357.109H499.281V352.453H501.031V355.703H509.016ZM500.922 344.203C503.062 344.203 504.719 345.688 504.719 347.734C504.719 349.828 503.062 351.281 500.922 351.281C498.766 351.281 497.109 349.828 497.109 347.734C497.109 345.688 498.766 344.203 500.922 344.203ZM500.922 345.719C499.719 345.719 498.797 346.516 498.812 347.734C498.797 348.984 499.719 349.766 500.922 349.766C502.094 349.766 503.016 348.984 503.016 347.734C503.016 346.516 502.094 345.719 500.922 345.719ZM522.531 343.266V357.406H520.812V349.781H518.156V348.375H520.812V343.266H522.531ZM517.938 344.484V345.906H513.078V348.438H517.375V349.812H513.078V352.719C515.227 352.711 516.836 352.641 518.656 352.344L518.828 353.75C516.766 354.062 514.969 354.141 512.438 354.156H511.328V344.484H517.938ZM537.406 351.344V352.75H534.375V357.391H532.641V352.75H529.297V357.391H527.516V352.75H524.5V351.344H537.406ZM527.781 343.812V345.5H534.094V343.812H535.844V349.906H526.062V343.812H527.781ZM527.781 348.516H534.094V346.859H527.781V348.516Z" fill="#393939"/>
</g>
<path d="M438.146 412.854C438.342 413.049 438.658 413.049 438.854 412.854L442.036 409.672C442.231 409.476 442.231 409.16 442.036 408.964C441.84 408.769 441.524 408.769 441.328 408.964L438.5 411.793L435.672 408.964C435.476 408.769 435.16 408.769 434.964 408.964C434.769 409.16 434.769 409.476 434.964 409.672L438.146 412.854ZM438 393V412.5H439V393H438Z" fill="#99A7BF"/>
<g filter="url(#filter3_d_478_27866)">
<rect x="273.5" y="412.5" width="330" height="86" rx="8" fill="white" shape-rendering="crispEdges"/>
<path opacity="0.9" d="M361.297 455.828V457.219H355.844V459.812H354.125V457.219H348.391V455.828H361.297ZM359.641 449.406V454.516H350.031V449.406H359.641ZM351.719 450.766V453.156H357.922V450.766H351.719ZM359.875 461.203V462.609H349.953V458.516H351.688V461.203H359.875ZM373.375 448.766V452.484H375.344V453.938H373.375V457.781H371.641V448.766H373.375ZM368.812 457.906C371.703 457.906 373.531 458.828 373.531 460.391C373.531 461.938 371.703 462.875 368.812 462.875C365.875 462.875 364.078 461.938 364.094 460.391C364.078 458.828 365.875 457.906 368.812 457.906ZM368.812 459.234C366.875 459.234 365.797 459.609 365.812 460.391C365.797 461.141 366.875 461.562 368.812 461.562C370.719 461.562 371.797 461.141 371.797 460.391C371.797 459.609 370.719 459.234 368.812 459.234ZM370.625 450.203V451.562H362.25V450.203H365.578V448.672H367.312V450.203H370.625ZM366.438 452.125C368.484 452.125 369.875 453.141 369.891 454.656C369.875 456.172 368.484 457.172 366.438 457.172C364.375 457.172 362.969 456.172 362.969 454.656C362.969 453.141 364.375 452.125 366.438 452.125ZM366.438 453.406C365.359 453.406 364.656 453.875 364.656 454.656C364.656 455.422 365.359 455.859 366.438 455.859C367.516 455.859 368.234 455.422 368.234 454.656C368.234 453.875 367.516 453.406 366.438 453.406ZM387.891 448.766V456.062H386.156V454.531H383.312V455.609H376.703V449.391H378.438V451.172H381.594V449.391H383.312V450.641H386.156V448.766H387.891ZM387.891 456.641V460.266H380.328V461.344H388.344V462.719H378.594V458.984H386.156V458H378.578V456.641H387.891ZM378.438 454.234H381.594V452.5H378.438V454.234ZM383.312 453.203H386.156V451.953H383.312V453.203ZM398.75 451.219C398.75 452.953 399.875 454.672 402.094 455.406L401.219 456.75C399.641 456.227 398.516 455.164 397.906 453.844C397.273 455.289 396.102 456.438 394.453 457L393.531 455.656C395.812 454.906 397 453.078 397 451.219V451.047H394.016V449.656H401.688V451.047H398.75V451.219ZM404.828 448.766V452.297H406.797V453.75H404.828V457.281H403.094V448.766H404.828ZM404.828 457.938V462.891H403.094V459.328H395.422V457.938H404.828ZM412.688 450.797C412.672 452.719 413.797 454.469 416.016 455.172L415.078 456.531C413.539 455.992 412.461 454.969 411.859 453.625C411.234 455.164 410.055 456.375 408.344 456.969L407.422 455.562C409.766 454.797 410.938 452.906 410.938 450.875V449.531H412.688V450.797ZM419.344 448.766V457.078H417.609V452.922H414.797V451.5H417.609V448.766H419.344ZM414.562 457.453C417.562 457.453 419.391 458.453 419.391 460.172C419.391 461.891 417.562 462.875 414.562 462.875C411.578 462.875 409.75 461.891 409.766 460.172C409.75 458.453 411.578 457.453 414.562 457.453ZM414.562 458.797C412.594 458.797 411.484 459.281 411.484 460.172C411.484 461.031 412.594 461.516 414.562 461.516C416.531 461.516 417.656 461.031 417.656 460.172C417.656 459.281 416.531 458.797 414.562 458.797ZM427.891 457.484C430.812 457.484 432.609 458.469 432.625 460.172C432.609 461.891 430.812 462.891 427.891 462.891C424.938 462.891 423.109 461.891 423.109 460.172C423.109 458.469 424.938 457.484 427.891 457.484ZM427.891 458.844C425.953 458.844 424.844 459.297 424.844 460.172C424.844 461.047 425.953 461.516 427.891 461.516C429.828 461.516 430.906 461.047 430.906 460.172C430.906 459.297 429.828 458.844 427.891 458.844ZM432.484 448.766V452.141H434.453V453.594H432.484V457.141H430.75V448.766H432.484ZM423.547 449.656V451.562H426.844V449.656H428.562V456.25H421.828V449.656H423.547ZM423.547 454.875H426.844V452.922H423.547V454.875ZM448.234 450.969V452.391H446.312V454H448.234V455.422H446.312V457.781H444.578V448.766H446.312V450.969H448.234ZM441.75 457.906C444.641 457.906 446.469 458.828 446.469 460.391C446.469 461.938 444.641 462.875 441.75 462.875C438.812 462.875 437.016 461.938 437.031 460.391C437.016 458.828 438.812 457.906 441.75 457.906ZM441.75 459.234C439.812 459.234 438.734 459.609 438.75 460.391C438.734 461.141 439.812 461.562 441.75 461.562C443.656 461.562 444.734 461.141 444.734 460.391C444.734 459.609 443.656 459.234 441.75 459.234ZM443.562 450.203V451.562H435.188V450.203H438.516V448.672H440.25V450.203H443.562ZM439.375 452.125C441.422 452.125 442.812 453.141 442.828 454.656C442.812 456.172 441.422 457.172 439.375 457.172C437.312 457.172 435.906 456.172 435.906 454.656C435.906 453.141 437.312 452.125 439.375 452.125ZM439.375 453.406C438.297 453.406 437.594 453.875 437.594 454.656C437.594 455.422 438.297 455.859 439.375 455.859C440.453 455.859 441.172 455.422 441.172 454.656C441.172 453.875 440.453 453.406 439.375 453.406ZM464.625 448.766V457.156H462.891V453.703H460.484V452.281H462.891V448.766H464.625ZM459.844 457.516C462.844 457.516 464.672 458.5 464.672 460.203C464.672 461.906 462.844 462.891 459.844 462.891C456.859 462.891 455.031 461.906 455.047 460.203C455.031 458.5 456.859 457.516 459.844 457.516ZM459.844 458.844C457.875 458.844 456.766 459.312 456.766 460.203C456.766 461.078 457.875 461.547 459.844 461.547C461.812 461.547 462.938 461.078 462.938 460.203C462.938 459.312 461.812 458.844 459.844 458.844ZM457.984 451.188C457.984 452.906 459.125 454.641 461.312 455.375L460.438 456.75C458.867 456.219 457.75 455.141 457.141 453.812C456.516 455.32 455.336 456.523 453.656 457.125L452.75 455.75C455.016 454.969 456.219 453.062 456.219 451.203V451.094H453.281V449.688H460.906V451.094H457.984V451.188ZM478.391 448.781V456.609H476.641V448.781H478.391ZM473.859 449.422V453.5H469.078V454.922C471.5 454.898 473.211 454.852 475.234 454.516L475.453 455.922C473.219 456.281 471.312 456.344 468.578 456.344H467.375V452.172H472.141V450.828H467.344V449.422H473.859ZM470.766 457.234V458.609H476.656V457.234H478.391V462.719H469.031V457.234H470.766ZM470.766 461.312H476.656V459.953H470.766V461.312ZM491.781 449.641V455.516H484.969V449.641H491.781ZM486.688 451.016V454.156H490.062V451.016H486.688ZM495.984 448.766V456.812H494.266V448.766H495.984ZM496.281 457.641V458.953H492.25C492.414 460.047 494.109 461.25 496.812 461.516L496.219 462.844C493.93 462.609 492.195 461.703 491.344 460.531C490.461 461.719 488.711 462.594 486.406 462.844L485.812 461.516C488.516 461.281 490.25 460.078 490.406 458.953H486.391V457.641H490.453V456.406H492.203V457.641H496.281ZM506.938 452.781C506.938 454.969 508.234 457.453 510.469 458.484L509.5 459.859C507.906 459.109 506.727 457.594 506.094 455.828C505.453 457.766 504.219 459.422 502.594 460.203L501.578 458.844C503.828 457.781 505.188 455.125 505.203 452.781V451.594H502.125V450.156H509.891V451.594H506.938V452.781ZM512.938 448.766V454.266H515.109V455.719H512.938V462.891H511.203V448.766H512.938ZM528.594 455.828V457.219H523.141V459.812H521.422V457.219H515.688V455.828H528.594ZM526.938 449.406V454.516H517.328V449.406H526.938ZM519.016 450.766V453.156H525.219V450.766H519.016ZM527.172 461.203V462.609H517.25V458.516H518.984V461.203H527.172Z" fill="#393939"/>
</g>
<rect x="646.5" y="66" width="391" height="463" rx="8" fill="#F1F4F9"/>
<g filter="url(#filter4_d_478_27866)">
<rect x="676.5" y="96" width="331" height="86" rx="8" fill="white" shape-rendering="crispEdges"/>
<path opacity="0.9" d="M777.711 134.719C777.711 136.453 778.836 138.172 781.055 138.906L780.18 140.25C778.602 139.727 777.477 138.664 776.867 137.344C776.234 138.789 775.062 139.938 773.414 140.5L772.492 139.156C774.773 138.406 775.961 136.578 775.961 134.719V134.547H772.977V133.156H780.648V134.547H777.711V134.719ZM783.789 132.266V135.797H785.758V137.25H783.789V140.781H782.055V132.266H783.789ZM783.789 141.438V146.391H782.055V142.828H774.383V141.438H783.789ZM791.648 134.297C791.633 136.219 792.758 137.969 794.977 138.672L794.039 140.031C792.5 139.492 791.422 138.469 790.82 137.125C790.195 138.664 789.016 139.875 787.305 140.469L786.383 139.062C788.727 138.297 789.898 136.406 789.898 134.375V133.031H791.648V134.297ZM798.305 132.266V140.578H796.57V136.422H793.758V135H796.57V132.266H798.305ZM793.523 140.953C796.523 140.953 798.352 141.953 798.352 143.672C798.352 145.391 796.523 146.375 793.523 146.375C790.539 146.375 788.711 145.391 788.727 143.672C788.711 141.953 790.539 140.953 793.523 140.953ZM793.523 142.297C791.555 142.297 790.445 142.781 790.445 143.672C790.445 144.531 791.555 145.016 793.523 145.016C795.492 145.016 796.617 144.531 796.617 143.672C796.617 142.781 795.492 142.297 793.523 142.297ZM809.148 135.656C809.133 138.172 810.398 140.734 812.586 141.781L811.523 143.172C809.992 142.398 808.891 140.906 808.289 139.109C807.672 141.031 806.516 142.625 804.898 143.438L803.836 142.047C806.102 140.969 807.398 138.266 807.414 135.656V133.406H809.148V135.656ZM815.164 132.266V137.797H817.336V139.281H815.164V146.391H813.43V132.266H815.164ZM829.07 132.266V135.984H831.039V137.438H829.07V141.281H827.336V132.266H829.07ZM824.508 141.406C827.398 141.406 829.227 142.328 829.227 143.891C829.227 145.438 827.398 146.375 824.508 146.375C821.57 146.375 819.773 145.438 819.789 143.891C819.773 142.328 821.57 141.406 824.508 141.406ZM824.508 142.734C822.57 142.734 821.492 143.109 821.508 143.891C821.492 144.641 822.57 145.062 824.508 145.062C826.414 145.062 827.492 144.641 827.492 143.891C827.492 143.109 826.414 142.734 824.508 142.734ZM826.32 133.703V135.062H817.945V133.703H821.273V132.172H823.008V133.703H826.32ZM822.133 135.625C824.18 135.625 825.57 136.641 825.586 138.156C825.57 139.672 824.18 140.672 822.133 140.672C820.07 140.672 818.664 139.672 818.664 138.156C818.664 136.641 820.07 135.625 822.133 135.625ZM822.133 136.906C821.055 136.906 820.352 137.375 820.352 138.156C820.352 138.922 821.055 139.359 822.133 139.359C823.211 139.359 823.93 138.922 823.93 138.156C823.93 137.375 823.211 136.906 822.133 136.906ZM842.867 133.125C842.852 136.766 840.461 139.312 836.352 140.469L835.648 139.109C838.812 138.242 840.688 136.594 841.008 134.531H836.414V133.125H842.867ZM847.383 132.281V140.234H845.648V137.156H842.93V135.734H845.648V132.281H847.383ZM847.383 140.797V146.203H838.086V140.797H847.383ZM839.789 142.172V144.828H845.664V142.172H839.789ZM860.867 139.375V140.766H856.695V143.344H862.289V144.734H849.383V143.344H854.945V140.766H850.961V133.312H860.742V134.719H852.727V136.312H860.414V137.688H852.727V139.375H860.867ZM874.539 133.141V139.016H867.727V133.141H874.539ZM869.445 134.516V137.656H872.82V134.516H869.445ZM878.742 132.266V140.312H877.023V132.266H878.742ZM879.039 141.141V142.453H875.008C875.172 143.547 876.867 144.75 879.57 145.016L878.977 146.344C876.688 146.109 874.953 145.203 874.102 144.031C873.219 145.219 871.469 146.094 869.164 146.344L868.57 145.016C871.273 144.781 873.008 143.578 873.164 142.453H869.148V141.141H873.211V139.906H874.961V141.141H879.039ZM891.992 133.438C891.992 135.219 893.977 137.016 896.992 137.406L896.305 138.812C893.906 138.453 892 137.273 891.086 135.672C890.156 137.273 888.258 138.453 885.883 138.812L885.195 137.406C888.18 137.016 890.164 135.219 890.164 133.438V132.719H891.992V133.438ZM897.508 140.031V141.469H891.898V146.391H890.18V141.469H884.633V140.031H897.508ZM910.289 132.266V140.656H908.555V137.203H906.148V135.781H908.555V132.266H910.289ZM905.508 141.016C908.508 141.016 910.336 142 910.336 143.703C910.336 145.406 908.508 146.391 905.508 146.391C902.523 146.391 900.695 145.406 900.711 143.703C900.695 142 902.523 141.016 905.508 141.016ZM905.508 142.344C903.539 142.344 902.43 142.812 902.43 143.703C902.43 144.578 903.539 145.047 905.508 145.047C907.477 145.047 908.602 144.578 908.602 143.703C908.602 142.812 907.477 142.344 905.508 142.344ZM903.648 134.688C903.648 136.406 904.789 138.141 906.977 138.875L906.102 140.25C904.531 139.719 903.414 138.641 902.805 137.312C902.18 138.82 901 140.023 899.32 140.625L898.414 139.25C900.68 138.469 901.883 136.562 901.883 134.703V134.594H898.945V133.188H906.57V134.594H903.648V134.688Z" fill="#393939"/>
</g>
<path d="M841.646 201.854C841.842 202.049 842.158 202.049 842.354 201.854L845.536 198.672C845.731 198.476 845.731 198.16 845.536 197.964C845.34 197.769 845.024 197.769 844.828 197.964L842 200.793L839.172 197.964C838.976 197.769 838.66 197.769 838.464 197.964C838.269 198.16 838.269 198.476 838.464 198.672L841.646 201.854ZM841.5 182V201.5H842.5V182H841.5Z" fill="#99A7BF"/>
<g filter="url(#filter5_d_478_27866)">
<rect x="676.5" y="201.5" width="331" height="86" rx="8" fill="white" shape-rendering="crispEdges"/>
<path opacity="0.9" d="M732.141 238.75V240.156H730.891V244.156C731.406 244.125 731.914 244.078 732.406 244.016V242.75H734.344V241.531H732.406V240.141H734.344V237.766H736.078V246.422H734.344V244.141H732.453L732.516 245.297C729.828 245.734 726.703 245.797 724.453 245.797L724.266 244.359L725.859 244.344V240.156H724.625V238.75H732.141ZM731.297 246.672C734.312 246.672 736.125 247.609 736.125 249.281C736.125 250.906 734.312 251.875 731.297 251.875C728.297 251.875 726.484 250.906 726.5 249.281C726.484 247.609 728.297 246.672 731.297 246.672ZM731.297 248C729.328 248 728.219 248.438 728.219 249.281C728.219 250.094 729.328 250.531 731.297 250.531C733.281 250.531 734.391 250.094 734.391 249.281C734.391 248.438 733.281 248 731.297 248ZM727.547 244.328C728.094 244.312 728.656 244.289 729.219 244.266V240.156H727.547V244.328ZM749.141 237.766V243.281H751.234V244.734H749.141V251.859H747.406V237.766H749.141ZM745.406 239.234C745.406 243.391 743.688 247.031 738.984 249.344L738 248C741.438 246.289 743.297 243.883 743.656 240.672H738.766V239.234H745.406ZM758.453 246.484C761.375 246.484 763.172 247.469 763.188 249.172C763.172 250.891 761.375 251.891 758.453 251.891C755.5 251.891 753.672 250.891 753.672 249.172C753.672 247.469 755.5 246.484 758.453 246.484ZM758.453 247.844C756.516 247.844 755.406 248.297 755.406 249.172C755.406 250.047 756.516 250.516 758.453 250.516C760.391 250.516 761.469 250.047 761.469 249.172C761.469 248.297 760.391 247.844 758.453 247.844ZM763.047 237.766V241.141H765.016V242.594H763.047V246.141H761.312V237.766H763.047ZM754.109 238.656V240.562H757.406V238.656H759.125V245.25H752.391V238.656H754.109ZM754.109 243.875H757.406V241.922H754.109V243.875ZM768.109 238.5V240.422H771.266V238.5H772.984V241.078H775.828V237.766H777.562V245.484H775.828V242.516H772.984V245.047H766.375V238.5H768.109ZM768.109 243.641H771.266V241.766H768.109V243.641ZM769.984 246.109V247.547H775.828V246.109H777.562V251.688H768.25V246.109H769.984ZM769.984 250.281H775.828V248.891H769.984V250.281ZM792.453 245.656V247.062H779.547V245.656H785.141V244.422H781.188V240.672H789.125V239.484H781.141V238.125H790.859V241.906H782.906V243.078H791.141V244.422H786.859V245.656H792.453ZM791.172 250.484V251.891H781.203V247.844H782.953V250.484H791.172ZM808.984 237.766V251.891H807.234V237.766H808.984ZM804.766 239.266C804.766 243.469 803.141 247.047 798.188 249.391L797.281 248C800.977 246.242 802.695 243.852 803 240.641H798V239.266H804.766ZM822.156 237.781V241.859H824.125V243.297H822.156V248.172H820.422V237.781H822.156ZM822.719 250.203V251.609H813.109V247.125H814.844V250.203H822.719ZM813.219 238.781V240.938H816.516V238.781H818.234V245.875H811.5V238.781H813.219ZM813.219 244.5H816.516V242.281H813.219V244.5ZM833.688 241.156C833.672 243.672 834.938 246.234 837.125 247.281L836.062 248.672C834.531 247.898 833.43 246.406 832.828 244.609C832.211 246.531 831.055 248.125 829.438 248.938L828.375 247.547C830.641 246.469 831.938 243.766 831.953 241.156V238.906H833.688V241.156ZM839.703 237.766V243.297H841.875V244.781H839.703V251.891H837.969V237.766H839.703ZM854.297 237.781V248.094H852.562V242.922H850.062V241.516H852.562V237.781H854.297ZM854.656 250.203V251.609H845.031V247.188H846.766V250.203H854.656ZM847.656 240.594C847.656 242.297 848.797 244.047 850.984 244.766L850.109 246.156C848.531 245.617 847.414 244.547 846.797 243.203C846.172 244.695 844.992 245.875 843.328 246.453L842.438 245.047C844.688 244.312 845.891 242.453 845.891 240.578V240.203H842.953V238.797H850.578V240.203H847.656V240.594ZM864.188 238.75V240.156H862.938V244.156C863.453 244.125 863.961 244.078 864.453 244.016V242.75H866.391V241.531H864.453V240.141H866.391V237.766H868.125V246.422H866.391V244.141H864.5L864.562 245.297C861.875 245.734 858.75 245.797 856.5 245.797L856.312 244.359L857.906 244.344V240.156H856.672V238.75H864.188ZM863.344 246.672C866.359 246.672 868.172 247.609 868.172 249.281C868.172 250.906 866.359 251.875 863.344 251.875C860.344 251.875 858.531 250.906 858.547 249.281C858.531 247.609 860.344 246.672 863.344 246.672ZM863.344 248C861.375 248 860.266 248.438 860.266 249.281C860.266 250.094 861.375 250.531 863.344 250.531C865.328 250.531 866.438 250.094 866.438 249.281C866.438 248.438 865.328 248 863.344 248ZM859.594 244.328C860.141 244.312 860.703 244.289 861.266 244.266V240.156H859.594V244.328ZM881.188 237.766V243.281H883.281V244.734H881.188V251.859H879.453V237.766H881.188ZM877.453 239.234C877.453 243.391 875.734 247.031 871.031 249.344L870.047 248C873.484 246.289 875.344 243.883 875.703 240.672H870.812V239.234H877.453ZM893.719 238.641V240.047H890.016V241.375H893.188V242.719H890.016V244.172C891.711 244.156 892.875 244.094 894.25 243.844L894.438 245.203C892.812 245.5 891.469 245.562 889.281 245.562H888.344V238.641H893.719ZM899.828 237.766V246.219H898.172V237.766H899.828ZM897.047 238V246.109H895.391V242.625H893.797V241.219H895.391V238H897.047ZM899.828 246.812V251.719H890.297V246.812H899.828ZM892.031 248.188V250.312H898.109V248.188H892.031ZM913.266 238.172V239.484H911.328V241.625H913.188V242.938H902.812V241.625H904.672V239.484H902.734V238.172H913.266ZM914.453 243.828V245.203H901.578V243.828H914.453ZM912.844 246.156V249.516H904.812V250.469H913.234V251.766H903.109V248.312H911.141V247.422H903.094V246.156H912.844ZM906.406 241.625H909.578V239.484H906.406V241.625ZM927.141 237.766V247.375H925.422V237.766H927.141ZM922.641 238.656V242.875H917.859V244.484C920.414 244.477 922.094 244.383 924.047 244.047L924.234 245.438C922.109 245.812 920.25 245.891 917.359 245.891H916.156V241.547H920.922V240.062H916.125V238.656H922.641ZM923.344 246.953C923.328 248.625 925.062 250.109 927.922 250.5L927.281 251.828C925.016 251.484 923.273 250.492 922.438 249.062C921.57 250.492 919.836 251.492 917.578 251.828L916.922 250.5C919.766 250.109 921.516 248.641 921.516 246.953V246.656H923.344V246.953ZM944.859 237.766V246.156H943.125V242.703H940.719V241.281H943.125V237.766H944.859ZM940.078 246.516C943.078 246.516 944.906 247.5 944.906 249.203C944.906 250.906 943.078 251.891 940.078 251.891C937.094 251.891 935.266 250.906 935.281 249.203C935.266 247.5 937.094 246.516 940.078 246.516ZM940.078 247.844C938.109 247.844 937 248.312 937 249.203C937 250.078 938.109 250.547 940.078 250.547C942.047 250.547 943.172 250.078 943.172 249.203C943.172 248.312 942.047 247.844 940.078 247.844ZM938.219 240.188C938.219 241.906 939.359 243.641 941.547 244.375L940.672 245.75C939.102 245.219 937.984 244.141 937.375 242.812C936.75 244.32 935.57 245.523 933.891 246.125L932.984 244.75C935.25 243.969 936.453 242.062 936.453 240.203V240.094H933.516V238.688H941.141V240.094H938.219V240.188ZM958.625 237.781V245.609H956.875V237.781H958.625ZM954.094 238.422V242.5H949.312V243.922C951.734 243.898 953.445 243.852 955.469 243.516L955.688 244.922C953.453 245.281 951.547 245.344 948.812 245.344H947.609V241.172H952.375V239.828H947.578V238.422H954.094ZM951 246.234V247.609H956.891V246.234H958.625V251.719H949.266V246.234H951ZM951 250.312H956.891V248.953H951V250.312Z" fill="#393939"/>
</g>
<path d="M841.646 307.354C841.842 307.549 842.158 307.549 842.354 307.354L845.536 304.172C845.731 303.976 845.731 303.66 845.536 303.464C845.34 303.269 845.024 303.269 844.828 303.464L842 306.293L839.172 303.464C838.976 303.269 838.66 303.269 838.464 303.464C838.269 303.66 838.269 303.976 838.464 304.172L841.646 307.354ZM841.5 287.5V307H842.5V287.5H841.5Z" fill="#99A7BF"/>
<g filter="url(#filter6_d_478_27866)">
<rect x="676.5" y="307" width="331" height="86" rx="8" fill="white" shape-rendering="crispEdges"/>
<path opacity="0.9" d="M804.133 346.656C804.117 349.172 805.383 351.734 807.57 352.781L806.508 354.172C804.977 353.398 803.875 351.906 803.273 350.109C802.656 352.031 801.5 353.625 799.883 354.438L798.82 353.047C801.086 351.969 802.383 349.266 802.398 346.656V344.406H804.133V346.656ZM810.148 343.266V348.797H812.32V350.281H810.148V357.391H808.414V343.266H810.148ZM824.742 343.281V353.594H823.008V348.422H820.508V347.016H823.008V343.281H824.742ZM825.102 355.703V357.109H815.477V352.688H817.211V355.703H825.102ZM818.102 346.094C818.102 347.797 819.242 349.547 821.43 350.266L820.555 351.656C818.977 351.117 817.859 350.047 817.242 348.703C816.617 350.195 815.438 351.375 813.773 351.953L812.883 350.547C815.133 349.812 816.336 347.953 816.336 346.078V345.703H813.398V344.297H821.023V345.703H818.102V346.094ZM834.633 344.25V345.656H833.383V349.656C833.898 349.625 834.406 349.578 834.898 349.516V348.25H836.836V347.031H834.898V345.641H836.836V343.266H838.57V351.922H836.836V349.641H834.945L835.008 350.797C832.32 351.234 829.195 351.297 826.945 351.297L826.758 349.859L828.352 349.844V345.656H827.117V344.25H834.633ZM833.789 352.172C836.805 352.172 838.617 353.109 838.617 354.781C838.617 356.406 836.805 357.375 833.789 357.375C830.789 357.375 828.977 356.406 828.992 354.781C828.977 353.109 830.789 352.172 833.789 352.172ZM833.789 353.5C831.82 353.5 830.711 353.938 830.711 354.781C830.711 355.594 831.82 356.031 833.789 356.031C835.773 356.031 836.883 355.594 836.883 354.781C836.883 353.938 835.773 353.5 833.789 353.5ZM830.039 349.828C830.586 349.812 831.148 349.789 831.711 349.766V345.656H830.039V349.828ZM851.633 343.266V348.781H853.727V350.234H851.633V357.359H849.898V343.266H851.633ZM847.898 344.734C847.898 348.891 846.18 352.531 841.477 354.844L840.492 353.5C843.93 351.789 845.789 349.383 846.148 346.172H841.258V344.734H847.898ZM865.555 344.438C865.555 346.219 867.539 348.016 870.555 348.406L869.867 349.812C867.469 349.453 865.562 348.273 864.648 346.672C863.719 348.273 861.82 349.453 859.445 349.812L858.758 348.406C861.742 348.016 863.727 346.219 863.727 344.438V343.719H865.555V344.438ZM871.07 351.031V352.469H865.461V357.391H863.742V352.469H858.195V351.031H871.07ZM884.102 343.266V352.141H882.445V348.297H881.07V351.672H879.445V343.547H881.07V346.891H882.445V343.266H884.102ZM878.977 344.797V346.156H871.945V344.797H874.617V343.391H876.336V344.797H878.977ZM875.477 346.734C877.273 346.734 878.539 347.703 878.555 349.172C878.539 350.641 877.273 351.609 875.477 351.609C873.711 351.609 872.43 350.641 872.445 349.172C872.43 347.703 873.711 346.734 875.477 346.734ZM875.477 347.984C874.602 347.984 873.992 348.438 873.992 349.172C873.992 349.906 874.586 350.359 875.477 350.359C876.367 350.359 876.977 349.906 876.977 349.172C876.977 348.438 876.367 347.984 875.477 347.984ZM879.336 352.312C882.352 352.312 884.164 353.234 884.18 354.859C884.164 356.453 882.352 357.375 879.336 357.375C876.32 357.375 874.492 356.453 874.492 354.859C874.492 353.234 876.32 352.312 879.336 352.312ZM879.336 353.641C877.32 353.625 876.227 354.031 876.227 354.859C876.227 355.641 877.32 356.047 879.336 356.047C881.336 356.047 882.43 355.641 882.43 354.859C882.43 354.031 881.336 353.625 879.336 353.641Z" fill="#393939"/>
</g>
<rect x="1050.5" y="66" width="390" height="463" rx="8" fill="#F1F4F9"/>
<g filter="url(#filter7_d_478_27866)">
<rect x="1080.5" y="96" width="330" height="86" rx="8" fill="white" shape-rendering="crispEdges"/>
<path opacity="0.9" d="M1161.66 139.344C1161.66 143 1159.44 145.156 1156.47 145.156C1153.5 145.156 1151.28 142.984 1151.28 139.344C1151.28 135.688 1153.5 133.531 1156.47 133.531C1159.44 133.531 1161.66 135.688 1161.66 139.344ZM1159.61 139.344C1159.61 136.766 1158.31 135.359 1156.47 135.359C1154.62 135.359 1153.33 136.766 1153.33 139.344C1153.33 141.922 1154.62 143.328 1156.47 143.328C1158.31 143.328 1159.61 141.922 1159.61 139.344ZM1163.47 145V133.688H1167.72C1170.31 133.688 1171.7 135.141 1171.7 137.297C1171.7 138.836 1171 139.977 1169.67 140.516L1172.11 145H1169.84L1167.62 140.859H1165.5V145H1163.47ZM1165.5 139.156H1167.41C1168.94 139.156 1169.62 138.5 1169.62 137.297C1169.62 136.094 1168.94 135.391 1167.41 135.391H1165.5V139.156ZM1179.61 136.797C1179.52 135.828 1178.69 135.266 1177.47 135.266C1176.19 135.266 1175.41 135.891 1175.41 136.734C1175.41 137.688 1176.41 138.078 1177.34 138.297L1178.41 138.578C1180.09 138.969 1181.72 139.859 1181.72 141.828C1181.72 143.812 1180.16 145.172 1177.44 145.172C1174.8 145.172 1173.14 143.906 1173.05 141.672H1175.05C1175.14 142.859 1176.14 143.438 1177.42 143.438C1178.77 143.438 1179.69 142.781 1179.69 141.812C1179.69 140.922 1178.86 140.547 1177.64 140.234L1176.36 139.906C1174.5 139.422 1173.34 138.484 1173.34 136.859C1173.34 134.859 1175.12 133.531 1177.5 133.531C1179.91 133.531 1181.53 134.891 1181.56 136.797H1179.61ZM1198.39 132.266V139.844H1196.64V132.266H1198.39ZM1190.77 140.5V141.953H1196.66V140.5H1198.39V146.219H1189.05V140.5H1190.77ZM1190.77 144.812H1196.66V143.312H1190.77V144.812ZM1190.69 132.891C1192.86 132.875 1194.48 134.234 1194.48 136.203C1194.48 138.125 1192.86 139.484 1190.69 139.484C1188.5 139.484 1186.88 138.125 1186.88 136.203C1186.88 134.234 1188.5 132.875 1190.69 132.891ZM1190.69 134.344C1189.45 134.344 1188.56 135.062 1188.58 136.203C1188.56 137.328 1189.45 138.047 1190.69 138.062C1191.91 138.047 1192.78 137.328 1192.78 136.203C1192.78 135.062 1191.91 134.344 1190.69 134.344ZM1207.2 133.109V137.359H1202.75V139.094C1205.02 139.102 1206.32 139.031 1207.81 138.75L1207.98 140.156C1206.3 140.438 1204.83 140.484 1202.06 140.484H1201.03V136.062H1205.47V134.484H1201V133.109H1207.2ZM1212.28 132.281V140.969H1210.55V138.641H1208.05V137.25H1210.55V135.672H1208.05V134.281H1210.55V132.281H1212.28ZM1212.28 141.641V146.391H1210.55V143.031H1202.62V141.641H1212.28ZM1219.33 135.656C1219.31 138.172 1220.58 140.734 1222.77 141.781L1221.7 143.172C1220.17 142.398 1219.07 140.906 1218.47 139.109C1217.85 141.031 1216.7 142.625 1215.08 143.438L1214.02 142.047C1216.28 140.969 1217.58 138.266 1217.59 135.656V133.406H1219.33V135.656ZM1225.34 132.266V137.797H1227.52V139.281H1225.34V146.391H1223.61V132.266H1225.34ZM1239.25 132.266V135.984H1241.22V137.438H1239.25V141.281H1237.52V132.266H1239.25ZM1234.69 141.406C1237.58 141.406 1239.41 142.328 1239.41 143.891C1239.41 145.438 1237.58 146.375 1234.69 146.375C1231.75 146.375 1229.95 145.438 1229.97 143.891C1229.95 142.328 1231.75 141.406 1234.69 141.406ZM1234.69 142.734C1232.75 142.734 1231.67 143.109 1231.69 143.891C1231.67 144.641 1232.75 145.062 1234.69 145.062C1236.59 145.062 1237.67 144.641 1237.67 143.891C1237.67 143.109 1236.59 142.734 1234.69 142.734ZM1236.5 133.703V135.062H1228.12V133.703H1231.45V132.172H1233.19V133.703H1236.5ZM1232.31 135.625C1234.36 135.625 1235.75 136.641 1235.77 138.156C1235.75 139.672 1234.36 140.672 1232.31 140.672C1230.25 140.672 1228.84 139.672 1228.84 138.156C1228.84 136.641 1230.25 135.625 1232.31 135.625ZM1232.31 136.906C1231.23 136.906 1230.53 137.375 1230.53 138.156C1230.53 138.922 1231.23 139.359 1232.31 139.359C1233.39 139.359 1234.11 138.922 1234.11 138.156C1234.11 137.375 1233.39 136.906 1232.31 136.906ZM1253.94 137.5C1253.7 136.141 1252.61 135.359 1251.23 135.359C1249.38 135.359 1248.08 136.781 1248.08 139.344C1248.08 141.938 1249.39 143.328 1251.23 143.328C1252.58 143.328 1253.67 142.578 1253.94 141.25H1255.98C1255.67 143.422 1253.89 145.156 1251.2 145.156C1248.22 145.156 1246.03 142.984 1246.03 139.344C1246.03 135.688 1248.25 133.531 1251.2 133.531C1253.7 133.531 1255.64 134.984 1255.98 137.5H1253.94ZM1257.64 145V136.516H1259.58V137.922H1259.67C1259.97 136.953 1260.8 136.391 1261.77 136.391C1261.98 136.391 1262.3 136.406 1262.48 136.438V138.281C1262.31 138.219 1261.89 138.156 1261.56 138.156C1260.45 138.156 1259.64 138.922 1259.64 140V145H1257.64ZM1267.09 145.172C1264.62 145.172 1263.03 143.422 1263.03 140.797C1263.03 138.156 1264.62 136.406 1267.09 136.406C1269.58 136.406 1271.16 138.156 1271.16 140.797C1271.16 143.422 1269.58 145.172 1267.09 145.172ZM1267.11 143.578C1268.47 143.578 1269.14 142.344 1269.14 140.781C1269.14 139.234 1268.47 137.984 1267.11 137.984C1265.72 137.984 1265.05 139.234 1265.05 140.781C1265.05 142.344 1265.72 143.578 1267.11 143.578ZM1277.52 138.938C1277.39 138.297 1276.86 137.891 1276.02 137.891C1275.16 137.891 1274.53 138.312 1274.55 138.891C1274.53 139.328 1274.89 139.656 1275.75 139.859L1277.19 140.156C1278.8 140.516 1279.56 141.25 1279.58 142.469C1279.56 144.062 1278.17 145.172 1275.95 145.172C1273.8 145.172 1272.52 144.203 1272.31 142.578H1274.34C1274.47 143.297 1275.03 143.656 1275.95 143.656C1276.91 143.656 1277.55 143.266 1277.55 142.641C1277.55 142.156 1277.16 141.844 1276.31 141.656L1274.95 141.359C1273.38 141.047 1272.56 140.219 1272.56 139C1272.56 137.438 1273.91 136.406 1275.98 136.406C1278.02 136.406 1279.27 137.391 1279.41 138.938H1277.52ZM1285.91 138.938C1285.78 138.297 1285.25 137.891 1284.41 137.891C1283.55 137.891 1282.92 138.312 1282.94 138.891C1282.92 139.328 1283.28 139.656 1284.14 139.859L1285.58 140.156C1287.19 140.516 1287.95 141.25 1287.97 142.469C1287.95 144.062 1286.56 145.172 1284.34 145.172C1282.19 145.172 1280.91 144.203 1280.7 142.578H1282.73C1282.86 143.297 1283.42 143.656 1284.34 143.656C1285.3 143.656 1285.94 143.266 1285.94 142.641C1285.94 142.156 1285.55 141.844 1284.7 141.656L1283.34 141.359C1281.77 141.047 1280.95 140.219 1280.95 139C1280.95 137.438 1282.3 136.406 1284.38 136.406C1286.41 136.406 1287.66 137.391 1287.8 138.938H1285.91ZM1294.62 139.469V141.109H1289.53V139.469H1294.62ZM1300.28 145.172C1297.75 145.172 1296.22 143.359 1296.22 140.797C1296.22 138.203 1297.8 136.406 1300.28 136.406C1302.34 136.406 1303.78 137.609 1303.92 139.438H1302.02C1301.86 138.625 1301.27 138 1300.3 138C1299.06 138 1298.23 139.047 1298.23 140.75C1298.23 142.5 1299.05 143.547 1300.3 143.547C1301.19 143.547 1301.84 143.031 1302.02 142.109H1303.92C1303.77 143.906 1302.41 145.172 1300.28 145.172ZM1307.42 140.031V145H1305.42V133.688H1307.38V137.953H1307.48C1307.88 137 1308.69 136.406 1310 136.406C1311.77 136.406 1312.92 137.547 1312.92 139.594V145H1310.94V139.906C1310.94 138.75 1310.31 138.094 1309.27 138.094C1308.19 138.094 1307.42 138.797 1307.42 140.031ZM1318.58 145.172C1316.02 145.172 1314.45 143.469 1314.45 140.812C1314.45 138.188 1316.05 136.406 1318.47 136.406C1320.55 136.406 1322.34 137.703 1322.34 140.688V141.312H1316.42C1316.45 142.758 1317.3 143.609 1318.59 143.609C1319.47 143.609 1320.06 143.234 1320.31 142.734H1322.27C1321.91 144.203 1320.55 145.172 1318.58 145.172ZM1316.44 139.953H1320.44C1320.42 138.797 1319.66 137.953 1318.5 137.953C1317.3 137.953 1316.5 138.867 1316.44 139.953ZM1327.59 145.172C1325.06 145.172 1323.53 143.359 1323.53 140.797C1323.53 138.203 1325.11 136.406 1327.59 136.406C1329.66 136.406 1331.09 137.609 1331.23 139.438H1329.33C1329.17 138.625 1328.58 138 1327.61 138C1326.38 138 1325.55 139.047 1325.55 140.75C1325.55 142.5 1326.36 143.547 1327.61 143.547C1328.5 143.547 1329.16 143.031 1329.33 142.109H1331.23C1331.08 143.906 1329.72 145.172 1327.59 145.172ZM1332.73 145V133.688H1334.73V139.922H1334.88L1337.92 136.516H1340.25L1336.97 140.172L1340.45 145H1338.08L1335.47 141.359L1334.73 142.141V145H1332.73Z" fill="#393939"/>
</g>
<path d="M1245.15 201.854C1245.34 202.049 1245.66 202.049 1245.85 201.854L1249.04 198.672C1249.23 198.476 1249.23 198.16 1249.04 197.964C1248.84 197.769 1248.52 197.769 1248.33 197.964L1245.5 200.793L1242.67 197.964C1242.48 197.769 1242.16 197.769 1241.96 197.964C1241.77 198.16 1241.77 198.476 1241.96 198.672L1245.15 201.854ZM1245 182V201.5H1246V182H1245Z" fill="#99A7BF"/>
<g filter="url(#filter8_d_478_27866)">
<rect x="1080.5" y="201.5" width="330" height="86" rx="8" fill="white" shape-rendering="crispEdges"/>
<path opacity="0.9" d="M1224.99 244.844C1224.99 248.5 1222.77 250.656 1219.8 250.656C1216.84 250.656 1214.62 248.484 1214.62 244.844C1214.62 241.188 1216.84 239.031 1219.8 239.031C1222.77 239.031 1224.99 241.188 1224.99 244.844ZM1222.95 244.844C1222.95 242.266 1221.65 240.859 1219.8 240.859C1217.96 240.859 1216.66 242.266 1216.66 244.844C1216.66 247.422 1217.96 248.828 1219.8 248.828C1221.65 248.828 1222.95 247.422 1222.95 244.844ZM1226.8 250.5V239.188H1231.05C1233.65 239.188 1235.04 240.641 1235.04 242.797C1235.04 244.336 1234.34 245.477 1233.01 246.016L1235.45 250.5H1233.18L1230.96 246.359H1228.84V250.5H1226.8ZM1228.84 244.656H1230.74C1232.27 244.656 1232.96 244 1232.96 242.797C1232.96 241.594 1232.27 240.891 1230.74 240.891H1228.84V244.656ZM1242.95 242.297C1242.85 241.328 1242.02 240.766 1240.8 240.766C1239.52 240.766 1238.74 241.391 1238.74 242.234C1238.74 243.188 1239.74 243.578 1240.68 243.797L1241.74 244.078C1243.43 244.469 1245.05 245.359 1245.05 247.328C1245.05 249.312 1243.49 250.672 1240.77 250.672C1238.13 250.672 1236.48 249.406 1236.38 247.172H1238.38C1238.48 248.359 1239.48 248.938 1240.76 248.938C1242.1 248.938 1243.02 248.281 1243.02 247.312C1243.02 246.422 1242.2 246.047 1240.98 245.734L1239.7 245.406C1237.84 244.922 1236.68 243.984 1236.68 242.359C1236.68 240.359 1238.46 239.031 1240.84 239.031C1243.24 239.031 1244.87 240.391 1244.9 242.297H1242.95ZM1262.12 237.766V251.891H1260.46V237.766H1262.12ZM1259.24 238.031V251.203H1257.6V244.094H1255.57V242.688H1257.6V238.031H1259.24ZM1254.32 241.625C1254.32 244.016 1255.18 246.406 1257.2 247.562L1256.16 248.844C1254.86 248.062 1253.99 246.719 1253.51 245.109C1253.01 246.852 1252.11 248.336 1250.77 249.172L1249.71 247.875C1251.76 246.641 1252.65 244.078 1252.65 241.625V240.688H1250.2V239.281H1256.6V240.688H1254.32V241.625ZM1276.63 243.875V245.156H1271.07V246.188H1275.05V249.5H1267.02V250.469H1275.45V251.766H1265.32V248.312H1273.35V247.438H1265.3V246.188H1269.35V245.156H1263.82V243.875H1276.63ZM1271.07 237.734V238.922H1275.4V240.219H1271.26C1271.59 241.219 1273.23 241.969 1276.05 242.109L1275.54 243.406C1273.01 243.25 1271.1 242.562 1270.21 241.422C1269.32 242.562 1267.42 243.25 1264.87 243.406L1264.38 242.109C1267.17 241.969 1268.81 241.219 1269.18 240.219H1265.05V238.922H1269.35V237.734H1271.07Z" fill="#393939"/>
</g>
<path d="M1245.15 307.354C1245.34 307.549 1245.66 307.549 1245.85 307.354L1249.04 304.172C1249.23 303.976 1249.23 303.66 1249.04 303.464C1248.84 303.269 1248.52 303.269 1248.33 303.464L1245.5 306.293L1242.67 303.464C1242.48 303.269 1242.16 303.269 1241.96 303.464C1241.77 303.66 1241.77 303.976 1241.96 304.172L1245.15 307.354ZM1245 287.5V307H1246V287.5H1245Z" fill="#99A7BF"/>
<g filter="url(#filter9_d_478_27866)">
<rect x="1080.5" y="307" width="330" height="86" rx="8" fill="white" shape-rendering="crispEdges"/>
<path opacity="0.9" d="M1214.71 343.266V357.391H1213.04V350.141H1211.52V356.734H1209.9V343.641H1211.52V348.734H1213.04V343.266H1214.71ZM1208.7 345.047C1208.7 348.859 1207.49 352.141 1203.48 354.438L1202.48 353.234C1205.48 351.492 1206.76 349.258 1207.01 346.438H1203.13V345.047H1208.7ZM1221.55 345.766C1221.55 347.641 1222.68 349.469 1224.87 350.219L1223.91 351.578C1222.39 351 1221.3 349.898 1220.71 348.516C1220.09 350.062 1218.95 351.289 1217.29 351.906L1216.37 350.531C1218.63 349.766 1219.79 347.812 1219.8 345.75V344.141H1221.55V345.766ZM1228.24 343.281V353.766H1226.51V347.812H1223.7V346.391H1226.51V343.281H1228.24ZM1228.55 355.703V357.109H1218.93V352.625H1220.7V355.703H1228.55ZM1242.04 343.266V357.391H1240.29V343.266H1242.04ZM1237.82 344.766C1237.82 348.969 1236.2 352.547 1231.24 354.891L1230.34 353.5C1234.03 351.742 1235.75 349.352 1236.05 346.141H1231.05V344.766H1237.82ZM1255.84 343.266V357.391H1254.1V343.266H1255.84ZM1244.13 353.469C1245.26 353.461 1246.53 353.461 1247.87 353.422V352.125C1246.27 351.875 1245.24 350.898 1245.24 349.562C1245.24 347.969 1246.65 346.906 1248.71 346.906C1250.79 346.906 1252.23 347.969 1252.23 349.562C1252.23 350.891 1251.19 351.859 1249.6 352.109V353.359C1250.84 353.305 1252.09 353.203 1253.27 353.047L1253.4 354.344C1250.29 354.875 1246.93 354.906 1244.38 354.906L1244.13 353.469ZM1253.02 344.891V346.266H1244.43V344.891H1247.87V343.312H1249.6V344.891H1253.02ZM1248.71 348.234C1247.65 348.25 1246.88 348.734 1246.9 349.562C1246.88 350.375 1247.65 350.859 1248.71 350.844C1249.82 350.859 1250.55 350.375 1250.55 349.562C1250.55 348.734 1249.82 348.25 1248.71 348.234ZM1263.9 343.891V345.688H1267.2V343.891H1268.91V350.047H1262.18V343.891H1263.9ZM1263.9 348.672H1267.2V347H1263.9V348.672ZM1272.84 343.266V346.125H1274.8V347.531H1272.84V350.5H1271.1V343.266H1272.84ZM1272.84 351.062V354.766H1265.34V355.891H1273.27V357.266H1263.62V353.5H1271.1V352.422H1263.6V351.062H1272.84ZM1286.85 343.828V344.766C1286.85 345.664 1286.85 346.82 1286.59 348.219H1288.43V349.578H1282.8V351.078H1286.84V354.734H1278.76V355.891H1287.2V357.25H1277.02V353.531H1285.1V352.438H1277.01V351.078H1281.09V349.578H1275.52V348.219H1284.84C1285.07 346.984 1285.11 346.031 1285.12 345.203H1277.12V343.828H1286.85Z" fill="#393939"/>
</g>
<defs>
<filter id="filter0_d_478_27866" x="248.5" y="71" width="384" height="140" filterUnits="userSpaceOnUse" color-interpolation-filters="sRGB">
<feFlood flood-opacity="0" result="BackgroundImageFix"/>
<feColorMatrix in="SourceAlpha" type="matrix" values="0 0 0 0 0 0 0 0 0 0 0 0 0 0 0 0 0 0 127 0" result="hardAlpha"/>
<feOffset dx="2" dy="2"/>
<feGaussianBlur stdDeviation="13.5"/>
<feComposite in2="hardAlpha" operator="out"/>
<feColorMatrix type="matrix" values="0 0 0 0 0 0 0 0 0 0 0 0 0 0 0 0 0 0 0.08 0"/>
<feBlend mode="normal" in2="BackgroundImageFix" result="effect1_dropShadow_478_27866"/>
<feBlend mode="normal" in="SourceGraphic" in2="effect1_dropShadow_478_27866" result="shape"/>
</filter>
<filter id="filter1_d_478_27866" x="248.5" y="176.5" width="384" height="140" filterUnits="userSpaceOnUse" color-interpolation-filters="sRGB">
<feFlood flood-opacity="0" result="BackgroundImageFix"/>
<feColorMatrix in="SourceAlpha" type="matrix" values="0 0 0 0 0 0 0 0 0 0 0 0 0 0 0 0 0 0 127 0" result="hardAlpha"/>
<feOffset dx="2" dy="2"/>
<feGaussianBlur stdDeviation="13.5"/>
<feComposite in2="hardAlpha" operator="out"/>
<feColorMatrix type="matrix" values="0 0 0 0 0 0 0 0 0 0 0 0 0 0 0 0 0 0 0.08 0"/>
<feBlend mode="normal" in2="BackgroundImageFix" result="effect1_dropShadow_478_27866"/>
<feBlend mode="normal" in="SourceGraphic" in2="effect1_dropShadow_478_27866" result="shape"/>
</filter>
<filter id="filter2_d_478_27866" x="248.5" y="282" width="384" height="140" filterUnits="userSpaceOnUse" color-interpolation-filters="sRGB">
<feFlood flood-opacity="0" result="BackgroundImageFix"/>
<feColorMatrix in="SourceAlpha" type="matrix" values="0 0 0 0 0 0 0 0 0 0 0 0 0 0 0 0 0 0 127 0" result="hardAlpha"/>
<feOffset dx="2" dy="2"/>
<feGaussianBlur stdDeviation="13.5"/>
<feComposite in2="hardAlpha" operator="out"/>
<feColorMatrix type="matrix" values="0 0 0 0 0 0 0 0 0 0 0 0 0 0 0 0 0 0 0.08 0"/>
<feBlend mode="normal" in2="BackgroundImageFix" result="effect1_dropShadow_478_27866"/>
<feBlend mode="normal" in="SourceGraphic" in2="effect1_dropShadow_478_27866" result="shape"/>
</filter>
<filter id="filter3_d_478_27866" x="248.5" y="387.5" width="384" height="140" filterUnits="userSpaceOnUse" color-interpolation-filters="sRGB">
<feFlood flood-opacity="0" result="BackgroundImageFix"/>
<feColorMatrix in="SourceAlpha" type="matrix" values="0 0 0 0 0 0 0 0 0 0 0 0 0 0 0 0 0 0 127 0" result="hardAlpha"/>
<feOffset dx="2" dy="2"/>
<feGaussianBlur stdDeviation="13.5"/>
<feComposite in2="hardAlpha" operator="out"/>
<feColorMatrix type="matrix" values="0 0 0 0 0 0 0 0 0 0 0 0 0 0 0 0 0 0 0.08 0"/>
<feBlend mode="normal" in2="BackgroundImageFix" result="effect1_dropShadow_478_27866"/>
<feBlend mode="normal" in="SourceGraphic" in2="effect1_dropShadow_478_27866" result="shape"/>
</filter>
<filter id="filter4_d_478_27866" x="651.5" y="71" width="385" height="140" filterUnits="userSpaceOnUse" color-interpolation-filters="sRGB">
<feFlood flood-opacity="0" result="BackgroundImageFix"/>
<feColorMatrix in="SourceAlpha" type="matrix" values="0 0 0 0 0 0 0 0 0 0 0 0 0 0 0 0 0 0 127 0" result="hardAlpha"/>
<feOffset dx="2" dy="2"/>
<feGaussianBlur stdDeviation="13.5"/>
<feComposite in2="hardAlpha" operator="out"/>
<feColorMatrix type="matrix" values="0 0 0 0 0 0 0 0 0 0 0 0 0 0 0 0 0 0 0.08 0"/>
<feBlend mode="normal" in2="BackgroundImageFix" result="effect1_dropShadow_478_27866"/>
<feBlend mode="normal" in="SourceGraphic" in2="effect1_dropShadow_478_27866" result="shape"/>
</filter>
<filter id="filter5_d_478_27866" x="651.5" y="176.5" width="385" height="140" filterUnits="userSpaceOnUse" color-interpolation-filters="sRGB">
<feFlood flood-opacity="0" result="BackgroundImageFix"/>
<feColorMatrix in="SourceAlpha" type="matrix" values="0 0 0 0 0 0 0 0 0 0 0 0 0 0 0 0 0 0 127 0" result="hardAlpha"/>
<feOffset dx="2" dy="2"/>
<feGaussianBlur stdDeviation="13.5"/>
<feComposite in2="hardAlpha" operator="out"/>
<feColorMatrix type="matrix" values="0 0 0 0 0 0 0 0 0 0 0 0 0 0 0 0 0 0 0.08 0"/>
<feBlend mode="normal" in2="BackgroundImageFix" result="effect1_dropShadow_478_27866"/>
<feBlend mode="normal" in="SourceGraphic" in2="effect1_dropShadow_478_27866" result="shape"/>
</filter>
<filter id="filter6_d_478_27866" x="651.5" y="282" width="385" height="140" filterUnits="userSpaceOnUse" color-interpolation-filters="sRGB">
<feFlood flood-opacity="0" result="BackgroundImageFix"/>
<feColorMatrix in="SourceAlpha" type="matrix" values="0 0 0 0 0 0 0 0 0 0 0 0 0 0 0 0 0 0 127 0" result="hardAlpha"/>
<feOffset dx="2" dy="2"/>
<feGaussianBlur stdDeviation="13.5"/>
<feComposite in2="hardAlpha" operator="out"/>
<feColorMatrix type="matrix" values="0 0 0 0 0 0 0 0 0 0 0 0 0 0 0 0 0 0 0.08 0"/>
<feBlend mode="normal" in2="BackgroundImageFix" result="effect1_dropShadow_478_27866"/>
<feBlend mode="normal" in="SourceGraphic" in2="effect1_dropShadow_478_27866" result="shape"/>
</filter>
<filter id="filter7_d_478_27866" x="1055.5" y="71" width="384" height="140" filterUnits="userSpaceOnUse" color-interpolation-filters="sRGB">
<feFlood flood-opacity="0" result="BackgroundImageFix"/>
<feColorMatrix in="SourceAlpha" type="matrix" values="0 0 0 0 0 0 0 0 0 0 0 0 0 0 0 0 0 0 127 0" result="hardAlpha"/>
<feOffset dx="2" dy="2"/>
<feGaussianBlur stdDeviation="13.5"/>
<feComposite in2="hardAlpha" operator="out"/>
<feColorMatrix type="matrix" values="0 0 0 0 0 0 0 0 0 0 0 0 0 0 0 0 0 0 0.08 0"/>
<feBlend mode="normal" in2="BackgroundImageFix" result="effect1_dropShadow_478_27866"/>
<feBlend mode="normal" in="SourceGraphic" in2="effect1_dropShadow_478_27866" result="shape"/>
</filter>
<filter id="filter8_d_478_27866" x="1055.5" y="176.5" width="384" height="140" filterUnits="userSpaceOnUse" color-interpolation-filters="sRGB">
<feFlood flood-opacity="0" result="BackgroundImageFix"/>
<feColorMatrix in="SourceAlpha" type="matrix" values="0 0 0 0 0 0 0 0 0 0 0 0 0 0 0 0 0 0 127 0" result="hardAlpha"/>
<feOffset dx="2" dy="2"/>
<feGaussianBlur stdDeviation="13.5"/>
<feComposite in2="hardAlpha" operator="out"/>
<feColorMatrix type="matrix" values="0 0 0 0 0 0 0 0 0 0 0 0 0 0 0 0 0 0 0.08 0"/>
<feBlend mode="normal" in2="BackgroundImageFix" result="effect1_dropShadow_478_27866"/>
<feBlend mode="normal" in="SourceGraphic" in2="effect1_dropShadow_478_27866" result="shape"/>
</filter>
<filter id="filter9_d_478_27866" x="1055.5" y="282" width="384" height="140" filterUnits="userSpaceOnUse" color-interpolation-filters="sRGB">
<feFlood flood-opacity="0" result="BackgroundImageFix"/>
<feColorMatrix in="SourceAlpha" type="matrix" values="0 0 0 0 0 0 0 0 0 0 0 0 0 0 0 0 0 0 127 0" result="hardAlpha"/>
<feOffset dx="2" dy="2"/>
<feGaussianBlur stdDeviation="13.5"/>
<feComposite in2="hardAlpha" operator="out"/>
<feColorMatrix type="matrix" values="0 0 0 0 0 0 0 0 0 0 0 0 0 0 0 0 0 0 0.08 0"/>
<feBlend mode="normal" in2="BackgroundImageFix" result="effect1_dropShadow_478_27866"/>
<feBlend mode="normal" in="SourceGraphic" in2="effect1_dropShadow_478_27866" result="shape"/>
</filter>
<linearGradient id="paint0_linear_478_27866" x1="244" y1="28" x2="1441.5" y2="28" gradientUnits="userSpaceOnUse">
<stop stop-color="#00BEF2"/>
<stop offset="0.3" stop-color="#0568CC"/>
<stop offset="0.6" stop-color="#07398F"/>
<stop offset="0.9" stop-color="#04255F"/>
</linearGradient>
</defs>
</svg>
