<svg width="110" height="38" viewBox="0 0 110 38" fill="none" xmlns="http://www.w3.org/2000/svg">
<rect width="109" height="38" transform="translate(0.5)" fill="#F9F9F9"/>
<path d="M9.5918 5.10156V15H7.81445L3.4668 8.71094H3.38477V15H1.33398V5.10156H3.13867L7.45898 11.3906H7.55469V5.10156H9.5918ZM14.582 15.1504C12.3125 15.1504 10.918 13.6738 10.918 11.3223C10.918 9.02539 12.3262 7.48047 14.5 7.48047C16.4551 7.48047 17.9863 8.71094 17.9863 11.2402V11.8145H12.9141C12.9141 12.9355 13.584 13.6328 14.623 13.6328C15.3066 13.6328 15.7988 13.332 16.0039 12.8809H17.9316C17.6445 14.248 16.4141 15.1504 14.582 15.1504ZM12.9141 10.543H16.0723C16.0723 9.64062 15.4434 8.99805 14.541 8.99805C13.6113 8.99805 12.9482 9.68848 12.9141 10.543ZM23.168 7.57617V9.09375H21.7734V12.7168C21.7734 13.3047 22.0605 13.4551 22.4707 13.4688C22.6758 13.4688 23.0312 13.4551 23.2773 13.4277V15.0273C23.0586 15.0684 22.7031 15.0957 22.1973 15.0957C20.7344 15.0957 19.7363 14.4395 19.75 13.0039V9.09375H18.7246V7.57617H19.75V5.79883H21.7734V7.57617H23.168ZM28.8145 10.1191V11.7324H24.3027V10.1191H28.8145ZM30.4141 15V13.7695L35.377 6.79688H30.4004V5.10156H37.9473V6.33203L32.998 13.3047H37.9609V15H30.4141ZM42.8281 15.1504C40.5586 15.1504 39.1641 13.6738 39.1641 11.3223C39.1641 9.02539 40.5723 7.48047 42.7461 7.48047C44.7012 7.48047 46.2324 8.71094 46.2324 11.2402V11.8145H41.1602C41.1602 12.9355 41.8301 13.6328 42.8691 13.6328C43.5527 13.6328 44.0449 13.332 44.25 12.8809H46.1777C45.8906 14.248 44.6602 15.1504 42.8281 15.1504ZM41.1602 10.543H44.3184C44.3184 9.64062 43.6895 8.99805 42.7871 8.99805C41.8574 8.99805 41.1943 9.68848 41.1602 10.543ZM47.5039 15V7.57617H49.459V8.86133H49.541C49.8145 7.94531 50.498 7.4668 51.332 7.4668C51.5371 7.4668 51.7969 7.49414 51.9746 7.53516V9.33984C51.7832 9.28516 51.4004 9.23047 51.1133 9.23047C50.1973 9.23047 49.5273 9.87305 49.5273 10.7754V15H47.5039ZM56.0625 15.1504C53.8203 15.1504 52.4258 13.6055 52.4258 11.3086C52.4258 9.01172 53.8203 7.48047 56.0625 7.48047C58.3047 7.48047 59.7129 9.01172 59.7129 11.3086C59.7129 13.6055 58.3047 15.1504 56.0625 15.1504ZM56.0762 13.5781C57.1152 13.5781 57.6484 12.6074 57.6484 11.3086C57.6484 9.99609 57.1152 9.02539 56.0762 9.02539C55.0234 9.02539 54.4766 9.99609 54.4766 11.3086C54.4766 12.6074 55.0234 13.5781 56.0762 13.5781ZM1.33398 22.1016H3.87695L6.625 28.8145H6.73438L9.48242 22.1016H12.0254V32H10.0293V25.5195H9.94727L7.36328 31.959H5.99609L3.41211 25.4922H3.33008V32H1.33398V22.1016ZM13.2969 29.9219C13.2969 28.2676 14.6367 27.7207 16.0586 27.6387C16.5918 27.6045 17.5898 27.5566 17.9043 27.543V26.9414C17.8906 26.3262 17.4668 25.957 16.7148 25.957C16.0312 25.957 15.5938 26.2715 15.4844 26.7773H13.5566C13.6797 25.4922 14.8008 24.4805 16.7695 24.4805C18.3828 24.4805 19.9141 25.2051 19.9141 26.9961V32H18V30.9746H17.9453C17.5762 31.6582 16.8789 32.1367 15.7715 32.1367C14.3496 32.1367 13.2969 31.3984 13.2969 29.9219ZM15.2383 29.8672C15.2383 30.4414 15.7031 30.7422 16.3457 30.7422C17.2617 30.7422 17.918 30.127 17.9043 29.3477V28.8008C17.5967 28.8145 16.7354 28.8623 16.3867 28.8965C15.6895 28.9648 15.2383 29.293 15.2383 29.8672ZM23.4824 27.707V32H21.459V24.5762H23.3867V25.875H23.4688C23.8105 25.0137 24.6035 24.4805 25.6973 24.4805C27.2422 24.4805 28.2676 25.5332 28.2539 27.2695V32H26.2441V27.625C26.2441 26.709 25.7383 26.1621 24.9043 26.1621C24.0566 26.1621 23.4824 26.7227 23.4824 27.707ZM29.4707 29.9219C29.4707 28.2676 30.8105 27.7207 32.2324 27.6387C32.7656 27.6045 33.7637 27.5566 34.0781 27.543V26.9414C34.0645 26.3262 33.6406 25.957 32.8887 25.957C32.2051 25.957 31.7676 26.2715 31.6582 26.7773H29.7305C29.8535 25.4922 30.9746 24.4805 32.9434 24.4805C34.5566 24.4805 36.0879 25.2051 36.0879 26.9961V32H34.1738V30.9746H34.1191C33.75 31.6582 33.0527 32.1367 31.9453 32.1367C30.5234 32.1367 29.4707 31.3984 29.4707 29.9219ZM31.4121 29.8672C31.4121 30.4414 31.877 30.7422 32.5195 30.7422C33.4355 30.7422 34.0918 30.127 34.0781 29.3477V28.8008C33.7705 28.8145 32.9092 28.8623 32.5605 28.8965C31.8633 28.9648 31.4121 29.293 31.4121 29.8672ZM40.9688 34.9395C38.918 34.9395 37.6602 34.0234 37.5371 32.6152H39.5332C39.6426 33.2031 40.2031 33.4766 41.0098 33.4766C41.9531 33.4766 42.582 33.0801 42.582 32.041V30.6875H42.4863C42.2129 31.2891 41.5566 31.8906 40.3672 31.8906C38.6855 31.8906 37.3457 30.7148 37.3457 28.2402C37.3457 25.7246 38.7266 24.4805 40.3672 24.4805C41.6113 24.4805 42.2129 25.2188 42.4863 25.8203H42.5684V24.5762H44.5781V32.082C44.5781 33.9688 43.0742 34.9395 40.9688 34.9395ZM40.9961 30.373C42.0078 30.373 42.582 29.5801 42.582 28.2676C42.582 26.9414 42.0078 26.0938 40.9961 26.0938C39.9707 26.0938 39.4238 26.9824 39.4238 28.2676C39.4238 29.5527 39.9707 30.373 40.9961 30.373ZM49.5137 32.1504C47.2441 32.1504 45.8496 30.6738 45.8496 28.3223C45.8496 26.0254 47.2578 24.4805 49.4316 24.4805C51.3867 24.4805 52.918 25.7109 52.918 28.2402V28.8145H47.8457C47.8457 29.9355 48.5156 30.6328 49.5547 30.6328C50.2383 30.6328 50.7305 30.332 50.9355 29.8809H52.8633C52.5762 31.248 51.3457 32.1504 49.5137 32.1504ZM47.8457 27.543H51.0039C51.0039 26.6406 50.375 25.998 49.4727 25.998C48.543 25.998 47.8799 26.6885 47.8457 27.543ZM54.1895 32V24.5762H56.1172V25.875H56.1992C56.5137 25.0137 57.2656 24.4805 58.2637 24.4805C59.2891 24.4805 60.041 25.0137 60.2871 25.875H60.3555C60.6699 25.0273 61.5039 24.4805 62.5977 24.4805C63.9785 24.4805 64.9355 25.3965 64.9355 27.0098V32H62.9121V27.4062C62.9121 26.5586 62.4199 26.1484 61.75 26.1484C60.9844 26.1484 60.5469 26.6816 60.5469 27.4609V32H58.5781V27.3516C58.5781 26.6133 58.1133 26.1484 57.4297 26.1484C56.7461 26.1484 56.2129 26.6953 56.2129 27.543V32H54.1895ZM69.8574 32.1504C67.5879 32.1504 66.1934 30.6738 66.1934 28.3223C66.1934 26.0254 67.6016 24.4805 69.7754 24.4805C71.7305 24.4805 73.2617 25.7109 73.2617 28.2402V28.8145H68.1895C68.1895 29.9355 68.8594 30.6328 69.8984 30.6328C70.582 30.6328 71.0742 30.332 71.2793 29.8809H73.207C72.9199 31.248 71.6895 32.1504 69.8574 32.1504ZM68.1895 27.543H71.3477C71.3477 26.6406 70.7188 25.998 69.8164 25.998C68.8867 25.998 68.2236 26.6885 68.1895 27.543ZM76.5566 27.707V32H74.5332V24.5762H76.4609V25.875H76.543C76.8848 25.0137 77.6777 24.4805 78.7715 24.4805C80.3164 24.4805 81.3418 25.5332 81.3281 27.2695V32H79.3184V27.625C79.3184 26.709 78.8125 26.1621 77.9785 26.1621C77.1309 26.1621 76.5566 26.7227 76.5566 27.707ZM86.8105 24.5762V26.0938H85.416V29.7168C85.416 30.3047 85.7031 30.4551 86.1133 30.4688C86.3184 30.4688 86.6738 30.4551 86.9199 30.4277V32.0273C86.7012 32.0684 86.3457 32.0957 85.8398 32.0957C84.377 32.0957 83.3789 31.4395 83.3926 30.0039V26.0938H82.3672V24.5762H83.3926V22.7988H85.416V24.5762H86.8105Z" fill="#393939"/>
<path d="M97.4154 22.7503L101.582 18.5837L97.4154 14.417" stroke="#222222" stroke-width="1.875" stroke-linecap="round" stroke-linejoin="round"/>
</svg>
