<svg width="24" height="24" viewBox="0 0 24 24" fill="none" xmlns="http://www.w3.org/2000/svg">
<g clip-path="url(#clip0_6431_22388)">
<path d="M2 21.5H13C14.1819 21.5 15.3522 21.2672 16.4442 20.8149C17.5361 20.3626 18.5282 19.6997 19.364 18.864C20.1997 18.0282 20.8626 17.0361 21.3149 15.9442C21.7672 14.8522 22 13.6819 22 12.5C22 11.3181 21.7672 10.1478 21.3149 9.05585C20.8626 7.96392 20.1997 6.97177 19.364 6.13604C18.5282 5.30031 17.5361 4.63738 16.4442 4.18508C15.3522 3.73279 14.1819 3.5 13 3.5C8.367 3.5 4.497 7 4 11.5M18.5 5L19.5 4M5.5 4L6.5 5" stroke="black" stroke-width="1.5" stroke-linecap="round" stroke-linejoin="round"/>
<path d="M16.5 8.5L13.56 11.44C13.4216 11.2967 13.2561 11.1825 13.0731 11.1038C12.8901 11.0252 12.6933 10.9839 12.4941 10.9821C12.2949 10.9804 12.0974 11.0183 11.9131 11.0938C11.7287 11.1692 11.5612 11.2806 11.4204 11.4214C11.2796 11.5622 11.1682 11.7297 11.0928 11.9141C11.0173 12.0984 10.9794 12.2959 10.9811 12.4951C10.9829 12.6943 11.0242 12.8911 11.1028 13.0741C11.1815 13.2571 11.2957 13.4226 11.439 13.561C11.7204 13.8424 12.102 14.0005 12.5 14.0005C12.898 14.0005 13.2796 13.8424 13.561 13.561C13.8424 13.2796 14.0005 12.898 14.0005 12.5C14.0005 12.102 13.8424 11.7204 13.561 11.439M12.5 3V1.5M10.5 1.5H14.5M2 14.5H5M2 18.5H7" stroke="black" stroke-width="1.5" stroke-linecap="round" stroke-linejoin="round"/>
</g>
<defs>
<clipPath id="clip0_6431_22388">
<rect width="24" height="24" fill="white"/>
</clipPath>
</defs>
</svg>
