<svg width="32" height="32" viewBox="0 0 32 32" fill="none" xmlns="http://www.w3.org/2000/svg">
<path fill-rule="evenodd" clip-rule="evenodd" d="M6 9.25C6 8.55964 6.55964 8 7.25 8H24.75C25.4404 8 26 8.55964 26 9.25C26 9.94036 25.4404 10.5 24.75 10.5H7.25C6.55964 10.5 6 9.94036 6 9.25ZM6 22.25C6 21.5596 6.55964 21 7.25 21H24.75C25.4404 21 26 21.5596 26 22.25C26 22.9404 25.4404 23.5 24.75 23.5H7.25C6.55964 23.5 6 22.9404 6 22.25ZM10.25 14.5C9.55964 14.5 9 15.0596 9 15.75C9 16.4404 9.55964 17 10.25 17H24.75C25.4404 17 26 16.4404 26 15.75C26 15.0596 25.4404 14.5 24.75 14.5H10.25Z" fill="black"/>
</svg>
