<svg width="375" height="392" viewBox="0 0 375 392" fill="none" xmlns="http://www.w3.org/2000/svg">
<rect width="375" height="80" fill="white"/>
<path d="M31.9043 36.2207C31.7754 34.8887 30.6367 34.1152 28.9609 34.1152C27.1992 34.1152 26.125 34.9746 26.125 36.1348C26.125 37.4453 27.5 37.9824 28.7891 38.2832L30.25 38.6699C32.5703 39.207 34.8047 40.4316 34.8047 43.1387C34.8047 45.8672 32.6562 47.7363 28.918 47.7363C25.2871 47.7363 23.0098 45.9961 22.8809 42.9238H25.6309C25.7598 44.5566 27.1348 45.3516 28.8965 45.3516C30.7441 45.3516 32.0117 44.4492 32.0117 43.1172C32.0117 41.8926 30.873 41.377 29.1973 40.9473L27.4355 40.4961C24.8789 39.8301 23.2891 38.541 23.2891 36.3066C23.2891 33.5566 25.7383 31.7305 29.0039 31.7305C32.3125 31.7305 34.5469 33.5996 34.5898 36.2207H31.9043ZM37.125 47.5V31.9453H47.2441V34.2871H39.918V38.541H46.707V40.8828H39.918V45.1367H47.2871V47.5H37.125ZM49.9297 47.5V31.9453H55.7734C59.3398 31.9453 61.252 33.9434 61.252 36.9082C61.252 39.0244 60.2852 40.5928 58.459 41.334L61.8105 47.5H58.6953L55.6445 41.8066H52.7227V47.5H49.9297ZM52.7227 39.4648H55.3438C57.4492 39.4648 58.3945 38.5625 58.3945 36.9082C58.3945 35.2539 57.4492 34.2871 55.3438 34.2871H52.7227V39.4648ZM65.3125 31.9453L69.3516 44.2129H69.5234L73.584 31.9453H76.6562L71.1562 47.5H67.7188L62.2402 31.9453H65.3125ZM81.2969 31.9453V47.5H78.5039V31.9453H81.2969ZM94.6816 37.1875C94.3594 35.3184 92.8555 34.2441 90.9648 34.2441C88.4082 34.2441 86.625 36.1992 86.625 39.7227C86.625 43.2891 88.4297 45.2012 90.9648 45.2012C92.8125 45.2012 94.3164 44.1699 94.6816 42.3438H97.4961C97.0664 45.3301 94.6172 47.7148 90.9219 47.7148C86.8184 47.7148 83.8105 44.7285 83.8105 39.7227C83.8105 34.6953 86.8613 31.7305 90.9219 31.7305C94.3594 31.7305 97.0234 33.7285 97.4961 37.1875H94.6816ZM99.9023 47.5V31.9453H110.021V34.2871H102.695V38.541H109.484V40.8828H102.695V45.1367H110.064V47.5H99.9023Z" fill="#0568CC"/>
<rect x="333.5" y="39.25" width="15" height="2" rx="1" fill="black"/>
<rect width="375" height="312" transform="translate(0 80)" fill="#F9F9F9"/>
<path d="M43.7695 121.151C43.6533 120.039 42.6738 119.392 41.2959 119.392C39.8184 119.392 38.8887 120.139 38.8887 121.168C38.8887 122.313 40.1338 122.745 41.0801 122.978L42.2422 123.293C43.7861 123.658 45.6953 124.505 45.7119 126.68C45.6953 128.705 44.085 130.199 41.2461 130.199C38.5566 130.199 36.8633 128.854 36.7471 126.663H38.5732C38.6895 127.975 39.835 128.605 41.2461 128.605C42.7734 128.605 43.8857 127.825 43.9023 126.646C43.8857 125.601 42.9062 125.169 41.6279 124.837L40.2002 124.455C38.2744 123.924 37.0625 122.944 37.0625 121.268C37.0625 119.192 38.9219 117.814 41.3457 117.814C43.7861 117.814 45.4961 119.209 45.5459 121.151H43.7695ZM51.4062 130.183C48.75 130.183 47.123 128.356 47.123 125.551C47.123 122.778 48.7832 120.869 51.29 120.869C53.3486 120.869 55.291 122.147 55.291 125.401V126.032H48.8828C48.9326 127.742 49.937 128.722 51.4229 128.722C52.4355 128.722 53.083 128.29 53.3818 127.742H55.1748C54.7764 129.203 53.3818 130.183 51.4062 130.183ZM48.8994 124.704H53.5479C53.5479 123.326 52.668 122.33 51.3066 122.33C49.8872 122.33 48.9658 123.426 48.8994 124.704ZM57.0508 130V120.985H58.7607V122.413H58.8604C59.1924 121.45 60.0889 120.853 61.1514 120.853C61.3672 120.853 61.7158 120.869 61.8984 120.886V122.579C61.749 122.546 61.334 122.479 60.9688 122.479C59.7402 122.479 58.8271 123.326 58.8271 124.505V130H57.0508ZM71.2451 120.985L67.9746 130H66.0654L62.7949 120.985H64.7041L66.9785 127.908H67.0615L69.3359 120.985H71.2451ZM72.6895 130V120.985H74.4658V130H72.6895ZM73.5859 119.591C72.9717 119.591 72.457 119.126 72.457 118.545C72.457 117.964 72.9717 117.499 73.5859 117.499C74.1836 117.499 74.6982 117.964 74.6982 118.545C74.6982 119.126 74.1836 119.591 73.5859 119.591ZM80.4424 130.183C77.8193 130.183 76.2256 128.24 76.2256 125.534C76.2256 122.778 77.8691 120.869 80.4092 120.869C82.4678 120.869 83.9619 122.081 84.1445 123.907H82.418C82.2354 123.061 81.5547 122.347 80.4424 122.347C78.9814 122.347 78.002 123.559 78.002 125.484C78.002 127.46 78.9648 128.672 80.4424 128.672C81.4385 128.672 82.2021 128.124 82.418 127.145H84.1445C83.9453 128.888 82.5674 130.183 80.4424 130.183ZM89.7061 130.183C87.0498 130.183 85.4229 128.356 85.4229 125.551C85.4229 122.778 87.083 120.869 89.5898 120.869C91.6484 120.869 93.5908 122.147 93.5908 125.401V126.032H87.1826C87.2324 127.742 88.2368 128.722 89.7227 128.722C90.7354 128.722 91.3828 128.29 91.6816 127.742H93.4746C93.0762 129.203 91.6816 130.183 89.7061 130.183ZM87.1992 124.704H91.8477C91.8477 123.326 90.9678 122.33 89.6064 122.33C88.187 122.33 87.2656 123.426 87.1992 124.704ZM112.583 128.224V129.519H98.9697V128.224H104.93V124.688H106.49V128.224H112.583ZM106.523 118.611C106.523 120.969 109.113 123.177 111.985 123.658L111.305 124.953C108.897 124.472 106.681 122.986 105.693 120.936C104.714 122.978 102.522 124.488 100.132 124.953L99.4346 123.658C102.29 123.177 104.863 120.969 104.863 118.611V117.482H106.523V118.611ZM126.396 116.536V131.411H124.885V123.691H123.042V130.697H121.564V116.935H123.042V122.413H124.885V116.536H126.396ZM120.087 118.429C120.07 122.347 118.775 125.85 114.525 128.257L113.612 127.161C116.916 125.293 118.311 122.762 118.56 119.724H114.243V118.429H120.087Z" fill="#393939"/>
<path d="M37.2285 175V162.98H44.7656V164.558H39.0547V168.193H44.3672V169.754H39.0547V173.423H44.832V175H37.2285ZM53.5479 166.151C53.4316 165.039 52.4521 164.392 51.0742 164.392C49.5967 164.392 48.667 165.139 48.667 166.168C48.667 167.313 49.9121 167.745 50.8584 167.978L52.0205 168.293C53.5645 168.658 55.4736 169.505 55.4902 171.68C55.4736 173.705 53.8633 175.199 51.0244 175.199C48.335 175.199 46.6416 173.854 46.5254 171.663H48.3516C48.4678 172.975 49.6133 173.605 51.0244 173.605C52.5518 173.605 53.6641 172.825 53.6807 171.646C53.6641 170.601 52.6846 170.169 51.4062 169.837L49.9785 169.455C48.0527 168.924 46.8408 167.944 46.8408 166.268C46.8408 164.192 48.7002 162.814 51.124 162.814C53.5645 162.814 55.2744 164.209 55.3242 166.151H53.5479ZM65.5674 166.782C65.1191 165.354 64.04 164.491 62.4463 164.491C60.4209 164.491 58.8604 166.085 58.8604 168.99C58.8604 171.896 60.4043 173.489 62.5293 173.489C64.4468 173.489 65.7168 172.277 65.75 170.352H62.7949V168.841H67.5264V170.202C67.5264 173.24 65.4346 175.166 62.5127 175.166C59.2588 175.166 57.0508 172.792 57.0508 168.99C57.0508 165.155 59.3252 162.814 62.4297 162.814C65.0361 162.814 67.0283 164.441 67.4434 166.782H65.5674ZM78.6162 164.641C78.6162 166.566 80.0439 168.376 82.335 169.106L81.5215 170.335C79.8115 169.771 78.5166 168.6 77.8525 167.114C77.1802 168.733 75.8604 170.011 74.084 170.634L73.2705 169.389C75.5781 168.608 77.0059 166.683 77.0225 164.641V163.993H73.6855V162.715H81.8867V163.993H78.6162V164.641ZM85.4395 161.553V172.41H83.8623V161.553H85.4395ZM85.8877 174.817V176.096H75.7109V171.381H77.3047V174.817H85.8877ZM99.4844 161.52V165.836H101.659V167.147H99.4844V172.294H97.9072V161.52H99.4844ZM95.1016 162.798V164.076H90.0215V168.409C92.9185 168.417 94.5537 168.326 96.4131 167.944L96.5957 169.223C94.5869 169.621 92.8271 169.721 89.6396 169.721H88.4609V162.798H95.1016ZM100.115 174.817V176.096H90.0547V171.182H91.6318V174.817H100.115ZM114.409 162.715C114.393 166.666 112.483 169.521 107.619 171.132L106.988 169.887C109.412 169.098 110.939 168.027 111.819 166.716L107.188 167.098L106.938 165.819L112.4 165.587C112.583 165.081 112.699 164.549 112.749 163.993H107.686V162.715H114.409ZM119.041 161.553V172.56H117.464V167.496H114.359V166.201H117.464V161.553H119.041ZM119.456 174.817V176.096H109.512V171.48H111.105V174.817H119.456ZM133.733 161.536V169.189H132.156V165.371H129.019V164.093H132.156V161.536H133.733ZM133.733 169.887V173.589H125.582V174.967H134.248V176.229H124.038V172.394H132.173V171.132H124.005V169.887H133.733ZM126.562 163.312C126.562 165.205 127.923 166.965 130.164 167.679L129.334 168.907C127.699 168.343 126.462 167.222 125.814 165.803C125.159 167.396 123.88 168.65 122.129 169.256L121.282 167.994C123.606 167.247 124.984 165.404 125.001 163.312V162.018H126.562V163.312ZM144.026 162.615V163.877H138.465V165.521H143.611V166.766H138.465V168.459C141.445 168.476 143.18 168.426 145.188 168.077L145.354 169.355C143.196 169.704 141.354 169.754 138.1 169.754H136.871V162.615H144.026ZM148.359 161.553V170.7H146.782V161.553H148.359ZM143.379 170.899C146.5 170.899 148.442 171.912 148.442 173.639C148.442 175.382 146.5 176.395 143.379 176.378C140.225 176.395 138.315 175.382 138.315 173.639C138.315 171.912 140.225 170.899 143.379 170.899ZM143.379 172.145C141.154 172.145 139.893 172.692 139.893 173.639C139.893 174.618 141.154 175.166 143.379 175.166C145.554 175.166 146.865 174.618 146.865 173.639C146.865 172.692 145.554 172.145 143.379 172.145Z" fill="#393939"/>
<path d="M37.2285 220V207.98H44.7656V209.558H39.0547V213.193H44.3672V214.754H39.0547V218.423H44.832V220H37.2285ZM53.5479 211.151C53.4316 210.039 52.4521 209.392 51.0742 209.392C49.5967 209.392 48.667 210.139 48.667 211.168C48.667 212.313 49.9121 212.745 50.8584 212.978L52.0205 213.293C53.5645 213.658 55.4736 214.505 55.4902 216.68C55.4736 218.705 53.8633 220.199 51.0244 220.199C48.335 220.199 46.6416 218.854 46.5254 216.663H48.3516C48.4678 217.975 49.6133 218.605 51.0244 218.605C52.5518 218.605 53.6641 217.825 53.6807 216.646C53.6641 215.601 52.6846 215.169 51.4062 214.837L49.9785 214.455C48.0527 213.924 46.8408 212.944 46.8408 211.268C46.8408 209.192 48.7002 207.814 51.124 207.814C53.5645 207.814 55.2744 209.209 55.3242 211.151H53.5479ZM65.5674 211.782C65.1191 210.354 64.04 209.491 62.4463 209.491C60.4209 209.491 58.8604 211.085 58.8604 213.99C58.8604 216.896 60.4043 218.489 62.5293 218.489C64.4468 218.489 65.7168 217.277 65.75 215.352H62.7949V213.841H67.5264V215.202C67.5264 218.24 65.4346 220.166 62.5127 220.166C59.2588 220.166 57.0508 217.792 57.0508 213.99C57.0508 210.155 59.3252 207.814 62.4297 207.814C65.0361 207.814 67.0283 209.441 67.4434 211.782H65.5674ZM79.8115 215.883C83.0322 215.883 85.0576 216.896 85.0742 218.639C85.0576 220.365 83.0322 221.395 79.8115 221.378C76.624 221.395 74.582 220.365 74.582 218.639C74.582 216.896 76.624 215.883 79.8115 215.883ZM79.8115 217.078C77.5537 217.078 76.1426 217.659 76.1592 218.639C76.1426 219.602 77.5537 220.166 79.8115 220.166C82.0859 220.166 83.4971 219.602 83.5137 218.639C83.4971 217.659 82.0859 217.078 79.8115 217.078ZM84.958 207.267V208.512C84.958 209.707 84.958 210.936 84.543 212.463L82.999 212.297C83.3975 210.778 83.3975 209.682 83.3975 208.528H74.6982V207.267H84.958ZM86.6514 213.376V214.654H73.1211V213.376H78.5498V210.587H80.0938V213.376H86.6514ZM91.084 215.02V216.879H98.1064V215.02H99.6504V221.229H89.5234V215.02H91.084ZM91.084 219.934H98.1064V218.107H91.084V219.934ZM99.6836 207.184V208.312C99.6836 209.45 99.6836 210.728 99.3018 212.529H101.41V213.808H87.7969V212.529H97.7578C98.1064 210.819 98.123 209.566 98.123 208.479H89.5068V207.184H99.6836ZM110.026 207.648V214.123H103.07V207.648H110.026ZM104.614 208.91V212.845H108.482V208.91H104.614ZM114.177 206.536V210.139H116.335V211.434H114.177V215.269H112.6V206.536H114.177ZM109.379 215.733C112.417 215.733 114.31 216.796 114.31 218.556C114.31 220.349 112.417 221.395 109.379 221.411C106.308 221.395 104.382 220.349 104.382 218.556C104.382 216.796 106.308 215.733 109.379 215.733ZM109.379 216.995C107.221 216.995 105.942 217.576 105.959 218.556C105.942 219.585 107.221 220.133 109.379 220.149C111.521 220.133 112.766 219.585 112.766 218.556C112.766 217.576 111.521 216.995 109.379 216.995ZM126.844 209.641C126.844 211.566 128.271 213.376 130.562 214.106L129.749 215.335C128.039 214.771 126.744 213.6 126.08 212.114C125.408 213.733 124.088 215.011 122.312 215.634L121.498 214.389C123.806 213.608 125.233 211.683 125.25 209.641V208.993H121.913V207.715H130.114V208.993H126.844V209.641ZM133.667 206.553V217.41H132.09V206.553H133.667ZM134.115 219.817V221.096H123.938V216.381H125.532V219.817H134.115ZM147.712 206.52V210.836H149.887V212.147H147.712V217.294H146.135V206.52H147.712ZM143.329 207.798V209.076H138.249V213.409C141.146 213.417 142.781 213.326 144.641 212.944L144.823 214.223C142.814 214.621 141.055 214.721 137.867 214.721H136.688V207.798H143.329ZM148.343 219.817V221.096H138.282V216.182H139.859V219.817H148.343ZM162.637 207.715C162.62 211.666 160.711 214.521 155.847 216.132L155.216 214.887C157.64 214.098 159.167 213.027 160.047 211.716L155.415 212.098L155.166 210.819L160.628 210.587C160.811 210.081 160.927 209.549 160.977 208.993H155.913V207.715H162.637ZM167.269 206.553V217.56H165.691V212.496H162.587V211.201H165.691V206.553H167.269ZM167.684 219.817V221.096H157.739V216.48H159.333V219.817H167.684ZM181.961 206.536V214.189H180.384V210.371H177.246V209.093H180.384V206.536H181.961ZM181.961 214.887V218.589H173.81V219.967H182.476V221.229H172.266V217.394H180.4V216.132H172.232V214.887H181.961ZM174.789 208.312C174.789 210.205 176.15 211.965 178.392 212.679L177.562 213.907C175.926 213.343 174.689 212.222 174.042 210.803C173.386 212.396 172.108 213.65 170.356 214.256L169.51 212.994C171.834 212.247 173.212 210.404 173.229 208.312V207.018H174.789V208.312ZM192.254 207.615V208.877H186.692V210.521H191.839V211.766H186.692V213.459C189.672 213.476 191.407 213.426 193.416 213.077L193.582 214.355C191.424 214.704 189.581 214.754 186.327 214.754H185.099V207.615H192.254ZM196.587 206.553V215.7H195.01V206.553H196.587ZM191.606 215.899C194.728 215.899 196.67 216.912 196.67 218.639C196.67 220.382 194.728 221.395 191.606 221.378C188.452 221.395 186.543 220.382 186.543 218.639C186.543 216.912 188.452 215.899 191.606 215.899ZM191.606 217.145C189.382 217.145 188.12 217.692 188.12 218.639C188.12 219.618 189.382 220.166 191.606 220.166C193.781 220.166 195.093 219.618 195.093 218.639C195.093 217.692 193.781 217.145 191.606 217.145Z" fill="#393939"/>
<path d="M46.9238 252.98V265H45.2471L39.1543 256.218H39.0547V265H37.2285V252.98H38.9219L45.0146 261.779H45.1309V252.98H46.9238ZM53.1162 265.183C50.46 265.183 48.833 263.356 48.833 260.551C48.833 257.778 50.4932 255.869 53 255.869C55.0586 255.869 57.001 257.147 57.001 260.401V261.032H50.5928C50.6426 262.742 51.647 263.722 53.1328 263.722C54.1455 263.722 54.793 263.29 55.0918 262.742H56.8848C56.4863 264.203 55.0918 265.183 53.1162 265.183ZM50.6094 259.704H55.2578C55.2578 258.326 54.3779 257.33 53.0166 257.33C51.5972 257.33 50.6758 258.426 50.6094 259.704ZM62.9775 255.985V257.396H61.1348V262.344C61.1348 263.356 61.6494 263.539 62.2139 263.556C62.4629 263.556 62.8613 263.522 63.1104 263.506V265.05C62.8613 265.083 62.4795 265.116 61.998 265.116C60.6035 265.116 59.3584 264.353 59.375 262.709V257.396H58.0469V255.985H59.375V253.827H61.1348V255.985H62.9775ZM69.7012 259.156V260.684H64.3721V259.156H69.7012ZM71.6768 265V263.788L77.9854 254.558H71.6104V252.98H80.2266V254.192L73.918 263.423H80.2764V265H71.6768ZM86.0869 265.183C83.4307 265.183 81.8037 263.356 81.8037 260.551C81.8037 257.778 83.4639 255.869 85.9707 255.869C88.0293 255.869 89.9717 257.147 89.9717 260.401V261.032H83.5635C83.6133 262.742 84.6177 263.722 86.1035 263.722C87.1162 263.722 87.7637 263.29 88.0625 262.742H89.8555C89.457 264.203 88.0625 265.183 86.0869 265.183ZM83.5801 259.704H88.2285C88.2285 258.326 87.3486 257.33 85.9873 257.33C84.5679 257.33 83.6465 258.426 83.5801 259.704ZM91.7314 265V255.985H93.4414V257.413H93.541C93.873 256.45 94.7695 255.853 95.832 255.853C96.0479 255.853 96.3965 255.869 96.5791 255.886V257.579C96.4297 257.546 96.0146 257.479 95.6494 257.479C94.4209 257.479 93.5078 258.326 93.5078 259.505V265H91.7314ZM101.427 265.183C98.8701 265.183 97.21 263.323 97.21 260.534C97.21 257.729 98.8701 255.869 101.427 255.869C103.967 255.869 105.627 257.729 105.627 260.534C105.627 263.323 103.967 265.183 101.427 265.183ZM101.427 263.705C103.054 263.705 103.834 262.261 103.834 260.534C103.834 258.808 103.054 257.33 101.427 257.33C99.7666 257.33 98.9863 258.808 98.9863 260.534C98.9863 262.261 99.7666 263.705 101.427 263.705ZM118.759 252.715C118.742 256.666 116.833 259.521 111.969 261.132L111.338 259.887C113.762 259.098 115.289 258.027 116.169 256.716L111.537 257.098L111.288 255.819L116.75 255.587C116.933 255.081 117.049 254.549 117.099 253.993H112.035V252.715H118.759ZM123.391 251.553V262.56H121.813V257.496H118.709V256.201H121.813V251.553H123.391ZM123.806 264.817V266.096H113.861V261.48H115.455V264.817H123.806ZM138.083 251.536V259.189H136.506V255.371H133.368V254.093H136.506V251.536H138.083ZM138.083 259.887V263.589H129.932V264.967H138.598V266.229H128.388V262.394H136.522V261.132H128.354V259.887H138.083ZM130.911 253.312C130.911 255.205 132.272 256.965 134.514 257.679L133.684 258.907C132.048 258.343 130.812 257.222 130.164 255.803C129.508 257.396 128.23 258.65 126.479 259.256L125.632 257.994C127.956 257.247 129.334 255.404 129.351 253.312V252.018H130.911V253.312ZM148.376 252.615V253.877H142.814V255.521H147.961V256.766H142.814V258.459C145.794 258.476 147.529 258.426 149.538 258.077L149.704 259.355C147.546 259.704 145.703 259.754 142.449 259.754H141.221V252.615H148.376ZM152.709 251.553V260.7H151.132V251.553H152.709ZM147.729 260.899C150.85 260.899 152.792 261.912 152.792 263.639C152.792 265.382 150.85 266.395 147.729 266.378C144.574 266.395 142.665 265.382 142.665 263.639C142.665 261.912 144.574 260.899 147.729 260.899ZM147.729 262.145C145.504 262.145 144.242 262.692 144.242 263.639C144.242 264.618 145.504 265.166 147.729 265.166C149.903 265.166 151.215 264.618 151.215 263.639C151.215 262.692 149.903 262.145 147.729 262.145Z" fill="#393939"/>
<path d="M37.2285 310V297.98H44.7656V299.558H39.0547V303.193H44.3672V304.754H39.0547V308.423H44.832V310H37.2285ZM53.5479 301.151C53.4316 300.039 52.4521 299.392 51.0742 299.392C49.5967 299.392 48.667 300.139 48.667 301.168C48.667 302.313 49.9121 302.745 50.8584 302.978L52.0205 303.293C53.5645 303.658 55.4736 304.505 55.4902 306.68C55.4736 308.705 53.8633 310.199 51.0244 310.199C48.335 310.199 46.6416 308.854 46.5254 306.663H48.3516C48.4678 307.975 49.6133 308.605 51.0244 308.605C52.5518 308.605 53.6641 307.825 53.6807 306.646C53.6641 305.601 52.6846 305.169 51.4062 304.837L49.9785 304.455C48.0527 303.924 46.8408 302.944 46.8408 301.268C46.8408 299.192 48.7002 297.814 51.124 297.814C53.5645 297.814 55.2744 299.209 55.3242 301.151H53.5479ZM65.5674 301.782C65.1191 300.354 64.04 299.491 62.4463 299.491C60.4209 299.491 58.8604 301.085 58.8604 303.99C58.8604 306.896 60.4043 308.489 62.5293 308.489C64.4468 308.489 65.7168 307.277 65.75 305.352H62.7949V303.841H67.5264V305.202C67.5264 308.24 65.4346 310.166 62.5127 310.166C59.2588 310.166 57.0508 307.792 57.0508 303.99C57.0508 300.155 59.3252 297.814 62.4297 297.814C65.0361 297.814 67.0283 299.441 67.4434 301.782H65.5674ZM77.6865 310H73.7852V297.98H77.8027C81.3389 297.98 83.4639 300.238 83.4639 303.974C83.4639 307.726 81.3389 310 77.6865 310ZM75.6113 308.406H77.5869C80.3096 308.406 81.6543 306.812 81.6543 303.974C81.6543 301.151 80.3096 299.574 77.6865 299.574H75.6113V308.406ZM84.958 307.46C84.958 305.401 86.7012 304.87 88.3281 304.754C88.9258 304.712 90.2788 304.638 90.7021 304.621L90.6855 303.907C90.6855 302.895 90.0713 302.297 88.8594 302.297C87.8135 302.297 87.1826 302.778 87 303.442H85.2402C85.4062 301.948 86.8008 300.869 88.9258 300.869C90.3535 300.869 92.4619 301.4 92.4619 304.007V310H90.7354V308.771H90.6689C90.3203 309.452 89.4902 310.199 87.9961 310.199C86.2861 310.199 84.958 309.22 84.958 307.46ZM86.6846 307.477C86.6846 308.34 87.3984 308.788 88.3945 308.788C89.8389 308.788 90.7021 307.825 90.7021 306.746V305.916L88.5771 306.065C87.415 306.148 86.6846 306.58 86.6846 307.477ZM98.8203 300.985V302.396H96.9775V307.344C96.9775 308.356 97.4922 308.539 98.0566 308.556C98.3057 308.556 98.7041 308.522 98.9531 308.506V310.05C98.7041 310.083 98.3223 310.116 97.8408 310.116C96.4463 310.116 95.2012 309.353 95.2178 307.709V302.396H93.8896V300.985H95.2178V298.827H96.9775V300.985H98.8203ZM100.132 307.46C100.132 305.401 101.875 304.87 103.502 304.754C104.1 304.712 105.453 304.638 105.876 304.621L105.859 303.907C105.859 302.895 105.245 302.297 104.033 302.297C102.987 302.297 102.356 302.778 102.174 303.442H100.414C100.58 301.948 101.975 300.869 104.1 300.869C105.527 300.869 107.636 301.4 107.636 304.007V310H105.909V308.771H105.843C105.494 309.452 104.664 310.199 103.17 310.199C101.46 310.199 100.132 309.22 100.132 307.46ZM101.858 307.477C101.858 308.34 102.572 308.788 103.568 308.788C105.013 308.788 105.876 307.825 105.876 306.746V305.916L103.751 306.065C102.589 306.148 101.858 306.58 101.858 307.477ZM114.077 310V297.98H115.903V303.193H121.88V297.98H123.706V310H121.88V304.754H115.903V310H114.077ZM131.741 306.248V300.985H133.501V310H131.774V308.439H131.675C131.26 309.402 130.33 310.116 128.985 310.116C127.242 310.116 126.014 308.954 126.014 306.713V300.985H127.79V306.497C127.79 307.726 128.537 308.506 129.616 308.506C130.596 308.506 131.741 307.792 131.741 306.248ZM135.809 310V297.98H137.568V302.446H137.668C138 301.882 138.598 300.869 140.258 300.869C142.433 300.869 144.06 302.579 144.06 305.518C144.06 308.423 142.466 310.183 140.274 310.183C138.631 310.183 138 309.187 137.668 308.589H137.535V310H135.809ZM137.535 305.484C137.535 307.377 138.382 308.672 139.876 308.672C141.437 308.672 142.25 307.294 142.25 305.484C142.25 303.708 141.453 302.38 139.876 302.38C138.365 302.38 137.535 303.608 137.535 305.484ZM161.275 297.466V298.777C161.275 300.188 161.275 301.716 160.86 303.841H163.002V305.136H156.976V311.428H155.382V305.136H149.438V303.841H159.267C159.715 301.724 159.715 300.164 159.715 298.777V298.761H151.099V297.466H161.275ZM177.694 303.974V305.235H171.685V306.796H176.034V311.378H174.44V308.074H165.642V306.796H170.124V305.235H164.131V303.974H177.694ZM171.685 296.486V297.964H176.333V299.209H171.784C171.934 300.687 173.976 301.774 176.947 302.048L176.449 303.227C173.893 302.994 171.817 302.139 170.904 300.736C169.983 302.139 167.908 302.994 165.359 303.227L164.861 302.048C167.816 301.774 169.858 300.687 170.041 299.209H165.492V297.964H170.124V296.486H171.685ZM190.743 297.715C190.727 301.666 188.817 304.521 183.953 306.132L183.322 304.887C185.746 304.098 187.273 303.027 188.153 301.716L183.521 302.098L183.272 300.819L188.734 300.587C188.917 300.081 189.033 299.549 189.083 298.993H184.02V297.715H190.743ZM195.375 296.553V307.56H193.798V302.496H190.693V301.201H193.798V296.553H195.375ZM195.79 309.817V311.096H185.846V306.48H187.439V309.817H195.79ZM210.067 296.536V304.189H208.49V300.371H205.353V299.093H208.49V296.536H210.067ZM210.067 304.887V308.589H201.916V309.967H210.582V311.229H200.372V307.394H208.507V306.132H200.339V304.887H210.067ZM202.896 298.312C202.896 300.205 204.257 301.965 206.498 302.679L205.668 303.907C204.033 303.343 202.796 302.222 202.148 300.803C201.493 302.396 200.214 303.65 198.463 304.256L197.616 302.994C199.94 302.247 201.318 300.404 201.335 298.312V297.018H202.896V298.312ZM220.36 297.615V298.877H214.799V300.521H219.945V301.766H214.799V303.459C217.779 303.476 219.514 303.426 221.522 303.077L221.688 304.355C219.53 304.704 217.688 304.754 214.434 304.754H213.205V297.615H220.36ZM224.693 296.553V305.7H223.116V296.553H224.693ZM219.713 305.899C222.834 305.899 224.776 306.912 224.776 308.639C224.776 310.382 222.834 311.395 219.713 311.378C216.559 311.395 214.649 310.382 214.649 308.639C214.649 306.912 216.559 305.899 219.713 305.899ZM219.713 307.145C217.488 307.145 216.227 307.692 216.227 308.639C216.227 309.618 217.488 310.166 219.713 310.166C221.888 310.166 223.199 309.618 223.199 308.639C223.199 307.692 221.888 307.145 219.713 307.145Z" fill="#393939"/>
<path d="M45.3633 346.898C45.0645 345.354 43.7861 344.491 42.2588 344.491C40.1836 344.491 38.6396 346.085 38.6396 348.99C38.6396 351.912 40.2002 353.489 42.2588 353.489C43.7695 353.489 45.0479 352.643 45.3633 351.115L47.2061 351.132C46.8242 353.506 44.8818 355.166 42.2422 355.166C39.1045 355.166 36.8301 352.825 36.8301 348.99C36.8301 345.139 39.1211 342.814 42.2422 342.814C44.7822 342.814 46.791 344.309 47.2061 346.898H45.3633ZM53.083 355H49.1816V342.98H53.1992C56.7354 342.98 58.8604 345.238 58.8604 348.974C58.8604 352.726 56.7354 355 53.083 355ZM51.0078 353.406H52.9834C55.7061 353.406 57.0508 351.812 57.0508 348.974C57.0508 346.151 55.7061 344.574 53.083 344.574H51.0078V353.406ZM60.9189 355V342.98H65.2021C67.9912 342.98 69.3691 344.657 69.3691 346.882C69.3691 349.09 67.9912 350.783 65.2021 350.783H62.7451V355H60.9189ZM62.7451 349.223H65.0195C66.7959 349.223 67.5264 348.227 67.5264 346.882C67.5264 345.521 66.7959 344.541 65.0195 344.541H62.7451V349.223ZM87.5312 341.536V356.411H86.0205V348.725H84.0947V355.647H82.6504V341.835H84.0947V347.43H86.0205V341.536H87.5312ZM80.8408 343.329V344.607H76.8398V351.497C78.666 351.48 80.0439 351.397 81.6377 351.099L81.7539 352.394C79.9609 352.759 78.4336 352.825 76.2588 352.842H75.2627V343.329H80.8408ZM103.021 348.675V349.937H89.457V348.675H103.021ZM96.2305 351.065C99.4346 351.049 101.36 352.012 101.36 353.738C101.36 355.465 99.4346 356.411 96.2305 356.411C92.9932 356.411 91.0674 355.465 91.0674 353.738C91.0674 352.012 92.9932 351.049 96.2305 351.065ZM96.2305 352.261C93.9561 352.261 92.6611 352.775 92.6611 353.738C92.6611 354.668 93.9561 355.183 96.2305 355.183C98.4717 355.183 99.7832 354.668 99.7832 353.738C99.7832 352.775 98.4717 352.261 96.2305 352.261ZM96.2305 341.885C99.4844 341.901 101.543 342.98 101.543 344.757C101.543 346.533 99.4844 347.596 96.2305 347.596C92.9766 347.596 90.918 346.533 90.918 344.757C90.918 342.98 92.9766 341.901 96.2305 341.885ZM96.2305 343.146C93.9395 343.146 92.5283 343.728 92.5449 344.757C92.5283 345.786 93.9395 346.367 96.2305 346.367C98.5049 346.367 99.916 345.786 99.916 344.757C99.916 343.728 98.5049 343.146 96.2305 343.146ZM113.479 345.919C113.479 348.276 115.023 350.899 117.281 351.962L116.385 353.19C114.716 352.385 113.396 350.708 112.732 348.758C112.043 350.891 110.649 352.726 108.947 353.572L108.018 352.327C110.275 351.248 111.919 348.442 111.919 345.919V344.342H108.565V343.03H116.717V344.342H113.479V345.919ZM119.888 341.536V347.43H122.278V348.758H119.888V356.411H118.311V341.536H119.888ZM136.589 349.057V350.335H130.679V353.224H129.118V350.335H122.976V349.057H136.589ZM134.829 342.233V347.513H124.719V342.233H134.829ZM126.263 343.479V346.268H133.269V343.479H126.263ZM135.078 354.817V356.096H124.669V351.812H126.246V354.817H135.078ZM149.604 342.715C149.588 346.666 147.679 349.521 142.814 351.132L142.184 349.887C144.607 349.098 146.135 348.027 147.015 346.716L142.383 347.098L142.134 345.819L147.596 345.587C147.778 345.081 147.895 344.549 147.944 343.993H142.881V342.715H149.604ZM154.236 341.553V352.56H152.659V347.496H149.555V346.201H152.659V341.553H154.236ZM154.651 354.817V356.096H144.707V351.48H146.301V354.817H154.651ZM168.929 341.536V349.189H167.352V345.371H164.214V344.093H167.352V341.536H168.929ZM168.929 349.887V353.589H160.777V354.967H169.443V356.229H159.233V352.394H167.368V351.132H159.2V349.887H168.929ZM161.757 343.312C161.757 345.205 163.118 346.965 165.359 347.679L164.529 348.907C162.894 348.343 161.657 347.222 161.01 345.803C160.354 347.396 159.076 348.65 157.324 349.256L156.478 347.994C158.802 347.247 160.18 345.404 160.196 343.312V342.018H161.757V343.312ZM179.222 342.615V343.877H173.66V345.521H178.807V346.766H173.66V348.459C176.64 348.476 178.375 348.426 180.384 348.077L180.55 349.355C178.392 349.704 176.549 349.754 173.295 349.754H172.066V342.615H179.222ZM183.555 341.553V350.7H181.978V341.553H183.555ZM178.574 350.899C181.695 350.899 183.638 351.912 183.638 353.639C183.638 355.382 181.695 356.395 178.574 356.378C175.42 356.395 173.511 355.382 173.511 353.639C173.511 351.912 175.42 350.899 178.574 350.899ZM178.574 352.145C176.35 352.145 175.088 352.692 175.088 353.639C175.088 354.618 176.35 355.166 178.574 355.166C180.749 355.166 182.061 354.618 182.061 353.639C182.061 352.692 180.749 352.145 178.574 352.145Z" fill="#393939"/>
</svg>
