<svg width="60" height="60" viewBox="0 0 60 60" fill="none" xmlns="http://www.w3.org/2000/svg">
<path fill-rule="evenodd" clip-rule="evenodd" d="M27.5 10C17.835 10 10 17.835 10 27.5C10 37.165 17.835 45 27.5 45C37.165 45 45 37.165 45 27.5C45 17.835 37.165 10 27.5 10ZM5 27.5C5 15.0736 15.0736 5 27.5 5C39.9264 5 50 15.0736 50 27.5C50 32.8125 48.1588 37.695 45.0798 41.5442L54.2678 50.7322C55.2441 51.7085 55.2441 53.2915 54.2678 54.2678C53.2915 55.2441 51.7085 55.2441 50.7322 54.2678L41.5442 45.0798C37.695 48.1588 32.8125 50 27.5 50C15.0736 50 5 39.9264 5 27.5ZM19.4825 19.4817C20.4588 18.5054 22.0417 18.5054 23.018 19.4817L27.5002 23.964L31.9825 19.4817C32.9588 18.5054 34.5417 18.5054 35.518 19.4817C36.4943 20.4581 36.4943 22.041 35.518 23.0173L31.0358 27.4995L35.518 31.9817C36.4943 32.9581 36.4943 34.541 35.518 35.5173C34.5417 36.4936 32.9588 36.4936 31.9825 35.5173L27.5002 31.035L23.018 35.5173C22.0417 36.4936 20.4588 36.4936 19.4825 35.5173C18.5062 34.541 18.5062 32.9581 19.4825 31.9817L23.9647 27.4995L19.4825 23.0173C18.5062 22.041 18.5062 20.4581 19.4825 19.4817Z" fill="#CBCBCB"/>
</svg>
